<svg width="1300" height="1300" viewBox="0 0 1300 1300" fill="none" xmlns="http://www.w3.org/2000/svg">
<path d="M650 1300C290.71 1300 0 1008.86 0 650C0 290.71 291.141 0 650 0C1009.29 0 1300 291.141 1300 650C1300.43 1009.29 1009.29 1300 650 1300Z" fill="#6BD5E1"/>
<mask id="mask0_26_635" style="mask-type:alpha" maskUnits="userSpaceOnUse" x="0" y="0" width="1301" height="1300">
<path d="M650 1300C290.71 1300 0 1008.86 0 650C0 290.71 291.141 0 650 0C1009.29 0 1300 291.141 1300 650C1300.43 1009.29 1009.29 1300 650 1300Z" fill="#F7C0B5"/>
</mask>
<g mask="url(#mask0_26_635)">
<path d="M1012.27 1197.33C1009.23 1199.5 1005.77 1201.66 1002.73 1203.83C999.265 1206 996.232 1208.16 992.765 1209.9C989.732 1211.63 987.132 1213.36 984.099 1215.1C983.665 1215.53 983.232 1215.53 982.799 1215.96C972.832 1222.03 962.432 1227.66 952.032 1232.86C948.999 1234.6 945.532 1236.33 942.499 1237.63C942.499 1237.63 942.065 1238.06 941.632 1238.06C938.165 1239.8 934.699 1241.53 931.232 1243.26C924.299 1246.73 916.932 1249.76 909.999 1252.8C906.532 1254.53 902.632 1255.83 899.165 1257.13C895.699 1258.43 891.799 1260.16 888.332 1261.46C884.865 1262.76 880.965 1264.5 877.499 1265.8C877.499 1265.8 877.499 1265.8 877.065 1265.8C873.599 1267.1 869.699 1268.4 866.232 1269.7C858.432 1272.3 850.199 1274.9 842.399 1277.5C839.799 1278.36 836.765 1279.23 834.165 1280.1C825.932 1282.7 817.699 1284.86 809.465 1286.6C806.432 1287.46 803.399 1287.9 799.932 1288.76C792.132 1290.5 783.899 1292.23 776.099 1293.96C774.365 1294.4 773.065 1294.4 771.332 1294.83C768.732 1295.26 765.699 1295.7 763.099 1296.13C759.199 1296.56 755.732 1297.43 751.832 1297.86C750.099 1298.3 748.365 1298.3 746.632 1298.73C744.465 1299.16 741.865 1299.6 739.265 1299.6C732.332 1300.46 724.965 1301.33 718.032 1302.2C715.865 1302.63 713.265 1302.63 711.099 1303.06H710.665C707.632 1303.5 704.599 1303.5 701.565 1303.93C698.532 1304.36 695.499 1304.36 692.465 1304.36C690.732 1304.36 688.565 1304.8 686.832 1304.8C683.365 1304.8 680.332 1305.23 677.299 1305.23C672.965 1305.23 669.065 1305.66 664.732 1305.66C660.399 1305.66 656.499 1305.66 652.165 1305.66C649.132 1305.66 646.099 1305.66 643.065 1305.66C460.632 1303.06 295.965 1225.5 178.965 1102.43C178.965 1102.43 178.965 1102 178.532 1102C191.965 1075.56 241.799 1027.9 293.799 988.465C359.665 938.632 452.832 907.865 452.832 907.865C452.832 907.865 513.932 897.898 740.565 945.132C913.465 981.532 987.132 1129.3 1012.27 1197.33Z" fill="#C99589"/>
<path d="M788.666 1065.16C779.566 1109.8 720.632 1136.23 621.399 1096.36C499.632 1046.96 452.832 907.865 452.832 907.865C446.332 808.198 431.166 722.832 431.166 722.832C571.999 710.698 738.399 875.365 738.399 875.365L757.466 956.832C759.199 963.765 762.665 969.832 767.865 974.165C776.965 989.765 794.732 1036.56 788.666 1065.16Z" fill="#C99589"/>
<path d="M767.865 974.599C685.098 970.265 623.998 958.132 558.565 840.699C614.032 889.665 679.465 908.299 748.365 916.965L757.465 956.832C759.198 964.199 762.665 970.265 767.865 974.599Z" fill="#A56663"/>
<path d="M939.032 452.432C946.832 488.832 950.732 518.298 929.499 615.365C908.265 712.432 948.998 809.498 846.732 898.332C777.832 958.132 657.365 969.398 561.165 903.965C528.665 881.865 498.765 851.098 474.499 810.798C455.432 779.165 433.332 749.265 408.632 721.965C374.399 684.698 333.232 609.732 353.599 477.132C386.532 261.332 600.165 236.632 726.265 260.465C852.365 284.298 917.799 356.232 939.032 452.432Z" fill="#C99589"/>
<path d="M524.332 621.865C524.332 621.865 510.898 556.865 447.632 564.665C393.032 571.598 373.965 702.465 497.898 738.865" fill="#C99589"/>
<path d="M493.999 679.498C493.999 679.498 478.399 669.532 480.132 652.198C482.732 631.832 480.132 619.265 470.599 615.365C446.766 605.398 441.999 633.132 442.866 636.598" stroke="black" stroke-width="13" stroke-miterlimit="10" stroke-linecap="round" stroke-linejoin="round"/>
<path d="M824.631 721.532C824.631 721.532 841.098 722.398 856.698 703.765C865.365 693.365 872.731 680.365 867.965 676.465C863.198 672.132 784.765 684.265 779.565 694.665C774.365 705.065 804.698 721.532 824.631 721.532Z" fill="#A56663"/>
<path d="M837.632 575.932C837.632 575.932 838.499 617.098 864.932 663.032C876.632 683.398 858.865 716.765 820.299 722.398" stroke="black" stroke-width="13" stroke-miterlimit="10" stroke-linecap="round" stroke-linejoin="round"/>
<path d="M1166.53 1467.78L68.8993 1443.51C57.6327 1167.05 171.166 1021.01 215.799 992.414C299.433 938.247 408.199 922.214 459.333 917.447C472.333 949.514 521.733 1054.81 624.433 1096.41C723.666 1136.71 782.599 1109.85 791.699 1065.21C797.333 1036.61 779.566 989.814 770.466 974.647C765.266 970.314 761.799 963.814 760.066 957.314L756.599 943.014C763.966 941.281 771.333 939.547 778.699 936.947C960.266 957.314 1033.93 1006.71 1077.27 1091.21C1121.9 1178.31 1166.53 1467.78 1166.53 1467.78Z" fill="black"/>
<path d="M261.3 1466.05C261.3 1466.05 255.666 1325.65 250.033 1299.65" stroke="black" stroke-width="13" stroke-miterlimit="10" stroke-linecap="round" stroke-linejoin="round"/>
<path d="M1029.17 1466.05C1029.17 1466.05 1016.17 1378.95 1016.17 1363.78C1016.17 1349.05 1027.43 1300.51 1029.17 1258.05" stroke="black" stroke-width="13" stroke-miterlimit="10" stroke-linecap="round" stroke-linejoin="round"/>
<path d="M685.533 1189.15L669.933 1512.41C669.933 1512.41 807.299 1606.01 807.299 1603.41C807.299 1600.81 872.299 1487.28 872.299 1487.28L770.899 1176.15C770.899 1176.15 757.899 1189.58 685.533 1189.15Z" fill="#5889BA"/>
<path d="M716.732 1085.15C716.732 1085.15 657.366 1141.05 649.566 1155.78C641.766 1170.51 682.932 1193.91 682.932 1193.91C682.932 1193.91 749.232 1207.78 779.132 1180.91C779.132 1180.91 796.032 1162.28 792.566 1144.51C789.532 1127.18 716.732 1085.15 716.732 1085.15Z" fill="#446F93"/>
<path d="M446.766 866.314L452.399 865.014C468.433 916.581 570.266 1038.35 716.733 1085.15L625.733 1199.98C619.666 1207.78 608.833 1209.08 601.033 1203.45C563.766 1175.71 464.099 1094.25 423.366 990.247C414.699 968.581 412.966 944.747 417.3 922.214L422.933 891.447C425.099 878.881 434.633 868.914 446.766 866.314Z" fill="white"/>
<path d="M838.066 1160.55C835.466 1174.85 818.566 1180.48 807.732 1170.51L716.299 1085.15C716.299 1085.15 769.599 1034.45 756.599 942.581C774.366 938.681 791.266 933.047 806.866 925.681C807.299 926.547 813.366 938.247 820.299 957.747C835.032 998.047 853.666 1072.15 838.066 1160.55Z" fill="white"/>
<path d="M685.655 622.174C675.255 621.74 667.455 613.074 668.321 602.674L668.755 590.54C669.188 580.14 677.855 572.34 688.255 573.207C698.655 573.64 706.455 582.307 705.588 592.707L705.155 604.84C704.721 614.807 696.055 622.607 685.655 622.174Z" fill="black"/>
<path d="M868.087 628.673C858.554 628.24 851.187 620.007 851.621 610.473L852.054 599.207C852.487 589.673 860.721 582.307 870.254 582.74C879.787 583.173 887.154 591.407 886.721 600.94L886.287 612.207C885.854 621.74 877.621 629.107 868.087 628.673Z" fill="black"/>
<path d="M727.689 597.04C727.689 597.04 716.422 581.007 696.922 577.973C680.889 575.373 663.122 583.173 660.522 592.273" stroke="black" stroke-width="13" stroke-miterlimit="10" stroke-linecap="round" stroke-linejoin="round"/>
<path d="M855.521 600.94C855.521 600.94 855.521 587.073 875.454 587.073C891.921 587.073 898.854 602.24 898.854 602.24" stroke="black" stroke-width="13" stroke-miterlimit="10" stroke-linecap="round" stroke-linejoin="round"/>
<path d="M752.388 521.64C761.922 520.773 766.688 509.507 761.488 500.84C758.455 496.507 754.555 492.607 748.922 490.44C732.455 485.24 678.722 496.94 655.322 523.807C634.522 548.507 709.055 525.54 752.388 521.64Z" fill="black"/>
<path d="M866.788 528.573C859.422 526.407 857.255 515.573 863.322 508.64C866.355 505.173 870.688 502.14 875.455 501.273C890.188 498.673 923.988 512.107 933.522 537.673C942.188 559.773 901.888 537.24 866.788 528.573Z" fill="black"/>
<path d="M800.184 776.042C800.618 790.342 779.384 826.742 738.218 809.842C698.784 793.809 687.084 718.409 743.418 754.375C772.884 773.009 790.651 776.042 800.184 776.042Z" fill="white"/>
<path d="M808.417 774.309C808.417 774.309 790.217 784.275 743.417 754.375C687.517 718.409 698.784 793.809 738.217 809.842C779.384 826.742 800.617 789.909 800.184 776.042" stroke="#423232" stroke-width="13" stroke-miterlimit="10" stroke-linecap="round" stroke-linejoin="round"/>
<path d="M705.284 765.209C705.284 765.209 734.751 784.709 743.418 782.975C752.518 781.675 751.217 794.242 792.384 795.542" stroke="#423232" stroke-width="13" stroke-miterlimit="10" stroke-linecap="round" stroke-linejoin="round"/>
<path d="M653.719 247.358C398.052 236.525 322.652 457.525 344.319 584.058C365.552 706.258 443.119 762.592 443.119 762.592L495.552 744.392C495.552 744.392 475.185 737.458 455.685 723.158C388.519 672.025 409.319 579.292 455.252 573.225C501.185 567.592 520.685 600.525 528.052 618.725C552.319 538.558 518.085 518.625 552.319 461.858C659.352 346.158 735.619 419.392 786.319 439.325C832.685 457.525 862.585 434.992 888.152 411.158C903.319 396.858 924.985 400.758 924.985 400.758C924.985 400.758 895.519 257.758 653.719 247.358Z" fill="black"/>
<path d="M477.159 636.126C477.159 636.126 442.492 630.926 445.092 679.459C446.392 704.159 446.392 717.593 445.959 724.526C445.525 729.293 448.559 733.626 452.892 735.359C458.092 737.526 463.725 735.359 466.325 730.159C470.225 723.226 474.559 713.693 474.559 705.893C474.559 692.893 488.425 681.193 488.425 681.193C488.425 681.193 475.859 670.359 477.159 636.126Z" fill="white"/>
<path d="M582.025 1471.59C578.558 1467.69 442.492 1234.99 462.858 1147.46C476.725 1087.23 458.525 1017.89 442.492 956.793C435.992 931.659 429.925 908.259 426.458 887.459C420.392 851.493 424.725 817.259 439.458 785.626C455.492 750.093 452.892 719.326 452.892 718.893L461.558 718.026C461.558 719.326 464.158 751.826 447.258 789.093C433.392 818.993 429.492 851.926 435.125 886.159C438.592 906.526 444.658 929.926 451.158 955.059C467.625 1017.03 485.825 1087.66 471.525 1150.06C452.458 1233.26 588.092 1465.96 588.958 1466.83L582.025 1471.59Z" fill="white"/>
<path d="M446.392 704.593C446.826 714.126 446.392 720.626 446.392 724.526C445.959 729.292 448.992 733.626 453.326 735.359C458.526 737.526 464.159 735.359 466.759 730.159C470.659 723.226 474.992 713.692 474.992 705.892C474.992 705.459 474.992 704.592 474.992 704.159C465.892 707.626 455.492 710.226 446.392 704.593Z" fill="#E5E5E5"/>
<path d="M854.159 992.759C851.125 1012.69 850.692 1044.33 849.825 1081.16C848.525 1152.23 806.492 1429.13 786.125 1472.89L778.325 1469.43C797.825 1426.96 839.859 1151.36 841.159 1081.16C842.025 1044.33 842.459 1012.26 845.492 991.459C851.992 947.693 847.225 914.759 844.625 900.893C845.925 899.593 847.225 898.726 848.525 897.426C849.825 896.559 850.692 895.259 851.992 894.393C854.592 905.659 861.959 941.626 854.159 992.759Z" fill="white"/>
</g>
</svg>
