<svg width="486" height="391" viewBox="0 0 486 391" fill="none" xmlns="http://www.w3.org/2000/svg">
<path fill-rule="evenodd" clip-rule="evenodd" d="M341.867 313C344.123 321.195 342.684 330.756 337.518 337.497C334.181 341.851 326.245 345.744 321.791 341.211C319.799 339.184 318.957 332.245 318.106 329.007C317.323 326.03 316.014 320.516 316.596 318.017C317.442 314.377 324.206 315.218 327.368 314.899C332.22 314.41 337.037 313.667 341.867 313ZM405.696 317.163C406.758 319.671 408.453 321.332 409.175 324.116C409.647 325.933 409.932 327.755 410.119 329.62C410.345 331.879 410.5 331.793 409.047 332.849C406.83 334.462 401.157 334.338 398.459 334.805C394.937 335.415 391.432 336.133 387.909 336.741C388.763 333.224 388.315 329.437 389.198 325.849C390.056 322.363 391.55 318.922 393.658 316.058C395.226 313.927 397.508 311.374 400.328 311.361C403.965 311.344 404.539 314.431 405.696 317.163ZM182.098 241.789C182.638 249.331 181.636 257.362 177.637 263.843C175.944 266.588 173.478 268.064 171.476 270.428C169.159 273.163 167.903 276.543 164.243 277.714C161.882 278.469 159.111 277.948 156.656 278.288C152.58 278.853 151.377 278.24 147.941 275.977C145.472 274.351 142.627 274.656 140.024 272.874C136.903 270.736 134.186 267.689 131.229 265.268C147.82 256.55 164.924 249.127 182.098 241.789ZM226.695 246.262C233.044 249.466 236.401 254.933 238.216 261.989C220.702 266.284 203.656 271.537 186.453 277.461C191.257 264.354 196.651 252.351 209.792 246.255C212.414 245.038 215.108 243.102 218.092 243.148C221.064 243.193 224.089 244.947 226.695 246.262ZM386.439 265.693C395.465 270.789 390.877 287.075 387.722 294.306C383.708 291.139 379.5 288.054 375.58 284.97C371.296 281.598 367.444 277.259 363.535 273.419C365.605 272.261 366.95 270.42 368.873 269.097C370.778 267.788 372.667 267.694 374.801 267.183C378.886 266.203 382.192 263.295 386.439 265.693ZM316.002 228.995C316.723 229.986 317.584 230.921 318.263 231.94C319.911 234.414 321.337 236.929 323.249 239.224C326.635 243.291 331.565 248.651 337.113 249.022L337.275 250.758C335.638 250.714 334.671 249.202 333.251 249.049C332.137 248.928 330.577 249.842 329.21 249.712C324.985 249.313 320.834 249.086 316.544 249.207C308.077 249.448 299.755 250.896 291.433 252.05C293.023 245.971 295.99 239.745 300.719 235.679C302.353 234.273 303.919 232.34 305.765 231.219C306.875 230.545 308.052 230.494 309.195 229.967C310.518 229.356 312.217 227.322 313.583 227.127C315.012 226.922 315.018 227.639 316.002 228.995ZM383.848 229.549C388.289 233.373 391.702 238.226 395.354 242.819C398.66 246.977 403.139 252.907 404.315 258.26C398.452 261.218 388.398 258.51 384.617 253.038C379.953 246.289 382.239 236.896 383.848 229.549ZM282.183 207.742C281.308 214.084 278.467 221.151 274.201 225.886C272.363 227.928 270.751 230.59 268.662 232.376C265.934 234.708 263.737 233.513 260.571 233.875C257.17 234.263 254.966 236.644 251.341 235.997C248.759 235.537 246.381 234.003 243.955 233.538C241.304 233.029 238.991 233.331 236.355 231.923C233.096 230.183 230.496 226.758 227.961 224.157C229.296 223.024 231.989 222.943 233.696 222.33C235.951 221.521 238.202 220.719 240.469 219.943C245.151 218.343 249.82 216.707 254.512 215.133C263.447 212.135 272.882 209.287 282.183 207.742Z" fill="#EC6226"/>
<path fill-rule="evenodd" clip-rule="evenodd" d="M422.366 51.1619L422.074 53.2645C424.927 53.7919 425.011 51.9437 422.366 51.1619ZM409.952 47.5368C408.422 46.9646 405.92 47.8034 407.123 49.7629C408.821 52.5301 409.594 48.9177 409.952 47.5368ZM286.602 124.162C286.832 123.915 284.121 118.359 283.772 117.427C282.021 118.498 281.903 118.239 282.616 120.03C283.231 121.575 285.373 123.143 286.602 124.162ZM126.753 125.686C125.917 125.608 124.253 125.074 123.544 125.385C122.552 125.821 122.819 126.83 122.699 128.302C125.598 128.158 126.004 128.57 126.753 125.686ZM122.993 122.635C124.411 122.908 125.828 123.181 127.244 123.454C127.547 121.713 128.349 118.833 125.36 119.885C125.08 119.983 123.353 122.069 122.993 122.635ZM289.953 126.215C288.445 127.822 295.442 131.223 296.163 130.134C297.738 127.757 290.97 126.572 289.953 126.215ZM324.562 107.226C325.409 107.136 326.255 107.047 327.101 106.958C326.809 105.634 325.918 100.753 324.066 101.015C322.227 101.275 324.301 106.193 324.562 107.226ZM327.649 115.194C327.673 114.094 328.093 111.655 327.692 110.596C327.419 109.876 326.297 107.689 324.685 109.11C324.342 109.413 324.185 113.816 324.289 113.959C324.729 114.558 327.024 114.964 327.649 115.194ZM318.902 129.318C317.164 127.894 313.387 125.792 311.715 129.013C309.383 133.503 317.394 130.502 318.902 129.318ZM308.972 129.692C306.691 130.151 304.386 130.091 302.078 129.918C299.491 129.723 298.877 128.876 298.124 131.534C300.899 132.613 306.808 133.361 309.615 132.334C309.401 131.454 309.186 130.573 308.972 129.692ZM323.358 117.495C322.559 119.25 320.829 121.549 320.363 123.38C320.021 124.731 319.886 124.056 320.173 125.104C320.275 125.477 321.68 127.042 321.926 127.421C323.631 126.036 325.688 124.621 326.561 122.488C327.959 119.072 326.161 118.798 323.358 117.495ZM284.557 110.306C278.758 112.242 271.634 114.137 265.495 113.561C265.414 114.125 275.907 117.405 277.161 117.168C278.444 116.926 278.545 115.01 280.081 113.987C281.775 112.859 283.173 113.531 285.045 113.355C284.882 112.339 284.72 111.322 284.557 110.306ZM303.649 136.378C298.311 136.011 293.541 134.643 288.819 132.038C286.107 130.542 284.159 128.371 282.346 125.867C280.942 123.928 281.229 124.087 279.024 123.429C277.395 122.944 275.392 123.141 273.719 122.915C268.12 122.16 262.539 120.34 257.213 118.445C251.236 116.318 246.088 113.32 239.522 113.495C228.25 113.796 219.106 122.947 207.347 119.104C202.681 117.579 197.849 115.555 194.075 112.285C189.168 108.034 186.188 105.515 179.273 107.021C173.705 108.233 169.434 111.398 164.664 114.315C159.227 117.639 153.295 119.631 147.233 121.386C144.858 122.074 142.659 122.474 140.171 122.608C138.69 122.688 131.676 121.543 130.809 122.351C129.971 123.134 129.59 128.529 129.679 129.514C129.828 131.157 129.152 131.327 130.789 132.019C131.925 132.499 135.435 132.013 136.844 132.185C148.178 133.574 159.79 133.99 170.942 136.085C181.424 138.054 191.944 139.647 202.308 141.956C215.789 144.96 229.52 146.331 243.008 149.24C249.529 150.646 256.105 152.626 262.548 154.124C268.416 155.487 274.311 156.752 280.213 157.987C279.996 157.117 278.77 153.949 280.728 154.241C281.969 154.426 284.051 159.021 284.705 160.055C287.717 164.816 290.925 168.429 295.022 172.218C299.152 176.036 303.31 179.815 307.502 183.562C310.927 186.624 318.283 191.19 318.093 196.536C316.007 196.962 311.866 192.998 310.304 191.924C307.144 189.751 304.115 187.382 301.168 184.91C298.396 189.26 304.966 194.303 305.713 198.418C304.023 198.425 301.201 193.437 300.176 192.116C297.452 194.839 294.395 197.241 292.434 200.661C314.412 199.655 318.015 228.895 333.88 238.807C337.395 241.003 341.799 241.91 345.817 240.946C350.004 239.941 354.027 238.524 357.71 235.987C365.935 230.321 371.962 219.429 375.181 210.075C376.958 204.909 378.636 199.905 379.44 194.47C380.33 188.451 379.493 182.332 378.768 176.334C377.477 165.647 372.182 154.858 364.682 147.214C361.32 143.788 357.648 140.789 354.57 137.049C353.496 135.744 351.045 130.745 349.697 130.432C347.214 129.855 345.932 133.594 344.213 130.533C342.53 127.538 345.74 126.369 347.695 124.973C349.803 123.467 351.848 121.883 353.909 120.31C357.984 117.2 362.017 114.141 365.931 110.83C385.014 94.6852 401.883 76.6855 418.973 58.3394C415.773 57.5272 411.223 55.1924 407.97 55.8154C404.716 56.4387 401.825 58.9088 398.394 59.318C395.052 59.7168 391.807 58.9427 388.708 57.8157C385.054 56.487 382.581 54.7773 379.516 58.0927C374.592 63.4198 371.882 70.822 366.712 75.8625C361.488 80.9569 354.175 83.9319 347.372 85.4688C341.074 86.8913 332.339 86.2189 327.724 91.5376C326.685 92.7344 325.759 93.586 325.699 95.3744C325.595 98.5548 326.268 96.2757 327.22 98.2452C328.773 101.452 329.38 105.452 329.731 108.996C330.439 116.168 329.545 124.024 324.187 128.968C318.417 134.292 311.28 136.533 303.649 136.378ZM303.344 124.761C307.251 126.9 315.151 124.113 318.273 121.506C322.522 117.958 322.858 111.782 322.177 106.62C320.201 107.133 318.225 107.646 316.249 108.159C315.406 108.377 314.564 108.596 313.722 108.815C313.798 109.563 313.684 110.261 313.379 110.909C311.517 113.468 310.615 112.197 308.593 109.977C304.267 105.227 300.428 99.8714 298.663 93.5564C296.687 96.033 294.455 97.6302 291.287 97.2862C289.9 97.1357 284.578 95.3587 285.951 92.7536C286.388 91.925 290.716 92.9682 292.166 92.8899C295.193 92.7257 296.618 92.788 297.726 89.7337C298.649 87.1908 298.322 86.1457 295.476 85.6801C291.863 85.0877 291.759 87.3897 289.184 88.469C282.646 91.2102 287.111 80.2946 286.178 77.2198C289.391 76.1995 292.784 75.4911 295.626 73.5466C292.477 73.9339 289.483 75.0626 286.433 75.8835C286.693 71.8578 294.139 71.0011 296.923 69.7366C293.915 69.3074 291.055 71.4316 288.035 71.298C285.213 71.1731 281.257 69.9016 278.535 68.9332C275.735 67.9378 273.54 65.1638 270.839 67.5783C269.069 69.1612 266.692 73.474 266.125 75.769C267.887 75.4964 272.037 75.1291 272.527 77.2739C273.155 80.029 267.97 78.4254 266.373 78.8766C263.947 79.5619 264.691 80.318 263.811 82.8891C262.944 85.4206 261.388 87.4464 258.927 88.4964C261.663 90.0751 262.416 90.0468 261.865 92.9675C261.323 95.8393 261.681 99.0656 261.945 102.262C263.573 101.547 265.327 101.317 267.075 101.129C267.415 103.447 264.019 104.429 262.269 104.564C263.187 107.615 263.222 107.52 266.364 107.51C268.123 107.505 269.889 107.396 271.644 107.305C275.219 107.119 278.688 106.435 282.213 105.827C283.559 105.595 285.465 104.806 286.804 104.964C289.26 105.254 288.782 105.538 288.377 107.782C287.827 110.825 288.446 113.128 289.158 116.43C284.956 114.893 288.331 119.595 290.314 120.563C294.22 122.468 299 124.507 303.344 124.761ZM73.5157 308.638C76.4903 310.23 79.3005 311.73 82.0108 313.767C84.7071 315.793 87.5834 319.202 90.997 319.856C95.0797 320.639 96.063 318.367 97.0733 315.011C98.2087 311.236 99.2479 309.523 102.475 307.452C108.187 303.788 114.877 301.374 121.119 298.737C123.506 297.729 123.686 297.922 122.979 295.327C122.553 293.761 122.032 292.221 121.473 290.7C120.44 287.892 119.308 284.918 117.579 282.468C107.681 289.439 95.8768 297.518 83.6926 299.195C78.7452 299.875 73.8696 301.069 69.017 301.522C66.6146 301.746 64.6461 302.399 62.5299 303.507C60.16 304.747 56.2402 305.184 54.5336 307.224C60.9402 307.177 67.181 308.054 73.5157 308.638ZM316.251 317.774C314.267 318.65 316.947 323.678 317.519 325.771C318.379 328.916 319.191 332.074 320.059 335.217C321.894 341.871 323.624 348.551 325.366 355.231C336.846 348.549 349.129 344.724 361.879 341.527C374.581 338.341 387.555 336.074 400.534 333.894C407.626 332.702 415.065 331.074 421.632 327.975C425.715 326.047 424.917 324.269 424.85 320.002C424.787 315.996 424.2 311.913 423.628 307.947C422.547 300.453 421.404 292.283 418.583 285.242C415.833 278.381 412.155 271.785 408.618 265.323C404.42 257.655 400.845 249.398 395.369 242.591C389.661 235.497 383.536 229.062 377.345 222.458C373.64 229.997 368.352 239.139 361.517 243.884C353.997 249.104 342.168 251.788 333.617 247.419C325.004 243.019 319.913 233.993 314.551 226.128C309.382 218.548 304.891 210.348 295.731 207.643C286.044 204.783 275.843 208.677 266.398 211.116C255.628 213.897 245.091 217.888 234.624 221.657C216.451 228.203 198.423 234.193 180.709 241.993C158.908 251.594 137.077 261.119 116.005 272.358C120.564 279.35 124.098 285.722 126.673 293.764C128.678 300.026 129.903 306.657 130.372 313.428C132.825 310.81 134.698 307.697 137.174 305.048C139.974 302.05 143.262 299.743 146.556 297.393C152.519 293.139 158.632 289.288 165.209 286.053C180.14 278.709 196.005 273.651 211.79 268.417C215.366 267.231 219.575 265.854 223.282 265.197C226.432 264.639 229.23 263.66 232.436 262.847C239.706 261.004 247.058 259.313 254.391 257.979C268.482 255.414 282.86 252.681 297.146 250.909C306.832 249.707 316.942 247.757 326.894 248.798C328.576 248.974 330.223 249.33 331.917 249.274C332.389 249.258 332.951 248.509 333.439 248.561C334.38 248.66 335.386 249.788 336.346 250.124C338.512 250.884 341.657 250.412 342.837 252.325C343.782 253.857 343.435 255.07 342.028 256.08C343.722 258.386 347.035 260.512 349.306 262.326C351.345 263.956 353.269 265.711 355.327 267.283C357.537 268.972 360.215 270.566 362.529 272.289C365.549 274.537 368.129 277.416 370.98 279.938C376.099 284.464 381.236 288.406 386.63 292.649C389.534 294.934 392.303 297.085 395.459 298.955C397.184 299.977 401.095 302.777 399.054 305.32C397.017 307.857 392.932 304.105 390.707 303.835C388.146 303.524 384.692 305.24 382.138 305.642C375.379 306.707 368.598 307.644 361.836 308.795C354.118 310.109 346.481 311.883 338.726 312.974C334.722 313.538 330.718 314.082 326.691 314.47C324.615 314.671 321.679 314.37 319.728 315.081C318.252 314.62 317.609 315.07 317.801 316.431C317.439 317.066 316.923 317.514 316.251 317.774ZM102.379 128.319C106.601 128.29 110.79 128.551 115.018 128.512C116.646 128.497 118.047 128.849 118.705 127.644C119.51 126.17 119.139 122.322 119.277 120.635C114.34 121.059 109.81 121.191 104.881 120.728C99.6028 120.232 94.4797 118.617 89.181 118.267C90.3103 118.727 91.6025 121.227 90.8663 122.444C90.1329 123.655 88.9357 122.562 87.7749 122.013C83.2924 119.896 79.559 116.768 74.524 118.135C79.1598 120.7 83.5586 124.812 88.3997 126.344C92.965 127.788 97.57 128.28 102.379 128.319ZM416.018 44.939C418.073 45.3506 422.083 47.5509 423.927 46.4424C426.178 45.0885 425.705 39.5982 425.787 37.4612C426.039 30.8935 426.505 21.8562 421.689 16.5324C420.815 22.8433 422.704 29.4424 422.569 35.8235C422.467 40.6118 420.781 37.9969 420.184 34.6078C419.638 31.5073 419.698 28.4488 418.954 25.3641C417.588 27.862 417.27 31.252 416.306 34.0098C415.091 37.4876 413.372 40.6421 411.64 43.8659C413.104 44.2073 414.56 44.5677 416.018 44.939ZM122.43 131.238C122.405 133.077 122.161 134.805 124.307 134.974C127.148 135.197 126.216 132.092 126.036 130.133C125.014 130.281 122.673 129.976 122.43 131.238ZM414.83 47.9399C413.048 47.7037 412.778 47.2718 411.648 48.6075C410.93 49.4551 410.861 50.9927 411.484 51.5266C414.183 53.8428 414.609 49.2401 414.83 47.9399ZM416.496 52.2043C417.882 52.4966 419.239 53.2881 420.018 51.8136C421.161 49.6515 418.43 49.4706 416.934 48.8286C416.788 49.9535 416.642 51.079 416.496 52.2043ZM329.368 255.646C314.038 255.258 298.935 257.835 283.887 260.671C270.576 263.179 257.363 265.27 244.346 268.418C218.11 274.762 191.831 281.862 167.48 294.074C161.564 297.041 155.656 300.005 150.203 303.614C147.272 305.553 144.287 307.471 141.512 309.658C139.985 310.86 138.406 312.047 136.975 313.365C135.664 314.573 134.92 316.239 133.743 317.42C133.189 317.976 130.801 320.031 130.092 320.262C128.571 320.759 129.173 320.799 127.635 319.67C124.42 317.313 123.776 314.171 122.807 310.391C122.125 307.73 122.648 306.849 120.408 306.94C119.267 306.986 117.551 308.229 116.495 308.699C113.082 310.219 109.394 311.429 106.119 313.242C103.471 314.708 101.352 316.592 100.218 319.494C98.8788 322.921 98.1003 325.718 94.0369 326.103C86.7884 326.788 82.6236 319.037 76.4258 316.429C69.797 313.639 61.3369 314.188 54.3379 314.098C51.7888 314.065 49.013 314.329 46.5816 314.697C43.1459 315.218 39.0813 317.219 35.5155 315.947C31.4117 314.482 31.4735 308.229 34.1926 305.507C37.0357 302.663 41.2543 302.273 44.8908 301.328C52.2419 299.419 58.9283 295.069 66.4325 293.732C73.8968 292.403 81.8055 292.114 89.0822 289.691C92.7902 288.456 96.3932 287.493 99.9166 285.756C104.306 283.591 109.034 282.183 113.37 280.055C111.878 277.244 111.474 274.635 111.383 271.485C111.323 269.383 111.004 269.381 112.365 268.501C112.634 268.65 112.904 268.8 113.173 268.95C114.028 269.602 114.637 269.304 115.002 268.057C121.02 264.142 126.582 259.936 133.004 256.535C143.774 250.83 155.175 246.222 165.942 240.788C186.399 230.466 209.182 224.509 230.702 216.947C243.721 212.372 257.05 208.624 270.389 205.25C272.727 204.659 275.058 204.169 277.435 203.777C281.461 203.112 280.509 203.072 282.54 199.75C285.145 195.487 289.281 190.939 293.48 188.298C296.068 186.669 297.173 186.913 297.092 183.349C297.031 180.626 296.334 180.653 294.257 178.83C291.909 176.767 289.728 174.479 287.745 172.046C285.481 169.27 284.467 166.124 282.573 163.271C280.284 159.822 273.203 160.408 269.24 159.807C263.032 158.867 256.721 158.195 250.606 156.743C238.257 153.811 225.844 152.786 213.341 150.736C200.773 148.676 188.209 146.797 175.639 144.931C171.127 144.261 166.557 143.685 162.07 142.854C155.788 141.691 149.177 141.574 142.804 140.486C139.522 139.925 135.503 137.938 132.202 138.107C128.66 138.29 131.827 138.246 129.497 139.553C128.451 140.14 127.241 140.665 126.036 140.733C124.137 140.84 122.224 139.968 121.062 138.413C119.126 135.822 120.06 133.836 116.114 133.509C113.517 133.294 110.485 134.369 107.846 134.511C105.26 134.649 102.571 135.052 99.9836 134.97C94.8097 134.806 88.6439 134.319 83.9456 131.947C78.9666 129.433 74.5231 126.08 69.2855 123.943C66.657 122.87 62.9177 122.415 61.1556 119.821C59.6847 117.655 59.2297 113.251 61.4852 111.475C64.9449 108.752 71.6534 112.873 75.4816 111.844C77.4388 111.317 75.8229 110.683 77.3033 109.95C78.2206 109.495 78.0829 109.427 79.1711 109.262C81.8538 108.855 86.2484 110.871 88.9761 111.349C94.3585 112.293 99.6941 113.733 105.072 114.615C108.142 115.119 111.264 115.246 114.342 115.781C117.022 116.248 119.225 117.374 121.17 115.065C121.99 114.091 121.739 113.087 123.054 112.58C124.233 112.125 127.619 112.777 128.758 113.246C130.002 113.757 130.28 114.495 131.281 115.078C131.306 116.182 131.739 116.512 132.579 116.069C133.362 116.006 134.141 116.05 134.917 116.202C141.749 116.233 148.548 113.959 154.761 111.274C165.057 106.825 177.841 94.2309 189.651 101.082C192.557 102.767 194.464 105.578 197.293 107.404C199.806 109.025 203.02 110.477 205.846 111.392C211.492 113.219 217.106 112.991 222.699 111.098C229.52 108.791 235.013 106.374 242.364 106.639C249.175 106.885 254.61 111.928 261.281 112.129C259.651 109.321 259.349 106.096 259.177 102.911C259.065 100.828 260.149 95.3749 258.974 93.689C257.677 91.8265 247.547 91.0734 253.196 85.6064C255.046 83.8161 258.459 84.4646 260.371 82.488C262.301 80.4929 262.339 77.3732 263.369 74.8826C264.533 72.0648 266.454 69.7372 268.422 67.4885C269.256 66.536 269.819 65.932 270.294 64.7872C270.844 63.4593 270.478 62.337 271.358 60.9376C274.329 56.2141 279.513 57.8585 284.025 58.4878C286.761 58.8692 290.073 58.5056 292.728 59.306C294.861 59.9497 297.636 61.9005 299.371 63.3326C303.195 66.487 304.084 72.3075 304.378 77.0769C304.551 79.8689 304.044 82.5002 304.003 85.2825C303.959 88.1947 302.78 89.5139 300.66 91.4454C300.621 90.9081 300.376 90.5476 299.925 90.3639C299.002 91.5819 299.238 92.0574 300.635 91.7909C300.688 92.5191 300.931 93.1735 301.362 93.755C302.516 95.1306 303.511 96.6508 304.636 98.0536C307.096 101.12 309.966 103.782 311.859 107.263C313.844 104.785 316.371 104.379 318.738 102.67C321.042 101.008 319.321 100.513 320.176 98.1108C320.519 97.1482 321.418 96.9784 321.735 96.2331C322.034 95.5261 321.669 95.0804 321.854 94.304C322.776 90.4489 322.393 88.0604 325.264 85.0385C329.103 80.9965 333.834 79.9279 339.112 79.1605C344.377 78.3943 348.117 78.1215 352.798 75.8899C354.422 75.116 355.958 74.7626 357.501 73.884C359.586 72.6962 361.527 71.4432 363.339 69.84C367.55 66.1142 370.169 60.9231 373.574 56.4462C376.3 52.8634 379.587 48.2764 384.507 49.2225C390.103 50.2989 395.034 53.947 400.99 51.9799C403.2 51.2507 402.961 51.6988 403.838 49.4009C404.129 48.6355 404.318 47.8643 404.601 47.112C405.663 44.2959 407.697 43.9433 408.959 41.6504C411.937 36.2377 413.568 29.4876 415.264 23.5471C416.051 20.7885 417.578 18.3958 418.508 15.7506C418.896 14.6445 418.72 9.71815 419.928 9.28607C423.823 7.89368 426.975 18.8358 427.686 20.9053C429.542 26.3135 431.177 32.4168 430.444 38.2072C430.143 40.5931 429.903 43.3573 429.307 45.6935C428.766 47.8146 428.65 47.675 428.959 49.5975C429.273 51.5525 429.647 52.7247 429.378 54.7742C429.302 55.3465 429.059 57.461 428.829 57.7538C427.762 59.116 427.617 58.1638 426.289 58.7082C424.141 59.5886 423.61 60.3453 422.089 62.4104C418.286 67.5722 414.316 72.7499 410.207 77.6504C402.997 86.2474 395.416 93.9542 387.323 101.6C379.381 109.104 371.077 116.717 362.061 122.847C359.871 124.337 356.269 125.644 354.506 127.599C352.574 129.74 355.502 130.668 357.482 132.187C361.416 135.203 365.461 138.291 368.892 141.808C376.205 149.305 380.382 160.351 382.944 170.382C384.277 175.602 384.551 181.586 385.056 186.992C385.648 193.334 384.915 200.273 383.05 206.306C382.343 208.594 381.511 210.835 380.825 213.132C380.508 214.191 378.957 217.476 379.378 218.697C380.074 220.714 384.644 223.164 386.24 224.566C388.422 226.484 390.654 228.465 392.482 230.751C400.259 240.471 406.619 250.672 412.332 261.855C418.142 273.229 423.626 283.492 425.918 296.275C426.517 299.616 427.05 302.96 427.68 306.295C428.357 309.884 427.703 315.061 429.057 318.339C429.894 320.368 431.462 321.006 430.823 323.811C430.271 326.235 427.466 330.54 425.941 332.449C422.469 336.797 416.131 338.509 411.127 340.085C405.053 341.997 398.557 342.879 392.303 343.967C369.774 347.886 347.695 352.166 326.842 362.21C327.544 363.307 328.11 365.677 326.686 366.433C324.795 367.436 323.866 364.456 323.216 363.139C321.322 359.307 320.758 354.351 319.626 350.151C316.867 339.906 314.771 329.555 312.524 319.199C304.855 320.93 297.091 321.85 289.462 323.456C285.943 324.197 282.377 324.266 278.834 324.733C275.029 325.235 274.786 326.519 275.086 330.414C275.748 339.003 278.944 347.242 280.768 355.594C281.653 359.644 283.201 363.501 284.043 367.533C284.317 368.845 284.02 372.379 284.883 373.358C284.846 373.316 287.788 373.943 288.253 374.068C288.003 368.995 288.556 364.017 288.32 358.954C288.077 353.722 287.41 346.862 288.5 341.794C289.492 337.188 293.274 332.316 297.45 330.372C301.086 328.678 308.305 325.961 312.232 328.472C312.922 328.914 314.585 330.283 314.197 331.344C313.673 332.776 307.86 333.875 306.68 334.319C302.059 336.055 297.173 339.099 294.584 343.511C292.255 347.482 293.186 353.619 293.264 358.171C293.308 360.759 293.62 363.162 293.328 365.741C292.915 369.389 292.699 370.711 294.09 373.861C295.72 377.551 294.713 382.944 289.831 381.617C286.911 380.823 286.794 379.114 285.035 377.255C284.37 376.551 283.622 376.863 282.971 375.975C282.097 374.786 282.102 372.153 281.66 370.651C280.246 365.844 278.243 361.171 276.747 356.336C274.736 349.833 273.089 343.251 271.647 336.594C270.527 331.419 269.312 326.178 271.641 321.141C273.709 316.67 278.773 317.003 282.972 316.842C292.696 316.47 302.746 314.209 312.668 313.663C313.381 313.623 314.871 313.885 315.511 313.566C316.395 313.126 316.729 311.845 317.874 311.026C320.06 309.46 324.385 308.916 326.912 308.435C332.643 307.344 338.344 306.458 344.041 305.319C350.591 304.011 357.079 302.447 363.636 301.257C369.914 300.118 376.254 299.903 382.606 299.129C372.528 292.157 363.654 283.657 353.958 276.104C349.461 272.601 345.295 269.155 341.26 265.105C339.579 263.419 337.917 261.779 336.391 259.941C335.583 258.967 334.868 257.105 333.84 256.425C332.547 255.57 331.073 255.798 329.368 255.646Z" fill="black"/>
<path fill-rule="evenodd" clip-rule="evenodd" d="M292.379 59.3564C289.046 59.045 285.226 59.0222 281.99 58.2266C284.848 58.4916 289.763 58.3192 292.379 59.3564Z" fill="#EC6226"/>
<path fill-rule="evenodd" clip-rule="evenodd" d="M109.164 115.231C107.745 115.097 106.327 114.962 104.909 114.828C106.357 114.602 107.772 114.773 109.164 115.231Z" fill="#EC6226"/>
<path fill-rule="evenodd" clip-rule="evenodd" d="M196.507 148.342C197.455 148.429 198.402 148.517 199.344 148.605C198.394 148.518 197.45 148.43 196.507 148.342Z" fill="#EC6226"/>
<path fill-rule="evenodd" clip-rule="evenodd" d="M293.077 358.505C293.118 357.316 293.16 356.126 293.201 354.939C293.16 356.129 293.118 357.317 293.077 358.505Z" fill="#EC6226"/>
<path fill-rule="evenodd" clip-rule="evenodd" d="M287.874 367.727C287.857 368.578 287.841 369.429 287.824 370.277C287.841 369.425 287.857 368.576 287.874 367.727Z" fill="#EC6226"/>
<path fill-rule="evenodd" clip-rule="evenodd" d="M309.065 327.928C308.112 327.929 307.159 327.93 306.207 327.932C307.16 327.93 308.113 327.929 309.065 327.928Z" fill="#EC6226"/>
<path fill-rule="evenodd" clip-rule="evenodd" d="M173.467 144.604C174.097 144.69 174.727 144.776 175.352 144.862C174.72 144.776 174.093 144.69 173.467 144.604Z" fill="#EC6226"/>
<path fill-rule="evenodd" clip-rule="evenodd" d="M280.098 58.0568C279.31 57.9864 278.521 57.9155 277.734 57.8451C278.522 57.9155 279.31 57.9864 280.098 58.0568Z" fill="#EC6226"/>
<path fill-rule="evenodd" clip-rule="evenodd" d="M288.013 354.452C287.99 355.303 287.967 356.154 287.944 357.001C287.967 356.15 287.99 355.301 288.013 354.452Z" fill="#EC6226"/>
<path fill-rule="evenodd" clip-rule="evenodd" d="M169.683 144.276C170.314 144.345 170.946 144.413 171.572 144.48C170.938 144.412 170.31 144.344 169.683 144.276Z" fill="#EC6226"/>
<path fill-rule="evenodd" clip-rule="evenodd" d="M179.569 145.723C180.202 145.786 180.834 145.848 181.46 145.911C180.825 145.848 180.197 145.785 179.569 145.723Z" fill="#EC6226"/>
<path fill-rule="evenodd" clip-rule="evenodd" d="M282.817 316.793C282.022 316.798 281.228 316.803 280.434 316.808C281.229 316.803 282.023 316.798 282.817 316.793Z" fill="#EC6226"/>
<path fill-rule="evenodd" clip-rule="evenodd" d="M255.277 157.948C255.751 157.99 256.226 158.031 256.696 158.074C256.219 158.032 255.748 157.99 255.277 157.948Z" fill="#EC6226"/>
<path fill-rule="evenodd" clip-rule="evenodd" d="M288.324 363.17C288.269 363.847 288.214 364.524 288.16 365.199C288.215 364.521 288.27 363.845 288.324 363.17Z" fill="#EC6226"/>
<path fill-rule="evenodd" clip-rule="evenodd" d="M329.236 255.857C329.711 255.899 330.185 255.941 330.655 255.985C330.179 255.943 329.707 255.9 329.236 255.857Z" fill="#EC6226"/>
<path fill-rule="evenodd" clip-rule="evenodd" d="M182.87 99.4103C182.075 99.417 181.281 99.4237 180.486 99.4304C181.281 99.4237 182.075 99.417 182.87 99.4103Z" fill="#EC6226"/>
<path fill-rule="evenodd" clip-rule="evenodd" d="M89.9462 111.354C89.3212 111.228 88.6967 111.103 88.0713 110.977C88.6962 111.103 89.3212 111.228 89.9462 111.354Z" fill="#EC6226"/>
<path fill-rule="evenodd" clip-rule="evenodd" d="M100.735 113.431L98.8672 112.971L100.735 113.431Z" fill="#EC6226"/>
<path fill-rule="evenodd" clip-rule="evenodd" d="M75.5967 112.057C74.972 111.928 74.3473 111.799 73.7227 111.669C74.3469 111.799 74.972 111.928 75.5967 112.057Z" fill="#EC6226"/>
<path fill-rule="evenodd" clip-rule="evenodd" d="M322.577 255.719C322.893 255.763 323.208 255.807 323.519 255.85C323.203 255.806 322.89 255.762 322.577 255.719Z" fill="#EC6226"/>
<path fill-rule="evenodd" clip-rule="evenodd" d="M257.223 93.1885C257.537 93.2405 257.852 93.2925 258.163 93.3447C257.847 93.292 257.535 93.2402 257.223 93.1885Z" fill="#EC6226"/>
<path fill-rule="evenodd" clip-rule="evenodd" d="M363.639 301.349C363 301.39 362.362 301.43 361.724 301.471C362.363 301.43 363.001 301.39 363.639 301.349Z" fill="#EC6226"/>
<path fill-rule="evenodd" clip-rule="evenodd" d="M384.574 199.466C384.615 198.958 384.656 198.45 384.697 197.943C384.657 198.452 384.615 198.959 384.574 199.466Z" fill="#EC6226"/>
<path fill-rule="evenodd" clip-rule="evenodd" d="M271.783 160.005C272.1 160.034 272.416 160.063 272.729 160.092C272.411 160.062 272.097 160.034 271.783 160.005Z" fill="#EC6226"/>
<path fill-rule="evenodd" clip-rule="evenodd" d="M142.814 140.756C143.131 140.778 143.448 140.801 143.761 140.824C143.443 140.802 143.128 140.779 142.814 140.756Z" fill="#EC6226"/>
<path fill-rule="evenodd" clip-rule="evenodd" d="M93.4155 127.237C94.88 127.376 96.2444 127.43 97.6485 127.91C96.2728 127.797 94.6449 127.968 93.4155 127.237Z" fill="#EC6226"/>
<path fill-rule="evenodd" clip-rule="evenodd" d="M108.599 127.989C109.622 127.671 111.331 127.805 112.387 128.286C111.124 128.186 109.861 128.088 108.599 127.989Z" fill="#EC6226"/>
<path fill-rule="evenodd" clip-rule="evenodd" d="M303.226 124.977C304.329 125.077 305.433 125.177 306.536 125.276C305.402 125.566 304.291 125.574 303.226 124.977Z" fill="#EC6226"/>
<path fill-rule="evenodd" clip-rule="evenodd" d="M414.813 47.7573C414.026 47.6503 413.238 47.5431 412.457 47.4355C413.246 47.5428 414.029 47.65 414.813 47.7573Z" fill="#EC6226"/>
<path fill-rule="evenodd" clip-rule="evenodd" d="M70.5398 308.411C71.5329 307.913 72.4577 308.259 73.377 308.672C72.4306 308.585 71.4857 308.498 70.5398 308.411Z" fill="#EC6226"/>
<path fill-rule="evenodd" clip-rule="evenodd" d="M129.717 128.018C129.702 128.869 129.687 129.72 129.672 130.569C129.687 129.717 129.702 128.867 129.717 128.018Z" fill="#EC6226"/>
<path fill-rule="evenodd" clip-rule="evenodd" d="M100.011 128.157C100.805 128.154 101.599 128.151 102.393 128.149C101.599 128.151 100.805 128.154 100.011 128.157Z" fill="#EC6226"/>
<path fill-rule="evenodd" clip-rule="evenodd" d="M303.723 136.403C303.089 136.359 302.456 136.316 301.828 136.272C302.464 136.315 303.094 136.359 303.723 136.403Z" fill="#EC6226"/>
<path fill-rule="evenodd" clip-rule="evenodd" d="M128.215 298.06C128.214 298.912 128.212 299.763 128.211 300.615C128.212 299.762 128.214 298.911 128.215 298.06Z" fill="#EC6226"/>
<path fill-rule="evenodd" clip-rule="evenodd" d="M265.073 154.652C265.854 154.807 266.637 154.962 267.417 155.117C266.635 154.962 265.854 154.807 265.073 154.652Z" fill="#EC6226"/>
<path fill-rule="evenodd" clip-rule="evenodd" d="M103.48 120.666C102.846 120.629 102.212 120.592 101.583 120.557C102.219 120.595 102.85 120.63 103.48 120.666Z" fill="#EC6226"/>
<path fill-rule="evenodd" clip-rule="evenodd" d="M259.919 153.596C260.701 153.749 261.482 153.903 262.263 154.056C261.464 154.017 260.616 154.287 259.919 153.596Z" fill="#EC6226"/>
<path fill-rule="evenodd" clip-rule="evenodd" d="M111.043 121.385C110.567 121.358 110.092 121.33 109.621 121.302C110.098 121.33 110.571 121.357 111.043 121.385Z" fill="#EC6226"/>
<path fill-rule="evenodd" clip-rule="evenodd" d="M247.314 150.427C248.095 150.584 248.877 150.743 249.658 150.9C248.876 150.742 248.095 150.584 247.314 150.427Z" fill="#EC6226"/>
<path fill-rule="evenodd" clip-rule="evenodd" d="M416.347 52.3203C417.128 52.4805 417.909 52.6407 418.69 52.8013C417.908 52.6406 417.128 52.4805 416.347 52.3203Z" fill="#EC6226"/>
<path fill-rule="evenodd" clip-rule="evenodd" d="M218.671 145.295C219.458 145.378 220.246 145.462 221.033 145.545C220.245 145.462 219.458 145.378 218.671 145.295Z" fill="#EC6226"/>
<path fill-rule="evenodd" clip-rule="evenodd" d="M415.979 45.1377C416.761 45.2933 417.542 45.4484 418.324 45.604C417.542 45.4484 416.761 45.2933 415.979 45.1377Z" fill="#EC6226"/>
<path fill-rule="evenodd" clip-rule="evenodd" d="M129.735 131.71C130.525 131.767 131.315 131.824 132.103 131.881C131.284 132.328 130.497 132.224 129.735 131.71Z" fill="#EC6226"/>
<path fill-rule="evenodd" clip-rule="evenodd" d="M286.135 80.348C286.194 79.6715 286.253 78.9944 286.312 78.3204C286.253 78.9985 286.194 79.6735 286.135 80.348Z" fill="#EC6226"/>
<path fill-rule="evenodd" clip-rule="evenodd" d="M285.929 82.8842C285.988 82.2073 286.046 81.5303 286.105 80.8564C286.046 81.5343 285.988 82.2093 285.929 82.8842Z" fill="#EC6226"/>
<path fill-rule="evenodd" clip-rule="evenodd" d="M288.475 206.527C287.999 206.494 287.524 206.461 287.054 206.428C287.531 206.461 288.003 206.494 288.475 206.527Z" fill="#EC6226"/>
<path fill-rule="evenodd" clip-rule="evenodd" d="M329.796 112.043C329.723 112.718 329.65 113.394 329.578 114.067C329.651 113.39 329.724 112.717 329.796 112.043Z" fill="#EC6226"/>
<path fill-rule="evenodd" clip-rule="evenodd" d="M339.964 241.144C340.759 241.134 341.554 241.125 342.348 241.115C341.553 241.125 340.758 241.134 339.964 241.144Z" fill="#EC6226"/>
<path fill-rule="evenodd" clip-rule="evenodd" d="M286.763 104.848C287.428 104.48 288.06 104.518 288.655 105.023C288.023 104.965 287.393 104.906 286.763 104.848Z" fill="#EC6226"/>
<path fill-rule="evenodd" clip-rule="evenodd" d="M292.123 97.5552C291.808 97.5022 291.493 97.4491 291.183 97.3965C291.499 97.4502 291.811 97.5024 292.123 97.5552Z" fill="#EC6226"/>
<path fill-rule="evenodd" clip-rule="evenodd" d="M295.168 200.411C295.792 200.548 296.416 200.685 297.04 200.821C296.416 200.685 295.792 200.548 295.168 200.411Z" fill="#EC6226"/>
<path fill-rule="evenodd" clip-rule="evenodd" d="M273.619 254.325C274.256 254.309 274.892 254.294 275.529 254.278C274.892 254.293 274.256 254.309 273.619 254.325Z" fill="#EC6226"/>
<path fill-rule="evenodd" clip-rule="evenodd" d="M260.049 257.145C260.686 257.126 261.322 257.107 261.96 257.088C261.323 257.107 260.686 257.126 260.049 257.145Z" fill="#EC6226"/>
<path fill-rule="evenodd" clip-rule="evenodd" d="M254.25 258.156C254.888 258.122 255.526 258.089 256.164 258.054L254.25 258.156Z" fill="#EC6226"/>
<path fill-rule="evenodd" clip-rule="evenodd" d="M248.453 259.139L250.366 259.051C249.728 259.08 249.09 259.109 248.453 259.139Z" fill="#EC6226"/>
<path fill-rule="evenodd" clip-rule="evenodd" d="M370.74 307.757C370.263 307.733 369.786 307.709 369.316 307.685C369.795 307.71 370.267 307.734 370.74 307.757Z" fill="#EC6226"/>
<path fill-rule="evenodd" clip-rule="evenodd" d="M273.501 156.473C274.125 156.608 274.749 156.744 275.373 156.879C274.749 156.744 274.125 156.608 273.501 156.473Z" fill="#EC6226"/>
<path fill-rule="evenodd" clip-rule="evenodd" d="M391.048 58.7479C390.731 58.7289 390.413 58.7098 390.1 58.6911C390.418 58.7108 390.733 58.7291 391.048 58.7479Z" fill="#EC6226"/>
<path fill-rule="evenodd" clip-rule="evenodd" d="M108.677 121.202C108.361 121.163 108.045 121.124 107.733 121.086C108.051 121.124 108.364 121.163 108.677 121.202Z" fill="#EC6226"/>
<path fill-rule="evenodd" clip-rule="evenodd" d="M242.195 148.932C242.819 149.069 243.444 149.207 244.067 149.345C243.443 149.207 242.819 149.069 242.195 148.932Z" fill="#EC6226"/>
<path fill-rule="evenodd" clip-rule="evenodd" d="M170.824 136.121C171.449 136.245 172.075 136.37 172.699 136.494C172.075 136.37 171.449 136.245 170.824 136.121Z" fill="#EC6226"/>
<path fill-rule="evenodd" clip-rule="evenodd" d="M122.315 131.412C122.313 131.924 122.312 132.435 122.309 132.945C122.311 132.433 122.313 131.922 122.315 131.412Z" fill="#EC6226"/>
<path fill-rule="evenodd" clip-rule="evenodd" d="M115.695 128.611C116.332 128.59 116.969 128.57 117.606 128.55C116.969 128.571 116.332 128.59 115.695 128.611Z" fill="#EC6226"/>
<path fill-rule="evenodd" clip-rule="evenodd" d="M133.061 131.822C133.717 131.535 134.36 131.412 134.953 131.984C134.322 131.93 133.691 131.876 133.061 131.822Z" fill="#EC6226"/>
<path fill-rule="evenodd" clip-rule="evenodd" d="M351.657 172.932C353.942 173.31 355.024 173.863 355.642 176.24C355.928 177.342 355.101 179.415 355.38 180.11C355.75 181.033 356.304 180.545 356.95 181.42C359.312 184.62 360.545 190.991 355.934 193.199C354.206 190.943 354.807 188.324 355.991 185.993C353.502 185.376 352.211 185.283 351.441 182.61C351.349 182.289 351.163 178.362 351.086 178.277C350.572 177.7 348.487 178.283 347.773 177.853C346.195 176.902 345.45 173.72 345.847 171.93C346.394 169.461 348.827 168.2 350.675 166.815C344.743 166.972 339.289 171.777 333.356 172.099C331.707 172.188 331.292 172.975 330.719 170.979C330.211 169.206 330.761 169.436 331.88 168.555C334.098 166.809 337.501 165.658 340.121 164.662C343.925 163.215 350.486 159.827 354.606 161.721C356.662 162.667 358.121 165.566 357.49 167.831C356.875 170.041 353.326 171.603 351.657 172.932Z" fill="black"/>
<path fill-rule="evenodd" clip-rule="evenodd" d="M354.031 140.03C355.729 142.868 356.474 145.866 354.638 148.863C357.249 148.633 360.156 148.122 361.857 150.657C364.317 154.321 361.775 155.521 358.908 155.73C356.606 155.897 352.038 157.492 350.02 155.827C346.704 153.091 350.004 147.91 351.282 145.29C349.175 145.361 343.857 146.029 344.775 141.798C345.436 138.749 351.962 139.521 354.031 140.03Z" fill="black"/>
<path fill-rule="evenodd" clip-rule="evenodd" d="M326.851 158.417L324.796 161.013C325.837 161.262 327.25 160.315 328.167 159.917C327.729 159.417 327.29 158.917 326.851 158.417ZM323.729 154.92C321.287 154.553 318.65 157.976 318.088 154.15C317.759 151.909 319.716 149.038 322.017 148.693C326.03 148.091 331.641 157.853 332.644 161.218C333.569 164.319 332.583 163.891 330.46 165.039C328.622 166.034 326.233 168.342 323.847 167.643C321.665 167.003 320.992 163.255 321.002 161.302C321.017 158.291 322.705 157.322 323.729 154.92Z" fill="black"/>
<path fill-rule="evenodd" clip-rule="evenodd" d="M336.161 154.909C336.53 156.119 339.196 161.778 336.831 161.764C335.516 161.757 333.036 153.59 332.682 152.657C332.196 151.375 331.172 149.607 331.352 148.155C331.664 145.643 331.533 146.436 333.12 146.709C336.213 147.243 338.769 152.292 341.692 153.572C340.481 148.751 338.665 143.467 339.908 138.545C343.39 141.996 343.54 149.106 344.494 153.828C344.784 155.266 345.475 158.21 344.009 159.184C342.35 160.287 337.282 155.674 336.161 154.909Z" fill="black"/>
<path fill-rule="evenodd" clip-rule="evenodd" d="M313.945 165.304C315.099 162.706 316.339 159.666 312.078 160.628C312.7 162.187 313.323 163.745 313.945 165.304ZM312.564 154.436C316.22 154.125 318.3 159.27 318.678 162.261C318.98 164.646 316.666 172.972 313.546 170.459C312.383 169.522 311.729 166.963 310.969 165.669C309.927 163.897 308.468 162.207 307.677 160.302C306.002 156.266 309.005 154.447 312.564 154.436Z" fill="black"/>
<path fill-rule="evenodd" clip-rule="evenodd" d="M312.726 154.519C311.931 154.53 311.136 154.542 310.341 154.553C311.137 154.542 311.932 154.53 312.726 154.519Z" fill="#EC6226"/>
<path fill-rule="evenodd" clip-rule="evenodd" d="M354.382 140.301C353.759 140.148 353.137 139.995 352.514 139.842C353.136 139.995 353.759 140.148 354.382 140.301Z" fill="#EC6226"/>
<path fill-rule="evenodd" clip-rule="evenodd" d="M359.392 148.969C358.762 148.907 358.132 148.847 357.501 148.785C358.168 148.416 358.798 148.484 359.392 148.969Z" fill="#EC6226"/>
<path fill-rule="evenodd" clip-rule="evenodd" d="M271.919 82.5914C274.998 84.9626 268.182 93.8431 265.481 86.6431C264.728 84.6336 264.963 82.138 266.951 82.6591C267.846 82.8936 267.969 84.3414 269.212 84.3955C270.444 84.4497 271.049 83.3137 271.919 82.5914Z" fill="black"/>
<path fill-rule="evenodd" clip-rule="evenodd" d="M289.808 90.9141C289.857 89.138 293.036 85.6113 294.848 87.9425C296.667 90.2812 291.184 90.8589 289.808 90.9141Z" fill="black"/>
</svg>
