<svg width="302" height="219" viewBox="0 0 302 219" fill="none" xmlns="http://www.w3.org/2000/svg">
<path fill-rule="evenodd" clip-rule="evenodd" d="M76.1451 131.148C77.6827 130.166 80.8271 126.652 82.4745 125.84C86.1376 124.034 102.457 120.485 102.987 120.275C103.796 119.956 109.045 118.84 112.104 118.135C119.287 116.479 145.026 105.783 151.811 103.041C152.677 105.176 159.827 114.6 158.6 115.566C154.562 118.746 147.323 122.705 142.646 124.984C138.862 126.827 134.855 128.352 130.809 129.597C126.216 131.011 123.064 132.527 118.486 133.974C113.982 135.397 119.364 139.848 121.677 140.767C124.271 141.799 128.29 142.322 130.94 143.217C126.274 150.011 122.354 158.258 121.57 166.397C121.381 168.356 119.787 170.152 117.195 169.565C115.857 169.263 103.512 167.722 101.499 167.293C88.0613 164.422 63.9378 149.389 70.15 133.974C71.5731 134.589 74.8223 131.992 76.1451 131.148Z" fill="#EC6226"/>
<path fill-rule="evenodd" clip-rule="evenodd" d="M83.6619 49.3609C84.6658 49.2815 87.2614 47.403 85.8995 46.4531C84.5253 45.4944 83.5379 48.7068 83.6619 49.3609ZM31.3682 56.5653C31.6306 56.522 31.516 55.1767 31.1029 55.0049C29.7989 54.4627 29.6887 56.5008 29.6569 57.0463C29.6173 57.7346 29.5253 59.6735 31.1107 59.142C32.0109 58.8402 31.4524 57.0814 31.3682 56.5653ZM108.352 62.8496C108.316 64.0504 110.906 66.3593 111.872 64.9742C112.683 63.8107 108.418 60.4595 108.352 62.8496ZM16.7967 35.7695C17.547 37.5623 21.2575 35.1189 21.3954 33.8038C21.6785 31.1106 16.7579 33.9776 16.7967 35.7695ZM47.7539 43.4993C49.4819 43.3662 51.7557 41.3083 53.422 40.5395C54.5497 40.0192 57.6179 39.3991 57.9516 38.218C58.2421 37.1916 53.036 39.3885 52.5916 39.5836C50.5492 40.48 48.7078 41.5017 47.7539 43.4993ZM177.478 29.308C178.855 28.3104 180.53 27.6669 182.295 27.709C183.177 27.7301 185.016 28.2468 185.085 26.8185C185.198 24.4958 177.411 27.3284 176.195 27.784C176.623 28.2923 177.051 28.8002 177.478 29.308ZM91.5555 119.819C90.545 118.248 88.7276 117.339 87.361 115.998C87.8618 118.2 86.7326 120.158 85.9568 122.168C87.8232 121.385 89.6891 120.602 91.5555 119.819ZM267.027 153.327C267.584 151.582 268.141 149.845 268.793 148.126C269.521 146.202 269.883 146.035 268.139 144.689C266.693 147.251 265.245 149.814 263.798 152.376C264.828 152.787 265.903 153.186 267.027 153.327ZM117.244 26.9525C115.327 24.9293 106.347 24.8022 107.458 29.2677C107.846 30.827 110.054 29.1705 111.437 28.8071C112.81 28.4462 116.697 28.3982 117.244 26.9525ZM116.914 55.5973C116.682 55.0809 116.218 53.2173 115.53 53.0704C114.859 52.9273 112.214 54.8821 111.716 55.1804C109.235 56.6695 106.817 58.2715 104.4 59.8501C105.325 59.8501 106.166 59.5413 107.086 59.5347C108.179 59.5259 108.963 59.9466 110.029 59.7065C112.32 59.1914 114.978 56.8139 116.914 55.5973ZM119.396 9.43109C119.612 8.50565 130.839 11.2837 132.189 11.7924C132.924 12.0691 136.717 13.916 135.902 11.1324C135.438 9.54688 131.054 8.33826 129.65 7.90373C126.079 6.79962 122.314 6.01426 118.512 6.1964C117.773 6.23152 112.182 6.53379 114.517 8.63922C115.321 9.36431 118.205 9.13577 119.396 9.43109ZM121.854 136.579C123.946 137.543 126.082 138.281 128.268 139.035C129.24 139.37 130.753 140.247 131.824 140.026C132.702 139.846 132.983 138.594 133.444 137.756C135.13 134.69 137.143 132.216 139.638 129.689C138.48 128.897 132.597 132.389 131.141 132.905C129.684 133.421 128.309 133.941 126.883 134.557C125.54 135.138 122.89 135.657 121.854 136.579ZM158.893 110.445C161.941 109.153 164.831 106.861 167.331 104.809C170.202 102.453 172.776 99.9843 174.877 96.9357C173.612 96.9963 170.82 100.807 170.789 96.6583C170.773 94.5418 173.869 92.4573 174.83 90.4942C172.44 89.2301 170.249 96.784 167.506 94.9531C164.864 93.1886 169.033 87.1225 169.836 85.2085C168.286 84.2427 159.456 95.0545 158.178 96.438C157.378 97.304 155.488 98.4568 155.037 99.4669C154.768 100.068 154.73 101.976 154.86 102.53C155.13 103.686 156.5 105.071 157.11 106.148C157.882 107.512 158.554 108.929 158.893 110.445ZM284.926 149.425C282.29 145.939 285.013 144.419 287.157 141.526C288.871 139.212 290.449 136.66 291.535 134.076C294.254 127.612 296.706 121.602 298.049 114.764C296.201 115.554 295.046 118.561 294.122 120.145C292.879 122.275 291.786 124.51 290.405 126.574C287.82 130.435 285.283 134.554 281.995 137.901C280.505 139.418 279.244 141.124 277.526 142.491C276.74 143.115 275.238 143.628 274.66 144.409C274.114 145.146 274.724 145.617 274.517 146.497C274.304 147.401 273.329 148.364 272.91 149.233C272.36 150.376 271.849 151.521 271.235 152.638C270.566 153.856 270.383 154.493 270.202 155.684C270.005 156.986 270.61 157.121 269.396 158.321C271.596 159.229 273.795 160.137 275.994 161.046C276.736 161.352 277.478 161.659 278.22 161.965C278.377 161.691 278.533 161.416 278.69 161.141C279.294 160.591 279.85 159.235 280.196 158.509C281.641 155.478 283.272 152.435 284.926 149.425ZM72.5596 134.792C66.3152 150.192 88.2585 163.159 101.766 166.027C103.637 166.424 105.463 166.944 107.325 167.371C109.356 167.836 111.159 167.743 113.186 167.938C114.799 168.092 115.567 169.26 117.087 169.581C119.626 170.118 119.471 168.331 119.653 166.416C120.423 158.294 124.848 150.458 129.531 143.682C127.392 142.965 125.272 142.183 123.161 141.398C121.354 140.726 118.587 138.837 116.644 138.737C115.207 138.664 113.018 139.813 111.623 140.317C109.299 141.157 106.968 141.873 104.546 142.446C100.311 143.447 95.5981 144.813 91.2157 144.916C89.9523 144.946 86.4864 145.497 85.5772 144.766C83.8435 143.371 86.2499 142.209 87.7012 141.711C96.3511 138.744 105.535 137.482 114.21 134.44C118.673 132.874 123.091 131.126 127.583 129.584C131.455 128.254 135.511 127.077 139.252 125.442C144.194 123.283 149.157 120.593 153.436 117.425C154.292 116.791 156.087 115.849 156.674 114.93C157.191 114.121 157.126 114.928 157.019 113.947C156.942 113.243 156.022 112.288 155.643 111.622C154.233 109.141 152.959 106.592 151.887 103.966C145.061 106.709 138.568 110.442 131.842 113.373C125.073 116.323 117.437 118.404 110.196 120.064C107.113 120.77 103.57 120.994 100.744 122.39C99.5424 122.983 98.3551 123.669 97.0687 124.012C96.6888 124.694 96.3149 124.828 95.9464 124.413C95.7154 124.171 95.4171 124.068 95.051 124.105C94.2641 124.23 93.4617 124.579 92.7257 124.846C89.0014 126.198 85.4351 127.892 81.8991 129.62C80.2232 130.439 78.5042 131.245 76.9003 132.18C76.0406 132.682 75.2703 133.187 74.5668 133.875C73.7236 134.701 73.9243 135.379 72.5596 134.792ZM213.074 43.3543C214.652 43.3782 216.09 42.5776 217.735 42.6221C220.323 42.6922 222.372 44.5717 223.873 46.384C226.845 49.9703 226.088 54.2965 224.594 58.3098C223.88 60.2277 222.9 62.0688 221.674 63.7478C220.589 65.234 218.65 66.6399 217.893 68.2949C216.644 71.0242 219.164 69.8637 220.706 69.2806C222.645 68.5471 224.463 67.6354 226.109 66.4073C233.446 60.9339 239.027 53.3258 240.897 44.5883C241.809 40.3254 241.738 35.3418 238.568 31.8624C235.67 28.6809 230.667 27.6414 226.39 28.2312C221.767 28.8694 217.578 30.7036 213.813 33.0648C212.72 33.7509 211.719 34.4997 210.692 35.267C209.345 36.2736 208.538 36.3001 208.875 37.8779C209.126 39.0508 209.807 40.266 210.247 41.3915C211.069 43.4996 210.769 44.0451 213.074 43.3543ZM218.105 79.6966L217.785 80.2076C219.986 80.3059 222.037 78.487 223.912 77.5989C226.349 76.4449 228.512 74.8706 230.647 73.2808C234.412 70.4767 238.226 67.3169 241.029 63.6359C247.311 55.384 253.018 44.9225 251.304 34.4604C249.456 23.1847 238.928 18.8444 227.71 20.3371C222.654 21.0097 218.141 23.124 213.616 25.2705C211.336 26.3527 209.411 27.7564 207.321 29.1153C206.237 29.8208 205.248 29.9123 205.177 31.1459C205.124 32.0754 206.839 34.1774 207.303 35.0197C212.984 29.5912 219.106 25.1003 227.685 24.8228C237.891 24.4927 243.926 33.5578 243.881 42.2385C243.837 50.7517 239.918 58.9407 233.669 65.0589C230.829 67.8394 228.122 70.0705 224.635 72.0998C222.897 73.1115 221.615 74.0197 219.671 74.6914C218.297 75.1669 218.44 74.9163 218.089 76.1084C217.791 77.12 218.095 78.6461 218.105 79.6966ZM162.647 195.358C162.515 196.893 162.182 198.403 161.811 199.899C161.678 200.437 160.929 202.133 161.061 202.737C161.278 203.736 160.989 203.094 161.923 203.615C162.897 204.159 164.031 204.126 165.098 204.291C165.756 204.393 168.169 205.456 168.574 205.289C169.284 204.995 169.261 203.96 170.04 203.549C171.1 202.99 172.663 203.469 173.663 203.907C176.337 205.075 178.175 207.494 180.762 208.818C185.358 211.169 190.811 212.471 195.938 213.008C198.715 213.299 201.558 213.809 204.301 213.2C206.462 212.719 209.271 212.764 210.445 210.591C200.005 207.902 184.07 204.611 179.942 193.387C177.698 195.293 173.948 194.267 171.236 194.003C168.253 193.714 165.586 193.781 162.858 192.507C162.658 193.509 162.598 194.34 162.647 195.358ZM70.2096 125.846C75.1243 126.125 79.7836 123.946 82.808 120.27C83.5525 119.365 84.3158 118.44 84.7629 117.368C84.8599 117.096 84.9564 116.824 85.0534 116.552C85.5226 115.801 85.3171 115.447 84.4373 115.49C83.9418 114.853 82.6852 114.639 83.0426 113.485C83.3119 112.614 84.3052 112.6 85.1688 112.326C84.7389 111.649 84.4816 111.309 83.866 110.707C82.2663 112.056 79.3633 114.701 78.2393 111.604C77.6994 110.118 78.6498 108.697 78.4143 107.263C78.3173 106.67 77.5147 105.154 77.0496 104.8C74.572 102.91 71.0035 103.692 68.3748 104.805C66.5631 105.571 66.1733 105.931 65.8778 107.688C65.5776 109.475 65.2991 111.261 64.9661 113.043C66.0533 112.512 66.2514 111.366 66.9603 110.54C67.2258 110.993 67.4914 111.447 67.7578 111.9C68.1319 111.703 68.4815 111.713 68.8057 111.931C69.3303 112.687 69.0001 113.807 68.839 114.599C70.5883 114.446 71.3277 116.274 69.564 117.015C67.7371 117.782 66.9132 115.691 66.8513 114.336C66.1696 115.099 65.4695 114.691 64.9943 115.083C64.5196 115.475 64.3325 116.291 64.1635 117.185C63.886 118.655 63.1757 120.775 63.8328 122.249C64.8087 124.439 67.9199 125.578 70.2096 125.846ZM212.623 55.5233C210.997 57.6418 208.224 60.415 207.644 62.9745C209.435 61.9898 213.222 57.252 214.198 61.0261C214.758 63.1924 211.885 65.7737 211.18 67.8712C214.004 67.0007 216.016 64.2741 217.779 62.1697C220.026 59.4867 222.321 55.9498 222.895 52.5382C223.359 49.7774 221.314 47.2042 218.276 46.9337C216.724 46.7952 215.104 47.026 213.605 47.3632C212.921 47.5166 211.901 47.7072 211.291 48.0504C210.525 48.4812 210.42 49.4902 209.699 48.6509C208.74 50.3437 207.781 52.0365 206.823 53.7288C207.777 53.4045 209.724 52.0279 210.766 52.1702C212.289 52.3784 212.602 54.4502 212.623 55.5233ZM60.3612 14.0816C56.0978 14.1993 51.6417 15.0497 47.6057 16.3139C46.6034 16.6281 42.3752 17.7456 43.2656 19.3655C43.8541 20.4363 47.0274 18.9232 47.9867 18.6709C52.0979 17.5893 56.3313 16.8761 60.5425 16.2252C61.5623 16.0676 65.0213 16.0832 65.1997 14.8311C65.4184 13.3034 61.5651 14.0798 60.3612 14.0816ZM176.39 188.332C174.079 188.597 171.86 188.498 169.547 188.233C167.601 188.009 165.618 187.263 163.682 187.263C163.682 189.205 163.541 189.217 165.728 189.633C167.255 189.923 168.804 190.086 170.347 190.288C173.063 190.644 176.079 191.643 178.829 191.13C178.762 190.793 178.552 188.517 178.267 188.291C178.106 188.165 176.623 188.334 176.39 188.332ZM139.043 44.6337C139.689 45.0194 141.174 46.5572 141.944 46.5843C141.669 44.8039 139.548 41.704 137.113 42.8043C136.517 43.0741 135.263 44.4174 135.83 45.0101C136.133 45.3269 138.251 44.6358 139.043 44.6337ZM116.513 60.4722C116.537 60.162 116.56 59.8518 116.585 59.5416C115.691 60.0338 114.585 60.2666 113.95 61.0595C114.712 61.3759 115.474 61.6928 116.237 62.0096C116.329 61.4971 116.421 60.9847 116.513 60.4722ZM186.884 107.741C191.106 109.126 194.976 110.976 198.084 114.115C200.77 116.83 202.032 121.614 202.688 125.173C204.31 133.98 201.179 142.142 199.115 150.567C198.068 154.841 196.504 158.953 195.041 163.117C193.763 166.752 192.667 170.559 190.902 174.016C189.406 176.947 187.495 179.837 186.179 182.878C185.471 184.514 184.323 190.13 181.635 188.366C180.902 190.163 180.724 190.01 181.508 191.257C182.075 192.161 184 193.415 184.909 194.15C187.33 196.111 190.396 197.727 193.236 199.1C198.437 201.615 204.013 203.496 209.369 205.789C211.738 206.803 214.306 208.001 213.774 210.903C213.329 213.336 211.826 215.181 209.482 216.263C207.282 217.28 204.135 218.065 201.714 218.383C200.277 218.573 199.948 218.013 198.777 217.819C197.474 217.604 195.953 218.02 194.608 218.009C188.573 217.96 183.289 216.538 178.411 213.259C176.669 212.087 174.103 208.909 171.822 208.909C170.656 208.909 170.902 209.573 169.876 209.962C168.611 210.443 166.43 209.536 165.186 209.323C162.535 208.87 159.839 208.41 158.074 206.271C156.166 203.959 156.844 201.096 157.664 198.53C158.589 195.636 160.144 192.701 160.805 189.763C160.966 189.049 161.114 187.717 160.951 186.99C160.697 185.862 159.481 185.189 159.445 183.968C159.433 183.597 160.001 183.107 160.1 182.723C160.319 181.881 160.285 181.007 160.375 180.15C160.536 178.621 160.909 177.156 161.165 175.646C161.749 172.207 162.9 169.14 164.014 165.827C165.095 162.612 166.124 160.219 168.214 157.435C169.296 155.994 172.915 150.857 171.148 149.378C168.729 153.829 165.9 157.301 162.198 160.844C159.366 163.555 156.598 167.198 153.054 169.129C149.158 171.251 144.396 172.5 140.094 173.622C138.047 174.155 136.349 175.339 134.143 175.558C131.752 175.795 129.318 175.515 126.976 175.016C126.317 174.875 124.416 173.927 123.82 173.987C122.941 174.077 121.677 175.544 120.713 175.813C118.366 176.469 116.763 175.216 114.982 174.058C113.05 172.801 112.466 172.489 110.236 172.338C107.505 172.153 104.849 171.251 102.163 170.699C97.4405 169.728 93.4265 167.761 89.1338 165.702C84.2132 163.342 80.0043 160.088 76.2953 156.243C70.8431 150.591 63.2501 134.929 72.1564 129.445C66.9133 128.778 62.1111 126.634 61.472 121.074C61.1381 118.166 61.7666 114.943 62.5475 112.139C62.9038 110.859 63.3288 109.587 63.7359 108.32C64.0424 107.892 64.2048 107.424 64.2217 106.915C64.4097 106.256 64.1384 105.927 63.4079 105.93C62.0269 104.417 60.9885 103.082 60.7095 100.935C60.6217 100.254 60.543 99.2104 61.0599 98.6317C61.2991 98.3991 61.5878 98.2436 61.9249 98.1656C62.7341 98.2089 62.9628 97.8354 62.6111 97.0455C63.004 95.9262 62.4212 95.0541 63.9019 94.5867C64.3768 94.6814 64.8493 94.7851 65.32 94.8969C65.9206 95.1534 66.3113 94.9675 66.4929 94.3409C67.8881 93.8294 67.2445 93.0733 69.1401 93.7313C70.2873 94.1297 71.3788 94.8155 72.2141 95.6508C73.2621 95.0207 70.8788 91.1256 70.7992 89.883C70.6108 86.9539 71.9035 84.532 73.5855 82.1259C76.8548 77.4504 81.4182 73.4299 85.918 69.8124C94.5376 62.8846 103.593 56.2893 113.325 50.7699C109.31 48.1578 104.62 47.4497 99.842 48.6637C95.4378 49.783 91.868 51.8155 87.8137 53.5936C84.0581 55.2402 80.0715 55.9166 78.8739 51.4231C77.5323 46.39 81.813 44.5215 85.6527 42.2645C84.6939 41.5946 81.5376 42.0734 80.3437 42.1527C77.6846 42.3288 75.1417 42.8912 72.5576 43.3885C71.3184 43.6267 70.1798 43.5731 68.9521 43.8066C67.1269 44.1535 65.2212 44.5425 63.3745 45.0368C58.9813 46.2139 54.6205 48.0002 50.8242 50.4071C47.543 52.4863 45.2668 55.4223 42.6232 58.1265C39.6083 61.2098 36.7195 64.2434 32.2499 65.3721C30.1571 65.9007 27.702 66.3804 26.2181 64.6293C24.8375 63.0011 24.7607 61.0389 24.806 59.0479C24.9057 54.6504 27.1737 49.8982 29.8117 46.3047C32.6753 42.4041 36.5105 40.1703 40.1343 37.0304C34.8966 37.3813 29.8346 39.9677 25.0178 41.7552C24.0041 42.1317 22.9808 42.5545 21.9616 42.9027C20.8747 43.2741 20.1547 43.0467 19.1136 43.2167C16.7372 43.6052 14.6961 44.5433 12.3847 43.0475C8.01155 40.2182 12.3929 34.4624 15.4038 32.6963C19.5976 30.2367 23.8641 28.1656 28.4842 26.4111C25.983 23.8697 28.1192 20.2428 30.4247 18.4398C33.3418 16.1584 37.0562 14.8511 40.5712 13.6298C43.351 12.6639 46.081 11.7365 48.9688 11.1552C52.0044 10.5444 55.5541 9.61102 58.6345 9.70055C61.5233 9.7845 64.0849 9.30774 67.0107 9.2315C69.4452 9.1681 71.8852 9.22293 74.3192 9.16382C80.8684 9.00533 87.4418 9.41912 93.8423 9.86032C88.7711 -4.03122 122.175 0.258752 129.301 2.07326C135.778 3.72243 143.198 5.63546 148.638 9.54848C150.943 11.2058 153.131 13.0901 155.176 15.0237C158.193 17.8766 159.863 21.6127 161.459 25.3004C165.506 23.443 169.376 21.419 173.805 20.4981C178.018 19.6221 182.335 18.4347 186.573 17.7729C189.796 17.2696 194.473 16.9282 197.186 19.0597C200.131 21.3749 201.666 24.9778 203.424 28.0633C211.868 20.5576 221.287 15.082 233.326 15.4461C245.107 15.8025 252.855 25.3325 254.283 35.6597C255.856 47.0389 250.445 58.9296 243.11 67.7417C239.821 71.6937 236.417 75.5104 231.99 78.4587C229.795 79.9203 227.479 81.5215 225.072 82.6626C223.872 83.2315 222.559 83.7455 221.299 84.1833C220.73 84.3808 220.145 84.5791 219.553 84.7132C217.865 85.097 218.193 84.5846 217.565 85.9695C217.055 87.0939 217.118 89.0284 216.899 90.2625C216.65 91.6731 216.502 93.1029 216.138 94.4942C215.507 96.9058 214.85 99.2584 214.06 101.613C212.564 106.07 210.552 110.563 208.086 114.628C210.177 115.479 213.105 115.565 215.34 115.822C217.758 116.101 220.18 116.687 222.692 117.345C227.726 118.664 232.224 119.777 237.01 121.75C241.979 123.8 246.408 126.859 251.193 129.295C255.593 131.534 260.041 134.339 264.127 137.027C265.099 137.667 265.701 138.223 266.475 139.033C267.267 139.86 267.519 140.022 268.465 140.739C268.892 141.062 270.133 142.693 270.62 142.753C271.492 142.861 271.358 142.251 272.043 141.399C273.473 139.622 275.467 138.245 276.887 136.422C278.071 134.902 279.306 133.363 280.572 132.056C283.636 128.893 286.174 125.388 288.352 121.596C289.485 119.622 290.679 117.743 291.91 115.88C293.135 114.025 295.314 111.577 297.755 111.687C297.558 110.743 296.935 110.585 298.011 110.008C298.704 109.636 300.053 110.235 300.587 110.613C302.001 111.614 302.063 113.555 301.974 115.013C301.744 118.771 300.905 122.481 299.735 126.034C298.329 130.306 296.566 134.074 294.643 138.151C293.111 141.399 291.21 145.693 287.399 147.175C289.958 150.598 288.729 153.388 287.018 157.022C285.768 159.679 284.117 162.424 281.602 164.182C278.767 166.164 275.692 164.483 272.727 163.173C270.936 162.381 265.459 160.514 266.573 158.079C265.205 157.908 264.345 156.977 263.099 156.69C261.781 156.387 262.007 156.889 260.613 157.077C259.543 157.221 257.944 156.324 256.937 156.003C255.255 155.467 253.578 154.917 251.898 154.375C247.17 152.85 242.522 151.348 237.748 150.126C228.865 147.852 219.872 146.562 211.02 144.532C209.246 144.125 207.482 143.732 205.634 143.406C205.253 143.339 203.273 143.236 203.033 142.853C202.611 142.183 203.906 138.431 204.017 137.667C204.747 132.648 204.509 127.154 203.481 122.192C203.054 120.13 201.147 117.459 201.164 115.446C201.175 114.095 202.453 112.62 203.203 111.397C205.059 108.372 207.003 105.104 208.377 101.956C210.482 97.1402 211.771 91.7043 212.7 86.5465C213.184 83.8577 213.748 80.9428 213.879 78.2227C213.98 76.1495 213.798 73.9747 214.12 71.8514C212.895 71.9602 211.161 72.5547 210.058 71.9182C208.665 71.115 208.29 68.8221 208.468 67.4526C203.698 68.2326 203.856 63.9945 204.151 60.6803C195.529 60.6803 206.571 48.6783 207.951 46.1008C208.585 44.916 208.566 46.2469 208.286 44.4144C208.163 43.6087 207.575 42.716 207.243 41.9754C206.518 40.3583 205.735 38.7661 204.898 37.1975C203.13 33.8842 201.127 30.6826 198.942 27.5959C196.974 28.8801 195.201 30.4004 193.558 32.0315C194.612 29.4494 197.832 26.2505 196.455 23.3184C195.178 20.6005 190.914 20.7889 188.396 21.2858C181.554 22.6373 174.991 24.6056 168.473 26.8844C170.492 27.969 173.583 27.1312 175.589 26.3019C178.074 25.2747 180.745 24.1969 183.423 23.6529C185.758 23.1783 188.825 23.3402 188.15 26.2864C187.603 28.6737 185.11 30.9726 183.466 32.7576C179.842 36.6903 175.298 39.7346 170.835 42.7764C166.037 46.0464 161.414 49.5992 156.556 52.7742C147.773 58.5141 138.331 63.5027 129.257 68.8606C124.541 71.6445 119.199 73.8848 114.085 75.9482C108.46 78.218 103.067 80.6481 97.231 82.4407C93.99 83.4367 90.7779 84.2561 87.5932 85.3891C85.5969 86.0989 82.1208 87.5215 80.802 85.4135C78.1233 81.1321 87.8169 75.5014 90.4732 72.8837C92.3057 74.5509 83.269 80.7633 83.9762 83.1908C84.532 85.0982 86.6815 82.6352 87.7194 82.1152C89.3969 81.2747 91.3835 80.8524 93.0692 79.8937C96.527 77.9272 100.627 75.6595 101.416 71.5944C100.867 71.0512 100.874 70.55 101.437 70.0904C101.687 69.8111 101.886 69.5044 102.033 69.1699C102.279 68.5312 102.378 67.731 102.509 67.0538C102.899 65.0517 101.922 63.1772 102.835 61.2179C97.5059 65.0003 92.3835 69.2727 87.3251 73.3673C82.7878 77.04 78.0533 81.8492 76.3859 87.3295C76.1723 88.0316 75.8173 88.8284 75.8562 89.5694C75.9321 91.0241 76.0872 90.7105 77.3383 91.1783C78.5899 91.6461 80.4118 91.6058 81.7576 91.6555C82.5248 91.6833 85.9505 90.9226 85.2694 92.4994C84.8769 93.4083 82.5019 93.3741 81.6515 93.458C79.5176 93.6692 78.3602 93.4524 79.3712 95.6195C79.8245 96.5906 80.7426 97.2485 81.463 98.0003C83.4675 100.092 84.5563 103.299 86.133 105.756C87.9299 108.555 89.9046 111.217 92.0029 113.824C92.8688 114.899 94.0262 116.921 95.2265 117.688C96.3472 118.405 95.0284 118.346 96.8902 118.055C97.7017 117.928 98.4372 117.433 99.2135 117.257C103.855 116.197 108.625 115.003 113.425 113.696C119.565 112.024 126.008 110.598 131.865 108.19C137.112 106.032 142.321 103.463 147.623 101.277C149.171 100.639 150.718 100.217 151.922 99.0425C153.374 97.6259 154.577 95.7711 155.917 94.2483C158.195 91.6581 160.295 89.0233 162.748 86.5684C164.574 84.7419 167.809 81.3463 170.385 80.6172C175.279 79.2324 172.66 86.2154 172.027 87.9802C173.177 88.2248 173.782 86.8425 175.132 87.24C176.749 87.7163 176.916 89.7305 177.119 90.9924C177.172 91.3287 176.686 91.9571 176.834 92.2569C176.884 92.3593 177.939 92.9436 178.143 93.2143C178.882 94.1982 178.736 95.3946 178.456 96.4556C177.008 101.951 171.86 105.965 168.074 110.019C169.768 109.718 171.023 108.814 172.622 108.366C174.123 107.945 175.632 107.967 177.144 107.847C178.728 107.721 180.249 107.165 181.87 107.137C183.57 107.108 185.198 107.561 186.884 107.741Z" fill="black"/>
<path fill-rule="evenodd" clip-rule="evenodd" d="M7.81636 58.3076C6.88271 58.8793 6.61953 59.4402 6.58729 60.759C6.5744 61.3 6.61422 63.3178 7.42121 63.2416C8.17852 63.1701 7.81636 59.0015 7.81636 58.3076ZM2.99333 61.5943C3.42838 57.3673 5.07922 53.0696 8.96269 50.4358C9.92309 49.7845 11.0095 49.8076 12.0621 49.3967C12.6947 49.1498 13.6942 48.0022 14.4123 48.1381C17.056 48.639 14.0017 51.9297 13.5545 52.7953C12.1684 55.477 12.262 57.8335 12.3034 60.7265C12.3349 62.9253 12.8226 66.632 11.6393 68.6221C10.3779 70.7412 7.64202 69.3652 6.11488 68.1109C4.18749 66.5275 2.73183 64.006 2.99333 61.5943Z" fill="black"/>
<path fill-rule="evenodd" clip-rule="evenodd" d="M49.402 74.0847C49.402 76.4434 51.4457 74.8465 51.3727 73.1689C51.2659 70.6988 49.3067 72.2198 49.402 74.0847ZM60.2667 61.0454C58.0299 62.9299 56.3046 63.9871 55.8735 66.8846C55.5472 69.0794 55.8717 71.2531 55.8855 73.4638C55.9089 77.1696 52.7143 81.0655 49.2766 76.8176C46.7691 73.7192 47.6685 68.8471 49.7132 65.7333C50.7864 64.0996 52.3182 62.4834 54.0876 61.4652C55.4185 60.699 59.1623 59.1915 60.2667 61.0454Z" fill="black"/>
<path fill-rule="evenodd" clip-rule="evenodd" d="M29.0313 118.158C28.7719 118.733 28.1632 121.08 29.4052 120.549C30.5017 120.08 29.7913 118.525 29.0313 118.158ZM22.4685 110.914C22.2767 110.031 22.3548 104.5 23.9813 104.915C25.2589 105.24 25.4699 108.071 25.9904 109.057C27.9285 112.726 32.3768 115.012 33.9108 118.799C35.623 123.029 30.4463 123.16 27.6995 121.447C24.447 119.419 22.565 114.453 22.4685 110.914Z" fill="black"/>
<path fill-rule="evenodd" clip-rule="evenodd" d="M18.4811 88.2329C19.187 87.3401 19.2584 86.8631 18.856 86.0734C18.3417 86.5975 18.433 87.3464 18.4811 88.2329ZM18.9919 92.2266C15.3121 92.6126 15.1279 86.2599 15.7581 84.0788C16.2599 82.3418 17.3389 80.4752 18.4495 79.0598C18.6739 78.7742 20.8015 76.2076 21.2185 76.2014C22.8189 76.1779 22.3791 77.8718 22.2065 78.5024C21.6628 80.489 21.4474 82.1495 21.5937 84.3524C21.7507 86.7093 22.942 92.3048 18.9919 92.2266Z" fill="black"/>
<path fill-rule="evenodd" clip-rule="evenodd" d="M186.075 37.2112C180.814 41.3448 175.818 45.82 170.097 49.4357C167.297 51.2051 164.37 52.7706 161.577 54.569C160.154 55.4849 158.702 56.3048 157.124 56.9782C155.729 57.5729 154.817 57.6503 155.974 56.2385C156.748 55.2954 158.481 54.6382 159.535 53.9678C161.156 52.9355 162.687 51.7901 164.392 50.8742C167.398 49.2586 170.386 47.9543 173.157 45.9729C175.617 44.215 178.155 42.4982 180.502 40.6298C181.509 39.8286 184.847 36.1499 186.075 37.2112Z" fill="black"/>
<path fill-rule="evenodd" clip-rule="evenodd" d="M186.18 52.1377C188.546 54.0339 182.626 59.2284 181.275 60.4057C179.852 61.6473 178.284 62.7549 176.735 63.8549C176.19 64.2423 173.216 66.8347 172.462 66.6255C170.972 66.2124 172.927 64.5305 173.436 64.0919C175.08 62.6717 176.76 61.2931 178.368 59.8347C179.818 58.5204 181.388 57.3032 182.79 55.9465C183.926 54.8474 184.881 52.9848 186.18 52.1377Z" fill="black"/>
<path fill-rule="evenodd" clip-rule="evenodd" d="M10.8688 128.571C10.2509 127.23 9.14445 128.719 9.7054 129.388C10.2359 130.022 10.7898 128.828 10.8688 128.571ZM7.24609 125.923C7.5773 123.951 8.34277 122.855 10.3176 124.538C11.6746 125.695 14.4039 128.983 14.1449 130.776C13.805 133.128 11.0398 132.461 9.60643 131.231C8.13714 129.971 7.48852 127.671 7.24609 125.923Z" fill="black"/>
<path fill-rule="evenodd" clip-rule="evenodd" d="M11.573 164.734C9.15375 164.562 7.08981 162.822 6.06242 160.783C5.19802 159.068 4.37987 156.304 7.41671 157.206C9.39594 157.793 17.0258 165.011 11.573 164.734Z" fill="black"/>
<path fill-rule="evenodd" clip-rule="evenodd" d="M40.8926 153.555C39.0231 153.954 37.1737 152.801 36.024 151.5C35.3088 150.69 33.6438 147.85 34.4827 146.681C35.6519 145.051 37.4172 148.328 38.0261 148.977C38.9813 149.993 42.1045 151.936 40.8926 153.555Z" fill="black"/>
<path fill-rule="evenodd" clip-rule="evenodd" d="M42.5751 109.211C41.1097 108.574 39.7491 107.807 39.1598 106.285C38.785 105.316 38.4702 102.41 40.1346 102.424C42.0597 102.44 46.4682 108.92 42.5751 109.211Z" fill="black"/>
<path fill-rule="evenodd" clip-rule="evenodd" d="M32.3004 78.9783C34.2626 78.9451 34.7272 79.9588 35.0001 81.4154C35.1853 82.4039 36.0842 85.7595 35.1507 86.4468C33.8169 87.4291 31.6952 85.1785 31.2663 84.2949C30.3822 82.4761 31.6045 80.6869 32.3004 78.9783Z" fill="black"/>
<path fill-rule="evenodd" clip-rule="evenodd" d="M66.0174 179.592C66.9728 179.999 69.1464 180.902 68.3158 182.304C67.4475 183.769 64.9541 182.345 64.0227 181.704C63.6328 181.436 61.1554 179.682 61.259 179.093C61.4775 177.843 64.8924 179.475 66.0174 179.592Z" fill="black"/>
<path fill-rule="evenodd" clip-rule="evenodd" d="M3.07152 88.0803C3.7244 89.612 4.45931 94.8732 1.02131 92.0321C-0.0278766 91.165 -0.186209 90.082 0.175284 88.8916C0.697971 87.1663 1.45863 87.5084 3.07152 88.0803Z" fill="black"/>
<path fill-rule="evenodd" clip-rule="evenodd" d="M185.263 68.4882C184.502 67.0312 186.381 66.0914 187.386 65.1524C188.041 64.539 190.799 61.2123 191.703 61.4002C193.563 61.7869 186.177 67.8384 185.263 68.4882Z" fill="black"/>
<path fill-rule="evenodd" clip-rule="evenodd" d="M32.2747 174.024C34.0686 173.755 34.4871 175.621 35.6429 176.435C36.1385 176.784 37.84 177.091 37.4977 177.832C36.5985 179.777 32.1868 175.333 32.2747 174.024Z" fill="black"/>
<path fill-rule="evenodd" clip-rule="evenodd" d="M47.4238 129.94C48.6568 129.457 52.2157 132.054 51.1939 133.176C49.6664 134.854 47.5108 130.859 47.4238 129.94Z" fill="black"/>
<path fill-rule="evenodd" clip-rule="evenodd" d="M73.4137 167.514C72.515 167.598 68.7221 166.481 70.1273 164.986C71.1139 163.936 73.7363 166.563 73.4137 167.514Z" fill="black"/>
<path fill-rule="evenodd" clip-rule="evenodd" d="M27.9945 160.339C27.1022 160.674 23.884 159.986 24.8959 158.677C25.8597 157.43 27.9959 159.305 27.9945 160.339Z" fill="black"/>
<path fill-rule="evenodd" clip-rule="evenodd" d="M54.3398 165.988C55.383 165.886 56.1367 166.476 56.3159 167.474C55.0111 167.648 54.6086 167.357 54.3398 165.988Z" fill="black"/>
<path fill-rule="evenodd" clip-rule="evenodd" d="M190.025 21.1289C190.466 21.1308 190.906 21.1329 191.343 21.1348C190.902 21.1326 190.464 21.1308 190.025 21.1289Z" fill="black"/>
<path fill-rule="evenodd" clip-rule="evenodd" d="M183.111 107.05C182.452 107.05 181.793 107.051 181.135 107.052C181.794 107.051 182.452 107.05 183.111 107.05Z" fill="black"/>
<path fill-rule="evenodd" clip-rule="evenodd" d="M93.2484 6.47852C93.2179 7.09624 93.1874 7.71396 93.1562 8.32955C93.1861 7.71129 93.2172 7.09464 93.2484 6.47852Z" fill="black"/>
<path fill-rule="evenodd" clip-rule="evenodd" d="M297.324 111.371C297.535 112.058 297.227 112.171 296.4 111.712C296.708 111.598 297.016 111.485 297.324 111.371Z" fill="black"/>
<path fill-rule="evenodd" clip-rule="evenodd" d="M278.617 165.202C278.948 165.204 279.278 165.206 279.605 165.208C279.274 165.206 278.945 165.204 278.617 165.202Z" fill="black"/>
<path fill-rule="evenodd" clip-rule="evenodd" d="M216.043 115.542C215.491 115.937 214.941 115.992 214.396 115.521C214.945 115.529 215.494 115.536 216.043 115.542Z" fill="black"/>
<path fill-rule="evenodd" clip-rule="evenodd" d="M203.717 62.9355C203.703 63.4506 203.688 63.9651 203.674 64.4781C203.688 63.9625 203.702 63.449 203.717 62.9355Z" fill="black"/>
<path fill-rule="evenodd" clip-rule="evenodd" d="M232.182 15.3318C231.633 15.3315 231.084 15.3309 230.535 15.3303C231.085 15.1383 231.633 15.2014 232.182 15.3318Z" fill="black"/>
<path fill-rule="evenodd" clip-rule="evenodd" d="M71.1369 9.05469C70.5882 9.08484 70.039 9.11498 69.4902 9.14513C70.039 9.11498 70.5882 9.08484 71.1369 9.05469Z" fill="black"/>
<path fill-rule="evenodd" clip-rule="evenodd" d="M84.6396 9.15343C84.2005 9.11866 83.761 9.08359 83.3223 9.04883C83.761 9.08359 84.2001 9.11866 84.6396 9.15343Z" fill="black"/>
<path fill-rule="evenodd" clip-rule="evenodd" d="M91.8837 9.64258C91.4448 9.79547 91.0058 9.88592 90.5664 9.64473C91.0058 9.64412 91.4448 9.64319 91.8837 9.64258Z" fill="black"/>
<path fill-rule="evenodd" clip-rule="evenodd" d="M52.6936 10.4863C52.1443 10.5909 51.5956 10.6955 51.0469 10.7992C51.5961 10.6955 52.1448 10.5909 52.6936 10.4863Z" fill="black"/>
<path fill-rule="evenodd" clip-rule="evenodd" d="M204.045 136.051C204.03 136.36 204.015 136.669 204 136.976C204.016 136.667 204.03 136.359 204.045 136.051Z" fill="black"/>
<path fill-rule="evenodd" clip-rule="evenodd" d="M22.5508 111.062C22.5574 111.269 22.5637 111.475 22.5697 111.68C22.5627 111.473 22.5571 111.268 22.5508 111.062Z" fill="black"/>
<path fill-rule="evenodd" clip-rule="evenodd" d="M299.365 109.955L297.719 109.963C298.266 109.58 298.816 109.628 299.365 109.955Z" fill="black"/>
<path fill-rule="evenodd" clip-rule="evenodd" d="M186.733 107.769C186.294 107.702 185.855 107.634 185.416 107.566C185.855 107.634 186.294 107.702 186.733 107.769Z" fill="black"/>
<path fill-rule="evenodd" clip-rule="evenodd" d="M66.1975 179.547C65.6484 179.447 65.0999 179.346 64.5508 179.246L66.1975 179.547Z" fill="black"/>
<path fill-rule="evenodd" clip-rule="evenodd" d="M177.032 91.0095C177.022 90.7006 177.012 90.3917 177.002 90.084C177.012 90.3929 177.022 90.7014 177.032 91.0095Z" fill="black"/>
<path fill-rule="evenodd" clip-rule="evenodd" d="M72.7829 9.15746C72.4535 9.11962 72.124 9.08178 71.7949 9.04395C72.124 9.08178 72.4535 9.11962 72.7829 9.15746Z" fill="black"/>
<path fill-rule="evenodd" clip-rule="evenodd" d="M126.795 1.52848C126.465 1.435 126.136 1.34152 125.807 1.24805C126.136 1.34152 126.465 1.435 126.795 1.52848Z" fill="black"/>
<path fill-rule="evenodd" clip-rule="evenodd" d="M165.984 209.61C166.205 209.623 166.425 209.635 166.643 209.647C166.422 209.635 166.203 209.622 165.984 209.61Z" fill="black"/>
<path fill-rule="evenodd" clip-rule="evenodd" d="M14.8203 43.9492C15.1509 43.9572 15.4816 43.9654 15.8083 43.9737C15.476 43.9654 15.1482 43.9572 14.8203 43.9492Z" fill="black"/>
<path fill-rule="evenodd" clip-rule="evenodd" d="M235.803 15.6337C235.254 15.5977 234.705 15.5617 234.156 15.5254C234.706 15.5617 235.254 15.5977 235.803 15.6337Z" fill="black"/>
<path fill-rule="evenodd" clip-rule="evenodd" d="M62.2448 14.1895C61.4745 14.1905 60.7052 14.1916 59.9395 14.1927C60.7113 14.1916 61.478 14.1905 62.2448 14.1895Z" fill="black"/>
<path fill-rule="evenodd" clip-rule="evenodd" d="M217.84 77.7432C217.85 78.2581 217.861 78.7729 217.872 79.2857C217.862 78.7704 217.852 78.2566 217.84 77.7432Z" fill="black"/>
<path fill-rule="evenodd" clip-rule="evenodd" d="M177.511 188.198C177.07 188.192 176.63 188.185 176.193 188.179C176.635 188.184 177.073 188.191 177.511 188.198Z" fill="black"/>
<path fill-rule="evenodd" clip-rule="evenodd" d="M224.277 24.7406C224.936 24.6721 225.594 24.6036 226.253 24.5352C225.621 25.059 224.938 24.7104 224.277 24.7406Z" fill="black"/>
<path fill-rule="evenodd" clip-rule="evenodd" d="M173.89 188.359C173.56 188.347 173.23 188.336 172.902 188.325C173.234 188.337 173.562 188.348 173.89 188.359Z" fill="black"/>
<path fill-rule="evenodd" clip-rule="evenodd" d="M162.502 193.741C162.519 194.256 162.535 194.771 162.552 195.284C162.536 194.768 162.519 194.254 162.502 193.741Z" fill="black"/>
<path fill-rule="evenodd" clip-rule="evenodd" d="M212.75 43.6835C213.189 43.6453 213.628 43.6072 214.067 43.5693C213.666 43.8579 213.196 43.689 212.75 43.6835Z" fill="black"/>
<path fill-rule="evenodd" clip-rule="evenodd" d="M68.832 125.757C69.2711 125.833 69.7107 125.908 70.1494 125.983C69.7103 125.908 69.2711 125.833 68.832 125.757Z" fill="black"/>
<path fill-rule="evenodd" clip-rule="evenodd" d="M137.332 44.5806C137.88 44.1432 138.429 44.1907 138.979 44.5757C138.43 44.5769 137.881 44.5788 137.332 44.5806Z" fill="black"/>
<path fill-rule="evenodd" clip-rule="evenodd" d="M116.725 60.158C116.741 59.9523 116.756 59.7465 116.773 59.541C116.758 59.7471 116.741 59.9525 116.725 60.158Z" fill="black"/>
<path fill-rule="evenodd" clip-rule="evenodd" d="M212.578 54.2969C212.583 54.7089 212.587 55.1209 212.592 55.5309C212.588 55.1179 212.583 54.7074 212.578 54.2969Z" fill="black"/>
<path fill-rule="evenodd" clip-rule="evenodd" d="M67.2765 118.785C67.9991 119.015 69.4524 119.708 70.2944 119.616C70.9685 119.542 71.5241 118.775 72.1741 118.775C73.9246 118.777 73.6001 120.673 72.7543 121.691C70.467 124.443 65.3561 121.458 67.2765 118.785Z" fill="black"/>
<path fill-rule="evenodd" clip-rule="evenodd" d="M74.4225 108.902C76.8096 109.48 75.6207 114.398 73.614 114.736C71.2513 115.135 70.8395 111.135 71.3064 109.69C72.5224 110.366 71.7695 112.781 73.3019 112.114C74.2762 111.689 74.1281 109.725 74.4225 108.902Z" fill="black"/>
</svg>
