<svg width="536" height="401" viewBox="0 0 536 401" fill="none" xmlns="http://www.w3.org/2000/svg">
<path fill-rule="evenodd" clip-rule="evenodd" d="M325.482 260.149C324.641 272.458 307.898 278.857 297.742 281.483C299.778 269.408 302.407 256.891 300.771 244.646C300.233 240.612 299.526 236.6 298.767 232.603C298.487 231.125 298.197 229.648 297.897 228.174C297.825 227.815 297.235 226.245 297.423 225.888C297.759 225.249 300.599 225.349 301.323 225.377C303.188 225.448 305.018 225.918 306.725 226.662C310.312 228.224 313.334 230.914 315.823 233.882C321.695 240.883 326.117 250.868 325.482 260.149ZM306.098 176.481C296.378 182.223 284.669 185.304 273.583 186.806C256.694 189.094 239.45 186.46 222.939 182.81C218.885 181.914 214.839 180.948 210.845 179.815C210.665 191.487 213.957 202.587 220.386 212.322C225.702 220.369 232.639 227.096 238.702 234.551C244.347 241.491 248.9 249.319 249.126 258.478C249.22 262.301 248.905 265.799 245.696 268.276C242.472 270.765 238.117 271.689 234.172 272.256C224.292 273.676 213.944 272.909 204.127 271.345C202.221 271.041 200.318 270.695 198.437 270.263C196.301 269.773 195.552 269.195 193.768 270.794C189.918 274.246 188.152 279.422 187.28 284.374C185.646 293.648 186.2 304.467 188.556 313.617C190.825 322.432 201.536 327.316 209.471 329.447C233.404 335.872 259.811 326.999 278.175 311.203C278.575 310.858 278.972 310.509 279.36 310.15C280.665 312.86 282.089 315.521 283.646 318.095C284.729 319.885 285.869 321.684 287.234 323.278C287.727 323.853 288.306 324.63 288.98 325.007C290.235 325.708 291.512 325.193 292.933 324.947C303.414 323.131 313.872 320.744 323.838 316.983C338.99 311.267 352.579 301.85 359.761 286.974C363.389 279.46 365.28 271.227 366.196 262.971C367.246 253.491 367.473 243.8 364.799 234.56C359.898 217.627 347.395 203.9 333.702 193.313C325.23 186.761 315.916 180.841 306.098 176.481Z" fill="#EC6226"/>
<path fill-rule="evenodd" clip-rule="evenodd" d="M477.365 64.3543C475.15 65.2325 472.764 65.4768 470.408 65.6486C468.559 65.7831 467.108 66.5225 465.366 66.5642C460.516 66.6797 455.645 66.897 450.818 67.6199C445.97 68.3465 441.505 67.3978 437.677 71.0312C436.315 72.3241 434.607 73.8106 435.426 75.8973C435.801 76.8531 436.33 77.5386 436.642 78.5645C436.995 79.7243 437.433 80.8198 437.943 81.9237C438.922 84.0417 443.822 91.9291 439.846 92.8939C435.535 93.9396 429.688 92.7173 425.535 91.521C423.112 90.8228 420.727 90.0047 418.339 89.1985C416.449 88.5604 413.965 88.1987 412.223 87.1989C411.067 86.5356 410.828 85.4037 410.064 84.3281C408.675 82.3716 407.377 80.7052 405.582 79.0772C401.858 75.7008 397.202 73.4082 392.611 71.3929C392.314 71.2622 391.773 70.9574 391.453 70.9275C391.108 70.8953 390.727 71.2504 390.504 71.2073C389.892 71.0885 389.678 70.7046 389.008 70.3249C388.108 69.815 384.438 68.1188 383.797 69.4524C384.397 67.7003 384.836 68.2059 386.461 68.4602C387.177 68.5728 387.656 68.2457 388.299 68.2784C388.892 68.3082 389.135 68.6448 389.63 68.7357C390.537 68.9018 391.382 68.7769 392.329 68.7698C392.584 68.2097 392.945 68.214 393.412 68.7821C393.673 68.8663 393.934 68.9506 394.195 69.0353C395.138 69.2933 396.146 69.2441 397.112 69.3199C398.562 69.4344 402.341 71.1983 403.068 69.4131C403.844 67.5067 401.487 67.0314 401.095 65.7012C400.711 64.396 402.507 63.63 403.227 62.8418C404.048 61.9457 404.549 61.1589 405.512 60.3692C406.077 59.9058 406.816 59.4735 407.235 58.8562C407.619 58.2881 407.602 57.3697 408.102 56.8963C408.697 56.332 408.789 56.7226 409.33 56.4499C410.391 55.9145 409.922 55.9415 410.55 55.2096C411.087 54.5838 411.483 54.6027 412.185 54.1231C413.213 53.4211 413.575 52.0492 414.574 51.2946C415.304 50.7421 416.468 50.7431 417.11 50.1693C417.487 49.8313 417.371 49.2836 417.697 48.9645C418.324 48.3514 418.754 48.6004 419.536 48.3983C420.856 48.0574 421.283 47.3298 422.254 46.4872C423.142 45.7179 423.706 45.7212 424.817 45.4021C426.334 44.9666 427.315 43.8257 428.685 43.1554C429.974 42.5248 431.306 42.0826 432.61 41.4109C433.553 40.9256 434.46 40.6245 435.32 40.1294C435.61 39.9623 435.635 39.3501 436.01 39.2673C436.441 39.1717 436.785 39.8851 437.242 39.9225C438.202 40.0011 439.294 38.9397 439.923 38.3252C440.197 38.0582 440.567 37.3363 440.92 37.1872C441.657 36.8747 442.096 37.4935 442.753 37.2492C443.675 36.9064 443.309 35.9028 443.874 35.3494C444.367 34.8665 445.416 34.8992 446.293 35.0521C449.827 35.6666 444.328 38.1567 443.293 38.6604C441.554 39.5087 428.898 45.68 431.859 48.7576C433.426 50.3856 437.25 49.1614 438.953 48.7325C441.939 47.9803 445.05 46.5321 448.112 46.1998C448.491 46.1586 449.62 46.4289 449.928 46.3111C450.624 46.0455 450.451 45.5143 451.016 45.235C451.868 44.8156 453.607 44.8359 454.471 44.9301C455.147 45.004 455.887 45.4064 456.574 45.3519C457.331 45.2918 458.063 44.8525 458.813 44.711C460.098 44.4695 461.428 44.5879 462.726 44.6253C464.592 44.6797 468.322 44.9609 465.611 47.434C463.417 49.4355 459.621 50.3018 456.853 51.1753C452.758 52.4662 448.735 53.6408 444.693 55.1116C441.939 56.1133 436.064 57.873 439.343 61.628C439.667 61.3231 439.99 61.0187 440.313 60.7139C440.696 61.0997 441.091 61.8505 441.703 61.8723C442.213 61.8903 442.026 61.344 442.507 61.1731C444.022 60.6372 446.098 60.6779 447.695 60.577C451.696 60.3243 455.682 59.7955 459.688 59.6317C463.461 59.4773 467.274 59.6781 470.973 60.4672C471.924 60.6703 480.795 62.9942 477.365 64.3543ZM444.649 102.966C444.85 104.643 444.104 105.999 443.897 107.618C443.647 109.575 443.83 111.299 443.274 113.245C442.193 117.028 441.424 120.899 440.263 124.659C438.214 131.3 434.906 137.164 431.503 143.189C429.768 146.261 427.154 148.798 424.766 151.367C422.318 154 420.363 156.592 417.437 158.754C411.589 163.075 405.28 166.919 398.358 169.253C391.112 171.697 383.492 172.438 375.882 172.127C372.504 171.989 368.924 172.33 365.6 171.786C362.066 171.206 358.236 170.494 354.762 169.638C348.386 168.067 342.242 165.402 336.015 163.021C329.06 160.362 322.799 156.968 316.458 153.133C314.78 152.118 313.007 151.645 311.433 150.417C310.107 149.382 308.801 148.393 307.407 147.448C305.805 146.364 304.273 145.178 302.637 144.148C301.66 143.532 300.285 142.93 299.771 141.815C299.066 140.282 299.916 138.356 300.356 136.868C300.929 134.932 301.538 133.02 302.227 131.122C303.392 127.909 306.358 122.952 304.727 119.554C301.288 121.68 299.771 125.858 298.3 129.411C296.544 133.654 295.318 137.888 295.054 142.49C294.521 151.749 296.074 161.494 299.442 170.127C299.943 171.409 300.821 172.8 300.175 174.171C299.498 175.61 297.658 176.826 296.244 177.448C291.771 179.416 287.281 179.99 282.61 181.078C281.338 181.374 279.945 182.264 278.752 182.376C277.946 182.452 277.28 182.189 276.358 182.195C275.431 182.201 274.707 182.719 273.877 182.774C273.154 182.823 272.511 182.401 271.821 182.44C270.276 182.53 269.992 185.171 269.226 182.846C269.087 182.942 268.321 183.809 268.224 183.809C268.006 183.809 267.621 183.163 267.413 183.048C267.006 182.823 266.472 182.811 266.018 182.752C265.016 182.622 263.936 182.609 262.95 182.838C261.121 183.263 259.282 183.084 257.718 183.053C257.363 183.046 257.111 183.332 256.668 183.315C256.467 183.307 256.176 182.952 255.963 182.897C254.726 182.579 253.443 182.816 252.184 182.747C249.225 182.584 246.368 182.505 243.479 181.853C237.558 180.516 231.521 180.248 225.577 179.025C222.548 178.402 219.589 178.061 216.607 177.241C215.56 176.952 214.485 176.815 213.557 176.422C212.67 176.045 213.019 175.544 211.643 176.551C211.024 175.039 210.951 175.193 209.459 174.693C208.882 174.5 207.555 174.019 207.125 173.638C207.083 173.601 206.164 171.299 206.085 171.017C205.702 169.642 206.021 168.071 206.181 166.688C206.541 163.57 207.063 160.476 207.094 157.333C207.107 155.946 207.357 155.907 207.79 154.862C207.923 154.538 208.317 154.564 208.349 154.07C208.393 153.413 207.72 152.956 207.792 152.188C207.889 151.156 208.929 150.109 209.293 149.147C209.732 147.988 209.726 146.763 209.988 145.563C210.338 143.968 211.014 142.47 211.355 140.868C211.645 139.511 211.673 138.431 212.398 137.267C213.122 136.105 212.909 135.156 213.486 133.999C214.016 132.937 214.686 132.556 215.049 131.274C215.927 128.173 217.262 125.103 219.152 122.474C220.815 129.066 222.584 135.876 227.215 141.087C229.122 143.233 231.585 145.398 234.46 146.051C237.712 146.79 240.312 144.877 242.43 142.611C247.474 137.21 249.564 131.182 249.869 123.86C249.944 122.04 249.934 120.217 249.909 118.396C249.898 117.585 249.481 115.505 250.038 114.824C250.648 114.077 252.39 114.544 253.296 114.051C254.411 113.444 255.636 111.822 255.139 110.484C258.11 111.826 260.95 113.592 264.254 113.966C265.562 114.115 266.955 113.889 268.125 113.827C268.09 113.829 269.031 114.02 269.087 114.033C269.319 113.766 269.57 113.701 269.84 113.838C270.081 113.863 270.256 113.992 270.366 114.224C275.075 114.694 279.817 112.373 283.847 109.914C286.203 108.477 288.789 106.35 289.451 103.553C289.687 102.555 289.482 101.615 290.517 101.106C291.357 100.691 292.979 101.289 293.866 101.354C296.985 101.582 300.059 101.286 303.105 102.214C304.963 102.779 308.207 106.745 309.503 103.955C310.065 104.482 309.76 105.419 310.358 105.931C310.88 106.378 312.634 106.692 313.355 107.074C314.473 107.665 315.128 108.452 316.106 109.163C317.308 110.036 318.566 110.104 319.73 111.128C323.76 114.678 328.48 117.249 332.98 120.193C338.318 123.685 343.043 127.801 348.771 130.65C354.63 133.562 360.299 135.995 366.701 137.511C369.605 138.198 372.583 138.772 375.565 138.984C376.971 139.083 378.313 139.033 379.669 139.454C380.493 139.71 380.759 139.837 381.568 139.861C382.04 139.875 382.722 139.603 383.303 139.614C384.496 139.635 385.106 139.586 386.182 139.98C387.4 140.425 388.413 140.693 389.8 140.731C391.396 140.776 392.335 140.165 393.785 139.788C394.953 139.484 396.005 139.629 397.051 138.998C401.697 136.194 405.431 131.912 407.868 127.05C410.666 121.471 412.822 114.67 413.26 108.418C413.511 104.839 412.72 101.349 411.35 98.0639C410.963 97.137 408.643 93.1893 409.358 92.4721C410.169 91.6574 412.822 93.5249 413.569 93.9306C415.942 95.2169 420.228 95.6292 421.891 97.7931C422.315 96.9822 424.67 98.1842 425.426 98.5227C426.051 98.8024 426.229 99.3085 427.015 99.3691C427.756 99.4259 428.521 98.8365 429.202 98.6486C428.704 100.034 430.378 100.099 431.525 100.172C432.35 100.225 433.238 100.095 433.973 100.043C435.381 99.9433 435.404 99.6281 436.689 98.9085C436.639 99.4354 436.697 99.95 436.861 100.453C437.687 99.2593 439.263 100.088 440.379 99.5637C439.573 98.3423 443.018 98.0081 443.82 98.2646C445.839 98.9118 444.47 101.481 444.649 102.966ZM286.513 186.908C287.845 186.512 289.186 186.15 290.523 185.771C289.51 186.698 288.459 188.37 287.013 188.631C285.269 188.945 284.582 187.482 286.513 186.908ZM220.724 187.572C222.968 187.84 225.411 187.635 227.377 188.956C226.419 190.056 225.797 191.207 224.198 190.577C222.855 190.047 221.749 188.537 220.724 187.572ZM295.675 247.789C294.202 246.471 294.396 245.882 295.088 244.176C295.386 243.442 295.857 241.161 296.974 241.83C297.371 242.066 297.852 244.552 297.923 245.056C298.081 246.182 297.383 249.317 295.675 247.789ZM303.984 240.136C303.463 238.229 303.481 236.151 302.97 234.197C302.43 232.133 301.766 230.062 301.575 227.929C309.359 229.301 313.779 237.007 317.151 243.437C318.942 246.854 320.699 250.633 321.374 254.453C322.034 258.175 320.89 261.002 319.561 264.319C318.884 266.013 317.764 266.6 316.457 267.719C315.298 268.71 314.864 270.383 313.658 271.274C312.766 271.932 311.607 272.274 310.675 272.939C309.754 273.595 308.832 274.246 307.882 274.859C306.794 275.56 303.538 278.114 302.07 277.569C300.972 277.161 301.461 275.82 301.738 274.979C302.321 273.207 302.73 271.501 303.09 269.654C304.05 264.724 304.571 259.826 304.82 254.812C305.063 249.917 305.289 244.915 303.984 240.136ZM297.474 262.369C297.591 262.611 298.077 264.68 296.992 264.255C296.238 263.959 297.364 262.749 297.474 262.369ZM302.06 180.21C302.978 179.831 303.346 180.951 304.154 180.985C305.226 181.029 305.451 179.84 306.576 179.804C309.327 179.718 313.312 182.37 315.549 183.754C314.453 185.135 314.002 186.547 314.546 188.248C315.026 189.745 316.859 191.42 316.792 193.008C316.723 194.599 314.74 195.624 314.121 197.04C313.553 198.341 313.336 200.942 315.091 201.515C318.109 202.502 318.799 196.863 321.086 196.819C322.064 196.801 323.335 198.635 324.038 199.205C325.613 200.484 327.389 201.418 329.22 202.267C330.457 202.84 332.178 203.969 333.094 202.429C333.829 201.196 333.229 199.241 332.515 198.18C331.696 196.962 324.355 191.389 324.819 190.898C325.066 190.636 326.894 191.358 327.153 191.577C327.738 192.071 327.953 192.876 328.54 193.402C329.435 194.205 330.592 194.524 331.699 194.895C334.009 195.67 335.472 198.394 337.711 199.663C339.003 200.395 339.791 201.799 340.884 202.888C342.314 204.312 343.772 205.805 343.557 207.902C343.408 209.356 343.191 212.741 342.367 213.968C341.473 215.299 339.985 214.788 338.625 215.103C337.097 215.456 335.873 216.647 336.178 218.347C336.494 220.114 337.911 220.24 339.391 220.285C343.566 220.411 342.029 223.055 343.484 225.96C344.275 227.537 345.595 228.156 346.503 226.31C347.234 224.825 345.928 222.483 346.721 221.214C347.688 219.669 352.86 220.089 353.939 221.29C354.756 222.201 355.19 223.452 356.005 224.405C357.243 225.85 357.751 227.878 358.494 229.65C359.282 231.533 359.97 233.442 360.574 235.392C360.998 236.762 361.914 238.931 359.721 237.761C358.189 236.944 357.045 235.101 355.104 235.043C353.184 234.985 352.09 236.975 352.651 238.704C353.193 240.378 355.668 241.116 355.955 242.813C356.27 244.67 353.082 246.564 352.114 247.93C349.885 251.073 351.749 254.612 355.402 251.944C356.698 250.998 358.054 249.09 359.515 248.492C361.826 247.547 361.812 251.051 362.919 252.34C363.515 253.034 363.731 252.329 363.378 253.366C363.247 253.748 362.588 253.867 362.513 254.343C362.46 254.691 362.772 254.875 362.783 255.145C362.82 256.058 362.822 256.193 362.616 257.186C362.388 258.287 362.47 259.655 362.402 260.774C362.244 263.331 362.211 265.773 361.942 268.328C361.792 269.751 361.479 272.649 363.162 273.342C362.563 274.279 361.765 276.884 360.588 276.688C360.683 277.305 360.63 278.093 361.23 278.496C361.374 278.12 361.517 277.744 361.661 277.368C361.99 278.227 361.7 278.326 361.681 278.912C361.705 278.187 361.018 279.922 361.389 279.708C361.073 279.971 360.657 280.122 360.181 280.463C359.518 280.939 359.168 281.597 358.653 282.242C357.721 283.406 357.775 284.582 356.959 285.797C355.801 287.52 354.315 289.22 353.096 290.941C352.103 292.343 350.211 293.151 349.415 294.657C348.909 295.615 348.707 296.729 347.844 297.403C346.608 298.368 344.955 299.277 343.612 300.274C342.767 300.9 342.124 301.769 341.282 302.377C340.855 302.685 339.57 302.997 339.568 303.624C337.951 303.173 336.806 301.525 335.535 300.522C334.685 299.852 332.661 298.981 332.783 297.638C332.884 296.539 334.45 295.176 334.81 294.024C335.117 293.048 335.543 291.226 334.697 290.392C332.921 288.643 330.908 292.398 329.955 293.397C327.988 295.459 327.153 293.38 325.536 291.883C322.954 289.492 321.331 291.973 322.24 294.95C322.7 296.457 324.453 297.801 324.567 299.34C324.692 301.032 322.855 301.881 322.128 303.233C321.441 304.507 321.124 306.746 322.415 307.801C323.838 308.964 325.075 307.588 326.006 306.514C326.729 305.68 327.532 303.845 328.706 303.74C330.177 303.61 332.589 306.275 333.708 307.097C332.008 307.588 330.985 309.008 329.548 309.918C327.693 311.092 325.104 311.37 323.028 312.176C321.073 312.935 319.313 313.553 317.451 314.495C315.242 315.612 312.539 315.892 310.2 316.705C308.111 317.432 306.13 318.451 303.996 319.051C301.591 319.728 299.096 320.134 296.671 320.746C294.598 321.268 292.166 321.77 290.029 321.774C287.868 321.777 287.913 320.443 287.222 318.664C286.4 316.551 285.041 314.697 284.173 312.635C283.348 310.675 284.594 309.93 285.79 308.43C286.916 307.016 286.617 306.795 288.07 307.788C289.981 309.094 291.244 308.21 292.731 306.708C294.054 305.372 294.54 304.262 296.444 305.192C298.349 306.123 300.164 307.637 302.21 308.244C303.823 308.722 305.024 308.375 305.294 306.615C305.586 304.714 304.499 303.365 303.13 302.235C302.087 301.377 299.809 300.358 299.428 298.964C299.027 297.496 301.142 295.354 301.368 293.712C301.652 291.64 300.758 290.116 298.787 291.551C297.356 292.591 296.405 294.848 294.42 294.989C294.971 292.681 296.167 290.631 297.193 288.516C298.053 286.747 298.79 284.737 301.098 284.54C301.847 284.476 302.334 284.554 303.048 284.426C303.991 284.256 305.27 284.122 306.278 283.868C308.649 283.27 310.744 281.444 312.927 280.396C313.428 281.74 314.314 285.568 316.352 283.333C317.86 281.68 316.19 278.835 317.579 276.996C320.445 273.202 326.687 275.988 330.451 274.032C332.09 273.18 333.425 270.464 331.113 269.645C329.763 269.166 325.864 270.933 325.052 269.631C324.472 268.702 326.899 265.074 327.193 264.077C328.105 260.973 327.957 257.751 327.957 254.554C329.789 255.302 332.108 257.052 334.082 257.292C336.112 257.538 336.469 255.16 335.937 253.599C335.204 251.447 332.761 249.683 331.086 248.297C330.348 247.687 328.415 246.703 328.011 245.774C327.593 244.815 328.191 244.351 328.66 243.517C329.393 242.214 331.168 238.847 329.237 237.627C327.46 236.504 326.462 239.651 325.33 240.324C323.409 241.467 322.751 238.85 321.987 237.517C320.601 235.1 318.679 232.942 316.954 230.766C315.384 228.786 314.416 227.445 314.187 224.922C314.014 223.01 313.622 221.531 315.881 221.096C319.886 220.326 325.751 222.223 329.004 218.972C330.711 217.267 329.492 215.505 327.337 215.592C324.507 215.708 321.816 215.847 318.967 215.618C317.453 215.496 314.287 215.863 313.523 214.306C312.538 212.301 314.207 209.08 312.395 207.323C310.082 205.079 309.515 210.15 309.438 211.55C309.382 212.57 309.644 214.123 309.008 215.005C308.414 215.828 307.329 215.816 306.451 216.114C304.24 216.863 303.098 219.574 306.031 220.147C307.018 220.341 308.394 220.06 309.214 220.79C310.073 221.553 309.745 222.911 309.826 223.941C307.771 221.564 303.499 222.618 300.716 221.735C299.251 221.27 299.003 220.651 298.387 219.235C297.641 217.521 295.94 215.355 295.875 213.46C295.82 211.851 297.163 210.641 297.79 209.253C298.327 208.064 298.814 206.127 298.735 204.792C298.543 201.571 292.719 204.859 291.519 206.091C289.342 208.327 286.658 211.22 287.838 214.387C288.891 217.214 289.45 218.817 285.797 218.595C284.46 218.513 281.652 218.777 280.615 218.214C279.845 217.796 280.134 217.047 280.109 215.96C280.087 215.02 280.158 213.594 279.553 212.771C277.423 209.879 276.924 217.076 275.728 217.855C273.86 219.074 269.903 217.796 270.208 221.415C270.475 224.58 274.764 223.287 275.951 226.011C276.522 227.323 276.4 228.85 277.12 230.116C278.145 231.921 279.407 231.825 280.087 229.944C280.565 228.622 279.928 227.264 280.295 226.017C280.826 224.214 283.351 224.382 284.904 224.177C286.792 223.93 288.438 223.456 290.234 222.876C292.45 222.161 292.33 223.335 292.69 225.035C293.109 227.007 293.748 228.909 294.141 230.911C294.506 232.777 295.476 234.786 295.635 236.653C295.755 238.08 295.27 237.95 294.085 238.774C292.79 239.674 291.365 242.014 289.862 242.399C287.601 242.978 285.323 237.822 283.266 240.461C282.383 241.593 282.724 244.005 283.353 245.175C284.182 246.721 285.708 247.114 284.429 248.885C283.468 250.216 282.261 251.246 282.171 253.037C282.086 254.699 283.219 256.271 284.991 255.783C286.421 255.389 287.267 253.927 288.351 253.038C290.222 251.506 291.758 252.926 293.672 253.793C295.179 254.476 297.949 254.922 298.705 256.527C299.665 258.565 298.435 259.353 296.651 258.774C297.346 261.052 296.432 262.376 296.181 264.731C295.978 266.637 295.538 268.381 295.259 270.224C294.887 272.685 294.847 272.418 292.309 272.502C290.152 272.573 288.056 272.515 285.902 272.421C284.004 272.338 282.713 272.509 282.628 270.224C282.59 269.216 283.228 265.798 281.236 266.208C279.482 266.569 279.987 269.693 279.4 270.866C278.551 272.565 277.116 272.046 275.519 272.466C273.894 272.893 272.581 274.089 273 275.938C273.447 277.913 275.261 277.775 276.838 278.232C279.266 278.935 278.733 282.498 280.15 284.434C280.729 285.223 281.337 286.021 282.308 285.373C284.089 284.184 282.408 281.28 282.878 279.823C283.373 278.29 285.041 278.604 286.618 278.405C288.945 278.112 291.382 276.992 293.7 277.006C293.256 278.341 292.01 279.117 291.562 280.522C291.322 281.276 291.546 282.683 291.212 283.306C290.853 283.975 289.722 284.176 289.254 285.107C288.642 286.326 288.453 287.632 287.736 288.826C286.043 291.65 284.583 294.536 282.783 297.331C280.924 300.218 278.92 302.965 276.581 305.467C274.312 307.895 273.636 306.719 271.685 304.735C270.892 303.926 269.206 302.991 268.985 301.785C268.767 300.596 269.754 299.626 270.293 298.657C271.009 297.375 272.301 295.166 271.987 293.626C271.396 290.735 268.804 293.397 267.822 294.48C266.106 296.37 265.147 298.359 262.554 296.865C260.894 295.909 258.801 293.291 256.622 294.259C254.639 295.141 255.195 297.687 256.415 298.978C257.098 299.702 258.072 300.116 258.797 300.793C260.358 302.253 259.474 302.649 258.762 304.284C258.179 305.623 258.094 308.254 259.169 309.369C261.284 311.562 262.92 307.138 264.882 307.048C265.813 307.005 269.681 309.538 269.957 310.449C270.44 312.049 266.268 313.958 265.159 314.709C262.58 316.455 259.771 318.235 256.87 319.392C253.446 320.759 255.998 316.454 254.126 315.023C251.692 313.162 251.504 318.26 251.254 319.527C250.59 322.896 247.023 322.983 244.146 323.819C242.314 324.351 240.48 324.916 238.629 325.379C237.058 325.771 235.3 325.762 233.777 326.248C232.441 326.674 231.528 327.54 230.034 327.55C229.549 327.553 229.126 327.389 228.658 327.378C227.714 327.355 226.848 327.893 225.945 327.838C224.444 327.744 225.097 327.272 224.574 326.227C224.084 325.247 222.836 324.886 221.865 324.58C219.081 323.702 216.763 324.471 216.359 320.94C216.234 319.855 216.398 315.403 214.331 315.923C211.915 316.53 214.041 321.823 212.541 323.148C211.812 323.794 210.71 323.472 209.831 323.663C208.387 323.976 207.755 325.063 206.174 324.99C204.841 324.929 203.6 324.339 202.438 323.752C200.706 322.878 198.639 322.298 197.195 320.964C195.216 319.135 194.347 316.287 193.504 313.814C192.262 310.172 191.733 306.542 191.533 302.723C191.463 301.392 190.897 300.453 190.66 299.231C190.408 297.932 191.152 297.671 191.324 296.441C191.49 295.244 191.409 293.966 191.661 292.684C192.024 290.84 192.151 288.954 192.503 287.105C193.085 284.046 193.967 281.009 194.692 277.978C194.917 277.037 195.324 274.019 196.489 273.729C197.348 273.515 199.333 274.791 200.129 275.166C201.704 275.907 203.058 276.931 204.743 277.444C205.612 277.708 206.71 277.682 207.28 278.488C208.182 279.762 207.453 282.258 207.827 283.764C208.284 285.608 209.799 286.392 211.02 284.54C211.67 283.553 211.497 282.375 211.584 281.284C211.709 279.71 211.737 279.33 213.444 279.436C215.173 279.544 216.861 280.195 218.634 280.274C220.232 280.345 221.838 280.301 223.436 280.214C227.314 280.003 230.861 279.373 234.498 277.996C236.961 277.063 239.818 275.023 242.533 275.095C246.366 275.196 245.329 278.736 245.853 281.383C246.173 282.995 248.874 287.942 249.912 283.927C250.425 281.941 248.715 279.046 249.728 277.252C250.925 275.133 255.323 276.891 257.325 276.4C258.944 276.003 261.651 273.712 260.507 271.736C259.965 270.8 258.913 270.978 257.975 270.908C256.197 270.775 254.431 270.533 252.668 270.274C251.665 270.126 250.132 270.041 249.731 268.891C249.39 267.916 250.986 265.387 251.333 264.454C252.478 261.364 252.891 258.852 252.896 255.483C252.897 253.965 252.997 252.363 252.752 250.861C252.662 250.311 251.834 248.515 252.222 247.989C252.743 247.281 253.81 248.179 254.238 248.709C255.088 249.765 254.793 249.681 254.309 250.775C253.597 252.385 252.214 255.761 254.56 257C257.014 258.296 257.901 253.917 260.226 254.397C261.31 254.621 262.38 256.043 263.253 256.707C264.276 257.485 265.38 258.31 266.582 258.787C268.554 259.57 270.77 258.983 269.973 256.509C269.345 254.559 267.357 252.927 265.936 251.544C263.672 249.341 263.775 248.415 265.339 245.82C265.994 244.734 268.507 240.123 265.594 239.748C264.052 239.549 262.384 242.043 261.57 242.998C260.172 244.636 259.37 245.339 257.29 244.023C255.257 242.738 254.313 241.664 251.854 241.545C249.025 241.409 247.752 237.168 246.252 234.99C242.177 229.074 235.939 226.148 230.679 221.615C228.115 219.407 226.385 216.516 224.436 213.797C223.507 212.502 222.309 211.426 221.552 210.015C221.076 209.127 219.787 206.988 220.123 205.941C220.54 204.637 222.795 203.832 223.733 202.911C224.52 202.139 224.94 201.175 226.178 201.471C227.28 201.733 228.273 203.221 229.174 203.875C230.058 204.517 231.055 205.112 232.036 205.592C233.809 206.459 235.95 206.923 236.054 204.284C236.145 202.001 234.057 199.556 232.549 198.016C231.452 196.895 229.789 195.92 230.007 194.14C230.114 193.257 230.866 191.686 231.304 190.946C232.817 188.397 237.434 189.952 239.943 190.115C242.965 190.313 246.298 189.806 248.7 191.94C249.484 192.636 251.3 194.002 251.685 194.971C252.133 196.099 251.401 196.605 250.995 197.697C250.47 199.107 250.108 201.891 251.621 202.863C254.145 204.485 255.46 199.673 258.084 200.726C260.573 201.724 262.312 204.594 265.152 205.048C268.869 205.642 266.752 201.047 265.466 199.694C263.798 197.941 260.563 196.128 261.622 193.536C261.925 192.795 262.616 191.249 263.238 190.789C264.455 189.888 266.418 190.383 267.812 190.398C271.33 190.435 274.651 190.146 278.099 189.533C279.138 189.348 279.375 189.201 280.107 189.974C281.121 191.042 281.654 192.435 282.834 193.485C281.13 195.318 278.603 197.481 279.788 200.301C280.808 202.729 283.043 201.538 284.555 200.241C285.265 199.632 285.999 198.344 286.94 198.1C288.161 197.782 289.534 198.89 290.534 199.452C292.036 200.296 295.246 202.798 296.951 201.321C299.207 199.367 296.538 196.427 294.984 195.22C294.045 194.491 292.793 193.97 292.003 193.069C290.95 191.871 291.568 191.694 292.205 190.614C293.372 188.638 292.944 186.092 294.811 184.548C295.846 183.691 297.325 183.153 298.507 182.525C299.67 181.907 300.918 180.68 302.06 180.21ZM321.077 187.897C320.623 187.62 320.169 187.342 319.716 187.065C320.753 186.56 321.438 186.621 321.077 187.897ZM346.12 211.916C346.303 210.993 347.017 209.343 347.999 210.206C348.631 210.76 347.94 212.843 349.444 212.267C349.522 213.594 348.531 213.481 349.992 214.662C348.149 214.449 345.604 214.532 346.12 211.916ZM274.561 323.764C275.025 322.521 275.021 320.594 276.451 321.73C276.525 320.226 276.168 315.454 278.907 315.647C280.023 315.726 280.011 316.709 280.306 317.56C280.821 319.045 281.69 320.397 282.421 321.78C279.704 321.89 276.985 322.51 274.561 323.764ZM275.451 340.915C277.004 342.085 277.782 340.703 279.248 340.199C280.601 339.734 282.006 340.013 283.505 339.682C285.364 339.273 287.553 339.335 289.37 339.319C289.817 339.315 290.753 339.385 291.205 339.437C292.03 339.532 291.956 339.701 292.809 339.931C293.138 339.855 293.471 339.799 293.807 339.765C294.218 339.747 294.542 339.917 294.78 340.275C295.547 340.53 295.826 340.36 296.56 340.539C298.309 340.965 299.615 342.016 300.757 343.409C303.082 346.246 303.151 350.508 303.098 354.019C303.083 355.019 303.006 356.014 303.117 357.011C303.219 357.926 303.867 359.308 303.602 360.217C303.201 361.594 301.959 361.284 300.512 361.345C299.66 361.382 298.81 361.93 298.132 361.978C297.477 362.026 297.213 361.784 296.549 361.636C294.819 361.25 292.776 361.801 291.068 362.271C289.316 362.753 287.78 363.229 286.004 363.57C284.847 363.792 283.807 363.919 282.641 364.064C281.685 364.184 281.272 364.686 280.438 364.893C279.633 365.091 278.849 364.793 278.037 364.95C276.931 365.163 276.16 365.973 275.151 366.377C273.762 366.933 271.54 366.102 270.924 367.816C270.683 366.163 269.094 366.612 267.91 366.466C265.96 366.225 264.039 365.352 262.163 364.796C260.626 364.34 255.308 360.135 254.29 361.842C254.292 361.669 254.477 360.692 254.316 360.579C253.749 360.181 253.753 360.4 253.142 360.151C252.208 359.77 251.814 359.426 251.146 358.783C249.796 357.485 247.978 356.806 246.555 355.627C242.98 352.668 241.756 346.571 240.884 342.327C239.743 344.344 240.163 341.755 240.361 340.89C240.827 338.849 240.227 337.843 240.091 335.872C239.966 334.058 240.795 333.699 242.436 333.51C244.458 333.276 246.405 332.949 248.385 332.446C250.277 331.965 252.13 331.423 253.836 330.466C255.398 329.591 257.037 329.247 258.634 328.481C260.396 327.636 262.123 326.747 263.9 325.924C264.701 325.553 268.228 322.899 268.84 323.06C270.097 323.392 268.911 325.588 268.527 326.164C267.542 327.644 265.926 328.33 264.468 329.262C263.152 330.101 259.163 334.078 263.213 333.679C265.896 333.415 267.714 330.609 269.431 333.806C270.038 334.936 270.929 335.842 270.232 337.009C269.259 338.636 266.453 339.412 264.981 340.508C263.727 341.442 261.162 345.843 263.747 346.315C264.49 346.451 265.636 346.276 266.189 345.699C266.562 345.31 266.535 344.511 266.913 344.245C267.447 343.867 268.485 344.335 269.094 344.128C269.964 343.833 270.167 343.36 270.487 342.527C271.415 342.95 271.428 343.516 272.488 342.971C272.839 342.79 272.968 342.128 273.375 341.951C273.921 341.713 274.084 342.492 274.384 342.377C275.196 342.067 275.193 341.716 275.451 340.915ZM219.75 327.968C218.194 328.084 216.495 328.209 215.166 327.22C216.78 327.317 218.203 327.68 219.82 327.348C220.463 327.215 221.492 326.61 222.15 326.821C224.49 327.569 220.373 327.921 219.75 327.968ZM215.428 191.402C215.405 190.856 214.941 183.509 217.457 186.395C218.145 187.184 217.403 188.241 217.305 189.115C217.139 190.586 217.656 192.061 218.433 193.3C219.158 194.455 220.512 195.467 220.309 196.974C220.131 198.296 218.794 199.425 218.135 200.522C216.514 197.974 215.559 194.468 215.428 191.402ZM209.899 114.301C204.069 114.912 198.269 115.995 192.648 117.667C187.129 119.307 181.985 121.873 176.799 124.33C175.731 119.765 174.611 115.212 173.556 110.644C173.048 108.445 172.563 106.241 172.087 104.034C171.749 102.465 170.518 99.5405 171.032 97.9972C171.304 97.1796 171.664 97.1763 172.25 96.6712C172.608 96.363 173.232 95.6093 173.603 95.4479C174.508 95.0559 176.829 94.7122 177.754 94.7681C178.597 94.8187 179.038 95.153 179.905 94.9111C180.644 94.7051 181.264 94.1385 181.957 93.8274C183.721 93.0364 185.922 92.7713 187.808 92.3528C189.623 91.9499 191.497 91.8605 193.316 91.4614C194.91 91.1115 195.667 89.9413 197.027 89.9834C200.564 90.0937 204.476 89.6804 207.985 88.8373C211.923 87.8914 216.207 88.0742 220.247 87.9729C221.856 87.9326 222.988 87.5714 222.996 89.359C223.005 91.5409 222.132 93.9898 221.686 96.1197C220.698 100.842 219.861 105.432 219.487 110.227C219.3 112.625 218.314 112.458 216.36 113.193C214.185 114.012 212.211 114.058 209.899 114.301ZM179.249 162.748C180.685 162.96 180.52 159.041 180.625 158.244C184.05 164.687 187.907 170.887 190.924 177.541C191.63 179.097 192.27 180.689 193.015 182.226C193.525 183.279 194.667 184.692 194.639 185.916C194.61 187.194 193.576 187.672 192.485 188.146C191.307 188.658 190.847 188.913 190.016 188.321C189.011 187.604 188.172 185.397 187.552 184.333C186.603 182.708 185.696 181.06 184.767 179.424C183.085 176.459 181.101 173.62 179.719 170.508C178.424 167.592 176.465 165.083 175.07 162.218C173.688 159.381 171.797 156.692 170.208 153.915C171.804 153.253 173.792 151.598 175.605 151.69C177.477 151.785 177.432 153.588 177.513 155.09C177.598 156.684 177.063 162.426 179.249 162.748ZM183.848 191.857C182.994 192.868 181.068 193.462 179.886 194.023C178.25 194.799 176.575 195.49 174.946 196.282C169.604 198.883 164.283 201.263 158.841 203.652C156.027 204.886 153.248 206.198 150.503 207.576C149.064 208.298 145.896 210.827 144.241 210.891C142.344 210.964 142.3 207.143 141.882 205.71C141.531 204.511 140.879 203.577 140.441 202.441C140.262 201.976 140.401 201.624 140.128 201.164C139.818 200.64 138.95 200.218 138.504 199.766C136.608 197.845 135.037 195.4 133.435 193.236C131.968 191.254 129.467 188.772 128.763 186.343C127.38 181.568 135.417 178.925 138.492 177.007C143.877 173.648 149.287 170.198 154.419 166.466C156.757 164.766 159.046 162.999 161.396 161.314C162.492 160.528 165.531 157.47 166.938 158.559C167.462 158.965 167.472 160.088 167.691 160.676C168.169 161.962 168.895 163.085 169.63 164.238C170.282 165.26 171.21 166.316 171.618 167.455C172.104 168.814 172.082 169.584 172.972 170.803C174.59 173.021 175.354 175.578 176.859 177.838C178.31 180.018 179.704 181.626 180.653 184.061C181.197 185.456 182.056 186.695 182.815 187.978C183.173 188.584 183.547 189.18 183.867 189.807C184.441 190.929 184.643 190.915 183.848 191.857ZM137.924 210.507C136.897 211.24 135.385 210.008 134.389 209.991C133.956 209.983 133.525 210.32 133.236 210.312C132.365 210.285 131.654 209.702 130.853 209.431C127.153 208.175 122.743 208.127 119.583 205.578C113.305 200.513 116.298 190.352 117.442 183.769C117.675 182.426 118.094 180.567 117.006 179.468C115.815 178.263 114.022 178.982 112.931 179.957C111.812 180.956 111.051 182.357 110.121 183.524C108.639 185.384 107.022 187.141 105.388 188.867C99.5834 194.998 93.4368 202.014 86.2565 206.514C83.2699 208.386 80.5671 210.922 77.2938 212.349C73.3565 214.065 77.3985 207.441 78.1066 206.364C82.7405 199.321 89.4867 193.744 95.1528 187.561C96.222 186.394 97.7404 184.821 97.7593 183.14C97.7883 180.615 95.5528 180.842 93.7856 181.542C92.1325 182.198 91.3041 183.83 89.9743 184.945C88.3185 186.333 86.384 187.458 84.5409 188.579C80.5662 190.995 76.3464 193.022 72.14 194.999C70.1723 195.924 68.1951 196.829 66.2179 197.734C65.6753 197.982 62.4318 200.035 62.5868 198.275C62.6081 198.039 64.6772 195.532 64.9326 195.439C66.2065 194.974 66.8383 196.376 67.9719 194.539C68.7775 193.234 68.8894 192.556 70.0268 191.566C70.2201 191.398 70.3533 190.972 70.5102 190.695C70.4907 190.799 71.3552 189.96 71.1898 190.106C71.4168 189.906 71.7466 189.54 71.931 189.3C72.82 188.142 74.529 188.119 75.3019 186.796C75.5967 186.292 75.4294 185.646 75.7848 185.145C76.2824 184.444 77.3777 184.145 77.962 183.528C78.4629 182.998 78.8757 182.565 79.1866 182.241C79.4008 182.017 79.7766 181.86 80.0302 181.605C80.6605 180.969 80.6112 180.405 81.4936 179.87C82.286 179.39 82.6505 179.839 82.9244 178.65C83.8888 179.267 83.7679 178.364 84.1594 177.718C84.6684 176.877 85.3148 176.503 86.0162 175.894C87.5593 174.555 89.0057 172.562 90.3189 170.877C93.5837 166.686 96.2248 161.785 97.1973 156.527C97.43 155.269 97.5584 153.999 97.6508 152.724C97.7001 152.054 97.4807 150.421 97.8973 149.764C98.5432 148.745 99.7697 149.149 100.703 148.703C101.02 148.552 101.333 148.105 101.631 148.004C102.047 147.862 102.556 148 102.988 147.864C103.156 147.811 103.195 147.318 103.472 147.255C104.016 147.131 104.557 147.328 105.095 147.336C106.272 147.351 107.435 147.144 108.564 146.77C109.591 146.43 110.45 145.649 111.475 145.368C111.37 145.397 113.164 145.539 113.067 145.438C113.153 144.998 113.239 144.557 113.325 144.116C114.006 144.59 116.328 145.216 117.048 145.108C118.206 144.934 117.962 143.893 118.943 145.26C119.499 144.776 120.055 144.293 120.61 143.81C121.031 145.571 123.929 144.716 125.244 144.814C127.095 144.952 128.553 144.605 130.24 145.248C132.292 146.031 134.092 146.856 136.301 147.069C137.846 147.218 138.488 147.942 140.001 148.389C142.034 148.989 142.195 149.651 141.559 151.724C141.043 153.404 140.598 154.699 141.351 156.423C142.687 159.48 146.318 160.74 148.659 162.852C143.175 166.692 137.76 170.469 132.458 174.561C130.237 176.275 127.875 177.992 126.61 180.57C125.443 182.95 124.781 185.81 124.079 188.357C122.469 194.198 127.005 198.128 131.666 200.698C132.63 201.229 139.272 209.545 137.924 210.507ZM128.879 217.567C128.551 216.443 128.594 216.144 129.681 215.741C130.092 215.588 131.669 215.389 131.924 215.952C132.503 217.23 129.465 217.214 128.879 217.567ZM175.093 136.166C175.482 138.658 175.866 141.152 176.214 143.65C176.405 145.03 176.84 146.251 175.809 147.292C175.224 147.883 173.803 148.104 173.056 148.419C171.977 148.873 170.926 149.394 169.889 149.936C168.04 150.902 166.107 151.484 164.282 152.355C163.488 152.733 163.018 153.479 162.33 153.993C161.39 154.697 160.246 155.039 159.276 155.708C157.542 156.906 155.952 158.323 154.219 159.528C152.256 160.894 151.847 160.455 150.744 158.437C149.754 156.625 148.566 155.799 147.14 154.379C146.586 153.826 144.602 150.678 146.287 150.407C146.719 150.338 148.211 150.985 148.549 151.192C149.063 151.506 149.883 153.293 150.301 153.324C151.053 153.379 152.017 151.242 152.485 150.68C155.557 146.991 158.937 143.342 162.497 140.115C164.342 138.443 166.28 136.919 168.372 135.569C169.859 134.609 171.157 133.264 172.624 132.353C172.934 132.085 173.286 131.894 173.68 131.779C174.445 131.432 174.733 131.731 174.542 132.677C174.981 133.601 174.934 135.145 175.093 136.166ZM107.895 132.899C108.642 132.141 109.585 131.534 110.236 130.688C110.603 130.211 110.846 129.357 111.266 129.049C111.998 128.511 113.045 128.759 113.896 128.038C114.718 127.341 115.44 126.506 116.243 125.784C117.983 124.217 119.779 122.777 121.486 121.182C122.456 120.276 123.474 119.1 124.337 118.502C124.565 118.343 124.821 118.107 125.064 117.985C125.583 117.724 125.842 117.989 126.6 117.746C127.102 117.586 127.46 116.953 127.862 116.653C128.818 115.941 130.064 115.658 130.984 114.973C131.904 114.287 132.347 113.223 133.614 112.651C135.146 111.96 136.294 112.506 137.402 111.184C137.854 110.645 137.977 109.966 138.686 109.626C139.541 109.216 140.291 109.651 141.107 109.185C141.657 108.871 142.033 108.212 142.601 107.868C143.617 107.254 144.742 107.189 145.693 106.429C146.495 105.789 146.049 105.854 147 105.584C147.417 105.465 147.881 105.414 148.327 105.262C149.755 104.776 152.088 104.181 152.934 102.829C153.363 103.454 153.51 103.581 154.207 103.387C154.573 103.09 154.908 102.763 155.214 102.407C155.438 102.69 155.679 102.707 155.935 102.458C157.443 101.941 158.826 101.053 160.31 100.56C160.521 100.673 160.731 100.786 160.941 100.9C161.234 100.916 161.353 100.773 161.297 100.471C161.882 100.365 162.554 100.109 163.093 99.8747C164.125 99.4259 165.265 98.3598 166.481 98.7414C168.512 99.3786 168.609 103.51 168.959 105.148C169.822 109.184 170.692 113.218 171.559 117.252C171.911 118.894 172.221 120.548 172.686 122.162C172.989 123.217 173.745 124.772 173.472 125.894C173.137 127.269 171.793 127.716 170.668 128.352C169.119 129.229 167.621 130.2 166.154 131.21C159.928 135.494 155.286 141.386 150.871 147.43C150.053 146.245 147.862 144.58 146.497 144.046C145.54 143.672 144.68 143.973 143.728 143.517C143.049 143.191 142.485 142.554 141.843 142.144C137.923 139.64 133.191 137.569 128.647 136.576C119.324 134.536 110.197 137.694 101.157 139.193C102.992 136.677 105.734 135.092 107.895 132.899ZM170.301 64.6322C171.896 59.4451 174.582 54.4233 178.406 50.5319C180.334 48.5701 182.6 46.8555 185.14 45.7647C187.349 44.8165 189.977 43.9071 189.943 46.9563C189.868 53.5759 188.335 60.1202 188.148 66.7502C187.966 73.2472 189.056 78.4622 192.998 83.6976C190.5 84.2761 188.004 84.8631 185.516 85.4785C183.627 85.9458 181.667 86.4703 179.88 86.7913C178.113 87.108 176.488 87.3144 174.74 87.9104C173.563 88.3118 171.717 89.5394 170.443 89.2728C168.324 88.8302 168.826 81.2496 168.717 79.4279C168.411 74.2844 168.779 69.5826 170.301 64.6322ZM209.018 74.6196C211.912 71.1155 214.919 67.0272 219.788 66.3762C224.496 65.7471 226.231 71.3796 225.932 75.1773C225.83 76.4626 225.639 79.7996 224.703 80.8406C223.667 81.9924 221.83 81.1241 220.514 80.9466C214.836 80.1797 209.015 81.4598 203.321 81.4598C205.22 79.1789 207.128 76.9071 209.018 74.6196ZM232.316 88.5949C234.291 88.8771 235.868 89.1777 234.914 91.4202C233.005 95.9118 231.539 100.199 233.211 105.095C234.489 108.835 238.535 113.374 242.577 114.124C243.994 114.386 246.125 113.916 246.996 115.352C247.771 116.63 246.931 120.464 246.84 121.884C246.504 127.173 245.146 132.421 241.714 136.577C238.661 140.274 234.935 143.168 230.494 139.678C226.751 136.736 224.54 131.473 223.433 126.976C222.841 124.575 222.769 122.18 222.656 119.726C222.556 117.556 222.142 116.18 224.601 115.73C225.261 115.61 226.908 115.647 226.91 114.643C226.914 113.294 225.128 113.8 224.445 113.732C221.81 113.469 223.044 110.413 223.29 108.436C223.708 105.07 224.385 101.741 225.007 98.409C225.536 95.5705 225.564 91.851 226.714 89.1971C227.385 87.6476 230.998 88.4065 232.316 88.5949ZM237.166 98.5629C237.466 96.7332 237.626 94.4467 239.445 93.4355C241.445 92.3244 242.446 94.1347 243.433 95.6141C246.051 99.5381 248.947 103.21 249.376 108.082C249.427 108.663 249.677 109.829 249.116 110.231C248.865 110.411 248.267 109.938 247.88 109.966C245.806 110.114 244.307 110.669 242.274 109.501C238.296 107.215 236.443 102.978 237.166 98.5629ZM252.806 109.521C252.379 105.262 250.407 101.484 248.203 97.8873C247.118 96.114 245.008 94.1754 244.258 92.3021C243.857 91.2985 244.567 90.0558 246.028 90.4862C246.756 90.7006 248.156 92.625 248.643 93.2911C249.892 95.0024 250.927 96.9112 251.915 98.7802C252.971 100.777 255.973 108.106 252.806 109.521ZM239.712 67.102C239.943 63.0941 239.966 58.4917 242.568 55.1656C244.585 52.5865 248.277 51.4636 251.273 50.4666C255.308 49.1231 260.155 48.9157 264.376 49.3498C268.09 49.7323 270.894 52.2551 273.186 55.0292C275.517 57.8502 277.323 61.4827 278.926 64.7652C279.327 65.5866 282.73 70.856 280.429 70.7334C279.516 70.6847 278.722 68.9066 278.023 68.3816C277.475 67.9702 276.826 68.0213 276.335 67.6923C275.809 67.3396 275.923 67.0134 275.515 66.5779C272.703 63.5832 270.117 65.3078 267.085 66.8851C266.943 65.8403 267.192 63.8994 266.316 63.1358C265.17 62.1364 263.973 63.7195 263.151 64.4959C262.402 65.2031 261.48 66.4917 260.537 66.8743C259.314 67.3709 259.73 66.843 258.667 66.4259C256.527 65.5861 254.881 68.0715 253.799 69.5168C253.395 70.056 252.735 71.417 252.012 71.5628C251.313 71.7034 251.222 71.2068 250.619 71.0232C248.915 70.5048 248.444 71.7172 247.9 73.2226C247.29 74.9155 246.77 76.5463 245.865 78.1275C244.266 80.9253 243.578 81.8456 244.844 84.935C242.996 85.2087 242.608 85.4283 241.692 83.7927C240.748 82.1069 240.503 80.7085 240.562 78.7709C240.687 74.7185 239.474 71.2182 239.712 67.102ZM282.607 86.2762C284.541 89.7614 285.771 94.6114 285.75 98.5823C285.74 100.552 285.624 102.975 284.702 104.762C283.818 106.477 281.966 107.336 280.26 108.066C276.149 109.828 271.518 109.807 267.195 109.022C264.951 108.614 262.769 108.877 260.849 107.532C259.405 106.52 257.662 105.537 257.239 103.68C257.062 102.904 257.335 102.252 257.278 101.49C257.348 101.127 257.322 100.774 257.2 100.428C256.948 100.283 256.694 100.142 256.437 100.005C256.235 99.4259 256.622 98.7807 256.523 98.1761C256.403 97.4461 255.796 96.852 255.512 96.1902C254.73 94.3662 255.288 93.3455 256.752 92.1066C257.103 91.8316 257.455 91.5594 257.81 91.2895C258.128 90.7872 258.48 90.7854 258.865 91.2829C259.562 91.2924 259.541 91.5068 260.274 91.2938C261.881 90.827 263.228 89.1223 264.801 88.5234C265.413 88.2905 266.324 88.4884 266.821 88.059C267.265 87.6751 266.979 86.8703 267.369 86.4935C268.613 85.2896 270.572 86.431 271.723 84.6808C272.662 83.253 272.463 81.2269 272.559 79.6055C275.444 80.1556 276.693 82.9127 279.062 84.2997C279.531 82.4875 279.599 82.5415 281.409 82.044C280.589 83.5565 281.914 85.0288 282.607 86.2762ZM284.814 67.0371C285.346 67.7197 285.751 69.415 284.814 69.5788V67.0371ZM287.276 73.2031C291.68 73.2122 294.494 78.7657 295.78 82.2059C297.178 85.9472 298.65 90.9368 296.042 94.5806C295.042 95.9776 293.815 96.1059 292.205 95.9246C290.266 95.7064 289.272 95.4266 290.031 93.3592C291.453 89.4854 290.383 84.5606 287.863 81.3178C291.329 80.6498 289.132 77.4785 287.393 76.2917C285.361 74.906 283.719 73.1956 287.276 73.2031ZM186.739 273.971C185.703 276.712 184.65 279.445 183.781 282.27C182.957 284.946 183.434 287.962 182.41 290.535C181.779 290.224 181.599 289.672 181.051 289.336C180.713 289.128 180.125 289.046 179.835 288.818C179.337 288.426 178.128 286.965 177.8 286.399C176.669 284.439 177.424 281.254 178.028 279.24C178.777 276.746 180.056 274.351 181.774 272.385C182.979 271.008 183.643 271.446 185.254 272.125C186.207 272.526 187.188 272.782 186.739 273.971ZM178.89 295.598C178.063 297.268 176.534 298.645 175.625 300.329C174.672 302.096 173.95 304.087 172.734 305.704C171.496 307.351 170.384 307.076 168.68 307.786C168.068 308.041 167.811 308.514 167.318 308.882C166.395 309.573 165.383 309.997 164.412 310.611C163.722 308.922 161.614 300.442 158.931 300.624C156.599 300.781 157.792 305.221 158.093 306.531C158.347 307.637 158.637 308.761 159.024 309.829C159.414 310.908 160.631 312.524 160.181 313.706C159.609 315.21 158.185 315.111 157.473 314.014C156.877 313.097 156.574 311.851 156.134 310.853C155.748 309.976 153.982 305.175 152.456 305.919C150.986 306.637 153.272 311.291 153.655 312.206C154.579 314.413 156.352 316.535 154.009 318.304C150.454 320.99 146.076 323.012 142.092 324.948C139.767 326.078 137.676 327.564 135.236 328.481C132.969 329.333 130.35 329.479 128.158 330.458C127.619 330.7 127.98 331 127.193 331.14C126.532 331.257 125.378 330.942 124.67 330.949C123.496 330.96 122.32 331.049 121.149 330.902C120.49 330.819 118.988 330.098 119.225 331.289C118.292 331.03 117.931 330.09 117.25 329.503C116.643 328.98 115.869 328.696 115.191 328.285C113.791 327.435 112.744 326.467 112.324 324.847C111.338 321.044 113.423 317.086 115.996 314.434C117.473 312.913 119.205 311.648 120.56 310.01C121.035 309.435 121.373 308.767 121.976 308.301C122.715 307.728 123.728 307.657 124.443 307.078C124.975 306.647 125.135 305.96 125.692 305.564C126.517 304.98 127.483 305.223 128.262 304.455C128.706 304.017 130.233 301.953 130.125 301.381C130.543 301.521 130.962 301.66 131.379 301.8C131.633 300.528 133.832 298.959 134.917 298.35C135.466 298.042 136.535 298.057 136.943 297.725C137.486 297.284 137.441 296.359 137.872 295.805C139.108 294.217 141.694 293.505 143.33 292.4C145.412 290.993 147.434 289.399 149.315 287.734C153.116 284.369 156.467 280.458 159.205 276.186C160.308 274.466 161.331 272.711 162.116 270.825C162.6 269.664 163.082 267.6 164.276 266.927C165.509 266.231 168.341 267.173 169.722 267.272C171.75 267.418 174.911 267.328 176.729 268.322C178.673 269.385 177.093 270.264 176.092 271.531C174.628 273.386 173.751 275.657 173.019 277.883C172.456 279.594 172.351 281.251 171.983 282.976C171.594 284.8 171.598 287.264 172.499 288.94C173.392 290.599 179.822 293.721 178.89 295.598ZM102.226 329.232C97.8593 323.301 101.474 314.62 105.746 309.827C110.9 304.045 118.235 300.793 124.26 296.09C131.227 290.653 138.382 285.602 144.556 279.224C147.685 275.991 150.409 272.507 152.88 268.751C154.977 265.561 156.499 261.312 160.737 260.851C158.237 263.959 158.091 268.437 156.159 271.898C154.113 275.563 151.096 278.61 148.024 281.427C141.538 287.375 134.532 292.824 127.526 298.14C123.949 300.853 120.472 303.688 116.908 306.415C113.717 308.857 110.364 310.946 108.524 314.667C105.351 321.087 105.161 330.598 112.189 334.553C108.568 333.833 104.495 332.313 102.226 329.232ZM482.945 61.7875C481.653 59.2089 479.231 58.2905 476.8 57.2817C474.421 56.2946 472.246 55.0785 469.607 54.7627C468.433 54.6221 465.123 54.971 464.969 53.2743C464.84 51.8608 468.298 50.442 469.095 49.365C470.277 47.7687 471.08 45.1768 470.621 43.1606C470.187 41.2485 468.323 40.6444 466.582 40.2979C461.169 39.2209 455.412 40.0129 449.984 40.4555C450.649 39.5286 451.585 38.7683 452.118 37.6582L452.978 39.4429C453.468 38.4223 454 37.4205 454.609 36.4647C455.021 36.9268 455.434 37.3893 455.846 37.8513C455.161 35.4517 457.466 35.464 457.223 33.4411C457.129 32.6543 456.595 32.3097 456.464 31.6772C456.206 30.4199 457.179 29.6335 456.072 28.4676C454.839 27.169 452.823 27.6841 451.388 27.8053C451.208 27.8209 450.947 28.1764 450.714 28.2053C450.391 28.246 450.206 27.8029 449.806 27.8266C448.737 27.8895 447.794 28.7185 446.73 28.9703C441.802 30.1377 436.873 32.2197 432.143 34.1635C427.328 36.1424 422.6 38.4464 418.402 41.5519C413.909 44.8757 410.664 49.1486 407.075 53.3586C405.389 55.337 403.644 57.2367 402.36 59.5162C401.696 60.694 401.096 64.3936 399.902 64.9314C398.605 65.5156 395.344 63.8639 394.018 63.559C390.895 62.8423 387.788 62.5431 384.587 62.687C382.041 62.8006 379.355 62.7329 376.83 63.0435C375.364 63.2238 371.711 64.8462 371.477 66.6603C371.373 67.4665 372.299 68.1368 372.507 68.8924C372.821 70.0352 372.302 71.2457 372.663 72.3908C373.401 74.7256 376.824 75.5849 378.841 76.3201C384.473 78.3737 390.181 79.9657 395.871 81.804C398.343 82.6031 400.457 83.8751 402.696 85.1523C404.553 86.2109 406.248 87.2699 404.372 89.2577C402.595 91.1409 402.816 91.9007 403.346 94.4949C403.904 97.2326 404.097 100.001 404.825 102.712C405.549 105.412 406.903 107.991 406.639 110.847C406.375 113.694 405.194 116.619 404.09 119.228C402.975 121.864 401.743 124.469 400.531 127.063C399.409 129.462 398.196 131.894 395.601 132.918C390.648 134.873 384.32 134.563 379.158 133.853C373.299 133.047 367.247 131.681 361.706 129.596C356.378 127.591 350.518 124.516 346.112 120.882C343.758 118.941 341.209 117.503 338.711 115.766C336.18 114.006 334.257 111.633 332.039 109.525C327.693 105.395 322.342 102.548 316.834 100.278C310.642 97.725 304.249 97.9901 297.688 97.7141C298.721 95.6898 300.05 93.755 300.538 91.5016C301.046 89.1545 300.678 86.6043 300.356 84.2595C299.731 79.6954 298.547 75.6786 295.659 71.9927C294.339 70.3069 292.796 68.9927 290.596 68.748C289.264 68.5993 286.801 69.6205 285.839 68.4942C285.415 67.9976 285.514 66.9533 285.247 66.3417C285.011 65.7987 284.537 65.2524 284.279 64.6625C283.178 62.1412 281.803 59.9129 280.431 57.5208C279.886 56.5697 279.463 55.1656 278.718 54.3651C278.314 53.9295 277.793 53.7316 277.566 53.413C277.142 52.817 276.947 51.7273 276.593 51.0546C275.989 49.9032 275.219 48.8333 274.331 47.8832C272.911 46.3645 271.083 45.0243 269.137 44.2678C268.056 43.8475 267.264 43.7481 266.134 43.8096C265.804 43.8276 265.436 44.0179 265.105 43.9928C264.313 43.9327 264.437 43.6496 263.803 43.518C259.557 42.636 253.864 43.8735 249.881 45.3927C245.686 46.9928 242.279 49.1027 239.73 52.8942C233.468 62.206 234.928 74.2295 237.584 84.4858C235.977 84.0649 234.377 83.5669 232.755 83.2104C231.762 82.9917 230.406 83.0329 229.519 82.5098C227.545 81.3462 229.15 78.36 229.162 76.4304C229.193 71.5278 226.874 63.861 221.816 61.7904C216.545 59.6326 210.134 65.6893 206.876 69.1239C204.786 71.3271 202.885 73.7017 200.885 75.9844C199.487 77.5798 197.642 80.1234 195.192 79.7063C189.848 78.7974 191.478 68.6557 191.715 65.2278C192.09 59.8087 192.89 54.303 192.894 48.8703C192.897 45.5678 192.324 41.1126 188.259 40.7254C182.664 40.1928 177.363 45.2696 174.1 49.1756C165.496 59.4754 163.595 73.0896 165.897 86.0144C166.234 87.9094 167.312 90.2466 165.256 91.423C162.556 92.9687 159.103 93.9046 156.202 95.0394C149.712 97.5758 143.703 100.96 137.593 104.267C131.545 107.541 125.592 110.792 120.135 115.011C114.695 119.217 109.31 123.673 104.354 128.441C101.884 130.818 99.501 133.297 97.2523 135.885C95.1362 138.319 93.4221 141.084 91.1222 143.359C89.5568 144.908 86.6768 146.985 86.3328 149.349C86.0546 151.256 89.2796 152.578 90.735 153.46C91.7326 154.064 92.424 154.046 92.496 155.123C92.5851 156.467 91.1653 158.621 90.6596 159.902C89.3715 163.171 87.6877 165.878 85.4745 168.599C80.5719 174.624 74.6474 179.733 69.0244 185.085C63.7995 190.058 58.6798 194.953 54.8501 201.124C53.9117 202.636 51.5763 205.742 53.7956 207.157C54.37 207.523 56.1325 207.813 56.7173 207.419C57.4419 206.932 57.0747 206.198 57.931 205.709C57.7163 207.352 65.1961 204.141 65.7781 203.843C67.3501 203.04 68.7718 202.098 70.3789 201.378C71.3215 200.955 71.4357 200.367 72.1655 199.895C72.5556 199.643 72.5603 199.981 73.0826 199.825C73.5527 199.683 74.656 199.629 75.0067 199.177C75.0161 199.164 75.3991 198.071 75.0735 198.297C76.3478 197.412 77.1009 198.751 76.336 200.008C74.0745 203.724 71.2149 206.457 70.3286 210.922C70.0069 212.544 69.4576 215.554 70.45 217.032C70.486 217.086 70.8201 216.929 70.8609 216.987C70.8988 217.041 71.2627 217.546 71.4125 217.689C72.2892 218.526 72.2328 218.9 73.6963 218.864C74.3456 218.849 75.6398 218.766 76.2341 218.473C76.681 218.253 76.8995 217.711 77.2431 217.518C77.5909 217.322 77.5497 217.22 77.8762 217.106C77.943 217.083 78.0715 217.652 78.1985 217.628C78.8956 217.497 79.1961 217.082 79.7885 216.747C81.4955 215.783 83.1689 214.724 84.7944 213.753C86.4304 212.776 87.6526 211.414 89.2824 210.279C91.0136 209.074 92.4297 208.149 93.7614 206.476C94.6832 205.318 95.7831 204.896 96.4021 204.326C97.1366 203.648 98.4025 201.035 99.5863 200.724C100.125 200.582 100.556 201.058 100.852 200.863C101.184 200.644 100.822 200.223 100.989 199.976C101.3 199.515 101.339 199.438 101.868 199.016C102.546 198.475 103.38 198.329 103.949 197.624C104.581 196.84 104.668 195.96 105.447 195.226C107.319 193.458 108.986 191.596 110.971 189.882C110.204 194.145 109.445 198.378 110.039 202.714C110.614 206.916 112.402 208.798 115.911 210.931C116.683 211.4 117.494 212.083 118.323 212.416C118.827 212.619 119.586 212.498 119.962 212.647C121.235 213.15 120.802 214.18 120.976 215.341C121.247 217.14 122.905 218.525 123.974 219.927C124.874 221.106 126.497 223.788 128.003 224.195C129.362 224.563 130.644 222.977 131.777 222.301C133.484 221.283 135.343 220.553 137.143 219.721C140.659 218.096 144.056 216.157 147.533 214.438C149.121 213.653 150.725 213.333 152.406 212.826C154.424 212.217 156.147 211.053 158.084 210.258C161.565 208.829 164.901 207.124 168.361 205.623C175.523 202.517 183.335 200.384 189.708 195.725C192.591 193.617 196.303 193.392 199.145 191.344C202.107 189.208 200.29 185.943 199.023 183.322C195.558 176.163 193.49 168.728 188.721 162.207C186.243 158.818 183.953 155.316 181.792 151.714C179.88 148.526 179.919 144.915 179.44 141.314C179.118 138.907 178.817 136.49 178.425 134.094C178.176 132.571 177.372 130.652 178.344 129.272C179.389 127.789 181.869 127.157 183.437 126.375C185.385 125.402 187.272 124.356 189.293 123.533C193.913 121.652 198.778 120.35 203.624 119.201C205.069 118.859 211.254 116.408 212.431 117.844C210.985 118.808 210.563 120.559 209.914 122.06C208.948 124.296 207.951 126.427 207.247 128.771C205.791 133.616 204.552 138.539 203.365 143.457C202.186 148.339 200.781 153.259 200.42 158.289C200.236 160.856 200.362 163.425 200.357 165.995C200.353 168.738 199.782 171.428 199.884 174.178C199.952 176.006 200.106 178.202 201.18 179.762C202.174 181.208 203.866 181.369 205.34 182.142C207.285 183.161 208.047 183.596 208.065 185.815C208.086 188.401 207.918 190.941 208.161 193.526C209.005 202.526 212.036 213.206 218.086 220.154C218.488 220.617 230.225 235.386 231.524 233.224C232.42 234.281 233.757 234.668 234.859 235.589C236.59 237.038 238.288 238.196 239.719 239.99C242.324 243.255 244.539 247.081 245.191 251.256C245.75 254.849 245.414 259.144 243.383 262.258C241.345 265.382 236.989 267.432 233.701 268.97C229.378 270.991 224.992 271.219 220.299 270.712C217.983 270.462 215.686 270.072 213.387 269.703C212.43 269.549 211.315 269.548 210.41 269.189C209.438 268.804 209.11 268.378 208.14 268.33C207.416 268.295 207.021 268.455 206.255 268.295C205.308 268.098 204.279 267.739 203.334 267.497C202.284 267.227 201.423 266.843 200.454 266.348C199.558 265.889 198.549 265.801 197.686 265.367C196.2 264.618 195.741 263.367 193.73 264.06C191.607 264.793 192.051 266.625 190.696 267.881C189.491 268.997 187.999 267.965 186.801 267.301C185.037 266.324 183.205 265.511 181.327 264.771C179.298 263.972 177.225 263.277 175.114 262.727C172.805 262.125 170.268 262.006 168.043 261.13C166.088 260.361 165.247 258.873 163.831 257.482C162.341 256.02 160.32 255.462 158.255 255.592C154.495 255.83 151.926 259.886 149.94 262.703C144.39 270.571 138.255 277.275 130.836 283.456C127.292 286.409 123.296 288.92 119.868 291.984C118.423 293.277 117.373 294.489 115.661 295.452C113.411 296.716 111.37 298.302 109.22 299.728C100.81 305.304 94.641 313.426 96.967 324.032C98.0138 328.806 100.105 332.157 104.012 335.03C105.786 336.334 107.409 337.419 109.668 337.343C111.802 337.272 113.684 337.198 112.428 334.665C114.02 335.157 115.353 336.371 117.091 336.993C119.094 337.708 121.699 338.154 123.826 338.198C127.23 338.268 131.235 336.477 134.217 335.717C135.05 335.506 136.656 335.158 137.606 334.377C138.362 333.755 138.198 333.019 139.341 332.724C140.839 332.338 141.409 332.79 142.844 331.884C144.925 330.57 147.183 329.789 149.342 328.577C152.25 326.945 155.046 325.105 157.928 323.424C158.312 324.481 160.57 330.758 161.964 327.732C163.178 325.097 159.238 322.842 161.633 320.175C163.917 317.631 164.395 320.305 166.611 321.486C169.688 323.125 169.226 320.063 168.332 318.25C167.974 317.524 167.222 316.431 167.443 315.585C167.871 313.951 169.195 314.91 170.237 315.077C171.877 315.339 173.203 314.889 174.435 313.791C175.462 312.876 177.161 312.085 177.781 310.878C178.092 310.274 178.146 309.444 178.405 308.803C178.745 307.957 178.988 308.162 179.112 307.114C178.993 306.571 178.946 306.022 178.97 305.466C179.24 305.412 179.508 305.358 179.777 305.303C179.785 305.265 179.804 304.207 179.696 304.364C179.947 304 180.486 303.846 180.797 303.341C181.082 302.876 180.817 301.985 180.932 301.436C181.164 300.326 181.797 299.43 182.315 298.439C183.41 303.062 183.093 307.883 184.139 312.508C184.999 316.305 186.956 319.709 189.24 322.822C190.298 324.265 191.699 325.289 192.807 326.661C193.744 327.821 194.213 328.843 195.597 329.529C196.517 329.984 197.553 330.219 198.501 330.613C199.108 330.865 200.489 332.023 201.058 332.003C200.562 332.021 201.989 332.065 201.659 332.009C201.683 332.013 201.489 331.389 201.662 331.399C203.731 333.354 205.893 333.358 208.287 334.573C209.384 335.13 209.795 335.095 210.964 335.301C212.48 335.568 213.755 336.43 215.206 336.522C217.439 336.664 219.955 336.963 222.283 336.88C222.917 336.858 224.108 336.451 224.605 337.004C224.933 337.368 224.31 340.007 224.271 340.611C223.862 346.946 224.71 353.598 227.39 359.395C229.612 364.202 231.981 369.888 235.91 373.559C240.266 377.628 246.368 380.495 252.194 381.592C258.644 382.807 265.038 381.898 271.508 381.52C278.073 381.137 284.147 380.208 290.478 378.309C296.366 376.544 301.942 374.243 307.576 371.816C311.408 370.166 316.266 367.79 314.257 362.781C313.771 361.569 311.888 358.201 310.222 359.863C308.747 361.333 311.212 364.116 312.327 365.05C303.92 370.899 293.717 372.834 283.879 374.906C278.476 376.044 273.153 375.996 267.657 376.012C263 376.025 258.344 376.159 253.717 375.51C249.531 374.923 244.657 373.822 241.542 370.769C238.284 367.574 235.201 363.761 232.976 359.776C230.536 355.403 229.944 350.674 229.747 345.743C229.643 343.146 229.526 340.518 229.798 337.928C229.996 336.047 230.958 335.824 231.436 334.338C232.539 335.88 233.265 335.31 234.619 334.409C235.494 336.847 235.104 339.381 234.954 341.895C234.807 344.344 235.135 346.827 235.435 349.259C235.945 353.394 237.931 357.706 240.45 361.035C241.589 362.54 243.296 363.176 244.84 364.215C246.809 365.54 248.85 366.774 250.905 367.963C254.775 370.203 258.999 372.117 263.36 372.455C264.888 372.573 265.999 373.368 267.82 373.256C268.901 373.19 269.99 372.821 271.068 372.851C272.149 372.88 273.078 373.225 274.188 373.145C278.802 372.811 283.559 371.303 288.127 370.475C293.074 369.578 298.051 368.613 302.773 366.843C304.819 366.075 306.508 365.086 307.65 363.158C308.466 361.781 308.252 359.311 309.773 358.487C308.777 357.206 309.147 356.98 310.007 355.834C310.409 355.3 311.705 353.886 310.133 353.912C310.61 351.848 309.811 349.852 309.471 347.833C309.324 346.961 309.364 345.64 308.823 344.889C308.507 344.452 307.983 344.443 307.7 344.121C307.409 344.114 307.181 343.993 307.017 343.758C306.998 343.413 307.159 343.203 307.502 343.128C307.423 342.445 307.929 342.69 307.423 341.623C306.732 340.166 305.422 338.898 304.182 337.908C303.125 337.064 302.346 335.565 301.126 335.115C299.539 334.529 297.874 333.892 296.205 333.348C292.423 332.115 288.674 331.643 284.706 332.327C282.888 332.64 281.098 333.025 279.342 333.585C278.315 333.913 276.744 334.799 275.835 333.844C275.523 333.516 274.87 330.733 274.911 330.433C275.074 329.226 277.544 328.738 278.446 328.317C279.823 327.673 282.374 326.985 283.249 325.707C283.616 325.172 283.201 322.897 283.261 322.856C283.839 322.468 286.265 327.992 286.926 328.369C287.881 328.914 290.565 328.194 291.552 328.085C294.499 327.762 297.494 327.579 300.38 326.877C305.913 325.533 311.346 323.453 316.731 321.616C326.976 318.12 336.867 313.512 346.076 307.789C350.378 305.116 354.65 301.699 357.924 297.818C359.4 296.067 360.443 293.991 361.95 292.274C363.689 290.294 363.141 288.507 363.92 286.027C365.498 281.006 367.414 276.445 368.274 271.184C369.158 265.767 369.523 260.236 369.278 254.751C368.793 243.912 368.266 233.635 363.491 223.675C359.115 214.548 353.445 205.63 346.704 198.073C345.137 196.316 343.481 194.643 341.556 193.277C339.483 191.806 337.202 190.652 335.326 188.914C333.787 187.488 332.499 185.809 330.889 184.455C328.912 182.794 326.561 182.06 324.246 180.999C322.027 179.983 320.002 178.661 317.733 177.736C316.352 177.173 314.953 176.654 313.513 176.261C312.449 175.971 311.035 175.953 310.063 175.401C308.523 174.529 306.948 171.99 305.942 170.556C304.475 168.464 303.68 166.029 302.982 163.597C302.133 160.637 301.343 157.66 300.513 154.695C300.229 153.682 299.169 150.156 301.284 151.011C301.903 151.262 302.483 152.374 302.96 152.849C303.863 153.752 304.979 154.558 306.1 155.171C307.908 156.161 309.79 157.352 311.524 158.034C313.052 158.635 314.623 159.813 316.048 160.661C316.264 160.789 316.327 161.232 316.606 161.356C317.262 161.647 317.7 160.845 318.32 161.041C319.166 161.31 319.306 162.106 319.776 162.739C320.457 163.658 320.81 163.731 321.851 164.203C323.009 164.729 323.859 165.768 324.988 166.283C326.36 166.908 329.378 166.423 329.584 168.579C331.715 167.19 334.389 169.887 335.719 171.287C337.058 169.235 339.429 171.637 341.456 170.956C340.334 172.511 340.538 172.356 342.307 172.549C343.801 172.712 344.695 173.701 346.171 174.276C347.193 174.673 348.323 175.343 349.385 175.623C350.39 175.889 351.151 175.294 352.025 175.443C352.629 175.545 353.202 176.066 353.776 176.208C354.503 176.388 355.539 176.608 356.362 176.802C357.362 177.039 358.357 176.822 359.355 177.01C360.519 177.23 361.524 177.922 362.706 178.146C364.024 178.397 365.395 178.229 366.704 178.548C367.899 178.839 368.625 179.173 369.862 179.185C371.707 179.203 373.766 179.447 375.588 179.239C376.558 179.128 377.095 178.637 378.193 179.117C378.925 179.437 379.364 180.426 380.362 179.973C379.309 179.551 380.233 177.911 381.395 179.167C381.67 178.463 381.847 178.069 382.611 177.838C382.573 178.528 382.46 179.22 383.342 179.365C383.409 178.885 383.477 178.405 383.545 177.925C385.461 179.38 385.915 179.894 387.724 178.118C387.675 178.7 387.429 179.358 388.022 179.769C388.401 179.14 388.78 178.512 389.16 177.883C389.8 179.912 392.859 179.212 394.341 178.852C394.916 178.713 396.505 178.492 396.88 178.022C397.14 177.696 397.108 177.441 397.204 177.241C397.29 177.063 396.315 176.627 397.145 176.372C397.769 176.179 398.256 177.546 398.989 177.491C399.643 177.443 399.908 176.338 400.379 176.114C400.424 176.093 400.743 176.56 400.964 176.458C401.308 176.299 401.504 175.88 401.884 175.732C402.706 175.411 403.77 175.491 404.691 175.111C405.859 174.628 407.036 174.398 408.228 174C409.74 173.496 410.426 172.506 411.653 171.695C411.941 171.505 412.24 171.616 412.523 171.482C412.903 171.301 413.302 170.876 413.755 170.676C415.176 170.047 416.39 169.62 417.738 168.752C418.939 167.979 420.526 167.407 421.596 166.479C422.486 165.707 422.967 164.578 423.862 163.792C425.149 162.664 428.472 161.248 427.933 159.042C430.084 159.37 430.611 157.981 431.4 156.448C432.151 154.991 433.69 154.554 434.697 153.224C435.132 152.65 435.833 151.853 436.073 151.197C436.216 150.807 435.857 150.4 435.954 150.133C436.4 148.909 438.122 148.374 438.919 147.269C439.933 145.864 440.259 144.086 441.104 142.642C441.271 142.358 441.681 142.19 441.839 141.887C441.941 141.692 441.729 141.21 441.853 141.019C442.148 140.565 442.611 140.408 442.908 139.988C443.625 138.97 443.756 137.523 444.4 136.37C444.559 136.086 445.111 135.292 445.181 135.123C445.414 134.555 445.344 134.181 445.464 133.549C445.5 133.359 445.868 132.259 445.943 132.102C446.18 131.611 446.408 131.538 446.77 130.999C447.675 129.651 448.237 127.532 448.311 125.895C448.343 125.201 448.111 124.483 448.363 123.82C448.581 123.248 449.251 122.894 449.504 122.294C450.166 120.721 450.058 118.496 450.241 116.814C450.439 114.979 451.027 113.171 451.189 111.35C451.268 110.469 450.853 109.688 450.884 108.858C450.919 107.907 451.414 107.73 451.604 106.939C451.822 106.036 451.503 104.995 451.697 104.026C451.878 103.126 452.141 102.291 452.216 101.367C452.411 98.9601 452.136 96.442 452.031 94.0338C451.991 93.0993 451.866 92.1246 452.113 91.2095C452.313 90.4734 453.127 89.6501 453.101 88.8515C453.017 86.3841 451.039 88.5196 449.902 88.3502C448.58 88.1537 448.336 85.194 447.988 84.0716C447.137 81.3291 446.285 78.5872 445.434 75.8452C449.492 74.791 453.712 75.0949 457.855 74.8104C461.927 74.5311 465.902 73.6496 469.85 72.6573C473.183 71.8194 476.83 71.3337 479.825 69.5447C482.34 68.0431 484.414 64.7198 482.945 61.7875Z" fill="black"/>
<path fill-rule="evenodd" clip-rule="evenodd" d="M88.837 114.871C90.4606 114.03 90.0511 112.866 91.2433 111.785C97.9155 105.737 105.745 100.456 113.593 96.0947C121.86 91.5 131.137 89.5543 139.588 85.483C140.724 84.9354 142.201 84.0792 141.777 82.5535C141.281 80.7707 139.58 81.5912 138.367 82.0116C134.325 83.414 130.023 83.9416 125.924 85.1735C117.173 87.8025 108.978 92.3362 101.565 97.6423C97.2524 100.729 93.1209 104.142 89.4381 107.975C88.0818 109.386 86.2733 111.032 85.9205 113.065C85.4835 115.58 86.9746 115.837 88.837 114.871Z" fill="black"/>
<path fill-rule="evenodd" clip-rule="evenodd" d="M114.109 273.018C114.07 270.795 111.643 271.603 110.394 271.902C105.318 273.117 100.781 274.048 96.2884 276.863C87.9512 282.086 81.6341 290.022 77.5472 298.803C77.0031 299.972 74.8119 303.675 76.5681 304.778C77.7258 305.505 78.4281 303.387 78.8607 302.602C81.0619 298.601 84.0091 295.059 86.9726 291.583C93.5526 283.864 101.462 278.966 110.926 275.389C112.086 274.95 114.138 274.634 114.109 273.018Z" fill="black"/>
<path fill-rule="evenodd" clip-rule="evenodd" d="M394.662 218.414C392.906 214.89 390.066 210.542 386.138 209.091C383.964 208.287 382.678 209.616 383.323 211.837C383.836 213.603 385.549 214.465 386.828 215.637C390.118 218.65 392.145 223.149 393.347 227.327C394.617 231.744 394.871 236.537 394.848 241.11C394.836 243.524 394.19 245.622 393.84 247.972C393.702 248.895 393.467 250.931 394.531 251.508C396.889 252.786 397.979 246.113 398.219 244.829C399.107 240.096 399.021 235.738 398.274 231.012C397.59 226.691 396.631 222.367 394.662 218.414Z" fill="black"/>
<path fill-rule="evenodd" clip-rule="evenodd" d="M387.916 49.0764C388.876 47.7859 388.175 45.9794 388.461 44.5081C388.76 42.966 389.653 41.4059 390.407 40.0569C392.038 37.1445 393.856 34.2846 395.794 31.5682C397.795 28.763 400.236 26.3728 402.363 23.6776C403.082 22.7659 404.357 21.4627 404.046 20.3653C403.543 18.5886 402.447 19.4545 401.569 20.1991C396.769 24.2707 392.542 29.2909 389.128 34.5636C387.508 37.0662 385.977 39.8067 385.44 42.7752C385.164 44.3084 385.161 45.9081 385.617 47.4091C385.903 48.3526 386.764 50.627 387.916 49.0764Z" fill="black"/>
<path fill-rule="evenodd" clip-rule="evenodd" d="M92.117 266.259C94.5221 266.037 96.9411 265.958 99.3519 265.834C101.136 265.743 103.144 265.853 104.782 264.996C106.43 264.133 105.713 262.841 104.343 262.65C103.555 262.54 102.226 263.07 101.381 263.107C100.467 263.146 99.5479 263.118 98.6331 263.121C95.9588 263.131 93.077 263.111 90.4987 263.998C89.6567 264.287 88.3808 264.734 88.0345 265.695C87.2939 267.749 91.0015 266.362 92.117 266.259Z" fill="black"/>
<path fill-rule="evenodd" clip-rule="evenodd" d="M113.178 78.321C116.671 77.9032 120.047 76.859 123.488 76.1935C126.76 75.5611 127.317 72.9878 123.443 73.1034C122.143 73.1421 109.603 75.515 113.178 78.321Z" fill="black"/>
<path fill-rule="evenodd" clip-rule="evenodd" d="M401.804 207.373C399.458 206.787 400.671 209.384 401.398 210.187C402.741 211.671 403.474 212.783 403.873 214.762C404.106 215.915 403.888 218.517 404.868 219.398C405.834 220.265 405.901 219.689 406.072 218.619C406.556 215.6 405.59 208.319 401.804 207.373Z" fill="black"/>
<path fill-rule="evenodd" clip-rule="evenodd" d="M376.042 43.0613C376.707 42.3584 375.994 39.3017 376.072 38.4059C376.168 37.3205 376.426 36.4019 376.75 35.3833C376.908 34.8895 377.701 33.1462 377.274 32.6049C376.682 31.8546 375.699 33.1225 375.387 33.6216C374.375 35.2459 374.139 37.9542 374.307 39.7833C374.368 40.4454 374.769 44.406 376.042 43.0613Z" fill="black"/>
<path fill-rule="evenodd" clip-rule="evenodd" d="M237.872 300.821C237.982 299.089 239.653 297.889 239.658 296.048C239.664 293.979 238.269 293.083 236.531 294.428C235.483 295.239 234.667 297.214 233.25 297.472C230.407 297.992 229.292 292.899 226.491 293.488C224.067 293.998 225.341 298.152 226.073 299.553C226.848 301.039 228.256 302.081 227.798 303.908C227.253 306.079 225.386 307.33 226.112 309.807C227.462 314.409 230.391 310.106 232.153 308.66C233.408 307.629 234.167 307.812 235.386 308.823C237.055 310.207 238.332 311.148 240.357 312.081C242.143 312.903 243.866 313.478 243.921 310.717C243.965 308.545 242.321 306.385 240.878 304.912C239.681 303.689 237.749 302.748 237.872 300.821Z" fill="black"/>
<path fill-rule="evenodd" clip-rule="evenodd" d="M206.578 293.954C204.489 291.732 201.849 297.4 200.161 298.028C197.424 299.044 196.794 293.595 194.274 293.766C192.313 293.9 192.467 296.704 192.894 297.983C193.354 299.359 194.73 300.485 194.96 301.895C195.314 304.057 191.214 308.379 194.076 310.467C196.518 312.25 197.428 306.226 200.482 308.684C201.981 309.89 206.176 314.38 208.254 312.145C210.71 309.505 204.869 304.996 203.802 302.988C202.36 300.269 209.64 297.211 206.578 293.954Z" fill="black"/>
<path fill-rule="evenodd" clip-rule="evenodd" d="M257.2 216.743C256.601 216.479 255.632 216.915 254.984 216.888C254.287 216.858 253.563 216.542 252.876 216.426C251.384 216.171 248.759 216.539 247.701 215.213C246.62 213.859 247.442 211.142 246.98 209.495C246.729 208.6 246.438 207.495 245.23 207.895C243.827 208.357 243.861 210.927 243.693 212.054C243.446 213.717 243.248 214.985 241.572 215.577C240.332 216.014 239.026 215.794 238.024 216.81C237.289 217.555 236.793 218.915 237.368 219.889C238.232 221.351 240.103 220.594 241.401 221.056C243.379 221.761 242.909 224.986 243.315 226.838C243.574 228.027 244.146 231.36 245.858 231.306C248.194 231.234 247.287 226.552 247.158 225.185C247.026 223.799 246.714 222.623 248.265 222.192C249.575 221.829 251.405 222.504 252.758 222.496C254.467 222.485 256.481 222.057 257.512 220.529C258.101 219.656 258.474 217.304 257.2 216.743Z" fill="black"/>
<path fill-rule="evenodd" clip-rule="evenodd" d="M343.03 274.359C346.744 274.678 344.493 279.243 346.957 281.058C349.308 282.789 349.625 278.01 349.624 276.646C349.623 273.341 353.652 274.563 356.106 274.016C358.199 273.549 360.485 271.381 357.984 269.533C356.18 268.2 353.188 268.819 351.094 268.465C348.255 267.987 349.098 266.096 349.036 263.917C349.013 263.118 348.737 260.271 347.703 260.046C345.809 259.635 345.696 264.939 345.568 265.948C345.028 270.219 342.087 267.617 339.751 269.758C336.698 272.557 340.818 274.168 343.03 274.359Z" fill="black"/>
<path fill-rule="evenodd" clip-rule="evenodd" d="M166.409 194.738C160.607 199.482 154.018 198.802 148.708 193.696C146.463 191.536 145.106 189.36 145.307 186.2C145.487 183.356 146.324 180.214 148.607 178.294C150.529 176.675 154.155 176.094 156.588 175.868C160 175.551 163.052 177.404 165.411 179.719C167.466 181.735 169.868 184.304 170.185 187.296C170.519 190.445 168.72 192.848 166.409 194.738ZM167.291 175.861C162.087 170.862 152.858 171.364 147.485 175.923C141.454 181.04 140.423 190.654 146.219 196.261C152.327 202.169 160.389 201.532 166.855 196.631C170.323 194.002 172.205 190.629 172.688 186.301C173.144 182.21 170.137 178.595 167.291 175.861Z" fill="black"/>
<path fill-rule="evenodd" clip-rule="evenodd" d="M267.924 89.8076C267.34 91.7008 267.745 93.7179 267.848 95.6466C266.199 94.6172 265.171 92.781 263.4 91.9281C262.55 94.2693 266.783 100.965 269.448 98.7705C271.885 96.762 270.086 91.1569 267.924 89.8076Z" fill="black"/>
<path fill-rule="evenodd" clip-rule="evenodd" d="M276.581 101.353C275.268 101.841 274.047 101.706 272.751 101.956C271.897 102.12 271.787 101.636 271.676 102.612C271.44 104.695 274.809 105.5 276.326 105.471C278.177 105.435 280.207 104.193 280.028 102.171C279.842 100.064 278.009 100.822 276.581 101.353Z" fill="black"/>
<path fill-rule="evenodd" clip-rule="evenodd" d="M277.657 92.5993C277.061 92.0596 275.688 90.0211 274.681 90.37C273.908 90.637 274.454 91.5574 274.681 92.0181C275.529 93.7456 277.193 95.2153 278.523 96.601C277.538 96.9498 275.641 97.1743 276.142 98.6861C276.603 100.075 278.69 99.8615 279.69 99.2771C283.116 97.2732 279.371 94.1517 277.657 92.5993Z" fill="black"/>
<path fill-rule="evenodd" clip-rule="evenodd" d="M281.116 89.3199C281.35 90.2737 281.476 91.1742 280.959 92.0685L278.106 86.9637C275.811 87.9035 279.836 95.2583 282.181 94.444C283.802 93.8811 283.023 90.4244 282.767 89.3368C282.63 88.7546 282.304 86.9031 281.495 86.7152C279.903 86.3456 280.942 88.6165 281.116 89.3199Z" fill="black"/>
<path fill-rule="evenodd" clip-rule="evenodd" d="M163.401 192.286C162.078 191.312 159.885 193.592 158.485 193.6C155.657 193.615 157.197 190.306 155.427 189.233C154.505 188.674 150.641 189.238 151.251 186.922C151.618 185.529 153.054 186.535 153.841 185.684C154.828 184.617 153.42 183.766 152.545 183.328C152.929 182.817 155.143 182.592 155.699 182.946C156.66 183.557 156.604 185.391 157.485 186.335C158.628 184.879 158.008 183.05 159.225 181.743C159.698 181.235 161.081 180.853 160.543 179.948C160.232 179.421 158.866 179.595 158.399 179.177C157.991 178.812 158.011 177.635 157.353 177.537C156.277 177.378 156.303 179.017 155.98 179.491C155.008 180.913 150.738 180.423 152.508 183.309C151.328 182.722 148.112 182.258 148.736 184.308C148.895 184.831 149.503 185.152 149.654 185.749C149.785 186.267 149.497 187.005 149.47 187.524C149.419 188.509 149.34 189.661 150.071 190.454C151.075 191.543 152.417 190.751 153.495 191.224C154.962 191.869 154.433 193.211 155.208 194.384C156.221 195.919 157.78 195.447 159.215 194.983C160.927 194.429 161.198 194.379 162.45 195.801C163.023 195.063 164.591 193.161 163.401 192.286Z" fill="black"/>
<path fill-rule="evenodd" clip-rule="evenodd" d="M165.703 186.293C164.322 186.039 164.866 181.933 163.185 183.717C162.555 184.386 163.201 185.69 162.498 186.406C162.025 186.887 161.426 186.603 160.954 186.919C160.53 187.202 160.422 187.745 160.172 188.16C161.06 188.558 161.747 188.61 162.695 188.436C162.695 189.149 162.221 191.247 163.44 191.094C164.574 190.951 164.253 188.845 164.83 188.19C165.416 187.525 167.778 187.834 167.998 186.898C168.27 185.74 166.306 186.405 165.703 186.293Z" fill="black"/>
</svg>
