<svg width="1300" height="1300" viewBox="0 0 1300 1300" fill="none" xmlns="http://www.w3.org/2000/svg">
<path d="M650 1300C290.71 1300 0 1008.86 0 650C0 290.71 291.141 0 650 0C1009.29 0 1300 291.141 1300 650C1300.43 1009.29 1009.29 1300 650 1300Z" fill="#FDEAAA"/>
<mask id="mask0_26_635" style="mask-type:alpha" maskUnits="userSpaceOnUse" x="0" y="0" width="1301" height="1300">
<path d="M650 1300C290.71 1300 0 1008.86 0 650C0 290.71 291.141 0 650 0C1009.29 0 1300 291.141 1300 650C1300.43 1009.29 1009.29 1300 650 1300Z" fill="#F7C0B5"/>
</mask>
<g mask="url(#mask0_26_635)">
<path d="M1012.27 1197.33C1009.23 1199.5 1005.77 1201.66 1002.73 1203.83C999.265 1206 996.232 1208.16 992.765 1209.9C989.732 1211.63 987.132 1213.36 984.099 1215.1C983.665 1215.53 983.232 1215.53 982.799 1215.96C972.832 1222.03 962.432 1227.66 952.032 1232.86C948.999 1234.6 945.532 1236.33 942.499 1237.63C942.499 1237.63 942.065 1238.06 941.632 1238.06C938.165 1239.8 934.699 1241.53 931.232 1243.26C924.299 1246.73 916.932 1249.76 909.999 1252.8C906.532 1254.53 902.632 1255.83 899.165 1257.13C895.699 1258.43 891.799 1260.16 888.332 1261.46C884.865 1262.76 880.965 1264.5 877.499 1265.8C877.499 1265.8 877.499 1265.8 877.065 1265.8C873.599 1267.1 869.699 1268.4 866.232 1269.7C858.432 1272.3 850.199 1274.9 842.399 1277.5C839.799 1278.36 836.765 1279.23 834.165 1280.1C825.932 1282.7 817.699 1284.86 809.465 1286.6C806.432 1287.46 803.399 1287.9 799.932 1288.76C792.132 1290.5 783.899 1292.23 776.099 1293.96C774.365 1294.4 773.065 1294.4 771.332 1294.83C768.732 1295.26 765.699 1295.7 763.099 1296.13C759.199 1296.56 755.732 1297.43 751.832 1297.86C750.099 1298.3 748.365 1298.3 746.632 1298.73C744.465 1299.16 741.865 1299.6 739.265 1299.6C732.332 1300.46 724.965 1301.33 718.032 1302.2C715.865 1302.63 713.265 1302.63 711.099 1303.06H710.665C707.632 1303.5 704.599 1303.5 701.565 1303.93C698.532 1304.36 695.499 1304.36 692.465 1304.36C690.732 1304.36 688.565 1304.8 686.832 1304.8C683.365 1304.8 680.332 1305.23 677.299 1305.23C672.965 1305.23 669.065 1305.66 664.732 1305.66C660.399 1305.66 656.499 1305.66 652.165 1305.66C649.132 1305.66 646.099 1305.66 643.065 1305.66C460.632 1303.06 295.965 1225.5 178.965 1102.43C178.965 1102.43 178.965 1102 178.532 1102C191.965 1075.56 241.799 1027.9 293.799 988.465C359.665 938.632 452.832 907.865 452.832 907.865C452.832 907.865 513.932 897.898 740.565 945.132C913.465 981.532 987.132 1129.3 1012.27 1197.33Z" fill="#A96F61"/>
<path d="M788.666 1065.16C779.566 1109.8 720.632 1136.23 621.399 1096.36C499.632 1046.96 452.832 907.865 452.832 907.865C446.332 808.198 431.166 722.832 431.166 722.832C571.999 710.698 738.399 875.365 738.399 875.365L757.466 956.832C759.199 963.765 762.665 969.832 767.865 974.165C776.965 989.765 794.732 1036.56 788.666 1065.16Z" fill="#A96F61"/>
<path d="M767.865 974.599C685.098 970.265 623.998 958.132 558.565 840.699C614.032 889.665 679.465 908.299 748.365 916.965L757.465 956.832C759.198 964.199 762.665 970.265 767.865 974.599Z" fill="#A56663"/>
<path d="M939.032 452.432C946.832 488.832 950.732 518.298 929.499 615.365C908.265 712.432 948.998 809.498 846.732 898.332C777.832 958.132 657.365 969.398 561.165 903.965C528.665 881.865 498.765 851.098 474.499 810.798C455.432 779.165 433.332 749.265 408.632 721.965C374.399 684.698 333.232 609.732 353.599 477.132C386.532 261.332 600.165 236.632 726.265 260.465C852.365 284.298 917.799 356.232 939.032 452.432Z" fill="#A96F61"/>
<path d="M524.332 621.865C524.332 621.865 510.898 556.865 447.632 564.665C393.032 571.598 373.965 702.465 497.898 738.865" fill="#A96F61"/>
<path d="M493.999 679.498C493.999 679.498 478.399 669.532 480.132 652.198C482.732 631.832 480.132 619.265 470.599 615.365C446.766 605.398 441.999 633.132 442.866 636.598" stroke="#423232" stroke-width="13" stroke-miterlimit="10" stroke-linecap="round" stroke-linejoin="round"/>
<path d="M824.631 721.532C824.631 721.532 841.098 722.398 856.698 703.765C865.365 693.365 872.731 680.365 867.965 676.465C863.198 672.132 784.765 684.265 779.565 694.665C774.365 705.065 804.698 721.532 824.631 721.532Z" fill="#A56663"/>
<path d="M837.632 575.932C837.632 575.932 838.499 617.098 864.932 663.032C876.632 683.398 858.865 716.765 820.299 722.398" stroke="#423232" stroke-width="13" stroke-miterlimit="10" stroke-linecap="round" stroke-linejoin="round"/>
<path d="M1158.93 1465.49H63.4617C63.4617 1465.49 69.9617 1264.42 135.828 1120.99C185.662 1012.65 303.095 952.421 390.628 921.221C415.328 912.554 437.862 906.054 455.195 901.288C455.195 903.454 455.628 905.188 455.628 907.354C455.628 907.354 502.428 1046.45 624.195 1095.85C723.428 1136.15 782.362 1109.29 791.462 1064.65C797.095 1036.05 779.328 989.254 770.228 974.088C765.028 969.754 761.562 963.254 759.828 956.754L756.362 942.454C764.595 940.721 772.395 938.554 780.195 935.954C782.795 935.088 784.962 934.221 787.562 933.354C843.462 948.088 927.528 983.188 1026.76 1066.39C1138.99 1159.99 1158.93 1465.49 1158.93 1465.49Z" fill="#CE3E3E"/>
<path d="M586.494 1140.92C436.995 1073.75 378.928 953.721 390.195 921.221C390.195 921.221 390.195 920.787 390.628 920.354C398.428 904.321 410.995 891.321 426.595 882.221C435.261 877.021 444.795 872.254 452.595 869.654C453.028 875.721 454.761 894.787 455.194 901.287C455.194 903.454 455.628 905.187 455.628 907.354C455.628 907.354 483.361 1010.92 605.128 1060.32C704.361 1100.62 765.895 1074.19 772.395 1029.12C779.761 979.287 751.595 943.321 751.595 943.321C759.828 941.587 772.828 938.554 780.628 935.954C799.695 958.921 819.195 981.887 826.561 1042.55C836.961 1129.65 741.194 1210.69 586.494 1140.92Z" fill="white"/>
<path d="M277.962 1465.49L258.462 1304.72" stroke="#544D4D" stroke-width="13" stroke-miterlimit="10" stroke-linecap="round" stroke-linejoin="round"/>
<path d="M1034.56 1250.12C1034.56 1250.12 1021.56 1281.75 1025.46 1313.39C1029.36 1345.02 1040.63 1391.39 1024.6 1465.49" stroke="#544D4D" stroke-width="13" stroke-miterlimit="10" stroke-linecap="round" stroke-linejoin="round"/>
<path d="M683.943 619.439C673.543 619.006 665.743 610.339 666.61 599.939L667.043 587.806C667.476 577.406 676.143 569.606 686.543 570.473C696.943 570.906 704.743 579.573 703.876 589.973L703.443 602.106C703.01 612.073 694.343 619.873 683.943 619.439Z" fill="#423232"/>
<path d="M866.375 625.939C856.842 625.506 849.475 617.272 849.909 607.739L850.342 596.472C850.775 586.939 859.009 579.572 868.542 580.006C878.075 580.439 885.442 588.672 885.009 598.206L884.575 609.472C884.142 619.006 875.909 626.372 866.375 625.939Z" fill="#423232"/>
<path d="M725.977 594.306C725.977 594.306 714.71 578.273 695.21 575.239C679.177 572.639 661.41 580.439 658.81 589.539" stroke="#423232" stroke-width="13" stroke-miterlimit="10" stroke-linecap="round" stroke-linejoin="round"/>
<path d="M853.809 598.206C853.809 598.206 853.809 584.339 873.743 584.339C890.209 584.339 897.143 599.506 897.143 599.506" stroke="#423232" stroke-width="13" stroke-miterlimit="10" stroke-linecap="round" stroke-linejoin="round"/>
<path d="M743.743 524.539C752.843 527.573 761.943 519.339 760.209 509.373C759.343 504.173 757.176 498.973 752.843 495.073C739.843 483.373 686.109 472.973 653.609 488.139C625.009 502.006 702.143 510.673 743.743 524.539Z" fill="#423232"/>
<path d="M873.308 531.473C865.941 534.073 858.141 526.273 859.441 517.173C859.874 512.406 861.608 507.639 865.074 504.173C875.474 493.773 911.008 485.539 933.541 501.573C953.041 515.006 907.108 518.906 873.308 531.473Z" fill="#423232"/>
<path d="M793.697 770.764C768.997 785.497 725.231 769.464 704.864 744.764" stroke="#423232" stroke-width="13" stroke-miterlimit="10" stroke-linecap="round" stroke-linejoin="round"/>
<path d="M1022.83 400.553C1022.83 345.953 986 300.453 936.167 286.153C938.767 275.32 939.2 264.053 936.6 252.353C927.933 214.653 894.134 188.22 855.567 190.82C840.4 191.686 826.1 197.32 814.4 205.986C796.2 163.953 754.167 134.486 705.634 134.486C654.067 134.486 610.3 167.42 593.834 213.353C575.634 191.686 548.334 177.82 518 177.82C465.134 177.82 421.8 219.42 419.2 271.853C410.967 269.253 401.867 267.953 392.767 268.386C357.667 270.553 329.067 299.153 326.467 334.253C325.6 345.953 327.767 357.22 332.1 367.62C282.7 372.82 244.134 414.853 244.134 465.553C244.134 503.686 265.8 537.053 297.867 553.52C284.867 566.52 276.634 584.286 276.634 603.786C276.634 640.186 304.367 670.52 339.9 674.42C337.734 681.353 336.867 689.586 339.467 697.82C343.367 712.12 355.067 723.386 369.367 726.42C378.034 728.153 386.267 727.286 393.634 724.253C397.534 729.886 401.434 734.653 404.9 738.986C409.234 744.186 412.7 748.953 416.167 753.72C436.1 782.32 481.6 769.753 483.334 735.086C483.334 734.653 483.334 734.653 483.334 734.22C375 692.62 394.5 571.72 447.367 564.786C502.834 557.853 520.167 607.253 523.2 619.386C582.567 581.253 498.067 443.886 585.167 403.153C662.733 367.186 744.2 421.786 843.867 435.22C880.7 440.42 915.367 404.02 930.967 424.386C934 433.486 936.6 442.586 938.767 452.12C945.7 482.886 949.167 508.886 937.467 574.753C966.067 559.153 979.933 535.753 982.533 512.786C983.4 504.986 983.4 496.753 982.967 488.953C1007.23 467.72 1022.83 436.086 1022.83 400.553Z" fill="#423232"/>
</g>
</svg>
