<svg width="475" height="356" viewBox="0 0 475 356" fill="none" xmlns="http://www.w3.org/2000/svg">
<path fill-rule="evenodd" clip-rule="evenodd" d="M95.0974 128.903C95.9166 127.639 95.912 127.91 97.382 128.171C103.413 129.246 109.444 130.32 115.476 131.394C135.889 135.031 156.302 138.667 176.716 142.303C183.913 143.586 191.111 144.868 198.308 146.149C199.359 146.337 201.421 146.292 202.347 146.869C202.823 147.166 203.178 148.045 203.485 148.521C204.818 150.586 206.151 152.65 207.483 154.714C214.964 166.301 222.667 177.743 230.303 189.228C238.793 201.998 247.283 214.769 255.773 227.54L220.055 227.076C222.26 228.514 224.466 229.951 226.672 231.388C242.247 241.54 257.823 251.691 273.4 261.842L251.134 276.675L259.02 285.019C256.561 286.417 254.101 287.815 251.643 289.213C247.134 291.777 242.625 294.34 238.117 296.904C236.519 297.812 234.921 298.721 233.323 299.629C232.947 299.843 232.415 300.29 232.02 300.255C231.428 300.201 230.356 299.178 229.875 298.865C228.351 297.874 226.829 296.88 225.31 295.883C220.633 292.816 215.973 289.724 211.332 286.604C199.953 278.954 188.6 271.213 177.707 262.881C172.674 259.032 168.002 255.042 164.07 250.034C159.744 244.525 156.171 238.441 153.03 232.192C150.385 226.931 148.044 221.515 145.967 216.007C145.253 214.113 143.486 211.082 143.518 209.002C143.535 207.884 144.508 206.276 144.884 205.241C145.776 202.789 146.669 200.336 147.562 197.883C148.02 196.624 148.919 195.061 149.076 193.721C149.266 192.103 148.481 189.888 148.228 188.29C148.105 187.512 148.123 185.322 147.532 184.882C147.14 184.59 145.659 184.738 145.187 184.701C141.357 184.407 137.527 184.113 133.697 183.818C123.426 183.029 113.156 182.239 102.885 181.45C100.058 181.233 96.8824 181.384 94.1075 180.775C92.0113 180.316 90.7009 178.636 90.0742 176.672C88.1932 170.773 86.4148 164.782 85.2695 158.692C84.1618 152.805 85.2314 148.226 87.6468 142.78C89.7611 138.012 92.2581 133.285 95.0974 128.903ZM367.565 185.358C365.535 193.087 362.698 202.755 356.705 208.356C354.426 210.485 351.385 211.876 348.613 213.23C344.537 215.219 340.356 216.998 336.148 218.688C328.72 221.671 320.917 224.976 313.003 226.424C310.806 226.826 309.687 226.432 307.858 225.114C304.786 222.901 302.009 220.243 299.263 217.649C294.86 213.49 290.579 209.198 286.388 204.826C302.262 204.788 318.631 204.063 334.166 200.655C346 198.059 357.884 192.709 367.565 185.358Z" fill="#EC6226"/>
<path fill-rule="evenodd" clip-rule="evenodd" d="M205.505 22.2474C209.33 23.9509 211.348 28.6642 213.357 32.0726C215.767 36.1629 217.95 40.4465 219.181 45.0523C220.443 49.7716 220.618 54.9461 220.058 59.7883C219.813 61.9187 219.236 63.8577 218.626 65.8959C217.974 68.0745 218.989 69.3205 220.535 70.8567C223.747 74.0477 227.791 76.4962 230.175 80.4275C232.194 83.7585 234.542 84.375 238.349 84.5177C247.804 84.8724 257.07 84.5799 266.437 86.3872C268.816 86.8461 271.179 87.4079 273.519 88.0351C274.287 88.2409 275.091 88.6006 275.883 88.6729C277.026 88.7768 277.22 88.323 278.073 87.884C281.827 85.9533 286.591 87.808 290.343 88.8672C299.813 91.5413 308.749 95.1815 317.334 100.005C326.603 105.213 336.485 109.256 345.669 114.619C354.541 119.8 362.512 126.321 370.787 132.369C379.203 138.521 387.185 145.177 394.967 152.108C402.49 158.807 410.266 165.382 416.995 172.898C423.129 179.751 427.975 187.863 431.226 196.483C432.311 199.361 431.643 201.173 428.251 200.224C427.951 203.134 425.779 204.351 423.027 203.729C423.872 206.171 425.803 209.478 424.698 212.106C423.229 215.6 419.021 213.057 416.958 211.696C417.182 214.504 418.377 219.064 416.056 221.33C412.459 224.842 406.388 220.367 403.84 217.742C397.348 211.054 393.195 202.777 387.431 195.562C380.287 186.619 372.24 178.188 364.163 170.092C363.526 169.453 356.337 161.745 355.306 162.793C358.443 167.983 360.95 173.696 365.335 178.008C367.417 175.086 368.925 176.526 369.316 179.46C369.786 182.987 370.309 186.7 369.658 190.235C368.379 197.192 363.984 203.808 359.366 209.018C354.535 214.467 348.538 218.616 342.103 221.956C338.461 223.847 334.807 225.618 330.889 226.86C329.134 227.416 327.376 228.061 325.574 228.447C323.841 228.818 321.967 228.792 320.363 229.633C334.731 236.488 350.628 239.375 365.03 246.054C368.506 247.665 375.487 251.855 371.96 256.564C369.231 260.207 363.03 260.336 358.96 261.063C361.954 263.888 361.508 266.51 357.572 268.047C355.991 268.665 354.343 268.951 352.657 268.995C351.512 269.025 349.534 268.618 348.609 269.517C352.177 271.151 357.042 271.052 359.975 273.923C362.968 276.851 359.393 279.208 356.719 280.337C353.202 281.822 348.365 283.389 344.787 281.598C341.959 280.182 339.347 280.489 336.22 280.117C332.995 279.733 329.808 279.044 326.697 278.116C314.852 274.584 303.945 268.048 293.485 261.619C283.034 255.196 273.288 247.898 264.275 239.571C262.052 237.516 260.2 235.071 257.928 233.082C255.536 230.989 253.032 230.801 249.972 230.836C243.017 230.915 236.074 229.678 229.122 230.494C239.115 238.019 249.674 244.648 260.185 251.407C264.184 253.979 268.389 257.409 273.091 258.53C275.154 259.023 279.58 259.349 280.265 261.891C280.766 263.745 279.179 264.057 278.228 265.063C276.851 266.52 278.79 267.008 280.211 267.612C282.002 268.372 283.637 268.618 285.588 268.416C288.574 268.108 290.917 268.211 293.7 269.489C298.073 271.497 302.768 272.578 307.152 274.542C308.967 275.356 309.445 277.78 310.321 279.426C311.699 282.013 313.291 284.476 314.853 286.954C317.798 291.624 320.34 296.429 324.519 300.155C328.181 303.42 332.259 306.312 336.236 309.182C342.448 313.667 350.351 319.212 348.354 328.009C346.38 336.705 337.361 335.77 330.488 334.217C327.595 333.563 323.642 331.736 320.726 332.595C318.21 333.336 316.477 333.447 313.866 332.855C310.839 332.168 307.792 331.721 304.726 331.247C298.297 330.254 291.815 328.615 285.672 326.467C282.726 325.437 280.265 324.061 277.944 321.956C277.255 321.331 276.753 320.444 275.837 320.452C275.057 320.458 273.852 321.84 273.249 322.32C271.345 323.835 269.24 325.1 267.067 323.298C265.68 322.148 264.445 319.645 266.451 318.46C267.989 317.551 270.797 318.592 271.9 316.875C273.054 315.076 270.473 312.467 269.665 311.005C267.226 312.659 263.637 316.005 260.808 313.236C258.542 311.018 261.063 309.672 263.153 308.962C265.736 308.084 268.726 308.197 267.409 304.745C266.661 302.785 265.464 301.028 265.272 298.888C265.125 297.262 265.595 295.696 265.607 294.083C265.627 291.198 262.524 288.714 259.82 288.031C258.169 287.613 257.679 289.023 256.665 290.104C255.175 291.692 253.271 292.88 251.374 293.916C248.26 295.616 244.992 296.964 241.729 298.336C239.567 299.244 235.746 300.435 237.289 303.188C239.548 307.219 234.253 305.29 232.344 304.375C227.903 302.247 223.419 300.216 219.033 297.972C210.039 293.369 201.764 287.684 193.82 281.463C186.021 275.355 178.407 268.866 171.321 261.94C167.889 258.584 164.608 255.054 161.686 251.243C158.547 247.149 155.904 242.709 152.705 238.656C149.387 234.449 146.107 230.368 143.969 225.406C141.988 220.808 139.74 215.676 139.704 210.625C139.665 205.044 139.687 200.032 141.534 194.679C142.304 192.446 143.23 190.12 144.572 188.167C144.958 187.605 146.985 185.686 146.569 184.92C146.593 184.964 141.966 185.67 141.482 185.716C138.411 186.009 135.321 185.483 132.261 185.198C123.214 184.354 114.082 184.67 105.068 183.429C101.669 182.961 97.9821 183.452 94.6649 182.59C93.098 182.183 92.7121 181.286 91.5607 180.552C91.0352 180.217 90.473 180.328 89.9841 179.862C89.4117 179.317 89.2878 178.531 89.0345 177.819C87.6814 174.023 85.4015 170.633 84.0619 166.829C82.5557 162.551 82.6239 158.117 82.7334 153.645C80.4961 153.823 78.1462 153.838 76.0472 152.933C74.3531 158.253 67.057 158.157 62.5718 157.753C56.9706 157.249 50.4032 156.722 47.5643 151.105C44.2282 144.502 44.4485 136.487 44.045 129.282C43.5709 120.82 43.4359 112.232 43.852 103.764C44.2059 96.5629 45.848 89.0873 50.5076 83.3719C54.6188 78.329 61.7313 75.3776 67.326 80.0835C71.531 83.6213 73.367 89.9926 73.642 95.2988C73.7821 97.9989 73.6559 100.424 76.9823 99.6756C78.2612 99.3877 79.4237 98.9223 80.3667 100.233C81.1984 101.388 80.8167 103.057 79.7637 103.921C78.8095 104.704 76.9531 104.571 76.2995 105.736C75.652 106.891 76.6762 108.74 77.9036 108.975C79.3012 109.243 80.3774 107.448 81.7847 108.281C83.0743 109.044 82.4008 110.471 81.5366 111.306C80.5142 112.295 79.5294 112.501 80.2605 114.067C80.8208 115.268 81.9425 116.067 82.4458 117.341C83.688 120.482 84.0981 124.996 82.7167 128.156C85.1139 128.422 90.9099 131.256 92.7956 128.964C93.4798 128.132 93.5614 126.91 94.3008 126.062C95.1706 125.064 96.3864 124.639 97.6736 124.478C100.426 124.134 103.241 124.971 105.915 125.51C110.346 126.405 114.805 127.188 119.256 127.978C128.213 129.569 137.253 130.676 146.188 132.384C155.103 134.09 163.927 136.246 172.744 138.394C177.368 139.52 181.97 140.785 186.628 141.761C190.982 142.671 195.518 143.343 199.57 145.27C198.769 140.318 196.534 135.768 195.14 130.982C193.707 126.059 193.304 121.144 194.113 116.074C194.855 111.429 195.954 106.915 198.325 102.81C199.284 101.15 200.339 99.4962 201.721 98.1575C202.703 97.2054 204.086 96.4136 204.862 95.2784C205.628 94.158 205.465 93.898 204.086 93.3821C203.319 93.0947 202.623 93.008 201.896 92.6056C201.228 92.2357 200.653 91.564 199.867 91.4361C198.054 91.1404 195.404 92.8963 193.743 93.5211C191.476 94.3736 189.134 95.1412 186.715 95.4008C178.774 96.2528 169.356 91.6498 163.912 86.0734C162.095 84.2123 157.926 79.9329 159.62 77.0946C160.515 75.5964 162.114 75.9524 163.456 75.272C165.558 74.2063 164.226 72.4383 163.219 71.0352C160.476 67.2128 158.636 62.8384 156.672 58.5854C154.673 54.2568 151.932 50.3872 149.685 46.1972C148.072 43.1907 146.203 39.8277 145.462 36.4819C144.556 32.3957 147.324 31.8182 150.707 31.2327C161.408 29.3804 171.945 26.8916 182.551 24.5744C186.778 23.651 191.026 22.7123 195.281 21.9248C198.598 21.3111 202.32 20.8299 205.505 22.2474ZM299.434 277.156C293.915 277.44 288.363 278.665 288.186 285.1C288.856 297.31 296.802 306.437 305.197 314.536C307.315 316.58 309.388 318.746 311.688 320.587C313.042 321.671 314.518 322.166 315.982 323.025C316.341 323.235 316.961 323.94 317.295 324.047C318.086 324.303 318.155 324.016 318.927 323.934C320.61 323.757 320.92 324.929 322.2 325.888C324.627 327.706 328.984 327.44 331.834 328.009C334.467 328.534 344.945 332.327 344.474 326.864C344.014 321.526 338.316 318.932 334.302 316.548C328.706 313.226 322.938 309.629 318.226 305.101C313.747 300.795 310.823 294.903 307.815 289.541C305.94 286.199 305.421 283.366 304.879 279.631C304.65 278.052 304.627 277.535 303.081 277.268C301.885 277.062 300.641 277.094 299.434 277.156ZM280.234 276.269C277.045 277.302 274.638 279.857 273.051 282.746C272.238 284.225 271.773 285.717 271.504 287.371C271.162 289.476 270.376 291.724 270.964 293.84C272.032 297.681 274.834 301.874 277.035 305.17C279.51 308.876 282.724 313.035 286.629 315.307C290.388 317.494 294.927 318.077 298.413 320.776C298.101 319.292 296.708 318.196 295.615 317.27C294.021 315.921 292.627 314.581 291.273 312.975C288.278 309.422 285.789 305.575 284.194 301.192C282.648 296.945 281.763 292.165 281.96 287.638C282.054 285.483 282.424 283.194 283.355 281.229C283.977 279.915 285.08 278.798 285.556 277.416C286.646 274.25 281.824 275.754 280.234 276.269ZM210.323 171.301C205.872 171.806 201.46 172.66 196.976 173.074C187.913 173.91 178.505 174.405 170.292 178.731C158.341 185.027 144.578 198.998 148.723 213.715C153.619 231.099 164.086 246.819 177.192 259.12C185.558 266.974 194.721 274.051 203.912 280.906C212.802 287.538 223.087 291.888 232.252 298.088C232.873 288.952 238.617 280.574 245.41 274.762C249.06 271.639 252.891 268.647 256.985 266.125C258.995 264.885 261.078 263.838 263.199 262.803C264.808 262.018 266.587 260.849 268.426 260.761C268.397 259.414 265.016 258.917 264.083 258.599C260.863 257.506 257.774 255.83 254.792 254.207C248.301 250.673 242.302 246.36 236.295 242.075C233.359 239.981 230.376 237.949 227.472 235.81C224.856 233.885 222.537 231.38 219.726 229.74C216.835 228.054 213.417 227.702 210.192 227.08C206.316 226.333 202.503 225.446 198.61 224.79C192.108 223.696 185.97 219.869 179.976 217.262C177.961 216.385 174.886 215.624 173.348 213.964C171.954 212.459 172.318 210.137 174.105 209.106C177.178 207.333 182.3 209.645 185.205 210.789C190.581 212.905 195.919 214.799 201.623 215.883C209.436 217.368 216.861 220.148 224.686 221.603C233.123 223.172 241.58 224.889 250.158 225.467C248.056 221.305 244.572 217.847 241.857 214.082C238.743 209.763 235.634 205.442 232.547 201.104C227.106 193.456 221.039 185.771 216.904 177.317C215.486 174.419 214.09 170.873 210.323 171.301ZM250.728 282.739C249.489 282.937 248.554 284.174 247.712 284.993C245.105 287.524 242.554 290.031 240.432 293C243.716 291.614 246.394 289.198 249.559 287.611C250.7 287.038 254.728 285.763 253.916 284.168C253.46 283.272 251.639 282.593 250.728 282.739ZM265.797 272.541C262.582 274.734 259.235 276.694 255.844 278.6C258.222 279.503 260.597 280.749 262.548 282.386C263.441 283.135 265.275 285.326 266.566 284.775C267.765 284.263 268.417 281.298 268.998 280.227C270.485 277.487 272.565 274.898 274.801 272.737C271.441 270.49 269.189 270.228 265.797 272.541ZM238.66 153.186C236.086 153.902 233.533 154.684 230.962 155.405C225.829 156.845 220.582 158.049 215.221 158.049C214.492 159.39 216.581 161.578 217.223 162.601C218.909 165.288 220.347 168.169 221.875 170.949C225.115 176.844 228.649 182.51 232.461 188.049C236.313 193.646 239.793 199.508 243.737 205.037C247.556 210.389 251.755 215.588 255.891 220.698C272.005 240.608 294.464 254.338 316.537 266.672C322.724 270.129 329.17 273.175 336.022 275.063C338.851 275.843 341.736 276.503 344.614 277.084C346.548 277.474 349.766 278.347 351.547 277.097C345.956 274.883 338.629 274.029 334.113 269.746C331.317 267.094 334.384 265.115 337.234 264.623C342.75 263.669 348.467 266.07 353.881 264.512C352.434 261.859 348.274 261.986 345.744 261.305C342.544 260.443 342.426 258.828 345.472 257.729C349.221 256.377 353.543 257.11 357.45 256.861C359.357 256.74 367.349 256.421 364.935 252.761C363.035 249.881 358.41 249.073 355.383 248.011C351.136 246.52 347.01 244.194 342.685 243.04C338.454 241.91 334.143 241.216 329.912 240.023C325.496 238.779 321.149 237.396 316.952 235.528C308.863 231.927 301.362 227.039 294.53 221.427C287.491 215.644 281.32 209.017 275.641 201.91C272.654 198.171 269.811 194.323 266.904 190.522C264.097 186.852 260.923 183.354 258.675 179.302C256.19 174.82 252.97 170.73 250.396 166.264C249.002 163.844 247.501 161.47 246.201 158.998C245.277 157.24 244.648 154.663 243.398 153.135C242.223 151.7 240.169 152.766 238.66 153.186ZM119.806 209.977C120.669 210.765 120.525 211.089 120.359 212.089C120.019 214.139 119.644 216.151 119.486 218.231C118.945 225.344 119.949 232.722 121.058 239.748C122.165 246.758 124.827 253.234 128.929 259.032C132.904 264.65 137.701 269.126 144.021 271.882C145.106 272.355 149.403 274.092 149.125 275.694C148.916 276.899 146.686 276.217 145.883 276.045C134.523 273.613 124.895 263.347 119.154 253.79C116.777 249.834 115.248 245.812 113.935 241.44C113.743 240.801 110.992 231.754 111.921 231.64C111.119 225.376 110.879 217.759 113.842 211.96C114.949 209.794 117.542 207.911 119.806 209.977ZM99.9855 211.325C98.9487 216.047 99.2915 220.866 99.5202 225.65C99.562 226.521 100.06 229.207 98.618 229.155C97.5989 229.119 96.7866 226.519 96.5366 225.852C95.0221 221.804 94.484 217.245 95.2406 212.979C95.4795 211.628 95.8403 209.989 97.3266 209.52C98.6194 209.112 100.1 209.841 99.9855 211.325ZM365.466 189.522C364.827 189.83 364.546 190.417 364.355 191.061C359.357 195.318 353.478 199.439 347.634 202.443C342.414 205.126 336.368 206.257 330.671 207.47C317.64 210.246 304.666 211.367 291.669 207.775C296.98 212.672 301.796 219.178 308.491 222.298C311.817 223.848 315.499 222.913 318.853 221.931C322.968 220.727 327.108 219.496 331.09 217.899C338.615 214.881 346.663 211.542 352.99 206.369C355.795 204.076 358.081 201.241 360.094 198.246C361.247 196.531 362.222 194.696 363.389 192.993C364.061 192.011 365.533 190.802 365.466 189.522ZM309.944 102.44C309.753 104.862 308.326 106.896 307.067 108.885C306.211 110.237 304.543 111.868 305.334 113.402C306.273 115.222 309.266 116.385 310.817 117.63C313.114 119.473 315.265 121.488 317.38 123.534C321.174 127.207 325.103 130.767 328.816 134.518C332.345 138.081 335.769 141.712 340.219 144.142C349.99 149.477 358.592 156.931 367.13 164.019C375.835 171.245 384.433 178.842 391.987 187.283C396.029 191.8 399.388 196.759 402.27 202.081C403.751 204.819 405.34 207.497 406.824 210.234C407.481 211.445 408.222 212.621 408.82 213.863C409.264 214.786 409.553 216.281 410.373 216.965C411.997 213.365 409.464 208.604 407.996 205.362C406.992 203.145 406.008 200.921 405.017 198.698C404.322 197.139 402.877 195.257 402.798 193.517C402.605 189.287 408.055 192.331 409.55 193.686C413.25 197.043 415.384 202.088 418.002 206.251C418.618 202.936 412.014 197.818 414.748 194.928C416.917 192.637 420.914 198.005 422.128 199.458C422.96 195.36 420.827 191.35 418.598 188.07C416.114 184.413 413.242 180.936 410.3 177.643C403.422 169.947 395.562 163.097 387.786 156.331C380.05 149.599 372.086 143.141 364.156 136.642C356.454 130.331 348.637 124.02 340.029 118.968C335.202 116.135 330.14 113.764 325.213 111.12C320.052 108.351 315.161 105.107 309.944 102.44ZM242.669 93.1035C242.444 93.1596 241.142 93.3158 241.045 93.4303C240.62 93.93 241.186 95.5459 241.687 95.8361C239.96 97.1261 238.02 98.3002 235.825 98.501C237.206 99.855 239.829 102.224 239.421 104.407C238.859 107.412 235.247 105.305 233.784 104.396C231.437 102.936 229.038 101.388 227.318 99.187C226.227 97.7903 225.855 96.3093 225.039 94.8051C224.595 93.9879 224.853 93.84 223.871 93.7835C222.748 93.72 220.828 94.7838 219.787 95.2066C218.18 95.8602 216.613 96.6143 215.102 97.4663C212.314 99.0391 209.704 100.948 207.418 103.19C202.684 107.831 199.478 113.928 199.071 120.604C202.431 120.206 205.718 118.759 208.549 116.953C210.565 115.667 212.622 114.156 212.978 117.784C213.116 119.198 212.721 122.489 211.872 123.582C211.079 124.603 210.737 123.776 209.914 124.388C208.962 125.097 209.465 126.118 209.465 127.114C209.006 126.729 208.548 126.345 208.09 125.96C207.26 127.043 208.199 126.463 208.512 127.118C208.695 127.5 207.445 128.599 207.195 128.794C206.679 129.197 206.394 128.863 205.803 129.443C205.424 129.816 205.015 130.652 204.603 131.117C202.477 133.522 205.293 137.291 206.406 139.841C207.231 141.729 208.13 143.58 208.988 145.452C209.616 146.822 209.955 148.449 210.789 149.712C212.444 152.218 216.237 150.849 218.712 150.542C222.07 150.125 225.368 149.699 228.73 149.383C230.7 149.198 232.927 148.052 230.396 146.569C227.885 145.098 219.209 144.819 219.153 141.035C219.094 137.011 224.688 136.342 227.493 136.688C231.597 137.193 234.249 138.228 237.056 141.323C236.427 135.421 232.237 130.54 231.302 124.618C231.047 123.009 230.267 113.095 234.135 117.378C236.207 119.672 237.847 123.144 239.379 125.797C241.696 129.813 243.716 133.986 245.843 138.103C247.873 142.032 250.847 145.807 252.269 149.987C253.069 152.338 254.186 157.279 256.725 158.479C258.352 159.248 261.098 158.242 262.778 157.997C263.816 157.845 264.829 157.697 265.72 157.098C266.181 156.788 266.636 155.984 267.218 155.894C268.896 155.635 269.329 158.195 269.214 159.374C269.038 161.192 268.203 161.664 266.506 161.875C269.366 163.275 264.959 167.656 264.186 169.402C264.146 169.313 263.644 168.086 263.271 168.087C262.53 168.089 265.542 174.016 265.769 174.428C267.349 177.288 269.333 179.86 271.252 182.497C272.355 184.012 273.943 187.596 276.186 187.258C277.429 187.07 280.011 184.513 280.987 186.267C281.868 187.848 279.147 189.544 278.738 190.801C278.051 192.91 280.635 195.127 282.158 196.232C286.195 199.162 291.429 199.854 296.206 200.738C295.293 199.509 293.304 198.839 293.265 197.078C293.238 195.88 294.085 195.227 293.513 193.924C293.041 192.851 291.86 192.227 291.508 191.077C291.121 189.809 291.732 188.368 292.43 187.321C295.386 182.879 301.989 184.728 305.862 186.745C305.576 186.871 305.339 187.053 305.15 187.29L305.105 187.351L305.115 187.344C305.612 187.04 307.766 187.993 308.035 188.186C308.883 188.797 310.027 190.221 310.613 191.103C312.499 193.943 312.769 197.405 311.79 200.624C323.598 200.624 334.723 197.479 345.291 192.466C347.704 191.321 350.075 190.589 352.361 189.148C354.71 187.669 356.942 186.026 359.249 184.487C361.415 183.04 361.22 182.171 359.768 180.114C358.001 177.611 356.444 174.943 354.483 172.582C354.181 173.236 354.064 174.545 353.42 174.946C352.708 175.39 352.055 174.508 351.575 174.842C351.618 174.812 350.102 177.166 349.858 176.58C350.49 178.096 347.961 177.127 347.513 176.846C347.617 178.268 346.435 179.491 345.772 177.591C343.969 179.24 339.693 177.731 341.999 175.188C343.137 173.933 344.376 173.266 345.092 171.627C345.893 169.794 346.173 167.718 346.273 165.735C346.511 161.061 343.98 158.879 340.807 155.848C339.036 154.156 337.186 152.55 335.363 150.914C333.761 149.476 332.375 147.695 330.694 146.362C329.487 145.404 328.523 145.129 327.351 145.96C326.869 146.303 326.711 146.738 326.091 147.068C325.296 147.491 324.117 147.753 323.23 147.864C318.771 148.418 313.611 146.891 309.525 145.245C308.406 144.795 307.87 144.062 306.902 143.504C306.29 143.151 305.768 143.365 305.118 142.943C303.419 141.843 303.504 140.076 304.739 138.7C307.632 135.476 311.788 138.376 314.745 135.772C318.429 132.529 312.287 128.043 309.806 126.058C307.82 124.469 306.114 124.125 303.687 123.707C303.178 123.62 299.807 122.647 300.987 124.045C298.367 123.978 297.079 123.988 294.97 125.622C294.417 126.051 293.681 126.456 293.529 127.187C293.449 127.572 294.244 127.65 294.246 127.646C294.139 127.905 293.338 128.376 293.223 128.458C294.572 128.618 294.222 131.264 293.874 131.279L293.853 131.277L293.893 131.311C294.482 131.868 293.153 132.727 292.702 132.871C291.422 133.28 290.208 132.39 289.352 131.502C287.436 129.513 286.045 126.129 286.168 123.372C286.34 119.502 288.883 117.259 290.981 114.358C292.551 112.187 290.218 111.033 288.594 109.671C286.607 108.006 283.905 105.958 283.251 103.305C282.656 100.888 284.306 100.061 286.42 100.788C289.278 101.769 291.59 104.296 294.122 105.877C296.37 107.28 299.207 110.146 301.953 110.309C301.449 108.518 298.954 108.708 297.989 107.377C296.714 105.619 298.694 104.835 300.192 105.036C301.355 105.193 304.673 107.653 304.587 104.816C304.541 103.296 302.004 102.787 300.899 102.348C295.287 100.115 289.538 98.5927 283.586 97.5586C281.657 97.2239 281.164 97.4585 280.231 99.1991C279.915 99.7901 278.778 102.509 278.154 100.706C277.339 102.184 277.101 103.758 275.328 104.352C273.072 105.108 270.171 103.989 268.093 103.122C266.309 102.378 264.613 101.334 263.469 99.7419C262.899 98.9506 262.484 98.0722 262.215 97.1358C261.986 96.3409 262.095 95.0378 261.682 94.3156C260.992 93.1081 259.348 93.3686 258.078 93.2481C255.244 92.9788 252.445 92.7354 249.596 92.702C247.229 92.6747 244.969 92.531 242.669 93.1035ZM304.289 199.204C303.382 199.528 304.993 200.612 305.525 200.484C305.307 200.133 304.945 198.969 304.289 199.204ZM305.105 187.351L305.08 187.37C305.049 187.398 305.028 187.434 305.019 187.479C305.039 187.446 305.06 187.414 305.082 187.382L305.105 187.351ZM323.236 158.874C324.057 159.563 323.725 161.158 324.287 162.138C325.791 164.762 328.5 167.35 331.053 168.935C333.803 170.641 335.104 172.855 335.778 175.946C335.917 176.585 336.338 177.472 336.133 178.133C335.94 178.751 335.246 178.956 335.033 179.507C334.935 179.759 335.344 181.707 335.294 181.713C335.057 181.742 334.365 180.761 334.369 180.766C334.095 181.446 334.19 182.218 333.451 182.582L333.361 182.622L333.373 182.631C333.557 182.773 334.398 183.471 334.197 183.624C333.918 183.837 333.234 183.691 332.885 183.815C332.334 184.012 331.937 184.502 331.408 184.73C329.987 185.341 328.348 185.153 326.849 184.937C323.69 184.484 320.135 183.354 317.852 181.016C315.085 178.183 315.742 175.248 315.492 172.07C315.212 168.506 317.785 163.102 319.852 160.339C320.557 159.395 321.97 157.814 323.236 158.874ZM96.0088 131.14C95.8302 131.562 96.0083 132.22 95.9035 132.683C95.6919 133.621 95.1474 134.443 94.6232 135.23C93.6421 136.704 92.655 138.055 91.9856 139.718C90.3422 143.801 88.8179 148.201 88.0307 152.529C86.3422 161.822 91.9796 169.487 92.2867 178.538C94.8755 175.814 98.8124 175.684 102.32 175.676C106.988 175.666 111.613 175.862 116.263 176.27C125.159 177.052 134.253 177.369 142.684 180.618C143.613 180.976 144.309 181.131 145.241 181.326C146.265 181.541 145.722 181.062 146.471 181.667C146.672 181.83 146.753 182.419 146.963 182.625C148.052 183.69 148.705 182.966 149.627 181.824C152.165 178.68 154.698 175.822 157.964 173.379C164.92 168.173 172.712 165.769 181.288 164.995C186.203 164.551 191.002 164.296 195.939 164.343C200.652 164.389 205.628 164.475 210.094 166.16C208.983 162.984 207.086 160.138 205.557 157.158C204.814 155.712 204.126 154.191 203.181 152.86C202.351 151.689 201.098 150.733 200.524 149.396C200.421 149.665 200.319 149.933 200.216 150.201C191.148 147.606 181.798 146.208 172.502 144.723C163.164 143.232 153.942 141.166 144.623 139.576C139.945 138.778 135.249 138.298 130.537 137.763C126.001 137.249 121.627 136.243 117.155 135.387C112.625 134.521 108.216 133.471 103.762 132.278C101.895 131.778 100.127 131.088 98.3096 130.486C96.86 130.006 96.5306 129.903 96.0088 131.14ZM296.519 147.616C296.789 148.727 295.924 150.16 295.646 151.215C295.332 152.412 294.65 152.891 294.294 153.979C293.985 154.924 294.542 159.935 292.124 158.439C292.198 158.798 292.596 159.292 292.637 159.612C292.689 160.011 292.3 160.622 292.413 160.967C292.514 161.277 293.577 162.185 293.834 162.703C294.85 164.737 295.567 167.078 296.068 169.294C296.589 171.604 297.223 174.804 295.308 176.399C294.848 176.781 294.447 176.884 293.975 177.345C293.92 177.77 293.726 178.122 293.392 178.4C293.209 178.451 293.062 178.406 292.952 178.263C292.369 178.579 292.563 177.251 291.878 178.542C291.712 178.853 292.011 179.922 291.863 179.812C291.594 179.614 290.782 178.768 290.519 178.752C289.931 179.553 289.944 178.738 289.323 178.852C289.298 179.184 289.118 179.366 288.782 179.399C288.52 179.339 288.258 179.279 287.997 179.218C286.414 179.228 284.075 178.564 282.555 178.144C279.654 177.344 277.584 175.349 276.954 172.326C275.643 166.029 280.943 158.158 284.732 153.579C286.026 152.015 295.115 141.863 296.519 147.616ZM321.822 167.901C321.781 168.43 321.945 169.221 321.35 169.279C321.377 168.682 321.126 167.918 321.822 167.901ZM280.538 167.005C280.808 168.529 280.87 167.659 280.257 168.707C280.05 168.09 280.144 167.523 280.538 167.005ZM324.471 165.039C324.707 165.332 325.609 166.123 324.832 166.325C324.152 166.502 324.442 165.4 324.471 165.039ZM291.782 154.47C291.474 156.111 292.405 155.718 293.685 155.42C293.051 155.103 292.417 154.787 291.782 154.47ZM54.398 88.2905C48.2629 93.5513 48.0778 102.75 48.2713 110.155C48.5343 120.216 49.1452 130.305 50.1184 140.322C50.5581 144.848 51.85 147.152 56.3208 148.669C61.164 150.312 66.3807 149.994 71.4043 149.702C70.4437 142.239 68.5636 132.42 76.0555 127.452C76.7411 126.998 77.3683 126.663 78.2028 126.619C78.7538 126.591 79.5443 127.09 80.0675 126.835C81.1256 126.318 80.5202 124.854 80.1737 124.026C79.1203 121.508 77.1099 119.493 75.4789 117.356C73.4305 114.674 71.6706 114.747 68.6119 115.078C67.3923 115.21 62.595 115.756 63.5395 113.154C64.2255 111.263 67.9944 111.736 69.5215 111.298C70.6788 110.966 70.915 110.82 70.8653 109.638C70.7869 107.79 69.727 107.289 68.0826 107.339C65.9673 107.404 62.3051 108.527 60.5438 106.865C58.0287 104.491 61.7587 102.829 63.6499 102.506C65.6296 102.168 68.2774 102.476 68.7343 100.027C69.1694 97.6911 67.9365 94.8645 66.973 92.8077C66.0406 90.8182 64.7664 88.2826 62.8209 87.0881C60.0758 85.4031 56.6891 86.3256 54.398 88.2905ZM78.2102 132.243C75.7183 132.801 74.2845 136.044 73.995 138.311C73.7153 140.504 73.906 143.634 75.5151 145.319C77.6271 147.531 81.3088 147.382 83.5818 149.458C84.5888 144.463 86.4508 139.656 88.8968 135.192C86.9652 134.66 85.0828 133.973 83.1782 133.356C81.7847 132.905 79.7066 131.907 78.2102 132.243ZM238.166 143.004C238.725 143.481 238.902 143.626 239.046 144.376C237.72 144.46 238.119 144.034 238.166 143.004ZM251.325 107.473C253.398 107.527 254.368 108.198 256.032 109.191C257.217 109.899 258.656 109.137 258.656 110.935C262.041 108.277 268.353 115.141 270.726 116.939C273.229 118.835 275.693 121.068 275.97 124.452C276.052 125.454 275.844 126.481 275.995 127.479C276.109 128.231 276.585 128.983 276.504 129.762C276.408 130.666 275.643 131.195 275.467 132.044C275.398 132.381 275.636 133.057 275.488 133.329C273.971 136.109 272.026 138.389 268.697 138.664C265.797 138.904 262.594 137.87 260.481 135.848C258.606 134.054 257.488 131.367 257.002 128.853C256.918 128.419 257.078 127.422 256.934 127.055C256.726 126.519 256.412 126.51 256.154 126.076C255.469 124.927 254.486 122.76 255.375 121.497C253.183 121.992 251.516 117.298 250.698 115.929C250.084 114.904 248.606 114.102 248.195 113.105C247.632 111.737 249.655 111.15 248.954 110.198C248.579 109.688 246.565 110.035 246.763 108.757C246.946 107.576 250.533 107.453 251.325 107.473ZM293.792 131.232C293.812 131.257 293.833 131.272 293.853 131.277L293.853 131.277L293.846 131.271L293.792 131.232ZM288.005 120.997C288.195 120.833 289.214 119.803 289.333 120.576C289.431 121.209 288.31 120.997 288.005 120.997ZM192.946 40.726C190.735 40.8609 188.765 43.2459 187.118 44.4979C184.659 46.3669 181.753 47.739 178.855 48.7764C175.482 49.983 172.015 51.057 168.552 51.9725C165.039 52.9014 161.38 53.0915 157.878 54.0566C159.611 57.2253 161.344 60.3946 163.077 63.5638C163.836 62.5185 163.577 61.3384 164.827 60.587C165.695 60.0655 166.951 59.9941 167.932 59.8012C170.664 59.264 173.661 58.7884 176.433 59.3442C178.222 59.703 180.212 61.0792 178.518 63.0011C177.449 64.2137 175.148 63.9022 174.96 65.8282C174.78 67.6736 176.666 69.2589 176.229 71.1993C175.615 73.9268 172.888 73.11 171.676 71.3467C170.594 69.7743 171.005 66.9783 169.335 65.8444C168.339 65.1681 165.677 64.9243 164.605 65.5033C166.576 69.1384 170.406 73.6204 168.159 77.9661C167.468 79.3011 165.96 79.81 166.971 81.1218C168.137 82.6348 171.502 83.8813 173.294 83.4182C174.971 82.9848 176.893 81.0964 178.779 82.0309C180.561 82.913 179.298 84.4107 179.456 85.7962C179.93 89.9695 188.495 87.5892 190.82 87.0352C193.153 86.4799 195.587 85.1361 197.995 85.081C200.266 85.0286 202.374 86.1225 204.174 87.4038C205.521 88.3633 207.764 91.1705 209.473 91.2641C211.188 91.3582 213.62 88.8208 215.133 88.0527C217.849 86.6741 220.817 86.2755 223.695 85.3568C224.152 85.2112 226.148 84.801 226.184 84.1349C226.218 83.4947 223.858 82.0944 223.458 81.7884C219.796 78.9947 217.115 75.1431 213.306 72.5269C211.608 71.3601 209.773 70.5378 207.789 70.0126C206.688 69.7215 203.69 69.3289 203.611 67.7598C208.894 66.8754 209.025 60.2889 206.797 56.5541C205.38 54.179 203.182 53.0493 200.405 53.5601C196.382 54.3009 195.646 57.2439 194.725 60.7362C191.437 58.9488 187.853 54.5716 187.657 50.7144C187.441 46.4262 192.048 44.5822 192.946 40.726ZM291.098 69.5455C296.641 70.5731 302.063 71.9429 307.401 73.7632C310.689 74.8845 315.473 75.8487 318.317 77.9522C319.146 78.5669 320.192 79.9186 319.434 80.9986C318.782 81.9299 317.184 81.6791 316.239 81.534C311.948 80.8744 307.743 79.0796 303.497 78.1117C292.213 75.54 280.636 74.3315 269.107 73.5083C265.928 73.2816 262.746 73.0855 259.567 72.8621C256.919 72.6767 254.009 72.7606 251.417 72.1617C249.372 71.6893 248.863 70.1879 250.394 68.4974C251.887 66.85 254.391 67.1068 256.39 66.8059C268.026 66.0466 279.67 67.4266 291.098 69.5455ZM271.813 56.0893C275.586 57.3882 271.177 58.0075 269.527 57.8712C268.968 57.8253 261.589 57.0938 261.589 57.3205C260.116 57.3205 256.22 58.446 255.163 56.958C254.027 55.3602 258.89 54.7993 259.873 54.7284C263.652 54.4563 268.181 54.8392 271.813 56.0893Z" fill="black"/>
</svg>
