<svg width="811" height="430" viewBox="0 0 811 430" fill="none" xmlns="http://www.w3.org/2000/svg">
<path fill-rule="evenodd" clip-rule="evenodd" d="M690.342 229.768C695.013 226.796 704.742 240.345 700.515 245.086C697.066 249.963 686.697 233.085 690.342 229.768ZM673.796 224.381C676.552 225.769 678.339 226.967 676.136 230.152C662.056 232.945 667.61 215.672 673.796 224.381ZM660.057 196.3C665.883 195.489 673.413 201.346 668.431 205.8C665.908 205.465 663.622 204.638 660.576 205.728C650.923 207.684 648.669 196.217 660.057 196.3ZM654.436 220.391C658.239 225.651 657.869 233.66 657.281 240.78C650.148 239.25 651.469 224.732 654.436 220.391ZM629.342 201.098C624.347 200.648 620.046 193.96 624.905 189.87C630.192 187.257 640.065 192.904 640.058 198.767C639.713 204.603 634.538 202.44 629.342 201.098ZM610.39 154.107C613.998 155.253 620.63 168.702 616.819 171.654C611.729 174.144 605.684 157.052 610.39 154.107ZM585.023 168.786C588.638 158.773 600.561 176.477 597.711 182.083C593.006 185.989 584.577 173.759 585.023 168.786ZM588.686 135.051C594.382 142.327 584.855 146.842 578.75 149.167C564.639 152.43 583.395 130.441 588.686 135.051ZM559.773 131.058C556.315 123.993 565.288 111.144 565.111 123.629C563.275 126.429 564.288 142.56 559.773 131.058ZM546.457 114.48C546.171 107.995 552.611 104.965 551.872 114.7C550.659 119.938 547.258 122.065 546.457 114.48ZM547.737 86.6889C548.564 89.2819 548.645 91.7501 545.553 92.6773C520.237 103.925 542.619 76.4475 547.737 86.6889ZM536.194 64.902C541.03 67.5469 544.233 78.5941 535.479 73.3762C529.419 71.8105 524.37 70.9893 517.575 69.6357C504.416 60.2449 530.267 58.526 536.194 64.902ZM507.172 179.427C501.429 168.844 514.751 171.125 520.863 173.418C530.365 180.473 512.177 182.43 507.172 179.427ZM507.417 84.659C503.78 84.0028 500.265 81.6395 495.543 82.1426C488.011 66.0082 513.55 73.7108 507.417 84.659ZM498.55 94.4774C505.351 89.9111 501.454 110.923 498.73 113.88C488.902 124.415 496.256 97.9788 498.55 94.4774ZM558.026 221.315C555.938 232.413 548.594 241.406 551.519 223.401C551.92 216.791 560.335 210.075 558.026 221.315ZM471.065 65.795C473.761 56.6022 478.141 49.4522 481.78 40.1568C485.884 43.8573 487.109 50.4241 483.879 55.7398C481.849 58.9089 472.003 78.6836 471.065 65.795ZM472.358 95.9053C471.264 100.262 475.654 104.959 473.812 108.317C461.326 109.654 466.902 74.6639 472.358 95.9053ZM444.907 25.9652C450.407 25.9699 466.472 24.1698 462.444 32.5026C456.356 33.3874 433.868 36.2961 444.907 25.9652ZM447.653 45.5337C451.362 47.1713 456.91 53.1892 453.493 57.0263C447.776 58.5025 442.249 48.9255 447.653 45.5337ZM448.376 115.661C447.821 118.4 449.109 130.676 443.534 128.962C439.122 119.511 443.351 98.4453 452.741 116.035C451.374 115.918 450.054 115.805 448.376 115.661ZM445.141 88.5068C446.116 90.7228 442.413 95.9183 440.188 92.4994C438.28 89.9876 442.645 81.9234 445.141 88.5068ZM424.945 51.8072C430.349 59.3542 439.632 63.2137 446.761 70.4521C453.868 83.4844 433.691 73.0475 429.97 68.3786C426.572 65.5912 417.221 53.9632 424.945 51.8072ZM409.264 112.144C414.459 107.254 426.042 97.5629 420.558 111.782C418.078 115.982 407.02 122.044 409.264 112.144ZM419.291 90.8135C413.107 87.0659 409.41 93.2086 403.509 93.8801C397.235 83.7318 422.748 77.0142 419.291 90.8135ZM387.63 59.0397C392.195 61.6904 403.041 69.5532 398.903 74.5543C393.351 72.8354 382.847 64.201 387.63 59.0397ZM357.509 158.018C357.936 154.428 363.759 153.098 361.818 159.001C363.555 161.193 367.378 163.926 366.391 168.15C362.708 174.642 354.264 163.19 357.509 158.018ZM355.511 129.419C364.918 133.338 357.187 138.181 350.2 138.415C345.797 133.614 349.015 128.074 355.511 129.419ZM356.57 36.6814C347.581 27.1186 376.658 29.5903 373.738 38.22C368.634 36.4281 362.542 38.4415 356.57 36.6814ZM679.302 191.842C664.763 177.399 646.606 168.724 632.633 153.778C583.993 99.4232 600.079 119.053 578.343 117.201C573.569 113.046 579.046 108.677 585.019 109.958C560.638 70.5793 534.273 56.2923 509.374 31.2809C506.476 27.1139 502.024 38.6312 497.302 31.2809C494.047 27.3142 502.416 25.3985 499.36 22.3154C486.161 8.15798 491.326 13.7493 479.103 22.101C475.501 17.6925 478.431 13.959 482.65 10.5248C474.169 11.2623 476.457 5.6215 471.211 4.3291C452.045 7.41341 435.001 15.9371 415.888 16.7241C409.043 19.032 408.153 33.3438 405.326 39.4664C399.289 42.334 400.932 22.7071 403.509 19.6299C402.137 19.6193 397.228 15.2644 391.227 16.1598C324.433 13.7658 313.057 6.52331 338.541 45.5337C341.24 53.3494 352.009 47.7239 356.2 53.7429C357.439 56.9544 354.401 57.2195 351.117 56.9273C351.565 57.4751 352.009 58.0253 352.457 58.5731C344.203 65.7149 360.005 72.6634 363.505 79.6921C367.438 84.9111 368.69 95.7592 376.811 90.4836C378.068 94.746 384.154 90.8265 388.231 91.5922C392.667 95.0005 386.592 99.1993 382.481 99.7613C386.011 103.028 380.834 105.29 381.673 109.67C386.948 117.26 395.343 148.57 378.362 136.715C372.653 130.474 379.768 127.792 386.43 129.312C386.919 126.329 385.589 122.085 384.193 118.639C379.949 121.942 373.099 122.773 376.811 113.88C369.002 115.659 359.814 117.472 350.884 117.517C356.254 129.149 343.3 124.514 339.842 117.666C337.057 116.992 330.841 116.524 326.896 116.344C329.628 126.127 336.72 138.621 339.842 149.59C343.457 146.253 350.628 151.664 347.308 154.835C343.743 156.428 341.254 157.376 339.842 157.681C343.532 167.336 343.613 225.255 347.308 209.923C348.188 203.119 356.744 196.111 352.627 192.092C343.517 184.912 355.73 180.3 358.786 188.462C365.921 180.403 376.991 175.003 381.673 164.327C386.243 166.852 388.559 163.057 391.047 157.681C392.97 161.559 400.222 161.407 402.339 156.786C404.064 153.055 401.041 151.252 406.292 148.806C411.496 146.401 409.174 140.71 412.657 135.534C415.611 133.433 417.312 140.644 415.719 143.438C417.877 144.276 420.811 139.542 423.023 141.919C435.754 145.664 450.445 141.11 463.525 139.469C468.617 138.415 480.543 158.932 484.87 164.327C497.268 147.823 500.104 160.205 489.972 168.786C498.408 178.279 509.212 191.804 517.575 202.625C516.462 196.156 526.909 186.155 527.837 193.325C520.655 203.392 532.294 218.33 537.16 226.183C540.154 230.58 542.681 235.763 544.609 240.78C553.074 238.082 564.397 233.151 572.796 227.652C568.005 224.6 572.209 220.377 577.974 222.536C575.331 220.086 578.781 217.197 577.569 213.038C574.579 206.507 568.627 204.089 562.221 202.173C551.271 214.409 534.495 195.122 559.636 198.681C554.806 192.394 547.024 181.122 539.309 178.378C531.566 180.283 522.328 173.44 533.196 169.923C525.513 162.189 531.413 160.016 527.576 155.048C524.598 151.095 518.024 147.674 516.152 142.091C516.08 136.695 510.365 130.022 518.829 128.823C515.746 129.409 517.772 106.091 522.328 114.994C524.97 118.221 519.498 130.749 526.024 126.823C527.664 135.55 530.632 134.459 536.194 136.715C538.264 139.073 540.384 142.073 543.016 145.067C548.365 136.294 562.352 137.737 556.695 148.601C555.047 146.979 553.47 147.947 550.756 149.59C568.932 167.259 580.289 185.648 595.43 196.078C610.571 206.508 622.177 219.107 638.342 228.575C644.348 245.15 641.18 249.918 659.881 253.361C663.478 258.992 664.049 264.278 670.056 261.465C670.776 262.674 672.36 263.927 673.796 265.977C674.117 261.431 684.692 245.418 686.23 256.901C682.801 260.918 679.531 268.846 676.136 273.217C678.636 278.362 683.009 284.817 683.778 291.624C691.607 285.269 700.658 275.887 708.666 270.611C708.197 267.619 708.701 264.793 710.275 261.465C714.179 274.767 714.569 262.993 721.827 265.033C723.887 266.577 726.88 265.077 729.572 264.705C730.264 262.224 732.733 258.696 729.588 255.426C717.897 226.096 694.758 211.87 679.302 191.842Z" fill="#EC6226"/>
<path fill-rule="evenodd" clip-rule="evenodd" d="M589.595 278.41C591.482 276.805 588.496 271.665 588.493 267.864C589.256 254.339 600.101 283.927 609.716 281.799C605.835 277.77 604.166 267.725 598.478 270.86C604.021 267.279 597.164 257.318 603.674 252.749C600.15 251.249 593.14 241.161 590.113 246.659C587.47 243 584.984 239.56 582.324 235.877C579.062 239.572 568.264 238.814 568.155 244.79C568.738 247.82 573.155 251.201 568.83 253.576C570.889 260.891 572.319 270.56 578.165 277.215C577.471 255.313 583.19 267.418 589.595 278.41ZM710.387 279.965C715.434 284.463 732.133 299.24 727.689 301.997C721.546 303.841 723.861 309.364 723.125 315.382C731.359 305.133 730.605 323.079 732.942 328.283C735.493 335.813 740.854 340.286 746.623 346.553C734.088 307.937 745.139 331.446 761.831 343.308C760.612 337.48 756.18 331.79 751.372 327.029C743.56 309.271 768.165 340.214 774.161 338.273C771.865 334.71 772.105 328.303 767.776 325.541C757.574 320.151 751.486 309.945 746.167 299.209C736.78 293.542 737.048 279.468 729.602 269.457C723.881 270.344 716.522 276.473 710.387 279.965ZM302.39 338.599C303.619 331.235 305.44 322.65 306.988 314.736C304.235 298.823 302.788 284.089 301.53 267.449C296.654 239.314 302.27 228.831 273.21 227.093C269.884 226.907 270.986 235.405 269.987 239.048C267.48 242.023 268.689 244.733 267.073 248.401C265.207 251.399 269.816 255.642 270.998 259.682C284.824 284.951 283.183 313.403 295.732 339.445C296.006 336.357 299.349 336.029 302.39 338.599ZM506.183 30.5374C500.503 24.6937 493.961 17.6041 487.15 11.5651C466.721 7.64854 446.254 15.4899 425.335 20.6136C394.264 27.0479 352.077 24.6572 328.576 16.7488C328.224 33.0328 342.458 45.8343 351.854 59.2194C374.76 87.919 403.137 120.942 393.748 156.737C452.648 113.204 490.68 147.369 533.174 122.429C535.354 125.121 533.895 127.54 533.07 131.56C541.165 141.44 551.56 151.576 562.188 160.353C612.524 208.569 673.251 241.641 684.524 287.906C699.404 277.234 714.648 261.291 728.946 264.653C704.197 216.113 652.475 186.753 615.142 147.129C604.746 135.879 595.899 125.765 586.322 113.241C560.445 70.582 531.597 56.3099 506.183 30.5374ZM632.088 33.7587C618.283 31.8833 615.723 31.8998 605.703 22.9831C602.129 34.334 587.479 20.7736 595.082 42.0836C587.84 48.7391 585.903 36.3976 588.518 30.7598C566.821 30.9045 584.509 51.3803 587.843 61.8629C582.709 68.3114 575.946 57.3358 574.76 52.0309C566.366 54.5145 557.455 55.811 548.169 57.9464C616.469 116.59 570.38 105.828 608.638 87.366C610.825 85.7354 608.826 81.8447 612.632 79.5517C614.137 78.6787 615.656 79.3105 616.475 81.6494C620.691 103.286 637.827 86.0848 623.159 76.5445C623.23 73.0115 629.936 74.9833 629.305 70.695C629.209 54.2898 642.437 41.6789 653.802 30.2244C652.127 29.8986 650.788 29.6374 649.409 29.368C650.201 30.0927 650.845 30.6845 651.645 31.4174C648.257 33.7045 644.533 32.6727 641.618 34.1763C640.797 40.3741 638.452 43.153 634.002 42.7354C634.636 39.8541 635.262 37.0187 635.906 34.0987C635.612 34.034 634 33.6963 632.088 33.7587ZM349.932 117.668C343.318 118.42 336.646 117.455 329.085 117.582C347.79 157.235 342.717 179.076 345.913 209.923C352.232 186.424 373.051 179.525 381.316 159.202C387.139 146.644 388.194 134.064 383.814 120.268C382.964 117.51 381.023 113.514 377.065 115.073C368.415 118.116 359.523 117.333 349.932 117.668ZM345.977 108.062C355.89 108.784 366.531 109.3 377.428 107.511C371.501 97.4004 365.667 87.9566 357.571 78.3093C309.55 20.1759 339.098 28.1467 310.764 28.6715C327.134 52.2497 332.085 79.9682 330.844 108.062H345.977ZM527.232 209.065C555.277 240.597 534.011 244.126 565.675 231.276C569.061 227.482 581.148 227.237 576.559 221.254C564.348 202.077 548.646 186.953 532.401 170C509.601 141.189 519.693 141.299 502.393 144.469C492.669 146.305 484.05 144.198 473.639 146.262C490.342 167.254 509.866 187.439 527.232 209.065ZM568.477 48.0014C569.278 47.8414 570.078 47.6802 570.72 47.552C563.664 24.5102 585.047 24.7772 599.884 22.0913C601.214 18.9488 601.967 16.0958 606.945 15.9817C619.969 23.3866 616.556 25.6173 633.766 27.2973C638.091 27.955 640.855 29.1585 646.018 29.1115C647.73 27.8279 649.196 25.962 652.117 25.6337C670.737 24.0184 687.656 36.9529 693.3 53.9616C697.666 64.2265 693.296 75.1139 689.348 85.2918C695.386 101.756 745.94 101.382 726.709 127.6C752.844 141.184 778.52 158.11 798.534 180.661C808.357 192.49 821.58 219.541 796.909 220.865C793.505 220.708 787.738 222.446 787.672 227.522C788.584 236.055 795.478 240.617 798.732 249.069C831.721 314.672 758.814 275.775 732.579 257.853C733.535 260.585 735.078 264.216 736.03 267.411C735.155 268.939 734.556 268.843 736.996 271.226C745.689 280.785 747.014 291.935 755.905 301.734C760.455 312.16 791.656 325.064 777.727 334.389C783.019 348.182 776.079 347.515 766.117 340.271C773.181 356.427 761.62 350.914 752.82 343.533C766.088 388.275 726.148 344.574 725.097 327.84C712.801 338.542 711.85 322.155 713.731 313.125C713.375 310.333 717.16 307.561 713.658 305.781C717.849 300.847 714.596 292.363 709.823 287.07C704.877 275.451 691.149 296.273 681.715 294.102C673.385 283.98 665.88 269.804 657.289 257.42C651.638 277.051 634.7 284.954 622.505 264.004C615.67 246.809 617.675 228.639 604.283 213.933C587.894 191.582 566.831 174.591 546.355 155.31C523.576 133.026 536.87 130.655 517.568 141.01C538.465 168.792 571.902 188.991 585.785 222.077C586.349 226.237 586.269 229.504 589.931 232.908C593.629 240.383 600.051 243.11 606.624 247.947C612.353 252.863 615.095 262.126 604.027 260.913C607.674 270.393 617.182 277.553 620.584 287.514C624.99 302.537 599.609 285.107 596.146 280.919C597.322 292.129 592.502 292.2 586.203 282.582C587.684 301.265 572.296 279.392 570.398 273.011C566.389 264.407 567.672 255.779 562.244 247.521C559.801 243.358 548.373 250.298 544.072 250.026C538.776 249.24 525.883 242.407 537.932 240.207C518.809 206.913 486.605 181.674 468.788 147.011C443.965 141.102 414.082 156.969 393.025 171.864C338.305 216.537 356.632 231.28 341.905 219.828C328.04 199.103 337.973 173.39 332.156 149.907C330.525 141.939 327.345 130.441 322.557 124.38C320.584 124.543 319.268 125.092 318.143 122.569C317.178 117.95 315.059 118.592 310.557 120.549C302.393 123.514 296.409 125.951 287.302 126.561C244.246 126.202 202.738 121.843 159.349 117.556C197.191 142.805 213.272 168.278 238.808 189.548C266.524 214.964 273.079 207.113 271.081 220.764C278.681 224.383 295.755 218.848 300.26 230.839C312.663 262.858 309.727 297.894 315.554 331.881C307.99 330.73 315.052 353.901 302.964 346.685C296.18 366.855 280.259 321.581 279.781 316.483C275.5 296.455 272.91 276.561 265.129 256.939C262.879 259.092 261.716 266.507 256.128 263.826C240.145 257.289 224.97 248.8 209.408 239.95C169.761 220.317 134.086 195.276 103.22 164.233C85.8667 147.125 62.144 129.792 65.1388 102.679C68.4398 74.8139 148.49 52.6121 164.393 45.9178C188.543 34.0269 305.551 1.32366 308.003 22.2831C313.663 23.129 313.829 17.17 317.782 13.9275C320.205 11.6016 322.502 13.9758 324.28 10.0357C349.128 12.9616 374.857 13.3958 400.675 12.4381C428.092 12.5251 450.814 -3.64589 478.82 1.26131C503.474 12.2851 519.364 40.5271 544.353 53.8074C551.937 51.0744 559.409 47.9849 568.477 48.0014Z" fill="black"/>
<path fill-rule="evenodd" clip-rule="evenodd" d="M85.26 325.917C81.6559 348.404 76.7025 349.461 60.796 362.891C45.1271 380.131 25.587 394.631 12.6706 414.807C41.7436 388.944 83.5811 392.219 96.2622 374.358C102.307 365.187 102.32 354.979 103.212 343.781C107.907 319.826 102.494 330.13 85.26 325.917ZM80.8887 324.834C78.14 321.77 77.6449 327.476 74.1217 325.077C71.7063 313.906 75.6327 301.565 75.9182 289.404C80.2956 248.639 88.1227 209.436 107.462 172.286C172.331 228.128 165.824 202.22 146.744 245.366C138.287 257.194 134.514 269.863 129.454 283.957C123.97 298.737 116.419 311.148 118.193 328.003C117.421 331.802 111.382 326.455 111.635 331.188C110.448 345.559 111.13 359.498 106.377 373.797C101.834 384.521 93.0687 391.973 80.5873 394.351C54.6649 402.991 30.2034 409.59 9.31278 429.221C-18.9906 433.026 25.5282 380.157 33.1898 376.255C59.8879 347.09 77.1609 342.65 80.8887 324.834Z" fill="black"/>
<path fill-rule="evenodd" clip-rule="evenodd" d="M345.195 10.9989C342.978 10.8135 340.759 10.6297 338.541 10.4443C340.76 10.6297 342.978 10.8135 345.195 10.9989Z" fill="black"/>
<path fill-rule="evenodd" clip-rule="evenodd" d="M279.482 126.556C280.872 126.573 282.262 126.591 283.641 126.608C282.247 126.591 280.864 126.573 279.482 126.556Z" fill="black"/>
<path fill-rule="evenodd" clip-rule="evenodd" d="M286.137 15.1123C284.483 16.0248 282.821 16.3109 281.146 15.1906C282.81 15.1634 284.473 15.1379 286.137 15.1123Z" fill="black"/>
<path fill-rule="evenodd" clip-rule="evenodd" d="M300.278 15.7401C298.614 15.5899 296.951 15.4412 295.287 15.291C296.95 15.4412 298.614 15.5899 300.278 15.7401Z" fill="black"/>
<path fill-rule="evenodd" clip-rule="evenodd" d="M630.501 26.1629C628.837 25.9887 627.173 25.8161 625.51 25.6436C627.175 25.8161 628.837 25.9903 630.501 26.1629Z" fill="black"/>
<path fill-rule="evenodd" clip-rule="evenodd" d="M662.108 25.3653C660.722 25.1912 659.336 25.017 657.949 24.8428C659.336 25.017 660.722 25.1912 662.108 25.3653Z" fill="black"/>
<path fill-rule="evenodd" clip-rule="evenodd" d="M568.116 47.4629C566.729 47.4725 565.343 47.4837 563.957 47.4933L568.116 47.4629Z" fill="black"/>
<path fill-rule="evenodd" clip-rule="evenodd" d="M274.493 16.614C273.107 16.6268 271.719 16.6396 270.334 16.6524C271.715 15.6855 273.103 15.8342 274.493 16.614Z" fill="black"/>
<path fill-rule="evenodd" clip-rule="evenodd" d="M312.071 293.581C311.972 292.249 311.874 290.916 311.777 289.586C311.876 290.92 311.972 292.251 312.071 293.581Z" fill="black"/>
<path fill-rule="evenodd" clip-rule="evenodd" d="M289.465 125.808C290.3 125.79 291.134 125.773 291.96 125.757C291.122 125.774 290.293 125.792 289.465 125.808Z" fill="black"/>
<path fill-rule="evenodd" clip-rule="evenodd" d="M776.064 345.517C776.899 345.517 777.735 345.518 778.56 345.521C777.723 345.523 776.894 345.52 776.064 345.517Z" fill="black"/>
<path fill-rule="evenodd" clip-rule="evenodd" d="M238.726 22.4492C237.616 22.6218 236.507 22.7928 235.398 22.9654C236.509 22.7928 237.617 22.6202 238.726 22.4492Z" fill="black"/>
<path fill-rule="evenodd" clip-rule="evenodd" d="M221.258 123.411C222.093 123.393 222.929 123.377 223.753 123.361C222.914 123.377 222.086 123.395 221.258 123.411Z" fill="black"/>
<path fill-rule="evenodd" clip-rule="evenodd" d="M466.091 0C464.903 0.00958847 463.715 0.0179784 462.527 0.0263683C463.716 0.0179784 464.903 0.00838991 466.091 0Z" fill="black"/>
<path fill-rule="evenodd" clip-rule="evenodd" d="M346.027 107.124C347.414 107.311 348.801 107.5 350.186 107.687C348.8 107.5 347.413 107.311 346.027 107.124Z" fill="black"/>
<path fill-rule="evenodd" clip-rule="evenodd" d="M634.659 33.117C633.825 33.101 632.989 33.0851 632.164 33.0723C633.003 33.0898 633.832 33.1026 634.659 33.117Z" fill="black"/>
<path fill-rule="evenodd" clip-rule="evenodd" d="M627.173 34.6954C625.084 38.6954 619.257 37.7191 624.036 43.5824C628.866 47.4647 622.41 49.6954 618.976 47.2626C612.418 40.8963 619.325 34.5348 627.173 34.6954Z" fill="black"/>
</svg>
