<svg width="83" height="80" viewBox="0 0 83 80" fill="none" xmlns="http://www.w3.org/2000/svg">
<path d="M42.9994 71.1667L38.166 66.7667C20.9993 51.2 9.66602 40.9333 9.66602 28.3333C9.66602 18.0667 17.7327 10 27.9993 10C33.7994 10 39.366 12.7 42.9994 16.9667C46.6327 12.7 52.1994 10 57.9994 10C68.266 10 76.3327 18.0667 76.3327 28.3333C76.3327 40.9333 64.9994 51.2 47.8327 66.8L42.9994 71.1667Z" fill="black"/>
<path d="M39.9994 71.1667L35.166 66.7667C17.9993 51.2 6.66602 40.9333 6.66602 28.3333C6.66602 18.0667 14.7327 10 24.9993 10C30.7994 10 36.366 12.7 39.9994 16.9667C43.6327 12.7 49.1994 10 54.9994 10C65.266 10 73.3327 18.0667 73.3327 28.3333C73.3327 40.9333 61.9994 51.2 44.8327 66.8L39.9994 71.1667Z" fill="#EC6226"/>
</svg>
