<svg width="619" height="464" viewBox="0 0 619 464" fill="none" xmlns="http://www.w3.org/2000/svg">
<path fill-rule="evenodd" clip-rule="evenodd" d="M271.414 202.682C265.913 206.667 266.789 214.51 268.444 220.208C270.883 228.598 275.74 236.364 281.281 243.059C291.111 254.936 307.798 268.272 323.18 257.845C336.878 248.559 345.518 229.822 348.501 214.039C349.422 209.162 350.65 201.895 346.319 198.228C339.916 192.808 328.622 193.793 320.892 194.491C315.801 194.95 310.89 196.51 305.859 195.778C294.171 194.076 281.163 195.618 271.414 202.682Z" fill="#EC6226"/>
<path fill-rule="evenodd" clip-rule="evenodd" d="M508.392 264.832C497.248 278.961 478.303 281.193 461.476 281.054C451.371 280.971 441.248 280.21 431.342 278.152C426.001 277.043 420.696 275.573 415.536 273.807C412.128 272.64 407.054 272.057 405.603 268.407C401.777 258.776 404.592 246.698 406.168 236.923C406.969 231.951 407.571 226.949 408.35 221.973C408.849 218.789 409.088 215.266 410.423 212.288C411.986 208.799 413.96 209.496 417.266 210.46C421.821 211.789 426.498 212.341 431.18 213.056C442.609 214.8 452.581 218.317 462.967 223.303C473.238 228.232 483.2 233.097 492.361 239.951C497.003 243.425 501.002 247.195 504.728 251.622C507.606 255.042 511.903 260.381 508.392 264.832ZM459.68 327.586C459.59 329.107 442.125 324.515 439.827 323.999C424.747 320.619 409.368 316.769 395.131 310.66C381.843 304.96 370.134 298.437 359.677 288.308C354.803 283.587 350.419 278.615 346.224 273.32C344.121 270.666 341.249 270.974 338.904 268.729C336.795 266.708 335.177 265.13 335.836 262.109C341.107 263.497 350.838 272.221 356.301 267.815C359.415 265.304 355.096 262.681 353.102 261.226C349.354 258.49 346.149 255.115 343.17 251.572C348.286 252.563 353.047 254.478 357.5 257.143C359.477 258.327 366.257 262.621 367.835 258.528C368.807 256.008 364.21 252.842 362.776 251.447C359.257 248.025 355.457 244.029 353.589 239.427C358.209 238.356 362.564 241.924 365.71 244.831C369.202 248.058 373.483 251.445 376.412 255.164C377.923 257.082 378.251 259.347 379.431 261.416C380.759 263.743 382.883 265.738 384.914 267.46C388.825 270.779 393.4 273.222 398.096 275.243C408.826 279.86 420.327 283.128 431.765 285.42C437.376 286.545 442.849 287.063 448.545 287.254C452.971 287.403 454.93 288.725 456.619 292.801C461.193 303.831 460.363 315.964 459.68 327.586ZM328.335 243.546C325.776 245.939 322.45 247.441 319.775 249.742C317.421 251.766 314.706 253.926 312.079 255.563C309.275 257.31 307.18 256.086 304.654 254.504C301.69 252.649 298.282 251.898 295.229 250.238C284.673 244.495 271.758 230.425 273.729 217.505C274.564 212.029 277.396 206.642 282.54 204.157C287.211 201.901 294.002 200.649 298.999 202.535C301.818 203.599 303.835 205.948 305.641 208.256C307.748 210.948 308.554 210.524 310.699 207.928C314.537 203.284 320.866 199.209 327.123 199.307C330.233 199.356 333.322 200.012 336.123 201.302C336.503 201.477 336.714 202.006 337.095 202.185C337.563 202.406 338.332 201.948 338.657 202.153C339.477 202.672 340.296 204.293 340.769 205.116C342.667 208.417 346.085 214.89 342.641 217.669C342.638 217.67 342.794 221.429 342.747 221.858C342.504 224.1 341.728 225.951 340.729 228.002C337.728 234.163 333.298 238.907 328.335 243.546ZM333.437 295.674C331.013 296.427 328.402 288.834 330.727 287.622C332.944 286.466 335.632 294.993 333.437 295.674ZM295.362 286.595C294.522 289.463 294.167 292.718 292.114 295.053C290.234 292.823 290.049 288.709 291.872 286.418C292.913 285.11 296.28 283.461 295.362 286.595ZM372.939 236.34C372.926 236.413 375.857 237.813 374.427 239.345C372.473 241.438 372.742 237.365 372.939 236.34ZM385.05 212.963C385.017 215.864 378.874 215.164 378.918 212.247C378.971 208.657 385.086 209.889 385.05 212.963ZM377.718 188.725C378.326 186.07 389.011 182.376 388.72 187.004C388.574 189.324 376.428 194.37 377.718 188.725ZM268.181 278.773C266.983 280.212 265.282 280.779 263.846 281.884C262.34 283.042 261.264 284.544 259.95 285.903C256.339 289.634 251.992 292.7 248.096 296.128C240.934 302.429 234.073 309.203 226.132 314.548C211.942 324.097 195.486 329.319 179.15 333.893C177.796 334.271 173.898 335.801 172.559 334.662C171.115 333.433 171.849 329.111 171.916 327.476C172.187 320.776 172.968 313.996 172.884 307.306C172.848 304.557 172.043 300.651 173.478 298.136C175.08 295.328 179.552 294.506 182.319 293.449C190.728 290.237 198.828 284.819 206.256 279.8C215.387 273.631 224.608 267.359 234.005 261.599C243.211 255.957 253.366 252.179 263.635 248.956C264.111 249.955 259.211 253.171 258.65 253.622C255.964 255.783 253.041 258.024 251.047 260.878C249.635 262.898 248.187 267.469 252.086 267.586C253.975 267.643 256.769 265.816 258.483 265.225C261.313 264.249 264.229 263.564 267.19 263.118C264.645 265.919 256.018 270.95 257.587 275.609C259.11 280.129 267.919 274.854 270.952 274.854C270.455 276.43 269.205 277.542 268.181 278.773ZM164.109 291.389C158.467 293.372 152.685 294.5 146.862 295.779C141.312 297 136.182 297.92 130.498 297.205C122.65 296.219 113.964 292.97 112.969 284.056C111.789 273.496 119.252 263.791 125.66 256.214C133.458 246.996 142.215 238.754 151.706 231.292C161.185 223.837 171.417 217.264 182.137 211.716C190.292 207.495 199.503 204.932 208.125 201.764C209.766 201.161 214.303 199.044 215.838 200.798C217.078 202.218 215.39 204.582 214.825 205.9C213.722 208.469 213.571 211.055 213.286 213.813C212.015 226.131 210.484 238.445 209.78 250.816C209.584 254.264 209.239 257.87 209.44 261.32C209.551 263.231 210.546 265.665 209.883 267.53C208.61 271.117 202.777 273.491 199.686 275.093C194.152 277.96 188.292 280.1 182.701 282.844C176.561 285.856 170.583 289.113 164.109 291.389ZM242.349 211.352C243.898 211.14 246.218 210.718 247.598 211.721C249.398 213.028 248.926 214.848 247.264 215.796C245.951 216.546 242.877 216.751 241.58 216.07C239.37 214.912 239.744 211.711 242.349 211.352ZM250.926 239.875C249.674 241.958 245.101 243.324 245.499 239.437C245.841 236.108 253.23 236.039 250.926 239.875ZM249.228 181.193C251.24 181.972 254.89 182.638 255.487 185.224C256.042 187.632 253.76 187.472 252.113 186.81C250.758 186.266 244.723 181.151 249.228 181.193ZM564.407 273.02C563.232 268.45 564.127 263.391 563.478 258.71C562.849 254.173 561.718 250.004 560.094 245.728C556.497 236.262 552.378 227.741 546.548 219.433C535.57 203.788 522.833 190.008 507.452 178.58C492.268 167.299 475.454 158.131 457.643 151.706C438.756 144.892 419.744 142.52 399.827 141.214C393.879 140.824 387.937 140.362 382.022 139.611C377.7 139.062 372.281 138.386 368.007 139.71C365.322 140.541 363.822 142.882 366.747 144.417C368.821 145.506 371.536 145.636 373.826 145.926C371.06 154.711 366.558 163.526 359.424 169.575C352.459 175.48 343.139 177.505 334.349 179.003C329.583 179.814 324.246 180.442 319.405 180.092C316.345 179.872 313.957 178.455 312.722 181.606C311.865 183.795 311.46 186.196 310.33 182.891C308.994 178.984 308.339 179.009 304.182 177.899C295.682 175.63 285.938 173.559 278.523 168.651C270.83 163.559 268.154 155.322 263.86 147.651C262.797 145.756 259.594 141.918 261.231 139.746C262.728 137.76 267.596 137.958 269.826 137.75C272.178 137.532 274.545 137.522 276.906 137.431C278.273 137.378 281.024 137.938 280.474 135.897C279.644 132.82 270.751 133.214 268.542 133.164C264.435 133.072 260.272 133.167 256.185 133.619C235.924 135.858 215.481 139.999 195.875 145.521C157.836 156.234 120.994 175.975 93.2332 204.414C66.5856 231.713 58.1432 277.141 74.5251 311.997C83.0385 330.113 101.514 337.554 119.424 343.564C128.871 346.734 138.875 349.214 148.917 348.616C153.736 348.328 158.308 347.031 163.008 346.055C165.058 345.628 167.39 344.949 169.496 345.12C171.09 345.25 172.621 346.712 174.116 345.935C175.177 345.384 175.638 343.801 176.935 343.126C178.491 342.317 180.379 342.025 182.06 341.617C186.734 340.482 191.259 338.642 195.828 337.134C200.551 335.573 205.009 333.564 209.542 331.532C211.831 330.506 217.127 326.335 218.618 329.384C219.298 330.776 219.009 333.461 219.174 334.921C219.464 337.474 219.805 340.022 220.178 342.564C220.999 348.161 221.982 353.735 222.989 359.302C224.807 369.347 227.149 378.963 231.067 388.412C234.194 395.956 236.94 404.507 242.748 410.509C245.283 413.129 248.742 414.308 252.379 413.485C256.515 412.548 258.574 408.793 261.085 405.756C266.609 399.075 275.73 393.956 284.152 392.113C294.466 389.857 304.512 393.157 314.357 395.963C324.77 398.93 335.371 401.758 345.592 405.325C355.116 408.65 365.4 413.56 375.73 413.132C384.737 412.76 393.151 405.433 399.647 399.848C406.172 394.238 414.33 386.025 423.712 386.686C428.37 387.014 432.615 389.26 437.153 390.173C442.134 391.176 447.435 391.318 452.5 391.692C458.789 392.155 472.857 390.517 475.183 382.956C475.528 381.834 475.53 379.525 474.048 379.076C472.685 378.663 471.989 380.256 470.697 380.183C468.069 380.035 466.016 375.456 464.573 373.684C458.747 366.527 450.756 361.189 444.219 354.724C436.838 347.424 430.536 338.58 424.974 329.857C427.488 329.204 430.201 330.289 432.635 330.804C435.592 331.43 438.473 332.187 441.387 332.989C444.599 333.873 447.856 334.48 451.116 335.154C453.548 335.655 456.776 335.807 458.971 337.026C460.887 338.091 461.956 339.234 464.336 339.543C466.755 339.856 469.238 339.592 471.669 339.576C478.242 339.531 484.802 339.409 491.345 338.715C514.463 336.26 538.968 326.487 552.87 307.091C556.651 301.815 559.697 295.971 561.622 289.769C563.124 284.927 565.714 278.104 564.407 273.02Z" fill="black"/>
<path fill-rule="evenodd" clip-rule="evenodd" d="M347.577 49.5465C353.653 49.6325 359.347 51.4331 365.008 53.48C369.986 55.2798 375.293 56.9451 379.319 60.5376C386.559 67 388.445 77.7003 389.63 86.855C391.108 98.2786 386.19 107.863 382.05 118.198C378.179 127.864 371.073 135.694 362.627 141.661C358.202 144.787 353.312 146.673 348.195 148.328C342.998 150.008 337.964 152.258 332.404 152.25C323.959 152.238 313.148 148.229 309.551 139.914C307.913 136.128 309.508 135.448 312.785 137.506C317.539 140.491 322.122 143.713 327.678 145.037C338.452 147.606 351.357 143.626 360.805 138.375C370.249 133.125 376.589 125.238 380.827 115.418C385.102 105.512 386.763 95.7497 385.114 85.0694C383.717 76.0186 380.938 67.7513 372.777 62.8381C355.161 52.2331 331.425 53.0875 315.759 66.8697C313.61 68.759 311.487 70.5976 309.273 72.4017C307.865 73.5484 306.208 74.9242 306.412 76.9074C306.587 78.6056 310.21 85.1532 305.847 83.1421C302.311 81.5113 300.389 78.3234 296.105 77.9288C291.546 77.5083 286.107 81.0092 284.743 85.4154C283.442 89.6196 285.762 95.3715 289.396 97.783C291.646 99.2763 294.122 99.0457 296.677 98.9855C297.946 98.9554 301.476 98.5436 302.315 99.8836C303.8 102.254 298.561 104.745 296.871 105.269C292.757 106.544 287.894 105.043 285.529 101.373C283.125 97.6412 281.479 93.3224 281.148 88.8768C280.831 84.6175 281.799 80.3052 284.313 76.8079C286.987 73.0886 292.438 68.9188 297.325 70.2108C299.446 70.7716 301.15 72.9618 303.231 73.3779C304.545 73.6401 303.992 73.8277 305.081 72.8544C305.771 72.237 306.425 71.0975 307.062 70.3655C310.73 66.157 314.356 61.6656 318.845 58.2973C326.894 52.2574 337.592 49.4047 347.577 49.5465ZM325.32 132.984C326.272 130.754 328.02 134.733 328.537 135.398C329.561 136.714 331.968 137.738 331.864 139.679C331.693 142.883 327.322 142.289 325.865 140.617C324.207 138.714 324.38 135.187 325.32 132.984ZM356.367 117.812C358.725 121.484 355.852 125.448 353.988 128.698C352.205 131.806 350.55 135.318 348.475 138.24C345.031 143.09 337.538 137.843 337.315 132.858C337.145 129.042 339.85 130.703 341.586 132.128C343.372 133.596 344.219 133.962 346.092 132.359C349.86 129.132 351.553 123.736 354.158 119.651C354.674 118.841 355.61 118.354 356.367 117.812ZM363.088 118.993C363.696 120.769 362.421 125.474 365.966 125.004C367.925 124.744 368.343 121.934 369.373 120.708C372.837 116.586 371.775 124.383 370.869 126.334C368.875 130.635 363.292 133.598 360.523 128.142C359.493 126.112 359.497 123.551 360.021 121.369C360.305 120.181 361.966 115.714 363.088 118.993ZM331.473 110.583C331.159 112.655 329.21 116.783 331.589 118.265C333.682 119.57 337.328 116.736 338.94 115.553C340.615 114.324 344.411 110.797 344.56 115.186C344.636 117.423 342.395 120.107 340.796 121.396C337.385 124.145 330.297 126.61 327.783 121.437C326.414 118.618 327.163 114.606 328.068 111.766C328.802 109.465 332.23 105.578 331.473 110.583ZM376.213 99.239C377.601 100.85 380.891 104.46 379.102 106.754C377.01 109.436 373.612 104.516 372.272 103.146C371.065 101.912 368.525 98.3991 369.608 96.5356C371.401 93.452 374.994 97.8244 376.213 99.239ZM354.394 92.3014C358.931 95.2558 352.965 97.3832 350.381 97.6477C347.253 97.9666 343.253 98.1781 340.38 96.6441C336.308 94.4695 337.665 91.1848 341.613 90.3984C345.66 89.5928 350.872 90.0081 354.394 92.3014ZM295.404 82.8961C298.741 83.545 302.552 84.3895 303.689 88.0254C304.862 91.7831 303.176 93.0302 299.768 92.1842C296.615 91.4013 291.904 90.6134 290.121 87.5348C287.991 83.8566 292.31 82.2951 295.404 82.8961Z" fill="black"/>
<path fill-rule="evenodd" clip-rule="evenodd" d="M111.799 163.638C110.679 167.253 105.011 169.65 102.185 171.847C92.2988 179.534 82.6384 187.537 73.7009 196.31C69.0619 200.864 65.5507 206.371 61.5279 211.436C60.5464 212.671 58.8076 215.44 56.8825 215.18C54.7705 214.895 54.3435 211.26 54.4108 209.672C54.6415 204.258 59.5892 199.029 63.1177 195.3C67.0867 191.108 71.3302 187.023 75.6639 183.205C80.4354 179.003 85.613 175.391 90.8896 171.854C96.0708 168.381 101.039 164.37 106.427 161.224C108.965 159.743 113.18 159.179 111.799 163.638ZM457.372 129.313C461.499 129.443 465.526 130.796 469.417 132.052C477.978 134.815 486.131 138.648 494.171 142.653C508.266 149.675 521.83 158.171 534.264 167.831C536.863 169.85 539.528 171.486 542.354 173.137C544.163 174.194 546.742 175.484 547.439 177.64C549.209 183.118 540.274 177.619 539.006 176.833L537.223 175.727C510.768 159.34 484.344 143.419 454.42 134.021C452.826 133.52 452.33 132.099 453.166 130.69C454.073 129.164 455.839 129.265 457.372 129.313ZM110.595 140.779C110.404 142.447 108.513 142.827 107.238 143.362C102.481 145.36 97.6045 147.063 92.86 149.093C84.054 152.862 75.9672 158.33 66.7759 161.19C64.6754 161.845 64.3655 159.726 64.9278 158.284C65.5541 156.675 67.4353 155.545 68.7958 154.614C72.7205 151.927 77.1717 149.995 81.5301 148.129C85.851 146.277 90.3 144.876 94.7303 143.324C98.8478 141.88 103.627 139.195 108.048 138.996L108.242 138.987C109.649 138.916 110.818 138.821 110.595 140.779ZM464.883 115.438C460.676 114.255 464.651 111.593 467.151 111.78C469.94 111.989 472.636 113.305 475.281 114.099C483.369 116.526 490.865 119.18 498.42 122.947C499.547 123.509 504.511 126.176 501.227 127.356C498.951 128.174 493.637 124.665 491.683 123.823C483.097 120.123 473.872 117.964 464.883 115.438Z" fill="black"/>
<path fill-rule="evenodd" clip-rule="evenodd" d="M297.174 124.054C297.7 122.512 304.204 105.655 301.658 105.146C298.962 104.607 295.357 114.388 294.575 116.155C291.686 122.681 289.975 129.684 288.635 136.684C287.701 141.559 286.881 146.552 287.208 151.535C287.459 155.365 289.042 155.945 291.65 158.292C291.65 146.659 293.419 135.064 297.174 124.054Z" fill="black"/>
</svg>
