<svg width="479" height="359" viewBox="0 0 479 359" fill="none" xmlns="http://www.w3.org/2000/svg">
<path fill-rule="evenodd" clip-rule="evenodd" d="M163.721 165.53C165.189 180.349 166.658 195.168 168.127 209.987C176.123 205.428 184.12 200.868 192.116 196.308V230.068V238.942C192.116 239.727 191.65 242.424 192.116 243.104C192.512 243.681 195.442 243.697 196.135 243.795C200.656 244.427 205.188 244.99 209.726 245.491C221.687 246.811 234.49 248.702 246.497 247.185C256.934 245.866 267.052 242.157 276.588 237.84C279.936 236.325 283.237 234.703 286.477 232.97C287.163 232.602 289.657 231.734 290.03 230.987C290.335 230.375 289.62 228.228 289.524 227.586C289.121 224.878 288.718 222.17 288.315 219.463L282.688 181.652L293.319 192.261C294.152 193.092 295.733 195.451 296.885 195.82C297.73 196.09 299.823 195.254 300.658 195.093C306.677 193.934 312.697 192.774 318.717 191.616C320.119 191.345 323.28 191.356 324.462 190.509C325.099 190.053 325.129 189.125 325.353 188.246C326.822 182.498 328.29 176.75 329.758 171.002C330.022 169.967 331.498 166.703 331.123 165.66C330.988 165.286 330.337 165.031 329.939 164.787C320.854 159.242 311.768 153.697 302.682 148.151C297.705 145.114 292.728 142.076 287.751 139.038C285.667 137.765 283.106 135.473 280.744 134.761C279.277 134.319 277.144 134.65 275.626 134.607C272.542 134.519 269.459 134.431 266.375 134.343C265.892 134.329 264.201 133.985 263.795 134.269C263.457 134.506 263.597 134.836 263.486 135.399C263.215 136.776 263.213 138.261 263.079 139.659C262.972 140.78 263.185 142.837 262.679 143.852C262.356 144.501 262.766 144.242 262.329 144.556C261.808 144.929 260.147 144.809 259.527 144.881C256.506 145.232 253.484 145.583 250.462 145.933C246.869 146.35 243.237 147.133 239.627 146.772C234.155 146.226 228.255 146.253 222.882 145.101C221.486 144.802 220.983 144.016 219.905 142.941C217.803 140.843 215.722 138.721 213.597 136.645C212.555 135.628 213.001 135.801 211.927 136.186C210.581 136.67 209.217 137.836 207.998 138.578C203.331 141.419 198.664 144.26 193.997 147.1L165.504 164.445C164.909 164.807 164.315 165.168 163.721 165.53Z" fill="#EC6226"/>
<path fill-rule="evenodd" clip-rule="evenodd" d="M436.253 167.373C430.379 189.657 418.566 213.954 394.766 221.057C388.98 222.784 383.351 224.087 377.341 223.43C376.769 223.367 376.291 223.447 375.747 223.458C374.772 223.476 375.614 223.826 374.52 223.489C373.668 223.226 372.87 222.568 371.982 222.277C369.62 221.505 367.103 221.356 364.703 220.732C358.805 219.199 352.727 217.306 347.013 215.192C344.322 214.197 341.849 212.81 339.319 211.477C336.746 210.121 334.019 209.28 331.418 208.037C329.361 207.054 325.839 205.774 324.393 203.931C322.852 201.965 324.984 197.781 325.594 195.691C327.667 188.582 330.136 181.576 331.694 174.324C337.073 180.555 344.54 184.413 352.269 186.901C356.463 188.252 360.777 189.228 365.14 189.839C369.1 190.393 373.373 191.064 377.343 190.277C380.34 189.683 384.102 188.306 386.242 186.02C387.006 185.204 387.922 183.708 387.494 182.523C386.951 181.018 385.368 181.726 384.511 180.603C383.765 179.625 383.882 177.337 383.644 176.146C383.223 174.038 382.645 171.988 381.94 169.958C380.571 166.018 378.864 162.069 378.455 157.877C378.1 154.239 378.929 150.8 380.745 147.643C381.603 146.151 383.758 142.092 385.861 142.261C388.17 142.446 385.056 152.172 384.954 154.157C384.55 162.022 385.606 170.403 389.645 177.297C391.191 179.937 393.428 183.01 396.729 183.337C400.227 183.683 403.048 180.933 404.713 178.151C408.775 171.363 406.727 162.049 404.67 154.935C402.146 146.207 395.56 140.19 391.395 132.351C397.613 132.976 400.943 136.923 404.133 141.931C407.647 147.444 410.381 154.063 411.73 160.478C412.411 163.719 411.941 166.973 411.945 170.246C411.947 171.334 411.946 175.345 413.721 175.187C415.616 175.018 416.267 170.494 416.545 169.114C417.185 165.948 417.876 162.782 418.431 159.601C419.413 153.973 419.85 148.208 421.026 142.619C421.225 141.674 421.621 139.052 423.036 139.76C424.127 140.305 423.952 144.359 423.992 145.302C424.09 147.624 424.228 149.946 424.247 152.271C424.275 155.717 423.587 159.283 423.924 162.708C424.145 164.946 425.346 167.418 426.836 164.4C428.314 161.408 428.615 157.675 429.439 154.457C430.304 151.078 431.198 147.649 433.034 144.648C433.543 143.815 434.091 142.493 435.223 142.885C436.046 143.17 436.653 145.118 436.908 145.806C438.055 148.914 437.86 152.369 437.788 155.623C437.699 159.609 437.271 163.508 436.253 167.373ZM321.718 173.156C321.405 173.054 320.071 172.928 319.74 172.899C319.353 172.865 319.793 172.152 318.855 172.355C319.036 172.803 319.357 173.102 319.82 173.253C318.41 173.73 317.369 172.552 316.405 172.4C315.482 172.255 315.443 172.4 314.532 173.374C313.546 172.172 313.731 172.922 312.919 172.922C312.624 172.923 312.612 173.368 312.131 173.315C311.712 173.268 311.668 172.632 311.42 172.557C310.073 172.15 308.689 174.199 307.162 172.422C306.792 174.27 302.554 171.955 300.923 172.28C299.214 172.62 299.951 173.232 298.57 172.185C297.254 171.188 297.621 171.851 296.09 172.667C296.125 172.648 295.226 173.255 295.309 173.265C294.249 173.141 294.31 172.046 292.967 172.104C291.547 172.166 290.94 173.279 289.64 171.909C289.357 172.935 289.299 172.493 288.632 172.751C288.266 172.838 287.945 172.742 287.67 172.463C287.587 172.745 287.404 172.918 287.121 172.981C286.395 173.047 285.033 173.147 284.374 172.798C283.385 172.274 284.18 172.073 283.494 171.483C283.187 173.109 282.513 172.763 281.092 172.915C280.008 173.031 279.769 172.698 278.734 172.537C277.714 172.378 276.397 172.773 275.402 172.942C274.991 173.012 274.441 173.298 274.023 173.197C273.647 173.107 273.485 172.815 273.26 172.738C272.987 172.646 273.045 172.407 272.573 172.292C272.248 172.212 271.665 172.517 271.339 172.57C269.021 172.946 266.793 172.95 264.581 172.039C265.671 173.952 262.035 172.919 261.386 172.127C260.576 173.395 259.596 172.5 257.962 172.599C256.39 172.694 254.024 173.175 253.387 171.218C253.262 171.616 252.37 172.77 252.014 172.947C250.983 173.457 250.86 172.702 249.902 172.394C248.597 171.975 248.869 172.77 248.061 172.932C246.695 173.205 245.957 172.244 244.75 171.734C244.699 172.528 244.673 173.016 243.986 173.511C243.377 171.296 241.205 173.692 241.578 170.732C240.752 171.27 239.589 171.683 239.354 172.77C240.735 172.391 239.501 173.293 239.443 173.323C239.261 173.419 238.644 172.553 238.5 172.431C238.461 172.839 238.422 173.248 238.383 173.656C237.833 173.381 237.316 172.888 236.869 172.642C236.467 172.419 237.044 171.957 236.363 171.925C236.005 171.908 235.631 172.684 235.255 172.75C234.679 172.851 234.956 172.026 234.715 172.054C234.348 172.096 233.75 172.632 233.473 172.622C232.563 172.588 233.179 172.165 232.485 171.971C231.245 171.624 231.324 172.435 230.433 172.727C228.393 173.396 228.598 170.317 226.523 172.37C226.026 172.862 225.707 173.621 225.026 173.578C223.618 173.49 224.112 171.822 224.399 171.005C224.695 171.15 219.252 173.944 219.295 173.835C219.33 173.165 220.186 172.648 219.421 172.053C218.795 173.394 218.137 173.418 216.695 173.667C215.994 173.789 215.856 173.951 215.105 173.66C214.627 173.474 214.306 172.713 213.831 172.671C213.895 172.676 213.023 173.34 212.89 173.4C212.102 173.754 211.604 173.352 210.84 173.498C210.187 173.622 209.93 174.176 209.282 174.025C208.415 173.823 208.924 172.789 207.733 173.077C207.325 173.176 207.081 173.96 206.439 174.122C205.438 174.375 204.212 173.903 203.155 174.15C202.316 174.345 201.693 174.428 200.959 174.469C200.367 174.502 200.61 174.041 199.519 174.585L199.056 173.42C198.51 173.911 197.964 174.401 197.417 174.892C197.314 174.452 197.248 174.007 197.22 173.555C196.406 174.371 195.379 174.51 194.284 174.583C193.098 174.663 192.215 174.921 191.061 175.138C190.696 175.206 189.756 175.315 189.456 175.188C189.5 175.207 188.895 174.955 189.078 175.003C188.999 174.843 188.926 174.68 188.858 174.515C188.757 174.055 188.425 174.035 187.866 174.454C187.576 174.41 187.015 174.03 186.726 174.124C185.982 174.364 186.083 174.942 185.342 174.857C184.861 174.802 184.615 174.091 184.114 174.043C183.347 173.969 182.683 174.827 181.992 175.014C184.092 174.444 179.267 174.886 180.767 174.926C179.784 174.9 178.763 174.851 177.854 175.292C177.351 174.949 177.961 174.259 177.454 173.975C176.993 173.717 176.958 174.397 176.904 174.412C177.194 174.33 177.05 174.909 176.759 175.012C175.854 175.332 175.129 174.517 175.083 173.708C174.313 174.865 174.098 174.4 172.966 174.472C171.851 174.542 170.889 175.127 169.772 175.116C167.565 175.095 166.067 174.328 165.33 172.359C167.683 172.645 170.05 171.134 172.35 171.49C173.106 171.607 173.578 172.174 174.24 172.073C175.056 171.949 175.626 171.06 176.672 170.964C178.979 170.753 181.254 170.959 183.578 170.605C186.353 170.183 189.249 169.932 192.051 170.138C194.216 170.297 195.97 169.47 198.165 169.311C201.004 169.104 203.867 169.067 206.711 168.919C209.632 168.765 212.777 168.299 215.691 168.449C216.6 168.495 217.383 168.584 218.286 168.53C218.668 168.507 219.029 168.248 219.43 168.287C219.952 168.337 220.176 168.871 220.717 168.852C221.637 168.821 222.62 168.063 223.713 168.043C225.511 168.009 227.301 168.013 229.103 167.911C230.69 167.82 232.39 167.45 233.969 167.47C235.083 167.484 235.358 168.433 236.008 168.531C237.175 168.707 243.081 165.348 243.592 168.362C246.667 166.26 250.79 168.04 254.212 167.645C258.609 167.137 263.087 167.59 267.513 167.409C272.017 167.225 276.651 167.396 281.138 167.82C282.996 167.996 284.791 168.161 286.655 168.054C287.486 168.006 288.446 167.795 289.277 167.986C289.478 168.032 291.019 169.107 290.828 169.138C291.669 168.383 291.1 168.272 292.58 168.234C293.721 168.204 294.801 168.45 295.936 168.517C297.973 168.638 300.025 168.356 302.057 168.418C303.754 168.47 305.414 168.72 307.119 168.732C308.958 168.745 311.13 168.797 312.46 170.279C312.32 169.813 312.18 169.348 312.039 168.883C314.092 169.044 316.12 169.776 318.195 169.434C317.67 169.936 317.137 170.347 316.937 171.083C318.056 170.941 318.813 170.161 319.992 170.155C320.981 170.149 321.187 170.645 322.232 170.004C322.36 170.789 322.488 171.574 322.617 172.359C324.064 172.019 323.115 170.941 323.221 169.969C324.396 170.322 325.392 169.917 324.929 171.607C324.571 172.91 322.943 173.553 321.718 173.156ZM319.685 187.673C319.181 189.089 314.817 188.28 313.785 188.13C312.452 187.937 310.926 187.631 309.699 187.479C309.551 187.283 309.375 187.117 309.169 186.98C309.015 187.195 308.819 187.347 308.583 187.437C308.019 187.56 308.017 188.142 307.277 188.013C307.242 188.874 307.84 188.385 308.299 188.697C307.144 189.471 307.672 188.58 307.024 188.594C306.864 188.367 306.64 188.277 306.353 188.326C305.988 188.421 305.652 188.577 305.344 188.795C305.055 189.099 304.808 189.115 304.602 188.842C304.405 188.644 304.164 188.522 303.88 188.475C302.742 188.66 302.424 189.165 301.143 189.082C299.312 188.964 297.332 189.447 295.53 189.192C294.414 189.035 292.548 187.282 292.041 188.991C291.269 187.724 290.039 186.862 289.3 185.568C292.743 185.369 296.185 185.132 299.631 185.008C302.649 184.899 305.949 185.238 308.768 185.096C311.41 184.963 314.207 184.671 316.903 184.43C319.762 184.175 320.708 184.802 319.685 187.673ZM229.861 187.882C231.111 188.228 232.302 187.444 233.514 187.691C233.915 187.773 234.745 188.503 234.927 188.517C235.261 188.544 236.243 187.828 236.663 187.732C239.327 187.126 242.553 187.191 245.215 187.563C246.626 187.76 246.843 187.114 248.074 186.801C249.354 186.475 251.174 186.726 252.522 186.636C255.692 186.424 258.862 186.575 262.012 186.343C265.245 186.105 268.462 185.977 271.697 185.81C273.901 185.697 279.196 184.441 281.022 186.075C282.528 187.423 280.588 189.763 279.081 190.297C277.955 190.696 277.415 189.856 276.579 189.936C275.627 190.027 275.959 191.152 275.109 190.109C274.582 191.146 271.271 190.704 270.323 190.772C268.255 190.922 266.506 191.336 265.099 189.409C265.194 189.965 265.29 190.521 265.385 191.076C263.519 190.08 261.516 190.399 259.896 190.746C259.094 190.918 256.631 192.107 255.762 191.594C255.165 191.242 256.219 190.639 255.21 190.338C254.681 190.18 253.768 191.057 253.122 191.013C251.334 190.89 251.842 189.689 250.085 191.218C249.49 190.704 249.293 189.83 249.371 189.08C248.095 190.168 248.202 191.98 245.921 191.648C245.071 191.525 244.915 190.658 244.472 190.499C243.528 190.158 243.421 190.77 242.603 191.255C242.294 191.438 241.918 191.732 241.555 191.769C240.808 191.843 240.689 191.5 240.587 191.512C240.091 191.566 239.465 191.819 238.875 191.638C238.346 191.476 238.191 190.544 237.259 190.762C236.367 190.971 236.36 191.576 236.522 192.482C235.642 192.391 235.11 191.902 234.452 191.372C233.788 192.92 232.389 191.637 231.616 192.944C230.608 191.742 229.961 192.073 228.711 190.898C228.773 191.388 228.834 191.878 228.895 192.368C227.919 192.18 227.485 191.493 226.653 192.403C225.845 190.899 223.395 193.041 222.137 191.589C221.577 193.429 217.866 192.989 216.299 193.02C214.91 193.049 213.882 192.935 212.525 193.257C211.326 193.542 209.664 193.837 208.536 193.707C207.799 193.622 206.994 193.487 206.076 193.587C204.752 193.73 203.609 194.415 202.238 194.091C200.174 193.603 198.908 190.894 201.208 189.704C202.781 188.889 205.616 189.191 207.348 189.04C210.218 188.791 213.434 188.269 216.308 188.506C218.549 188.692 220.592 188.157 222.879 187.931C224.601 187.761 227.423 187.456 228.546 189.161C228.977 188.663 228.933 187.625 229.861 187.882ZM198.444 211.224C198.136 209.691 211.256 208.846 212.558 208.746C215.293 208.535 218.034 208.385 220.775 208.315C223.028 208.258 225.131 208.688 227.384 208.342C229.488 208.02 232.029 207.358 233.86 208.847C234.13 206.811 242.027 207.803 243.53 207.809C250.071 207.832 256.33 207.847 262.656 207.443C266.272 207.211 270.112 206.9 273.728 207.081C275.359 207.163 276.673 207.597 278.295 207.22C279.353 206.974 280.493 206.462 281.505 207.186C282.689 208.032 283.195 210.907 282.379 212.107C281.785 212.982 281.259 212.885 280.31 212.733C278.85 212.501 277.766 212.164 276.278 212.757C276.519 212.66 275.281 212.936 275.384 212.929C273.698 213.054 271.387 214.231 269.935 212.875C270.516 212.977 271.362 211.939 270.628 211.853C270.078 211.789 269.728 212.379 269.298 212.577C267.828 213.253 267.075 213.042 266.197 211.623C264.426 213.155 264.235 212.731 263.458 210.845C262.859 211.306 262.73 212.396 262.259 212.753C262.189 212.806 262.479 213.468 262.139 213.441C261.823 213.415 261.72 212.898 261.477 212.858C261.322 212.831 261.241 212.378 261.093 212.35C260.932 212.321 260.767 212.61 260.585 212.602C260.098 212.579 258.706 213.614 259.205 212.161C258.468 213.099 258.151 212.501 257.885 211.648C257.033 212.295 256.182 212.941 255.33 213.588C254.935 212.488 254.253 212.788 253.396 213.171C253.654 212.408 253.493 211.685 252.845 212.216C252.469 212.524 252.217 213.5 251.833 213.915C250.279 212.342 249.714 212.773 247.566 212.978C246.747 213.055 245.728 213.207 244.996 212.712C244.352 212.277 243.988 210.681 242.887 211.971C243.132 211.684 242.748 213.886 242.68 214.236C242.195 213.909 241.782 213.507 241.443 213.03C240.809 214.283 239.146 213.159 237.783 213.415C235.637 213.818 233.424 214.497 231.529 212.902C231.395 213.417 229.842 214.073 229.84 214.093C229.932 213.181 230.508 213.501 229.332 213.328C229.116 213.296 228.87 213.686 228.665 213.728C227.964 213.873 227.145 213.735 226.439 213.715C223.499 213.631 220.807 214.282 217.904 214.518C216.926 214.597 215.765 214.753 214.846 214.385C213.9 214.004 213.926 213.573 212.968 213.818C213.271 213.74 212.37 214.687 212.419 214.651C212.29 214.744 211.753 214.283 211.562 214.318C211.506 214.519 211.451 214.721 211.395 214.923C211.164 214.894 210.933 214.866 210.703 214.837C210.071 214.922 209.502 214.284 208.909 214.262C209.018 214.266 207.308 214.902 207.386 214.941C206.192 214.346 206.535 214.518 205.021 214.881C203.59 215.223 202.165 215.143 200.696 215.356C196.425 215.976 198.97 213.837 198.444 211.224ZM194.672 232.564C193.869 231.425 196.006 231.032 196.688 230.931C197.811 230.766 199.3 231.095 200.048 230.917C201.187 230.646 202.287 230 203.569 229.825C205.187 229.603 206.819 229.568 208.444 229.429C208.985 229.382 209.655 229.196 210.182 229.228C210.966 229.275 211.292 229.689 211.925 229.692C213.004 229.698 214.335 229.017 215.44 228.892C216.856 228.732 218.285 228.657 219.708 228.586C222.705 228.438 225.671 228.499 228.667 228.496C230.033 228.494 233.672 227.077 234.353 228.666C235.3 227.462 237.73 227.626 239.084 227.591C241.469 227.53 243.83 227.3 246.214 227.189C248.255 227.094 250.536 227.531 252.54 227.225C253.644 227.057 254.01 226.703 255.263 226.863C256.194 226.981 257.612 226.489 258.411 226.707C258.37 226.695 259.408 227.338 259.084 227.359C259.441 227.336 259.42 227.585 259.813 227.474C260.33 227.328 260.092 226.679 261.163 226.449C262.833 226.089 265.06 226.505 266.795 226.413C268.478 226.323 270.159 226.285 271.844 226.292C272.62 226.296 273.579 226.111 274.333 226.262C274.703 226.336 275.489 226.818 275.802 226.77C276.69 226.631 277.142 226.015 278.343 226.053C279.703 226.096 280.928 226.077 282.281 225.974C283.591 225.874 283.801 225.687 284.451 226.776C285.094 227.857 285.272 229.264 284.087 229.998C284.857 229.947 285.803 230.977 284.897 231.547C284.336 231.899 283.213 231.104 282.542 231.162C281.715 231.233 281.067 231.669 280.167 231.696C279.221 231.725 278.261 231.963 277.329 231.981C276.357 232 275.623 231.566 274.702 231.751C273.891 231.914 273.805 232.578 272.829 231.995C272.344 231.705 272.262 230.63 271.6 230.621C270.713 230.607 271.067 231.752 270.557 232.282C270.42 230.645 269.155 233.354 268.652 231.367C268.189 232.027 266.472 232.95 265.641 232.42C264.883 231.937 265.134 230.843 264.819 230.055C264.293 231.471 262.883 232.94 263.011 230.362C262.326 231.205 260.475 231.072 260.938 232.546C260.381 232.535 260.249 231.739 259.779 231.679C259.374 231.627 259.052 231.939 258.99 231.934C259.212 231.952 258.326 232.247 258.312 232.25C258.912 232.128 256.581 231.92 256.978 231.924C256.437 231.919 255.775 232.362 255.143 232.361C254.567 232.359 253.994 232.132 253.425 232.068C251.951 231.899 252.258 232.223 251.333 232.686C250.99 232.857 250.904 233.147 250.417 233.111C250.057 233.084 249.923 232.616 249.882 232.612C249.377 232.561 249.75 232.391 248.966 232.47C248.876 232.624 248.786 232.779 248.696 232.933C248.413 233.296 248.045 233.386 247.594 233.206C246.434 233.454 242.584 234.533 242.961 232.536C242.371 232.824 241.781 233.112 241.191 233.4C240.938 231.79 237.733 233.925 237.017 234.033C236.099 234.17 236.014 233.818 235.145 233.631C234.989 233.597 234.675 234.113 234.308 234.039C233.356 233.848 233.186 233.753 233.022 232.719C232.343 233.988 231.778 233.42 230.546 233.629C230.274 233.676 230.1 234.212 229.708 234.119C229.426 234.052 229.418 233.537 229.224 233.471C229.049 233.411 229.075 233.004 228.818 232.947C228.522 232.88 227.514 233.706 227.225 233.833C226.573 234.121 225.501 234.596 224.865 234.453C224.078 234.278 224.428 233.695 223.316 233.76C221.561 233.863 220.829 235.355 219.737 233.004C219.245 233.946 219.307 234.201 218.516 234.512C217.931 234.742 216.45 234.502 215.68 234.474C212.392 234.352 209.159 235.472 205.898 235.178C204.465 235.05 203.257 234.763 201.81 234.997C200.29 235.244 198.804 235.606 197.262 235.752C196.478 235.826 194.84 236.051 194.455 235.05C194.117 234.168 195.379 233.567 194.672 232.564ZM201.121 268.715C196.856 271.567 193.323 275.46 189.407 278.757C185.481 282.062 182.366 285.737 178.835 289.397C175.57 292.78 172.571 295.982 168.624 298.538C166.126 300.157 163.899 302.148 161.333 303.674C159.412 304.817 156.501 306.32 157.438 302.825C158.399 299.243 160.173 295.622 161.713 292.277C163.903 287.522 166.11 282.811 168.479 278.146C169.37 276.393 169.868 274.648 171.28 273.252C172.816 271.732 173.892 269.749 175.575 268.313C182.653 262.274 193.32 266.94 201.121 268.715ZM214.5 270.763C212.565 271.776 210.4 272.027 208.349 272.697C206.602 273.268 204.977 274.284 203.098 274.359C204.809 273.075 206.279 271.332 208.207 270.357C210.376 269.261 212.345 270.059 214.5 270.763ZM299.415 279.208C292.299 276.809 285.674 273.273 278.742 270.428C277.546 269.936 268.189 266.857 268.379 265.391C274.936 264.191 281.689 262.131 288.262 264.377C294.242 266.42 299.105 271.321 303.734 275.423C304.942 276.494 312.411 281.368 311.743 282.92C311.28 283.996 307.681 283.702 306.831 283.482C305.733 283.197 305.101 282.531 304.24 281.799C302.8 280.577 301.208 279.812 299.415 279.208ZM286.278 239.12C287.359 238.127 288.006 236.619 289.039 235.701C290.365 234.522 292.506 235.097 293.956 235.709C298.307 237.547 302.027 240.636 306.351 242.553C311.144 244.678 315.293 247.517 319.615 250.443C323.566 253.118 327.839 255.332 331.872 257.885C335.981 260.486 340.582 262.177 344.748 264.686C348.988 267.24 353.211 269.805 357.286 272.619C364.551 277.637 372.116 282.79 377.491 289.925C380.254 293.593 382.84 297.752 384.867 301.871C386.71 305.614 388.709 310.811 386.321 314.706C384.028 318.445 380.119 321.392 376.81 324.182C375.557 325.239 374.365 326.522 372.741 326.981C370.765 327.537 368.46 327.384 366.428 327.548C355.565 328.428 345.445 327.597 334.74 325.656C324.418 323.784 314.053 322.736 303.651 321.435C297.783 320.701 291.916 319.846 286.128 318.624C283.654 318.101 281.136 317.499 278.715 316.787C276.601 316.165 274.822 314.796 272.648 314.254C263.422 311.951 252.865 311.071 243.73 307.198C251.814 303.841 260.404 301.813 268.689 299.024C277.408 296.088 285.925 293.624 295.115 292.79C299.845 292.361 304.077 291.154 308.627 289.891C312.962 288.687 317.488 288.318 321.941 287.779C323.922 287.539 329.573 287.898 330.23 285.311C331.207 281.46 325.654 281.015 323.287 281.36C319.928 281.849 317.159 282.687 314.589 279.934C311.965 277.123 309.415 274.244 306.744 271.469C301.79 266.322 296.684 260.369 289.681 258.06C281.138 255.243 271.231 257.917 262.707 259.519C253.704 261.211 244.715 262.831 235.88 265.29C232.222 266.309 227.504 268.552 223.707 268.192C219.964 267.836 215.726 267.224 212.11 266.146C210.474 265.658 209.128 264.754 207.664 263.911C205.76 262.814 203.674 262.112 201.654 261.259C197.568 259.536 193.585 257.949 189.177 257.271C185.465 256.701 181.523 256.363 177.926 257.663C174.397 258.939 171.27 261.536 168.807 264.311C166.133 267.326 163.922 270.704 161.73 274.073C160.677 275.689 159.393 277.1 158.303 278.68C157.388 280.008 156.853 281.482 155.885 282.772C153.718 285.658 152.246 289.35 150.933 292.707C149.474 296.437 147.853 300.871 148.201 304.928C148.333 306.461 148.47 308.492 149.064 309.914C149.819 311.722 150.895 311.676 152.447 312.358C155.113 313.53 155.861 316.769 159.305 316.137C162.537 315.545 165.339 312.885 167.697 310.763C170.77 308 173.71 305.085 176.651 302.182C179.668 299.202 182.642 295.897 185.042 292.391C185.987 291.011 186.723 289.452 187.84 288.195C189.262 286.594 190.858 286.402 192.79 285.764C209.675 280.189 226.643 274.811 244.056 271.13C248.228 270.248 252.434 269.11 256.532 267.936C260.878 266.691 263.129 268.007 266.716 270.377C274.211 275.329 283.069 278.817 291.414 282.047C294.042 283.064 298.225 283.129 300.279 285.135C288.104 286.99 276.5 290.559 264.757 294.113C258.967 295.864 253.11 297.383 247.298 299.059C241.484 300.735 235.891 302.907 230.156 304.796C224.449 306.677 218.418 307.444 212.656 309.178C206.774 310.949 200.916 312.167 194.878 313.243C188.782 314.331 182.728 315.585 176.61 316.558C173.809 317.004 171.009 317.466 168.239 318.079C165.529 318.679 162.91 320.115 160.186 320.448C148.022 321.936 136.096 325.249 123.979 327.123C114.931 328.521 99.1915 330.472 93.3246 321.402C87.4249 312.279 94.6629 301.639 101.121 295.116C105.134 291.063 109.644 287.495 114.376 284.321C119.44 280.925 124.312 277.257 129.377 273.865C140.839 266.19 153.269 259.93 165.583 253.762C171.494 250.802 177.205 247.627 182.955 244.378C185.809 242.765 187.388 245.367 189.644 247.136C191.418 248.527 194.677 251.956 197.159 250.371C197.255 250.942 197.35 251.512 197.446 252.084C198.173 251.752 198.901 251.421 199.628 251.09C200.116 252.37 200.059 253.165 201.424 253.837C202.261 254.251 204.049 254.747 204.848 254.02C205.011 254.526 205.174 255.031 205.337 255.536C206.035 255.483 206.17 253.486 206.302 253.019C207.499 254.766 209.154 256.225 211.258 256.719C211.268 256.605 210.916 255.17 210.931 255.161C211.596 254.754 212.436 256.498 212.789 256.871C213.959 258.108 214.657 257.916 215.949 256.918C216.043 257.02 216.48 258.16 216.544 258.14C216.824 258.051 217.355 257.04 217.413 256.948C217.332 258.278 219.901 258.546 220.808 258.26C220.604 257.87 220.401 257.481 220.198 257.091C223.357 256.67 224.598 260.024 227.631 259.854C229.873 259.728 228.074 259.238 229.343 258.279C230.451 257.44 230.649 259.274 230.758 259.216C230.969 258.994 231.133 258.74 231.25 258.453C231.66 260.024 234.926 261.432 234.588 258.85C235.873 259.364 236.785 260.216 238.207 260.396C239.935 260.615 241.782 260.248 243.505 260.105C247.221 259.796 250.723 259.039 254.072 257.338C256.058 256.33 258.171 255.415 260.037 254.198C261.599 253.18 264.562 250.089 266.642 251.42C266.11 249.85 268.617 251.305 268.697 249.282C269.099 249.586 269.502 249.889 269.905 250.193C270.146 249.663 270.079 248.83 270.402 248.368C270.847 247.735 271.063 248.108 271.442 247.752C271.866 247.353 272.236 246.285 272.744 245.981C273.267 245.668 273.883 246.041 274.447 245.768C275.304 245.352 278.994 241.286 278.369 244.77C279.956 244.231 278.733 243.739 278.931 242.682C279.329 240.565 280.297 242.089 281.262 242.273C282.842 242.576 282.811 241.271 283.692 240.322C284.496 239.455 286.009 239.068 285.488 237.563C286.083 237.883 286.209 238.511 286.278 239.12ZM191.032 193.905C189.787 195.291 188.855 194.698 187.471 194.495C187.323 193.999 187.07 193.931 186.712 194.289C186.302 194.524 185.861 194.68 185.389 194.753C184.254 195.033 183.076 194.914 181.965 195.338C181.997 194.966 182.388 194.306 182.138 193.928C180.97 194.735 180.246 195.248 178.813 195.264C177.651 195.276 175.612 194.389 174.648 195.449C174.618 195.036 174.588 194.624 174.558 194.212C174.086 194.447 173.675 194.761 173.325 195.156C173.259 194.544 173.223 194.082 172.818 193.588C172.051 195.165 171.21 195.202 169.719 194.6C169.928 194.684 168.227 193.688 168.292 193.964C167.754 191.699 176.245 191.886 177.136 191.796C179.362 191.572 181.588 191.442 183.817 191.236C185.932 191.042 187.51 190.713 188.973 192.476C188.321 189.929 194.49 190.056 191.032 193.905ZM93.6818 154.417C93.9157 158.267 94.773 162.358 93.2752 166.063C92.071 169.041 89.6689 172.405 87.0814 174.348C81.783 178.328 77.292 173.458 76.5546 168.107C75.7859 162.525 77.3097 155.705 82.1192 152.263C84.9929 150.207 87.7757 150.35 91.0845 151.026C91.8615 151.185 93.123 151.124 93.5673 151.895C93.6715 152.076 93.5781 154.414 93.6818 154.417ZM164.052 205.706C163.137 206.167 162.179 206.437 161.372 207.066C161.092 207.284 160.996 207.781 160.699 207.964C160.158 208.299 159.384 208.077 158.82 208.353C157.886 208.809 157.217 209.462 156.107 209.882C154.459 210.506 153.014 211.362 151.457 212.173C148.861 213.525 146.076 214.686 143.363 215.787C141.993 216.343 138.205 217.426 138.337 219.43C138.03 219.512 137.717 218.843 137.078 218.896C136.199 218.969 135.039 219.984 134.127 220.233C132.422 220.7 131.102 220.741 131.102 222.914C130.559 222.545 130.421 221.643 129.699 221.524C128.886 221.389 128.544 222.266 127.894 222.538C127.128 222.86 126.176 222.552 125.418 222.893C125.086 223.244 124.717 223.55 124.312 223.811C123.899 223.858 123.489 223.846 123.08 223.773C121.47 224.114 119.989 224.719 118.375 225.033C116.802 225.34 115.725 225.452 116.386 227.31C114.704 227.639 114.293 225.855 112.395 226.508C110.068 227.307 107.894 227.883 105.465 228.371C104.226 228.62 102.932 229.175 101.684 229.305C100.794 229.398 99.9632 229.08 99.0868 229.179C98.0304 229.297 97.1814 229.786 96.0883 229.805C95.0514 229.823 93.9627 229.637 92.9444 229.454C93.0882 229.864 93.2683 230.257 93.4846 230.633C92.7805 230.486 92.4556 229.64 91.8586 229.515C91.2323 229.383 90.671 230.029 90.1494 229.886C89.9272 229.825 90.075 229.141 89.6777 229.01C89.3156 228.891 89.1629 229.031 88.8038 228.975C88.6839 228.957 87.1817 228.875 86.9424 229.002C86.524 229.223 86.9473 229.639 86.8641 229.7C85.4514 230.745 85.4343 230.181 84.8046 229.09C83.8797 227.488 82.7646 228.499 81.0838 228.218C79.2107 227.906 77.7349 228.732 75.8911 228.614C73.9025 228.488 71.5655 227.001 69.8074 226.132C66.0108 224.257 62.3086 222.483 59.1202 219.643C52.8872 214.091 47.8164 207.263 44.8267 199.447C41.6143 191.05 41.0056 182.292 41.2635 173.383C41.4186 168.026 41.8477 162.671 42.6928 157.376C43.2746 153.734 43.3964 147.261 47.5057 145.602C48.2123 154.131 45.9829 162.821 47.3888 171.294C47.812 173.846 48.8445 177.247 50.7983 179.137C53.6912 181.935 54.3679 177.89 54.6297 175.656C55.1166 171.507 56.0213 167.38 56.6618 163.251C57.3019 159.123 57.754 154.949 58.6441 150.864C58.9685 149.375 61.5854 138.469 63.506 138.985C63.1174 146.919 62.0855 154.717 62.0448 162.68C62.0287 165.874 61.7424 169.248 62.2039 172.42C62.4412 174.053 63.9292 178.845 66.4884 178.445C68.8567 178.075 66.253 174.7 66.0318 173.399C65.4461 169.954 66.1928 165.668 66.7389 162.248C67.7723 155.777 70.078 149.149 73.8467 143.742C77.2221 138.899 82.4191 134.29 88.68 135.143C91.3551 135.509 93.442 136.172 94.7862 138.613C95.8407 140.529 99.995 142.706 97.5875 145.104C95.3959 147.288 91.8512 145.54 89.4149 145.019C86.432 144.382 83.2353 145.149 80.7408 146.895C76.4607 149.892 74.0214 155.248 73.2253 160.272C72.1522 167.046 75.0206 184.778 85.5855 180.804C92.6038 178.164 97.8899 168.667 97.3008 161.396C97.0645 158.486 95.9258 152.961 99.9554 152.175C105.118 151.168 105.847 156.855 105.324 160.55C104.564 165.926 101.721 170.924 98.4688 175.174C95.6342 178.878 92.3371 181.194 88.9261 184.254C87.9161 185.159 85.3404 187.196 85.7729 188.88C86.2471 190.726 90.2952 191.251 91.9163 191.555C99.9353 193.055 108.978 191.675 116.984 190.627C133.437 188.474 149.674 183.171 163.166 173.422C163.711 179.454 164.398 185.466 164.651 191.521C164.774 194.46 164.805 197.441 165.141 200.364C165.348 202.162 166.096 204.674 164.052 205.706ZM118.43 226.726C117.784 227.063 118.482 225.021 118.302 225.697C119.267 226.042 119.31 226.385 118.43 226.726ZM186.683 153.721C187.708 152.591 190.51 149.905 191.399 152.454C191.73 151.368 191.773 149.758 193.05 151.226C193.558 149.423 199.167 149.591 200.556 149.512C205.005 149.258 209.471 149.121 213.904 148.68C223.013 147.773 232.281 148.241 241.422 148.211C243.402 148.204 245.377 148.097 247.342 148.384C249.238 148.661 251.231 149.438 253.164 149.154C254.883 148.902 256.01 148.428 257.778 148.631C259.895 148.873 261.95 149.046 264.085 149.038C273.531 149.003 282.971 149.386 292.418 149.4C294.26 149.403 296.466 149.044 298.193 149.825C298.833 150.115 299.532 151.079 300.021 151.185C300.581 151.306 300.248 150.432 300.998 150.827C302.003 151.355 301.225 152.978 300.562 153.236C300.959 153.082 299.844 152.93 299.956 152.924C299.427 152.952 298.976 153.358 298.408 153.332C297.542 153.294 296.818 152.767 296.121 152.303C296.109 152.493 296.492 153.756 296.055 153.82C295.679 153.875 295.326 152.629 295.288 152.339C293.175 154.202 290.936 153.164 288.313 153.4C286.453 153.567 282.574 154.807 281.277 152.867C281.223 153.279 281.057 153.641 280.78 153.951C280.409 154.515 280.088 154.467 279.817 153.805C279.726 153.81 278.822 154.006 278.805 154.004C278.168 153.954 277.344 153.726 276.697 153.67C275.696 153.585 275.88 154.313 275.083 154.325C274.647 154.331 273.536 153.703 272.777 153.664C271.462 153.595 270.118 154.153 268.82 153.984C267.927 153.868 267.12 153.141 266.243 153.113C265.151 153.077 264.797 153.909 263.932 152.74C263.754 152.692 263.644 153.38 263.574 153.391C263.591 153.389 262.75 153.513 262.651 153.552C262.478 153.618 261.807 153.925 261.602 153.928C261.16 153.937 260.92 153.621 260.452 153.613C259.677 153.6 257.204 154.281 257.273 152.849C254.509 153.873 252.15 153.474 249.313 153.716C248.011 153.828 247.193 153.653 245.955 153.414C244.403 153.115 243.373 153.491 241.826 153.567C240.34 153.64 239.871 153.012 238.616 152.444C238.121 152.22 237.794 151.925 237.187 152.05C236.841 152.121 237.087 152.703 236.985 152.743C236.451 152.948 236.079 152.731 235.348 152.78C233.998 152.872 233.461 154 232.073 152.942C232.534 152.886 232.995 152.829 233.457 152.773C232.13 152.211 230.379 151.924 230.7 153.971C229.568 153.812 230.548 153.042 229.991 152.767C229.435 152.492 228.812 152.952 228.112 153.18C226.261 153.78 224.719 153.482 222.789 153.374C220.597 153.252 215.468 155.039 213.899 152.719C213.852 153.208 213.326 154.57 212.627 154.506C212.399 154.485 213.035 153.039 213.107 152.886C212.746 153.652 211.103 153.797 210.293 154.195C210.384 153.783 210.475 153.371 210.566 152.96C209.814 153.76 209.448 153.272 208.564 153.539C208.177 153.656 207.617 154.453 207.287 154.501C206.901 154.055 206.417 153.863 205.834 153.925C205.446 153.828 205.058 153.809 204.67 153.868C203.118 153.981 201.702 154.843 200.158 154.256C198.821 153.747 198.304 152.438 197.507 154.52C197.297 154.15 197.087 153.78 196.877 153.41C196.619 153.812 196.36 154.213 196.101 154.615C195.09 153.953 195.028 153.57 193.864 153.813C193.591 153.922 193.31 153.906 193.023 153.767C192.955 153.971 192.886 154.175 192.818 154.378C192.79 154.891 192.638 155.06 192.361 154.886C192.128 154.802 191.918 154.676 191.731 154.505C190.96 154.564 189.977 154.767 189.15 154.655C188.831 154.612 186.832 153.557 186.683 153.721ZM210.248 139.939C210.339 140.078 210.43 140.217 210.52 140.356C209.27 141.016 208.976 140.637 208.847 139.312C209.458 139.324 209.562 140.398 210.248 139.939ZM211.023 139.162C211.625 139.427 212.315 139.948 212.882 139.25C213.264 140.359 210.429 141.872 211.023 139.162ZM214.911 139.651C216.175 140.505 213.143 139.819 213.148 139.82C213.693 139.317 214.28 139.261 214.911 139.651ZM225.782 134.891C226.216 137.077 227.411 137.014 229.341 135.999C232.155 134.517 232.63 132.09 232.827 129.192C233.015 126.414 233.355 125.338 236.222 125.918C238.223 126.323 239.916 125.983 241.933 125.927C244.086 125.868 244.845 126.196 245.018 128.41C245.192 130.627 245.586 132.31 247.196 133.997C248.833 135.712 251.015 136.736 253.142 137.696C254.235 138.189 255.262 138.72 256.472 138.826C256.941 138.868 259.381 138.56 259.433 139.331C259.471 139.911 256.091 141.547 255.733 141.742C254.165 142.594 252.602 143.358 250.89 143.874C246.952 145.062 242.775 145.132 238.696 145.06C232.118 144.944 223.027 142.164 219.094 136.332C221.324 135.852 223.553 135.371 225.782 134.891ZM225.192 115.964C224.151 115.091 223.478 113.773 222.613 112.739C222.177 112.218 221.858 112.052 221.443 111.791C221.006 111.516 220.759 111.905 220.395 111.259C219.453 109.59 222.36 107.242 219.277 106.6C218.234 106.382 215.724 107.208 215.42 105.714C214.989 103.603 219.022 103.465 219.971 102.393C221.858 100.263 220.577 96.6506 221.726 94.1925C222.814 91.8641 225.622 91.4505 227.838 90.7509C230.926 89.7766 234.051 89.2117 237.187 88.4318C239.38 87.8869 243.022 85.6971 245.055 87.6318C241.918 88.328 243.741 89.4207 245.833 90.0376C248.201 90.7367 250.712 91.0094 253.167 91.2042C255.693 91.4044 258.268 91.4426 260.765 90.9393C263.073 90.4738 265.652 88.4685 268.073 88.9821C266.73 91.3158 262.728 92.5907 260.297 93.2021C259.058 93.5135 258.265 93.4161 258.431 94.9597C258.592 96.4558 259.894 97.9558 260.188 99.5141C260.576 101.577 260.237 103.472 259.502 105.411C258.78 107.32 258.611 107.569 259.243 109.393C260.227 112.232 258.111 115.37 256.156 117.432C248.25 125.77 233.12 122.611 225.192 115.964ZM245.282 66.1349C245.314 66.2201 245.287 66.1878 245.282 66.1349V66.1349ZM247.744 87.1756C247.416 87.4203 245.528 87.9334 245.607 87.1961C245.713 86.2082 247.414 86.5651 247.744 87.1756ZM252.047 67.2184C251.604 66.8884 250.363 67.024 251.271 65.7732C251.566 66.3234 251.807 66.7709 252.047 67.2184ZM222.27 59.3114C222.835 57.8451 223.46 56.4812 223.714 54.9204C223.872 53.9589 223.559 52.8608 224.905 52.71C223.19 51.963 223.173 49.0143 223.072 47.4859C222.933 45.3807 222.267 42.5623 223.193 40.6031C224.143 38.5904 225.425 38.6237 225.812 41.0207C225.964 41.9592 225.384 42.2627 225.275 42.9163C225.06 44.2092 225.488 43.9257 226.323 42.9407C226.668 43.9419 226.8 45.4463 228.202 45.3827C228.109 45.112 227.571 44.5147 227.751 44.1784C228.026 43.6619 229.373 44.4511 229.544 44.5705C230.774 45.4302 231.041 46.215 230.164 47.2994C231.378 47.4301 230.359 48.4924 231.143 48.7695C232.339 49.192 231.537 47.1902 231.407 46.8382C232.135 47.1221 232.379 47.4462 232.84 48.021C233.111 48.4175 233.358 48.8292 233.58 49.2552C233.827 50.0326 234.337 50.2275 235.11 49.8397C236.659 50.3254 238.798 50.2495 240.186 51.0984C240.821 51.4861 241.05 52.3345 241.58 52.6567C242.176 53.0195 242.974 52.855 243.615 53.0826C243.38 53.6143 243.57 53.9021 244.183 53.9472C244.659 53.9908 245.12 54.098 245.566 54.2683C245.899 54.0172 246.262 53.8189 246.653 53.6745C246.917 54.1381 247.288 54.2527 247.77 54.0191C249.198 54.2865 249.885 54.8264 250.792 55.6337C251.608 56.3583 250.944 56.417 251.837 56.3529C252.196 56.327 252.825 55.7189 253.645 55.8374C254.117 55.9294 254.573 56.0748 255.011 56.2736C255.486 56.679 255.989 56.7299 256.521 56.4268C257.387 56.8493 257.472 57.5979 258.526 57.7002C259.693 57.8138 259.317 56.3607 260.118 58.4101C261.197 56.2374 261.592 59.6986 262.706 59.9782C263.859 60.268 263.984 59.3334 264.971 60.3546C265.267 60.6606 265.251 61.1663 265.583 61.4909C266.128 62.0221 266.864 61.9159 267.337 62.6404C267.074 62.236 267.399 64.0734 267.394 64.0127C267.467 64.8234 266.747 65.7315 268.224 65.6625C268.207 65.7477 267.498 66.7812 267.359 66.6642C267.326 66.5462 267.297 66.4267 267.274 66.3058C267.116 66.3739 267.045 67.3584 267.075 67.5322C267.2 67.5518 267.251 67.4587 267.228 67.2531C266.985 68.0124 267.351 68.4947 266.885 69.2153C266.587 69.676 265.77 70.0221 265.336 70.3065C264.288 70.9929 263.263 71.6813 262.242 72.4117C259.859 74.1154 257.191 76.1696 254.191 76.525C255.698 75.0465 264.368 69.4513 260.019 67.845C259.213 67.5474 257.744 67.2654 256.901 67.2027C255.852 67.1249 254.767 67.7251 253.61 67.3505C252.213 66.8992 252.739 65.5876 251.887 65.1171C250.076 64.1189 250.503 66.4664 249.933 67.0813C249.334 66.4532 249.462 66.1477 248.517 66.0909C247.557 66.0331 247.329 66.9197 246.208 66.3675C244.665 65.6062 245.482 64.09 243.293 64.0543C243.329 63.7214 243.647 62.7912 243.229 62.5317C242.666 63.2617 243.102 64.0778 242.579 64.7803C242.317 65.1328 241.75 65.4138 241.335 65.5279C240.365 65.7942 240.227 66.3043 240.385 64.844C239.665 66.1389 237.459 65.6062 236.148 65.476C234.015 65.264 231.748 64.8606 229.703 64.1772C227.812 63.5447 226.802 62.4583 225.242 61.4699C224.652 61.0958 224.371 61.2388 223.525 61.0067C222.69 60.7776 221.877 60.3336 222.27 59.3114ZM226.771 36.3835C227.093 36.1896 227.324 39.0825 226.934 39.6229C226.219 38.4935 224.952 36.8368 226.771 36.3835ZM227.799 35.2296C228.835 34.293 228.115 36.712 227.926 37.1178C227.542 36.8721 227.158 36.6263 226.775 36.3805C227.264 36.0804 227.386 35.6031 227.799 35.2296ZM266.868 31.3311C276.435 33.3374 285.914 37.0875 293.587 43.259C300.577 48.8802 305.51 56.8557 308.275 65.3394C311.146 74.1452 310.182 83.915 303.352 90.6544C299.754 94.2043 295.002 96.3461 290.474 98.4361C288.305 99.4372 286.07 100.271 283.892 101.25C282.328 101.952 280.418 103.076 278.633 102.881C279.544 101.924 280.865 101.904 281.967 101.319C283.299 100.611 284.387 99.2522 285.535 98.2819C286.674 97.3184 289.202 94.2846 290.953 95.0189C290.71 93.4028 292.553 92.6523 293.383 91.5866C294.262 90.4591 294.325 89.1407 295.943 88.7715C294.205 87.4125 294.737 84.8491 295.115 82.9991C295.599 80.633 295.823 78.4608 296.013 76.0531C296.357 71.7121 296.634 66.1824 294.234 62.3663C293.455 61.1272 292.463 59.9884 291.769 58.7014C290.931 57.1504 291.116 55.785 291.116 54.0848C289.585 55.1128 289.262 53.0165 288.615 51.9948C288.129 51.2281 287.492 50.7998 287.335 49.8353C287.221 49.1333 287.984 49.0148 287.566 48.279C287.053 48.6657 286.849 49.265 286.59 49.8211C286.116 49.6321 286.674 48.9742 286.403 48.7602C286.395 48.7543 285.483 48.3583 285.528 48.4156C284.941 47.6719 284.752 46.4377 284.464 45.5526C283.389 46.097 283.59 46.0328 282.39 45.1232C282.179 44.9631 281.123 44.2278 281.024 43.9874C280.559 42.8634 281.373 43.5292 281.145 42.8316C280.492 40.8278 276.826 41.2067 276.535 38.2042C274.747 39.3385 274.065 37.7313 273.009 36.5881C271.925 35.4171 270.108 34.9667 270.206 33.1093C269.643 33.3017 269.08 33.4936 268.518 33.685C268.81 31.971 266.262 32.0802 265.339 31.2107C265.852 31.2171 266.361 31.2572 266.868 31.3311ZM268.325 137.488C269.211 136.696 268.942 137.75 269.513 137.63C270.001 137.527 270.097 137.158 270.565 137.045C272.493 136.579 275.374 137.164 277.402 137.064C279.749 136.948 283.774 137.435 284.893 140.18C285.567 141.833 284.538 141.271 283.405 141.148C282.526 141.053 281.745 141.231 280.876 141.222C280.446 141.288 280.018 141.282 279.591 141.202C279.382 141.065 279.26 140.872 279.221 140.623C278.012 140.44 276.727 141.155 275.387 141.191C273.599 141.238 272.01 140.896 270.651 139.689C270.111 140.494 269.743 140.893 268.772 140.983C268.747 140.985 267.798 140.603 267.651 140.565C267.457 140.515 266.965 140.923 266.59 140.806C267.255 139.748 267.352 138.357 268.325 137.488ZM390.444 147.041C390.76 145.944 391.024 144.833 391.311 143.728C395.725 148.749 399.587 155.471 401.325 161.91C402.454 166.094 404.211 173.676 398.829 175.834C394.444 177.592 392 171.29 390.89 168.187C388.441 161.335 388.441 154.013 390.444 147.041ZM192.979 68.3669C193.036 68.3556 190.122 70.049 191.082 68.6778C191.468 68.1265 192.93 67.7388 193.579 67.7388L192.979 68.3669ZM190.177 69.0846C189.839 69.368 189.499 69.6481 189.155 69.9242C188.826 69.4033 188.495 68.8824 188.165 68.3615C188.816 68.0873 191.577 67.8817 190.177 69.0846ZM188.123 121.737C187.513 121.324 187.03 121.543 186.847 122.236C186.847 121.547 187.206 119.945 187.758 119.759C188.115 119.638 186.572 117.814 187.006 117.337C188.108 117.968 187.448 118.572 187.771 119.387C187.917 119.755 188.355 120.102 188.451 120.385C188.613 120.864 189.271 122.512 188.123 121.737ZM185.136 117.633C184.512 117.793 185.605 118.823 185.604 119.278C185.603 119.622 185.189 119.886 185.019 120.357C184.649 121.378 185.285 122.067 184.237 122.846C184.237 120.61 182.735 114.684 185.621 113.595C184.214 112.487 185.37 111.208 186.473 112.534C187.534 113.808 186.858 117.192 185.136 117.633ZM183.632 108.808C183.065 106.798 181.358 106.095 179.406 106.214C179.481 105.185 180.261 103.701 180.825 105.556C181.057 105.008 181.217 104.292 181.746 103.929C182.636 106.718 187.073 108.258 184.31 111.28C184.085 110.456 183.865 109.631 183.632 108.808ZM178.476 106.364C168.2 107.108 153.774 109.239 145.551 101.368C140.19 96.236 140.476 88.2438 144.809 82.5418C147.281 79.2881 150.657 76.997 154.047 74.8145C155.355 73.9719 156.463 73.4158 157.899 72.9316C158.132 72.9066 158.35 72.9585 158.555 73.0873C158.636 72.7407 158.831 72.4841 159.142 72.3167C159.696 72.02 160.487 71.9143 160.806 71.2984C160.465 72.4548 160.29 73.6454 160.165 74.8419C159.888 74.5198 159.611 74.1976 159.335 73.8755C159.104 76.0546 156.832 74.7357 155.475 75.0079C156.369 76.2435 157.008 76.6925 157.085 78.3257C156.419 77.0978 155.028 76.2905 153.734 75.895C154.437 77.9717 154.933 79.2044 154.226 81.4819C153.371 80.9943 153.314 79.8232 152.277 79.5427C152.004 80.9008 151.955 82.4077 151.605 83.7256C148.951 82.5159 149.21 85.7739 150.275 87.3861C150.842 88.2438 151.121 89.2366 151.626 90.0601C152.866 92.0795 151.924 89.0594 153.303 89.2029C152.993 91.333 152.886 91.5449 154.445 93.1047C155.968 94.6258 156.757 96.7363 158.386 98.1654C158.857 97.5632 158.116 96.9331 158.051 96.3569C159.566 96.611 160.276 98.1291 161.732 96.7843C162.368 98.0214 163.055 99.3839 164.576 99.638C163.571 97.7277 166.508 99.0231 167.261 99.2943C167.832 99.4999 168.855 99.6634 169.076 99.7427C170.317 100.191 169.466 99.3868 170.219 100.855C171.325 100.522 171.742 99.6047 173.065 100.379C174.141 101.009 174.143 102.088 174.389 103.194C174.645 102.471 174.904 101.748 175.187 101.035C175.476 101.156 176.687 102.488 176.555 102.494C179.389 102.355 179.289 104.114 178.476 106.364ZM164.048 70.3144C164.617 69.9154 165.312 70.4466 165.951 70.3036C166.836 70.1063 167.339 69.349 168.327 69.2677C168.052 70.146 167.536 70.0637 167.099 70.7535C166.951 70.9885 167.028 71.5525 166.896 71.6876C165.788 72.8215 165.405 71.8962 164.274 71.038C164.373 72.0729 164.572 72.3999 163.596 72.6775C162.713 72.9292 161.255 72.0024 160.81 71.2916C161.185 70.5406 163.367 70.7922 164.048 70.3144ZM171.099 68.6969C172.059 68.7884 170.903 71.6171 169.528 68.8731C170.045 68.7605 170.57 68.7017 171.099 68.6969ZM176.033 68.15C177.546 67.8416 182.593 66.4042 183.155 68.758C183.256 68.6993 183.631 67.3706 183.806 67.5327C184.504 68.1823 184.583 69.0435 184.529 69.9457C183.684 68.1872 183.985 69.7318 183.412 69.6114C183.263 69.5795 183.034 69.8586 182.656 69.7435C182.16 69.5923 181.804 68.5373 181.491 68.1799C180.969 68.924 180.323 69.8821 179.278 69.8175C178.539 69.7719 177.347 67.8695 178.305 69.9521C177.742 69.7666 177.092 69.3465 176.465 69.4307C175.764 69.5252 175.4 70.217 174.742 70.3286C173.285 70.5753 173.066 69.1742 172.12 68.4134C173.424 68.3375 174.744 68.4124 176.033 68.15ZM185.187 68.1275C185.294 67.6448 186.618 67.4499 186.955 67.6032C187.778 67.9767 187.474 68.4697 187.323 69.2902C186.712 69.0014 186.101 68.713 185.491 68.4242C186.402 69.8909 184.751 70.1039 185.187 68.1275ZM441.499 154.043C441.391 150.527 441.288 146.952 440.397 143.53C439.772 141.135 438.239 136.84 435.34 136.425C430.967 135.797 428.545 144.434 427.32 147.399C427.075 143.909 427.289 140.193 425.97 136.88C424.913 134.225 422.245 131.711 419.946 134.692C417.901 137.346 417.508 141.263 416.97 144.455C416.272 148.592 415.853 152.761 415.344 156.923C413.346 153.065 412.997 148.65 411.418 144.641C409.929 140.858 407.585 137.245 405.326 133.88C403.483 131.132 401.239 128.548 398.35 126.868C395.836 125.405 391.438 123.824 389.042 126.252C387.042 128.279 387.355 130.99 387.459 133.547C387.506 134.686 387.684 135.467 386.682 136.041C386.19 136.323 385.42 136.177 384.879 136.328C384.007 136.571 383.338 136.983 382.601 137.531C377.429 141.372 375.045 148.294 374.308 154.466C373.374 162.285 376.424 168.988 379.049 176.143C379.467 177.283 380.796 179.702 380.612 180.975C380.411 182.369 378.659 182.406 377.477 182.434C373.907 182.523 370.176 182.257 366.624 181.924C358.166 181.134 349.716 177.065 342.143 173.432C340.762 172.769 338.807 172.39 337.679 171.346C336.619 170.365 336.34 168.793 335.425 167.667C333.179 164.906 331.748 162.549 328.441 160.88C325.073 159.182 321.637 157.612 318.351 155.751C314.288 153.449 310.533 150.533 306.639 147.955C299.403 143.166 292.216 137.916 284.544 133.844C280.979 131.951 276.995 131.645 273.294 130.095C269.689 128.587 265.265 128.585 261.504 129.537C259.672 130.002 258.425 131.102 256.74 131.821C254.765 132.663 253.154 131.733 251.416 130.728C248.761 129.193 246.129 126.691 249.91 125.035C251.193 124.473 252.8 124.26 253.92 123.377C255.115 122.435 256.073 120.698 257.044 119.519C259.203 116.897 260.493 113.879 263.653 112.249C267.147 110.446 271.289 109.955 275.015 108.777C279.052 107.5 283.004 105.983 286.966 104.493C294.104 101.808 301.524 98.909 306.653 92.999C311.077 87.9001 313.005 81.3189 312.826 74.6343C312.461 60.969 305.136 47.1006 294.626 38.5567C281.738 28.0799 265.343 24.5864 249.064 24.7695C241.424 24.8556 232.306 25.8549 225.932 30.4935C220.425 34.5001 219.509 41.5078 220.328 47.8335C220.661 50.4008 221.797 53.7886 219.985 56.0508C218.971 57.3164 217.151 57.6297 215.785 58.4189C214.069 59.4103 212.555 60.3605 210.611 60.8848C202.353 63.1133 193.655 62.3374 185.212 62.214C171.147 62.0084 156.73 65.8138 146.238 75.7177C137.765 83.7148 135.224 98.7949 145.557 106.591C153.907 112.89 167.003 112.197 176.847 111.098C179.9 110.757 182 110.262 182.006 113.994C182.014 118.071 181.338 122.332 182.379 126.335C184.019 132.639 190.08 132.789 195.439 131.431C198.267 130.715 201 129.638 203.686 128.51C207.624 126.856 211.234 124.423 215.124 122.772C217.761 121.653 219.735 125.272 222.074 122.763C222.506 122.3 222.586 121.608 223.238 121.371C224.26 120.999 225.973 122.302 226.869 122.715C228.211 123.332 229.563 123.786 230.099 125.272C230.601 126.663 230.381 128.873 229.9 130.245C228.857 133.227 226.047 132.637 223.481 132.438C219.006 132.09 214.561 131.352 210.087 131.042C206.074 130.764 202.316 131.963 198.854 133.94C191.583 138.094 185.634 144.702 179.33 150.135C176.085 152.932 172.949 155.952 169.42 158.387C167.886 159.446 166.224 160.42 164.891 161.736C163.568 163.041 163.423 164.228 162.97 165.964C162.164 169.057 158.162 170.569 155.66 172.201C152.122 174.508 148.372 176.136 144.406 177.552C136.006 180.55 127.541 182.643 118.76 184.191C114.461 184.948 110.198 185.446 105.857 185.856C102.115 186.208 98.1356 187.36 94.3982 186.44C95.4747 184.695 97.382 183.647 98.8676 182.298C100.783 180.56 102.412 178.5 103.861 176.365C106.683 172.209 108.661 167.749 109.116 162.707C109.525 158.17 109.056 152.742 106.316 148.909C105.37 147.585 103.498 147.225 102.651 146.032C101.808 144.847 102.129 142.806 101.668 141.423C100.495 137.907 97.0111 133.55 93.9455 131.508C90.6196 129.292 85.7543 128.477 81.9122 129.632C74.7946 131.772 70.4225 139.373 67.1656 145.516C65.3864 141.775 68.3659 136.225 64.8902 133.161C61.9587 130.577 59.632 135.583 58.6514 137.725C54.0489 147.779 53.0037 158.443 51.0753 169.201C50.2894 168.427 50.6921 166.44 50.766 165.517C50.9035 163.798 50.8908 162.112 50.8942 160.385C50.9035 156.025 51.7148 151.644 51.3429 147.288C51.1281 144.769 50.3247 139.459 46.6631 140.296C43.5579 141.005 41.6128 145.369 40.6371 148.037C39.2298 151.885 38.9049 155.694 38.9925 159.759C39.0894 164.25 38.2331 168.668 38.0256 173.153C37.6224 181.865 38.0207 190.501 40.5221 198.909C44.6182 212.677 54.0362 224.117 66.6058 231.025C73.5311 234.831 81.2139 237.239 89.113 237.757C93.3936 238.038 97.5259 237.528 101.77 237.086C105.958 236.65 110.168 236.448 114.349 235.936C123.659 234.795 132.732 231.849 141.195 227.885C145.649 225.799 149.839 223.237 154.22 221.013C155.978 220.121 157.167 219.004 158.667 217.763C160.154 216.533 160.566 216.437 162.258 216.437C161.762 215.11 163.21 214.701 163.855 213.862C163.818 214.269 163.782 214.676 163.746 215.083C164.237 214.018 164.695 214.028 165.118 215.114C165.536 213.898 165.846 212.648 166.351 211.463C168.282 212.44 168.12 214.762 170.703 213.067C172.83 211.671 174.785 210.026 176.954 208.658C181.893 205.543 186.151 201.489 191.105 198.409C191.105 201.409 191.317 204.434 190.915 207.419C190.534 210.256 189.473 212.909 188.63 215.625C187.075 220.637 186.968 225.994 185.245 230.955C184.532 233.01 182.675 234.729 182.142 236.729C181.6 238.769 182.853 240.405 180.752 241.745C179.27 242.689 177.418 243.088 175.777 243.659C173.274 244.531 170.898 245.761 168.462 246.805C157.034 251.698 145.888 256.681 135.3 263.261C125.253 269.504 115.051 275.952 105.821 283.367C97.8107 289.802 89.7129 298.123 87.763 308.621C85.8708 318.803 90.9122 329.733 101.035 333.086C106.299 334.83 112.25 334.614 117.731 334.69C123.629 334.771 129.879 333.351 135.678 332.323C141.802 331.237 147.822 329.539 153.963 328.569C159.856 327.639 165.261 325.56 171.058 324.279C177.232 322.915 183.564 322.175 189.771 320.947C192.566 320.394 195.305 319.579 198.107 319.068C201.175 318.508 204.277 318.298 207.315 317.556C213.208 316.117 218.85 313.797 224.769 312.458C227.43 311.855 230.05 311.049 232.712 310.487C235.163 309.969 237.072 308.592 239.529 309.722C241.513 310.636 243.096 312.202 244.974 313.293C247.41 314.708 249.978 315.976 252.517 317.193C257.62 319.64 262.912 321.331 268.247 323.168C273.851 325.098 279.355 327.298 285.16 328.573C291.112 329.879 297.184 330.243 303.177 331.276C315.452 333.392 327.621 334.342 340.08 334.419C346.378 334.458 352.675 333.712 358.957 333.8C364.52 333.879 369.355 335.131 374.441 332.176C382.568 327.455 391.994 320.343 391.794 310.013C391.613 300.657 385.996 291.718 380.729 284.339C374.331 275.377 365.21 269.067 356.271 262.885C346.744 256.297 336.042 251.745 326.029 245.995C320.907 243.054 316.185 239.89 310.624 237.8C307.969 236.803 305.38 235.647 302.757 234.572C300.646 233.708 297.598 233.231 295.791 231.797C294.664 230.903 294.556 229.548 294.258 228.218C293.599 225.275 292.563 222.483 291.559 219.645C289.62 214.163 288.332 208.581 287.498 202.832C286.704 197.352 284.941 191.653 285.854 186.084C291.86 191.889 298.031 197.47 304.176 203.121C306.479 205.239 308.739 207.401 311.054 209.507C312.792 211.087 314.965 213.434 317.388 213.903C320.481 214.503 319.351 211.082 321.476 210.553C322.774 210.229 326.689 213.525 327.716 214.177C334.222 218.304 341.426 220.92 348.582 223.729C356.086 226.675 363.803 229.292 371.877 230.034C379.335 230.72 386.962 229.839 394.159 227.809C408.492 223.765 419.04 214.171 426.78 201.734C435.6 187.562 442.018 170.96 441.499 154.043Z" fill="black"/>
<path fill-rule="evenodd" clip-rule="evenodd" d="M222.436 123.147C222.434 123.152 222.412 123.198 222.412 123.198C222.439 123.18 222.447 123.163 222.436 123.147Z" fill="black"/>
<path fill-rule="evenodd" clip-rule="evenodd" d="M223.128 123.33C223.074 122.879 222.958 122.437 222.78 122.004C222.306 122.756 221.881 123.078 222.505 123.874C222.712 123.693 222.92 123.511 223.128 123.33Z" fill="black"/>
<path fill-rule="evenodd" clip-rule="evenodd" d="M256.18 230.769C256.71 230.205 255.782 229.992 255.43 229.984C255.464 230.59 255.164 232.041 255.993 232.322C255.794 231.774 255.857 231.256 256.18 230.769Z" fill="black"/>
<path fill-rule="evenodd" clip-rule="evenodd" d="M242.179 112.676C241.267 114.436 243.281 114.982 244.448 114.132C245.326 113.492 245.845 111.863 245.989 110.817C246.455 107.433 244.086 104.212 242.905 101.21C242.599 100.434 242.181 97.7726 241.198 97.6994C240.069 97.6154 239.985 100.067 239.97 100.699C239.927 102.607 240.432 104.549 241.025 106.349C241.663 108.29 243.244 110.62 242.179 112.676Z" fill="black"/>
<path fill-rule="evenodd" clip-rule="evenodd" d="M246.517 105.616C250.023 108.736 252.828 103.54 252.583 100.466C252.522 99.7043 252.007 96.8966 250.562 97.9184C249.836 98.4318 250.455 100.1 250.109 100.832C248.432 104.383 246.817 98.8755 245.688 98.4428C244.314 97.916 244.176 99.7201 244.178 100.684C244.181 102.598 245.093 104.348 246.517 105.616Z" fill="black"/>
<path fill-rule="evenodd" clip-rule="evenodd" d="M233.79 106.1C234.616 104.801 235.631 103.058 235.743 101.501C235.917 99.0807 234.506 99.2826 233.345 100.971C232.524 102.164 231.909 104.187 230.098 103.684C227.862 103.064 228.545 100.06 227.294 98.6318C224.133 102.874 230.114 111.883 233.79 106.1Z" fill="black"/>
<path fill-rule="evenodd" clip-rule="evenodd" d="M238.527 119.083C239.835 119.366 243.243 119.262 242.062 117.261C240.573 114.741 235.62 118.455 238.527 119.083Z" fill="black"/>
<path fill-rule="evenodd" clip-rule="evenodd" d="M284.327 43.9404C284.567 43.2283 284.238 43.0989 283.667 42.5381C283.127 43.0365 283.819 43.5608 284.327 43.9404Z" fill="black"/>
<path fill-rule="evenodd" clip-rule="evenodd" d="M308.712 172.932C309.575 173.069 309.852 172.613 309.545 171.564C308.184 171.476 307.907 171.932 308.712 172.932Z" fill="black"/>
<path fill-rule="evenodd" clip-rule="evenodd" d="M261.615 62.8954C262.566 63.3301 262.202 64.2219 262.185 64.9756C262.675 64.4434 263.665 63.4705 263.262 62.7061C262.641 61.5275 261.019 62.6235 261.615 62.8954Z" fill="black"/>
<path fill-rule="evenodd" clip-rule="evenodd" d="M229.209 48.0612C229.064 47.7784 228.919 47.4957 228.774 47.2129C228.183 47.6867 227.271 48.9395 228.21 49.5501C228.595 49.0833 228.928 48.587 229.209 48.0612Z" fill="black"/>
<path fill-rule="evenodd" clip-rule="evenodd" d="M240.624 56.3767C241.807 57.3043 241.24 54.4571 241.204 54.2246C241.028 54.5586 240.026 55.9081 240.624 56.3767Z" fill="black"/>
<path fill-rule="evenodd" clip-rule="evenodd" d="M239.968 54.9308C239.877 54.6956 239.786 54.4603 239.696 54.2246C239.216 54.6685 238.628 55.575 239.421 56.0944C239.638 55.7306 239.821 55.3429 239.968 54.9308Z" fill="black"/>
<path fill-rule="evenodd" clip-rule="evenodd" d="M247.485 64.7076C247.582 64.7968 247.679 64.886 247.775 64.9756C248.165 64.1886 247.722 63.5973 246.984 63.5732C247.037 64.0151 247.204 64.3932 247.485 64.7076Z" fill="black"/>
<path fill-rule="evenodd" clip-rule="evenodd" d="M215.767 153.245C216.237 152.926 216.663 152.562 217.047 152.153C215.657 151.304 216.49 153.144 214.817 152.014C214.457 152.512 215.045 153.626 215.767 153.245Z" fill="black"/>
<path fill-rule="evenodd" clip-rule="evenodd" d="M274.163 230.452C274.692 229.642 274.787 229.665 274.065 229.05C273.463 230.051 273.526 229.794 274.163 230.452Z" fill="black"/>
<path fill-rule="evenodd" clip-rule="evenodd" d="M163.721 101.473C164.008 101.772 164.296 102.072 164.584 102.372C164.718 101.98 165.45 100.871 164.953 100.502C164.542 100.826 164.131 101.149 163.721 101.473Z" fill="black"/>
<path fill-rule="evenodd" clip-rule="evenodd" d="M173.953 104.439C173.493 104.362 172.395 104.027 172.141 104.454C172.813 105.004 174.329 104.502 173.953 104.439Z" fill="black"/>
</svg>
