<svg width="340" height="470" viewBox="0 0 340 470" fill="none" xmlns="http://www.w3.org/2000/svg">
<path fill-rule="evenodd" clip-rule="evenodd" d="M182.37 234.044C183.861 234.323 186.333 238.456 187.345 239.631C190.608 243.42 193.871 247.208 197.134 250.997C198.44 252.513 200.323 254.106 201.253 255.861C201.969 257.211 202.215 259.072 202.642 260.519C207.948 278.493 213.137 296.584 217.002 314.908C217.834 318.852 218.623 322.824 219.086 326.828C219.314 328.807 219.914 331.715 219.025 333.628C218.022 335.783 214.795 336.679 212.699 337.347C208.621 338.648 204.351 339.422 200.127 340.117C189.948 341.791 179.642 342.764 169.355 343.55C166.212 343.791 162.977 343.786 159.854 344.196C158.362 344.391 158.809 344.003 158.339 344.974C157.685 346.324 158.119 349.141 158.041 350.613C157.858 354.075 157.676 357.536 157.492 360.999L155.995 389.328C155.489 398.902 154.984 408.475 154.477 418.049C154.286 421.676 154.094 425.304 153.903 428.932C153.8 430.871 154.105 433.374 153.569 435.252C153.162 436.672 153.83 436.253 152.034 436.337C147.873 436.532 143.562 436.044 139.401 435.899C134.681 435.736 129.96 435.572 125.239 435.409C123.891 435.362 122.385 435.732 121.841 434.796C121.18 433.655 121.683 430.52 121.637 429.246C121.506 425.697 121.375 422.148 121.244 418.599C120.884 408.856 120.525 399.114 120.165 389.371C119.675 376.085 119.183 362.797 118.693 349.51C113.444 350.534 108.194 351.557 102.945 352.581C95.1883 354.093 87.4313 355.606 79.6742 357.118C76.1168 357.812 71.8918 359.395 68.2182 358.885C64.5694 358.377 63.0611 356.867 62.8562 353.511C62.6364 349.913 62.722 346.287 62.7717 342.686C62.8537 336.796 63.0282 330.908 63.2579 325.021C73.6218 324.117 83.9862 323.212 94.35 322.307C99.8685 321.825 105.388 321.344 110.905 320.862C112.158 320.753 115.245 320.987 115.804 320.072C116.674 318.65 115.706 313.974 115.68 312.366L115.433 297.159L114.527 241.208C117.008 241.287 119.49 241.358 121.971 241.426C132.766 241.721 143.615 242.149 154.414 241.827C159.829 241.666 164.96 240.25 170.072 238.58C172.791 237.692 175.482 236.725 178.151 235.708C178.991 235.388 181.464 233.874 182.37 234.044ZM167.734 286.096L162.218 312.235L181.091 311.023L167.734 286.096Z" fill="#EC6226"/>
<path fill-rule="evenodd" clip-rule="evenodd" d="M325.367 74.1076C324.982 77.015 325.256 80.1846 321.869 80.951C318.735 81.6609 315.296 81.4617 312.1 81.7102C308.509 81.9899 304.928 82.3719 301.344 82.716C296.826 83.1497 297.47 81.4672 296.483 77.7278C295.58 74.3134 294.139 70.9055 292.941 67.5753C292.384 66.0274 291.719 64.6036 290.96 63.1448C290.272 61.8243 290.599 60.0281 289.858 58.9182C287.328 55.1314 274.991 65.4866 273.845 63.4455C275.932 61.8707 279.545 60.1087 280.185 57.4137C280.938 54.2465 278.861 53.3008 276.252 54.4588C269.83 57.3096 262.419 59.5378 255.415 60.5767C257.68 59.1095 278.167 47.5456 271.291 44.1155C269.742 43.3425 267.672 44.7977 266.275 45.3481C264.057 46.2222 261.74 46.8081 259.425 47.3808C256.985 47.9842 254.54 48.5647 252.086 49.1133C250.366 49.4983 247.299 50.8657 245.622 50.5282C243.92 50.1853 246.935 49.1614 247.429 48.9202C249.582 47.8693 251.7 46.7402 253.801 45.5966C257.529 43.5675 260.973 41.2172 263.808 38.0801C265.948 35.7129 269.481 30.5437 267.991 27.2706C267.128 25.3733 265.236 23.6197 264.125 21.8222C262.827 19.7228 261.78 17.485 260.653 15.2977C262.539 16.1014 264.657 16.3071 266.582 17.0284C268.507 17.7503 270.463 18.3344 272.466 18.871C276.484 19.9472 280.491 20.1385 284.473 21.0113C288.981 21.9991 293.678 23.1036 298.258 23.6744C302.245 24.1707 305.831 25.2283 309.248 27.3349C316.225 31.6385 321.065 37.8208 323.513 45.466C324.947 49.9447 325.296 54.6176 325.465 59.2773C325.643 64.1903 326.017 69.2163 325.367 74.1076ZM286.21 74.4692C281.338 77.9107 275.658 80.6003 270.43 83.5281C267.438 85.2029 264.382 86.7681 261.33 88.3382C259.165 89.4523 256.533 91.5024 254.15 92.0739C252.641 92.4354 252.754 92.4631 251.8 91.1306C250.887 89.8583 250.091 88.4886 249.237 87.1784C247.663 84.7625 246.074 82.3557 244.485 79.9488C240.923 74.5534 237.368 69.1592 233.625 63.8787C229.871 58.5801 226.269 53.1841 222.632 47.8103C220.941 45.312 219.261 42.8041 217.467 40.3744C216.097 38.5192 212.585 35.6894 214.253 33.5052C215.802 31.4761 219.331 29.7905 221.418 28.2547C223.969 26.3797 226.535 24.5238 229.079 22.6392C234.548 18.5876 239.873 14.3598 245.337 10.3029C249.974 18.184 255.429 25.5724 260.932 32.8994C255.956 35.9764 250.929 38.9012 245.686 41.5354C241.813 43.4809 235.888 46.1097 233.442 49.8003C231.032 53.4343 233.399 57.6272 237.695 57.694C240.263 57.7337 242.824 57.0744 245.342 56.6978C247.16 56.4259 250.48 55.156 252.119 56.0511C249.173 57.8727 238.484 63.1815 244.246 67.8357C248.364 71.163 255.327 66.3078 259.776 67.307C258.42 69.8287 257.01 73.8514 260.774 75.2229C263.906 76.3647 268.006 74.237 270.825 73.1084C272.862 72.2933 274.886 71.4505 276.889 70.5608C278.482 69.8528 280.389 68.4187 282.091 68.1131C284.077 67.7563 288.12 73.1193 286.21 74.4692ZM195.635 260.335C198.423 259.842 199.855 258.725 200.732 262.005C201.519 264.943 202.298 267.773 203.312 270.656C198.957 271.021 195.116 273.035 191.941 275.869C189.68 277.889 185.183 282.708 186.298 286.09C189.006 294.307 202.686 275.873 204.312 273.903C206.302 276.721 207.034 280.411 208.023 283.634C208.727 285.928 211.34 290.325 207.886 290.883C203.037 291.666 193.94 293.416 194.515 300.07C195.195 307.925 205.506 307.88 211.291 308.233C214.552 308.432 214.567 310.964 215.032 313.798C215.24 315.066 215.889 316.779 214.778 317.707C213.792 318.53 210.772 318.553 209.488 318.82C205.747 319.598 202.008 320.392 198.267 321.169C194.02 322.052 191.774 320.816 187.804 319.688C186.334 319.271 184.857 319.447 184.749 317.852C184.683 316.874 185.671 315.361 185.995 314.393C187.276 310.563 188.367 306.621 188.735 302.6C189.271 296.757 188.602 287.996 181.177 286.856C177.645 286.314 176.966 286.137 175.371 282.924C173.646 279.451 170.908 276.234 171.57 272.232C172.049 269.333 171.241 263.846 173.151 261.441C174.034 260.329 175.755 259.666 176.93 258.85C178.427 257.809 179.868 256.695 181.264 255.53C182.437 254.551 183.868 252.636 185.198 251.928C186.824 251.063 186.873 251.653 188.041 253.004C189.764 254.999 192.503 260.889 195.635 260.335ZM203.515 273.316C202.549 275.206 200.316 276.962 198.894 278.54C197.463 280.126 196.11 281.802 194.514 283.24C192.758 284.823 186.521 288.645 187.895 283.5C188.965 279.498 192.966 276.257 196.487 274.26C197.169 273.872 205.15 270.12 203.515 273.316ZM210.338 292.369C210.956 295.048 211.289 297.809 211.817 300.507C212.087 301.886 213.584 305.218 212.974 306.545C211.94 308.793 202.635 306.131 200.706 305.358C196.114 303.516 194.006 298.788 198.241 295.42C199.846 294.144 209.719 289.691 210.338 292.369ZM216.438 324.54C216.957 327.098 218.473 329.469 215.966 331.402C213.885 333.007 210.475 334.102 207.911 334.674C204.415 335.452 203.291 333.554 201.441 331.113C199.452 328.488 197.334 325.952 195.136 323.487C202.037 321.99 208.937 320.493 215.838 318.996C215.834 320.86 216.067 322.715 216.438 324.54ZM199.904 336.409C196.305 336.228 192.433 337.278 188.783 337.554C184.225 337.899 179.68 338.401 175.119 338.697C176.287 335.083 178.386 331.861 180.029 328.448C181.676 325.022 182.833 324.652 186.623 324.388C190.134 324.143 192.611 322.972 195.203 325.859C197.899 328.861 200.341 332.124 202.803 335.307C201.966 335.85 200.965 336.462 199.904 336.409ZM174.18 337.146C173.292 337.773 170.554 335.991 169.631 335.646C167.836 334.974 167.438 334.757 166.501 333.061C165.696 331.602 164.416 329.944 164.164 328.279C163.831 326.085 164.833 323.195 165.198 321.014C166.17 323.284 169.36 323.548 171.515 323.919C173.145 324.201 177.974 323.752 179.203 324.877C180.561 326.12 178.061 329.586 177.41 330.891C176.632 332.449 175.672 336.093 174.18 337.146ZM172.44 338.947C171.371 339.115 168.296 340.144 168.358 338.253C168.426 336.093 172.658 338.423 172.44 338.947ZM167.021 338.834C166.826 340.653 162.786 340.502 162.694 338.902C162.537 336.198 167.331 335.929 167.021 338.834ZM162.402 289.778C161.369 292.628 155.079 293.648 152.663 294.526C150.457 295.327 143.866 299.026 141.591 297.684C149.292 292.556 157.183 287.531 163.707 280.983C163.974 282.6 163.567 283.951 163.075 285.482C162.631 286.864 162.859 288.515 162.402 289.778ZM160.487 300.172C159.379 307.154 158.292 314.227 156.792 321.139C153.935 320.293 151.578 318.578 148.576 317.981C145.837 317.436 143.007 317.423 140.245 317.821C134.359 318.669 129.112 321.491 123.976 324.24C123.502 319.452 122.52 314.328 122.636 309.523C122.732 305.532 129.78 304.35 132.977 302.701C134.912 301.704 136.661 300.301 138.864 299.953C141.132 299.595 143.32 299.606 145.56 298.936C150.856 297.353 155.84 294.843 161.028 292.972C161.452 295.368 160.863 297.81 160.487 300.172ZM155.538 329.72C155.303 331.307 155.6 334.139 154.352 335.349C153.177 336.488 150.666 336.525 149.117 336.834C144.395 337.775 139.678 338.726 134.964 339.697C132.855 340.131 130.745 340.546 128.627 340.934C127.617 341.119 125.083 342.058 124.232 341.279C123.425 340.539 124.026 338.176 124.069 337.185C124.156 335.204 124.272 333.218 124.143 331.237C123.897 327.437 124.116 325.982 127.766 324.016C131.643 321.927 135.648 320.497 140.012 319.723C144.431 318.939 148.641 319.368 152.847 321.011C154.017 321.468 155.773 322.032 156.318 323.255C157.058 324.919 155.788 328.034 155.538 329.72ZM150.223 390.972C148.493 392.024 144.727 391.845 142.739 392.058C139.529 392.402 136.298 392.206 133.109 391.725C130.709 391.365 127.126 390.865 125.286 389.231C122.672 386.911 125.689 386.805 127.689 386.968C133.505 387.442 139.394 387.111 145.205 386.704C146.336 386.624 149.377 385.662 150.468 386.112C151.862 386.688 151.435 390.236 150.223 390.972ZM146.925 428.471C136.089 427.451 129.807 418.756 125.878 409.867C123.768 405.095 124.529 400.088 124.321 395.041C124.283 394.12 123.686 391.832 124.664 391.144C125.583 390.496 129.3 392.497 130.305 392.735C135.459 393.96 141.159 394.077 146.324 392.888C148.562 392.373 149.815 391.415 150.526 393.564C151.098 395.294 150.159 398.483 150.057 400.297C149.88 403.434 150.387 428.797 146.925 428.471ZM125.279 428.481C125.237 426.958 124.444 411.567 125.214 411.52C127.5 416.299 129.848 420.574 134.01 424.089C136.136 425.886 138.526 427.505 141.185 428.469C142.184 428.832 147.844 429.107 148.122 430.307C148.607 432.409 144.743 431.561 143.597 431.39C142.677 431.252 141.85 430.873 140.947 430.714C139.229 430.412 137.604 430.818 135.878 430.852C133.256 430.903 130.68 430.637 128.056 430.857C125.658 431.057 125.343 430.79 125.279 428.481ZM126.878 359.447C136.155 356.541 143.907 362.044 148.803 369.246C151.595 373.353 152.219 376.224 151.73 381.087C151.555 382.828 151.878 384.007 150.227 384.716C148.592 385.419 144.878 384.898 143.109 384.978C138.022 385.208 132.954 385.514 127.867 385.222C124.562 385.032 124.096 384.49 124.153 381.382C124.221 377.64 123.9 373.915 123.681 370.167C123.445 366.113 122.008 360.972 126.878 359.447ZM123.843 354.057C123.848 351.308 123.678 348.488 123.852 345.743C124.024 343.021 125.219 343.156 127.871 342.691C133.612 341.686 139.346 340.56 145.01 339.196C147.25 338.657 149.781 337.623 152.115 337.614C154.564 337.605 154.435 338.825 154.271 340.927C153.908 345.581 153.028 350.166 152.761 354.796C152.472 359.793 152.32 364.854 152.343 369.856C152.351 371.544 152.775 372.795 151.29 371.215C149.802 369.632 149.074 367.109 147.746 365.331C145.026 361.688 140.983 358.758 136.497 357.524C134.016 356.842 131.407 356.724 128.878 357.217C128.111 357.367 124.268 359.145 123.778 358.794C123.447 358.556 123.842 354.169 123.843 354.057ZM157.779 449.341C161.458 451.894 165.532 453.956 169.657 455.747C171.978 456.755 181.165 458.875 181.458 461.143C181.614 462.353 180.092 463.709 179.095 463.852C177.83 464.034 175.746 463.233 174.457 463.082C169.772 462.531 165.096 462.527 160.524 461.263C151.397 458.739 141.934 458.028 132.712 455.827C130.517 455.304 128.318 454.813 126.113 454.339C124.018 453.888 123.079 453.965 123.005 451.796C122.842 447.035 124.251 442.157 124.263 437.337C131.723 438.162 139.209 438.151 146.691 438.83C149.896 439.121 149.822 439.71 151.226 442.424C152.685 445.24 155.165 447.528 157.779 449.341ZM121.402 294.652C121.308 292.889 121.234 291.122 121.069 289.364C120.959 288.183 119.845 284.882 120.473 283.963C121.219 282.871 121.97 283.537 123.304 283.507C125.064 283.466 126.536 282.781 127.987 281.884C130.734 280.187 132.776 277.952 134.558 275.344C136.127 273.048 135.835 269.912 135.816 267.163C135.766 260.056 136.301 253.124 135.853 245.985C135.647 242.706 138.536 244.717 140.868 245.141C144.684 245.836 148.831 245.355 152.708 245.364C152.564 246.238 144.635 248.408 143.354 249.234C140.074 251.347 138.162 254.729 138.461 258.583C139.063 266.339 147.877 267.635 154.318 267.65C148.974 272.229 143.726 276.594 139.527 282.242C136.43 286.406 130.976 294.617 136.039 299.224C131.564 301.687 127.129 304.427 122.068 305.612C121.841 301.959 121.598 298.306 121.402 294.652ZM119.37 153.084C121.192 154.218 121.958 152.615 123.345 151.784C125.298 150.614 125.944 150.729 126.192 148.117C126.65 143.271 124.546 138.885 121.905 134.92C120.705 133.117 119.507 130.971 117.813 129.562C116.268 128.278 114.706 128.72 113.275 127.392C112.713 126.87 112.834 126.133 111.905 126.154C111.293 126.168 109.807 128.004 109.301 128.409C107.706 129.69 105.754 130.664 103.662 129.608C100.617 128.072 101.595 122.496 103.96 120.689C105.781 119.298 107.934 119.513 110.007 119.289C111.561 119.121 111.885 119.186 111.245 117.462C110.797 116.255 109.764 115.313 109.254 114.132C108.273 111.865 108.486 109.109 108.063 106.709C107.682 104.559 106.792 102.234 106.825 100.05C106.867 97.2696 107.804 96.5471 110.29 95.7675C112.699 95.0125 114.693 93.348 116.745 91.9494C119.067 90.3661 121.61 89.3205 123.996 87.875C125.616 86.8932 126.662 84.9087 128.443 85.8357C130.56 86.9372 132.798 90.126 134.598 91.7557C131.964 93.3757 131.352 94.0843 131.715 97.2558C132.048 100.163 132.659 102.754 134.953 104.78C135.834 105.558 137.477 106.181 138.16 107.079C138.957 108.124 138.439 107.203 138.338 108.383C138.285 109.019 137.765 109.436 137.878 110.171C138.384 113.439 142.257 111.51 143.854 110.375C149.557 106.32 138.908 103.099 136.378 101.621C134.632 100.6 133.768 97.3424 136.535 98.208C138.376 98.7837 142.535 103.665 142.957 99.2157C147.522 101.785 150.339 107.244 154.167 110.696C156.927 113.185 160.635 115.946 158.444 119.922C155.652 124.99 150.116 127.29 145.061 129.477C140.159 131.597 141.177 137.598 143.797 141.271C145.312 143.395 147.297 144.639 149.685 145.671C152.125 146.725 152.631 147.964 153.164 150.41C153.756 153.123 153.128 154.217 150.703 155.618C148.336 156.987 145.861 158.313 143.334 159.385C137.87 161.702 132.201 161.848 126.389 162.638C124.351 162.915 122.398 163.491 121.287 161.534C120.037 159.332 119.945 155.539 119.37 153.084ZM118.492 142.544C117.124 141.846 113.822 144.166 112.093 144.268C109.296 144.432 107.459 144.37 104.976 145.808C100.282 148.526 96.3873 152.025 92.6234 155.82C88.3839 160.094 84.1686 164.39 79.9434 168.677C78.0285 170.619 76.1038 172.55 74.1585 174.463C72.6255 175.97 71.1266 178.09 69.2292 179.166C69.3279 177.888 70.1363 176.984 70.4231 175.799C70.5902 175.107 70.2984 174.519 70.4064 173.856C70.4418 173.641 71.0385 172.893 71.1291 172.647C71.3713 171.999 71.6674 171.359 71.9549 170.687C72.2231 170.059 72.184 169.408 72.456 168.752C72.736 168.076 73.5022 167.628 73.7679 166.962C74.5472 165.013 73.2576 164.11 71.1949 164.156C72.0021 160.256 72.3548 158.348 76.5626 156.973C80.5829 155.659 84.5101 154.184 88.2032 152.131C91.4822 150.308 94.2179 147.681 97.3702 145.65C100.192 143.831 103.705 141.925 103.676 138.194C105.276 139.246 106.776 140.131 108.606 139.084C110.151 138.2 110.356 137.488 112.141 137.322C113.599 137.186 114.503 137.15 115.803 137.772C117.335 138.502 117.544 139.01 118.435 136.859C119.449 137.686 122.011 141.128 121.925 142.491C121.878 143.242 121.761 143.58 120.801 143.778C119.439 144.059 119.492 143.055 118.492 142.544ZM112.113 346.29C111.448 347.278 108.642 347.096 107.559 347.083C104.255 347.041 103.1 344.355 101.651 341.759C99.3664 337.667 95.9514 329.165 99.6998 324.87C102.658 321.48 108.421 325.751 110.439 328.312C112.182 330.524 111.665 333.841 111.827 336.495C111.963 338.733 113.428 344.339 112.113 346.29ZM103.089 347.772C101.769 349.052 97.4826 348.781 95.7329 349.056C92.6097 349.546 89.504 350.135 86.474 351.029C84.2183 351.694 81.9886 353.484 81.3938 350.437C80.8946 347.876 81.143 344.803 81.1908 342.217C81.2423 339.428 81.5435 336.674 81.7937 333.897C81.9632 332.019 81.5391 328.564 83.1212 327.123C84.4846 325.881 87.7996 325.761 89.5698 325.35C92.4762 324.674 95.5131 323.787 98.5344 324.089C96.7716 328.726 96.622 333.587 98.512 338.207C99.0509 339.526 103.905 346.982 103.089 347.772ZM80.8772 329.302C80.1408 336.276 79.4001 343.294 80.1092 350.303C80.152 350.721 80.6674 352.636 80.4432 352.935C80.2116 353.246 78.3775 353.406 77.9609 353.502C76.3068 353.882 74.6552 354.285 72.9906 354.622C69.7507 355.279 69.3279 353.295 68.6921 350.385C67.3305 344.151 69.9705 337.392 71.57 331.405C72.3492 328.489 72.9266 328.153 75.8852 327.912C77.9441 327.744 81.1902 326.339 80.8772 329.302ZM68.3661 355.321C67.128 356.412 65.8906 351.263 65.7813 350.739C65.3485 348.655 65.5895 346.541 65.5957 344.425C65.6062 341.12 65.3454 337.829 65.3405 334.539C65.3374 332.76 63.9615 329.121 66.1346 328.18C66.7723 327.904 69.3055 328.019 69.8805 328.382C71.0745 329.138 70.6038 329.627 70.2499 330.942C69.4577 333.892 68.7728 336.856 68.083 339.831C67.4062 342.747 66.7387 345.554 67.061 348.566C67.1672 349.562 69.1553 354.625 68.3661 355.321ZM107.852 322.827C110.87 322.003 111.031 324.243 111.026 326.388C110.566 326.046 106.277 323.257 107.852 322.827ZM67.4795 165.407C66.74 166.588 62.0559 166.91 60.7173 167.221C58.084 167.832 55.4496 168.439 52.8231 169.076C47.9025 170.268 43.103 171.613 38.0588 172.237C40.8286 167.939 41.6904 164.228 41.1751 158.865C40.525 152.094 39.6986 145.392 38.0898 138.764C36.5041 132.228 34.6681 125.736 32.8997 119.243C32.0311 116.054 31.0917 112.925 29.9362 109.822C29.0098 107.334 27.5631 104.203 29.1352 101.653C33.1251 104.474 36.3252 107.513 38.6008 111.798C41.0391 116.391 43.1675 121.107 45.997 125.502C47.2909 127.511 48.8016 129.343 50.1856 131.288C51.0089 132.445 51.6087 134.115 52.6574 135.091C53.8663 136.216 55.1552 136.747 55.8463 134.848C56.5877 132.811 54.2227 128.779 53.5248 126.865C51.839 122.246 50.1676 117.636 48.8674 112.898C47.8156 109.067 46.0771 104.437 46.6924 100.395C47.3015 96.3943 50.103 99.2578 51.5205 101.118C54.4431 104.953 56.1928 109.423 58.1126 113.77C59.8772 117.765 61.9355 121.573 63.8882 125.474C64.5675 126.832 65.4628 130.339 67.2423 130.743C69.8289 131.331 69.6098 127.801 69.3627 126.368C67.7235 116.874 63.4442 107.783 62.5564 98.1232C62.5135 97.6618 61.8951 94.0729 62.3924 93.7733C63.3567 93.1922 64.6575 96.8329 65.0735 97.725C67.2373 102.365 68.7442 107.256 70.127 112.158C71.303 116.326 72.3666 120.526 73.6866 124.655C74.4118 126.924 75.2432 129.156 76.0628 131.394C76.8041 133.422 77.5567 136.888 79.4901 138.224C82.2333 140.119 92.0497 135.613 93.0444 139.642C93.7522 142.506 84.6498 144.812 82.7114 145.682C80.1595 146.827 77.656 148.081 75.1029 149.227C73.17 150.093 70.3921 150.449 68.9938 152.08C67.5124 153.809 67.2752 156.235 67.2311 158.379C67.197 160.002 68.3574 164.006 67.4795 165.407ZM61.2761 196.68C61.1463 197.58 60.4081 198.772 60.0759 199.628C59.3997 201.374 58.8248 203.459 57.8841 205.089C57.0751 206.493 55.8811 207.748 55.0994 209.173C54.358 210.526 54.2593 212.085 53.3931 213.439C52.4022 214.986 50.7642 216.099 49.7801 217.637C49.2952 218.395 48.7941 219.262 48.1087 220.07C45.6816 222.931 43.2719 225.631 41.3198 228.697C40.8206 229.482 38.3823 232.908 37.4118 233.093C35.3833 233.479 37.7446 230.685 38.1414 230.107C41.0155 225.927 43.568 221.527 46.3422 217.282C49.0295 213.172 51.7794 209.094 54.3655 204.922C56.4747 201.521 57.9331 196.638 61.3611 194.242C61.3742 195.057 61.3462 195.869 61.2761 196.68ZM154.995 158.266C156.665 164.917 158.662 171.362 160.544 177.954C162.29 184.07 164.614 190.615 165.338 196.92C166.055 203.166 167.703 209.485 169.919 215.413C170.944 218.157 171.997 220.91 173.109 223.621C173.72 225.111 174.403 226.566 175.097 228.021C175.635 229.151 177.058 230.981 177.112 232.179C177.156 233.138 177.5 232.755 176.523 233.475C175.512 234.222 173.759 233.951 172.582 234.082C169.509 234.426 166.513 235.547 163.518 236.272C157.742 237.671 150.857 238.781 144.938 237.808C142.448 237.398 139.862 237.043 137.4 236.51C134.371 235.853 133.748 234.638 133.126 231.753C131.767 225.446 130.596 219.155 129.473 212.805C128.138 205.252 126.693 197.708 125.663 190.109C124.623 182.421 123.875 174.725 122.245 167.121C128.822 168.187 135.016 169.39 141.612 167.644C147.454 166.097 151.671 163.075 154.995 158.266ZM180.742 240.607C182.212 243.544 178.668 246.185 176.951 248.446C174.686 251.428 172.57 254.543 169.936 257.24C169.145 254.175 168.452 250.727 166.343 248.21C163.65 244.996 160.506 246.309 157.207 244.789C160.667 243.158 165.085 243.78 168.756 242.326C172.377 240.891 176.033 239.765 179.402 237.901C179.85 238.803 180.292 239.707 180.742 240.607ZM167.909 309.124C165.698 309.243 167.177 304.724 167.321 303.601C167.716 300.513 168.115 297.427 168.461 294.334C170.285 298.997 172.11 303.66 173.933 308.322C171.928 308.599 169.937 309.015 167.909 309.124ZM164.312 331.476C164.614 332.126 166.02 334.291 164.91 334.691C163.387 335.237 163.204 331.651 164.312 331.476ZM161.673 281.245C154.628 286.696 147.631 292.161 140.009 296.854C138.338 297.882 136.656 298.312 135.549 296.273C134.679 294.67 135.598 292.864 136.156 291.295C137.58 287.294 140.059 283.815 142.806 280.559C148.294 274.056 154.825 268.502 163.159 265.938C164.522 265.518 166.627 264.253 167.105 266.001C167.386 267.029 166.196 269.596 165.954 270.561C164.959 274.546 165.176 278.537 161.673 281.245ZM181.953 320.997C182.109 325.626 169.052 321.892 167.425 321.065C169.132 320.511 181.883 318.917 181.953 320.997ZM186.802 321.026C187.577 321.227 190.553 321.481 189.441 322.466C188.447 323.348 183.942 322.995 182.748 323.103C183.55 320.549 184.159 320.345 186.802 321.026ZM184.383 314.826C184.091 315.856 183.973 317.427 183.02 318.133C181.834 319.012 179.312 318.478 177.969 318.485C175.688 318.497 173.409 318.61 171.139 318.829C170.271 318.913 166.753 319.94 165.939 319.24C165.341 318.725 165.564 316.309 165.999 315.767C166.893 314.651 168.952 315.037 170.242 314.992C174.963 314.829 179.659 314.816 184.383 314.826ZM181.352 297.719C180.686 296.759 180.566 296.769 180.282 295.32C179.978 293.768 179.205 292.441 178.751 290.942C177.751 287.643 180.946 287.936 183.289 289.146C189.368 292.284 187.9 303.249 186.397 308.383C184.212 306.826 183.405 306.12 182.653 303.608C182.368 302.653 182.047 301.715 181.75 300.766C181.531 300.067 181.683 298.197 181.352 297.719ZM181.878 244.349C183.575 244.151 185.128 249.253 184.643 250.358C183.651 252.616 179.859 254.634 177.928 256.076C176.642 257.036 175.365 258.136 173.991 258.973C172.715 259.75 171.981 259.314 170.795 259.687C169.078 260.226 168.662 261.986 166.905 262.743C164.432 263.807 161.436 264.105 158.853 265.066C155.72 266.233 152.849 266.265 149.564 265.712C144.839 264.917 139.301 262.646 139.727 257.083C140.478 247.268 160.593 242.239 166.079 250.561C167.507 252.727 167.485 255.252 168.412 257.579C169.416 260.097 170.389 259.107 171.899 257.253C173.875 254.826 175.71 252.269 177.608 249.785C178.222 248.982 180.653 244.494 181.878 244.349ZM58.6043 339.912C58.5081 341.581 58.6112 343.274 58.012 344.867C57.4085 346.473 56.1847 347.772 55.48 349.333C54.0513 352.496 54.0618 356.324 54.119 359.714C54.2518 367.601 56.1791 375.261 57.1986 383.054C53.8054 383.046 50.298 383.083 47.0091 382.143C44.0716 381.303 43.6028 379.223 42.772 376.602C40.4393 369.238 37.9197 361.907 37.1666 354.196C36.8083 350.522 36.6574 346.818 36.4861 343.131C36.3364 339.897 37.0858 338.487 40.0984 336.886C46.6464 333.405 53.4341 330.507 59.9151 326.861C59.2526 331.187 58.8564 335.547 58.6043 339.912ZM338.142 81.4966C336.548 81.2133 334.939 81.0358 333.33 80.8499C332.49 80.7525 329.874 80.8878 329.246 80.3579C328.499 79.7268 329.793 74.9558 329.86 73.932C330.264 67.775 329.794 61.4279 329.211 55.2944C328.156 44.1907 324.553 33.904 316.238 25.9086C312.1 21.9287 307.448 18.7711 301.796 17.2473C298.503 16.3594 295.11 15.886 291.81 15.0252C289.148 14.3298 286.664 13.5339 283.898 13.2584C278.383 12.7086 273.34 10.6891 267.958 9.52088C263.998 8.66124 257.629 6.62255 255.061 10.9556C253.04 8.65884 251.007 6.93416 248.458 5.22091C246.017 3.57985 245.618 1.94059 242.628 3.83551C236.82 7.51767 231.379 12.0095 225.954 16.1988C220.887 20.1114 215.984 24.2086 210.674 27.8066C205.258 31.4767 206.285 37.7047 208.831 42.8679C213.624 52.5861 221.015 60.8943 227.485 69.2248C231.537 74.4433 235.603 79.6685 239.639 84.8973C243.498 89.895 246.835 95.6791 251.344 100.169C254.188 102.999 257.581 99.2981 260.146 97.5878C263.331 95.4637 266.46 93.2608 269.648 91.1427C276.287 86.7308 283.392 82.5987 290.401 78.7583C290.911 80.1588 291.42 81.5592 291.93 82.9596C290.391 83.0715 288.311 82.7383 287.528 84.342C286.408 86.6328 289.155 86.9336 289.636 88.2468C290.066 89.4198 288.303 92.5179 287.781 93.5748C286.608 95.9564 284.97 98.0095 283.166 99.97C276.028 107.728 266.995 113.278 257.83 118.567C248.022 124.227 237.51 127.682 226.773 131.329C221.313 133.183 215.646 134.045 210.012 135.232C204.583 136.377 199.158 137.879 193.611 138.311C182.261 139.194 170.217 139.855 159.004 137.483C157.776 137.224 156.477 136.662 155.229 136.555C154.228 136.469 153.486 136.875 152.541 136.928C150.512 137.04 149.349 135.282 147.738 136.916C146.931 137.732 146.917 139.105 145.793 137.58C144.363 135.64 148.018 135.264 149.372 134.711C153.932 132.85 157.597 129.104 160.494 125.316C163.389 121.532 163.805 117.49 162.042 113.059C160.28 108.63 156.272 105.627 153.263 102.03C151.808 100.289 150.469 98.4463 148.871 96.8202C148.018 95.9516 146.643 95.1202 146.589 94.2443C146.527 93.2265 147.156 92.7206 146.78 91.4832C146.683 91.1613 146.265 90.9785 146.177 90.6247C146.036 90.0611 146.254 89.5774 146.18 89.0282C146.011 87.7685 145.502 86.9775 144.78 85.9452C144.331 85.3003 143.673 84.0094 143.055 83.5263C141.971 82.6793 140.492 83.0246 139.39 82.1662C137.646 80.8084 137.033 77.9474 135.49 76.2991C133.318 73.9795 132.855 76.3232 130.553 75.5839C128.586 74.951 128.609 72.0822 127.019 71.1119C124.779 69.7451 122.893 72.2596 120.904 72.8197C118.288 73.5566 119.293 70.6962 116.961 70.4357C114.855 70.1999 111.938 74.3398 110.887 75.8101C109.817 74.6015 108.647 72.5424 106.722 73.2799C104.701 74.0547 104.341 77.6593 102.864 78.9454C102.349 79.3924 102.458 79.7226 101.825 79.9284C101.007 80.1936 99.9171 79.0435 98.8597 79.3942C96.7269 80.1016 96.9871 82.8598 96.9827 84.6464C94.4662 84.2903 92.7109 84.1086 91.8684 86.7368C91.0438 89.3091 90.7309 88.174 88.0778 89.0095C85.7904 89.7296 85.4706 91.8345 85.0931 93.893C84.8597 95.1732 85.0757 95.6959 85.4309 96.8629C85.8792 98.3332 85.8792 98.3145 85.1484 99.718C83.8749 102.166 83.7986 104.864 83.5949 107.558C83.3788 110.434 82.8598 113.051 83.7029 115.859C84.2245 117.597 84.2642 119.962 86.0208 120.935C86.7174 121.321 87.9008 121.11 88.4938 121.492C89.6257 122.222 89.2811 123.334 90.0349 124.401C90.5999 125.199 91.5107 125.276 92.1434 125.923C92.8314 126.628 92.8724 127.486 93.2642 128.346C94.424 130.892 95.5149 132.123 91.7343 132.269C89.4022 132.358 86.9142 133.036 84.5914 132.828C81.8502 132.583 81.1684 131.098 80.2961 128.838C75.8989 117.445 73.5357 105.097 67.7446 94.2636C66.473 91.885 61.2537 82.1674 59.0477 89.2478C57.1874 95.2195 59.6282 102.507 60.5639 108.451C57.6277 105.887 56.5417 101.268 54.3121 98.137C52.6654 95.824 47.5089 90.1435 44.4863 93.3985C42.104 95.9642 42.6994 101.404 43.139 104.472C43.8338 109.324 45.4338 114 46.5769 118.759C45.1377 116.935 44.428 114.708 43.4296 112.654C42.1772 110.079 40.6144 107.635 38.8337 105.371C37.2777 103.394 35.5379 101.555 33.6516 99.8689C32.2099 98.5792 29.6276 95.7567 27.5799 95.6039C22.3103 95.2123 23.9675 104.579 24.7703 107.257C26.4337 112.808 28.2374 118.205 29.5289 123.868C32.0535 134.93 35.1114 145.737 36.971 156.941C37.3826 159.425 37.8787 161.408 36.8648 163.796C35.9713 165.899 35.0443 168.415 33.3958 170.033C29.6642 173.696 26.566 177.607 23.7769 182.021C20.7891 186.748 17.7138 191.53 15.2749 196.548C14.1536 198.857 13.2365 201.354 11.9475 203.575C10.7839 205.579 9.38506 207.163 8.55802 209.382C4.606 219.986 1.6797 230.404 0.339799 241.633C-0.760434 250.851 0.264671 263.113 11.7507 265.27C17.0271 266.261 21.7645 263.994 26.5225 262.122C31.4437 260.187 35.0021 257.041 39.0162 253.698C44.0039 249.543 49.1822 245.645 54.2227 241.56C59.2656 237.472 63.9236 232.939 68.9392 228.808C73.8934 224.726 78.375 220.391 82.6592 215.652C86.9093 210.95 90.3615 205.741 94.4762 200.974C94.4606 207.146 93.515 213.262 93.2499 219.426C93.0071 225.078 93.0015 230.724 93.2368 236.373C93.4722 242.019 91.933 247.393 91.9205 253.026C91.9075 258.521 91.6827 263.985 91.5586 269.474C91.5027 271.937 91.0047 274.699 91.9541 277.075C92.6631 278.849 94.8915 279.403 96.7927 279.882C99.7308 280.62 108.571 279.198 109.883 282.239C110.599 283.899 109.878 286.921 109.933 288.755C110.027 291.777 110.141 294.799 110.248 297.82C110.358 300.941 110.466 304.062 110.583 307.182C110.687 309.932 111.239 312.995 110.897 315.717C110.605 318.05 109.201 317.745 106.976 317.864C103.618 318.044 100.259 318.189 96.8995 318.331C91.9715 318.54 86.8285 318.444 82.1041 319.008C80.1197 319.244 77.9516 319.144 75.8585 319.529C73.2333 320.013 70.8087 320.136 68.1463 320.264C65.9999 320.367 63.2406 320.216 61.5542 321.753C60.9693 322.287 60.8383 322.923 60.4236 323.517C59.6468 324.629 60.079 324.337 58.8043 324.587C53.8259 325.564 49.0978 326.666 44.2293 328.31C41.7923 329.133 39.5309 330.238 37.0827 331.013C34.9369 331.691 33.3642 332.527 32.3037 334.568C30.4087 338.213 30.8886 343.487 31.0259 347.416C31.2419 353.545 32.647 359.381 34.1627 365.308C35.7391 371.475 36.9753 377.807 40.0419 383.473C41.0497 385.334 42.1375 387.709 44.1958 388.68C46.8532 389.932 50.94 389.173 53.8402 389.178C55.7867 389.181 61.0004 389.829 62.4552 388.247C63.864 386.716 62.4465 382.396 62.2478 380.496C61.5505 373.836 60.2957 367.114 60.3124 360.408C61.9001 362.681 64.6531 366.605 67.4081 363.122C68.0861 362.265 67.8216 361.867 69.0255 361.37C69.6917 361.095 71.0956 360.927 71.8208 360.974C72.8074 361.039 73.1725 361.423 74.079 361.235C74.8812 361.068 75.7834 360.372 76.7035 360.16C88.1076 357.534 99.4458 354.703 110.899 352.363C113.927 351.744 113.497 353.997 113.697 356.533C113.918 359.339 113.496 362.173 113.898 364.947C114.247 367.362 114.519 369.714 114.027 372.143C113.446 375.007 113.82 377.397 114.398 380.233C116.626 391.171 116.228 403.035 116.73 414.152C116.992 419.942 116.431 425.853 116.992 431.612C117.205 433.787 118.458 434.989 118.966 436.968C119.549 439.24 117.959 442.133 117.475 444.334C116.503 448.752 114.796 455.075 117.919 458.919C119.605 460.996 121.816 461.297 124.313 461.999C127.301 462.839 130.246 463.818 133.248 464.614C144.216 467.523 156.068 468.093 167.309 469.696C170.062 470.088 172.615 470.051 175.385 469.865C177.093 469.751 181.299 470.295 182.719 469.305C183.48 468.775 183.094 468.111 183.481 467.463C184.03 466.543 184.695 466.169 185.63 465.596C187.179 464.648 188.97 464.094 189.231 462.137C189.87 457.341 183.686 454.801 180.38 452.728C176.155 450.078 171.051 449.054 166.567 446.891C164.093 445.698 161.706 444.345 159.322 442.991C158.288 442.404 156.193 441.739 155.473 440.815C154.738 439.871 155.457 438.525 155.761 437.177C157.018 431.607 156.593 425.912 157.243 420.283C157.894 414.645 157.717 408.972 157.931 403.305C158.152 397.47 158.649 391.648 159.031 385.821C159.382 380.439 159.737 374.97 159.796 369.583C159.851 364.587 160.554 359.685 160.72 354.657C160.777 352.95 160.461 349.854 161.63 348.409C162.656 347.141 166.052 347.3 167.635 347.077C171.905 346.477 175.968 345.951 180.189 345.589C190.232 344.727 201.409 344.093 210.907 340.701C214.823 339.302 220.035 337.391 221.335 333.033C222.829 328.023 220.878 321.865 220.814 316.743C220.745 311.274 219.109 305.938 217.882 300.639C216.56 294.935 215.728 289.132 214.301 283.449C212.991 278.234 210.866 273.616 208.858 268.665C208.042 266.657 203.401 259.738 204.841 258.031C205.616 257.112 208.41 256.879 209.543 256.459C211.986 255.553 214.433 254.523 216.685 253.234C219.692 251.511 226.277 248.662 226.58 244.836C226.869 241.178 223.161 237.482 221.276 234.611C218.238 229.982 214.407 225.936 211.514 221.216C205.668 211.678 201.019 201.23 196.756 190.952C194.527 185.574 193.798 180.51 193.431 174.769C199.906 174.785 206.496 175.556 212.93 174.679C219.932 173.724 226.943 172.116 233.883 170.791C246.523 168.377 258.658 165.651 270.366 160.215C281.331 155.125 292.456 149.554 301.534 141.475C306.228 137.297 311.017 133.039 315.07 128.261C319.234 123.354 322.367 117.778 325.579 112.268C329.125 106.187 331.948 99.7962 334.179 93.1441C334.628 91.8068 334.631 90.1038 335.205 88.8405C335.853 87.4142 337.032 87.3769 338.263 86.6255C339.995 85.5686 341.148 82.0314 338.142 81.4966Z" fill="black"/>
<path fill-rule="evenodd" clip-rule="evenodd" d="M187.4 13.4208C188.88 14.6529 195.26 18.9932 197.32 17.9378C199.863 16.635 195.837 12.7105 194.754 11.743C193.375 10.5121 188.447 6.7882 186.56 7.13388C182.789 7.82525 186.068 12.3118 187.4 13.4208Z" fill="black"/>
<path fill-rule="evenodd" clip-rule="evenodd" d="M190.551 57.9662C191.388 56.3713 193.612 55.785 194.64 54.2416C195.878 52.3862 196.446 50.7626 195.99 48.4873C192.823 49.5204 189.219 52.6473 187.1 55.0927C185.329 57.1362 182.813 61.4064 187.435 61.4172C187.395 60.8093 187.355 60.2008 187.314 59.5935C188.7 59.7887 189.921 59.1682 190.551 57.9662Z" fill="black"/>
<path fill-rule="evenodd" clip-rule="evenodd" d="M175.462 31.4306C177.504 31.9993 179.189 31.9188 181.275 31.9633C182.789 31.996 184.858 32.8023 186.084 31.8935C184.996 31.2825 186.372 31.2488 186.102 30.653C185.876 30.1564 185.446 30.3191 185.096 29.9171C183.85 28.4846 182.766 28.5021 180.79 28.2042C179.259 27.9722 177.007 27.4373 175.536 28.1749C173.987 28.9514 173.388 30.8529 175.462 31.4306Z" fill="black"/>
<path fill-rule="evenodd" clip-rule="evenodd" d="M204.527 75.3679C205.848 74.2946 207.287 71.1872 207.555 69.5841C207.659 68.956 207.192 68.4747 207.247 68.0123C207.354 67.1314 209.223 65.4283 207.266 64.7054C205.554 64.0726 203.945 68.9885 203.509 70.0612C203.063 71.1582 201.847 73.2953 202.221 74.3568C202.53 75.2371 203.636 76.0919 204.527 75.3679Z" fill="black"/>
<path fill-rule="evenodd" clip-rule="evenodd" d="M220.325 8.83264C221.52 7.75808 222.276 6.5394 222.152 5.06172C222.054 3.8977 221.154 -0.115467 220.142 0.00254926C216.78 0.395729 218.291 10.6625 220.325 8.83264Z" fill="black"/>
<path fill-rule="evenodd" clip-rule="evenodd" d="M149.354 188.256C149.078 187.275 148.072 181.275 146.333 181.684C145.012 181.995 146.384 187.274 146.446 187.969C146.575 189.422 143.691 189.375 142.352 189.179C140.227 188.867 140.398 187.661 140.08 185.789C139.96 185.082 139.5 181.885 137.978 183.056C136.949 183.847 137.684 187.789 137.77 188.688C138.067 191.803 138.416 197.123 140.327 199.952C141.089 201.08 141.774 201.637 142.575 200.19C143.385 198.726 141.551 194.263 141.23 192.765C142.743 192.909 147.097 192.433 148.008 193.956C148.84 195.345 147.509 199.315 150.178 199.637C151.762 199.829 151.475 198.051 151.323 196.685C151.003 193.817 150.135 191.026 149.354 188.256Z" fill="black"/>
<path fill-rule="evenodd" clip-rule="evenodd" d="M153.409 186.868C151.656 187.636 153.857 198.825 156.422 198.464C159.416 198.042 155.079 186.137 153.409 186.868Z" fill="black"/>
<path fill-rule="evenodd" clip-rule="evenodd" d="M151.455 183.163C151.239 185.682 154.618 186.622 154.778 183.884C154.901 181.771 151.683 180.514 151.455 183.163Z" fill="black"/>
<path fill-rule="evenodd" clip-rule="evenodd" d="M132.91 116.365C134.453 121.936 148.492 124.305 146.601 116.793C145.654 113.032 141.698 116.373 138.936 115.936C137.148 115.653 131.824 112.438 132.91 116.365Z" fill="black"/>
<path fill-rule="evenodd" clip-rule="evenodd" d="M129.384 106.43C130.044 103.449 123.316 100.16 120.875 100.98C117.303 102.181 117.318 109.858 120.043 111.899C120.402 112.168 121.501 112.808 122.039 112.298C122.888 111.49 121.96 111.71 121.762 110.904C121.447 109.622 120.418 107.976 121.443 106.517C123.381 103.762 128.439 110.701 129.384 106.43Z" fill="black"/>
<path fill-rule="evenodd" clip-rule="evenodd" d="M108.868 120.898C106.442 120.766 104.453 124.415 108.022 124.109C108.705 124.05 110.174 123.884 110.57 123.188C111.227 122.035 109.934 120.956 108.868 120.898Z" fill="black"/>
<path fill-rule="evenodd" clip-rule="evenodd" d="M226.556 33.9162C225.725 32.7523 223.985 30.8793 222.487 32.0467C221.159 33.0819 221.391 35.637 221.9 36.9066C223.27 40.3248 226.508 43.3698 230.171 41.4005C228.899 38.93 228.181 36.1945 226.556 33.9162Z" fill="black"/>
</svg>
